<svg width="36" height="36" viewBox="0 0 36 36" fill="none" xmlns="http://www.w3.org/2000/svg">
<path d="M29.664 17.9867C29.664 24.4619 24.48 29.4981 18 29.4981C11.664 29.4981 6.47998 24.4619 6.47998 17.9867C6.47998 11.6553 11.664 6.47516 18 6.47516C24.48 6.47516 29.664 11.6553 29.664 17.9867Z" fill="#FDCF00"/>
<path d="M27.792 26.1887C28.368 25.6131 29.52 23.7425 29.952 22.4474C31.248 23.4547 32.688 25.1814 33.696 27.052C31.536 27.052 29.376 26.7643 27.792 26.1887Z" fill="#FDCF00"/>
<path d="M22.464 30.0738C23.328 29.6421 23.184 29.786 24.48 29.0665C25.488 28.3471 24.768 28.9226 26.208 27.7715C27.216 30.7933 27.072 33.6711 27.072 33.6711C27.072 33.6711 24.48 32.2322 22.464 30.0738Z" fill="#FDCF00"/>
<path d="M15.84 30.6494C18.576 30.9371 18.72 30.6494 19.584 30.6494C20.016 30.6494 20.304 30.6494 20.304 30.6494C19.872 32.52 18.864 34.6784 18 35.9734C16.992 34.2467 16.272 32.3761 15.84 30.6494Z" fill="#FDCF00"/>
<path d="M9.79201 27.7715C10.368 28.3471 12.384 29.4982 13.68 29.9299C12.528 31.2249 10.8 32.6639 9.07201 33.6711C8.92801 31.5127 9.36001 29.2104 9.79201 27.7715Z" fill="#FDCF00"/>
<path d="M6.04798 22.4474C6.47998 23.3108 6.33598 23.1669 7.05598 24.462C7.63198 25.4692 7.05598 24.7497 8.20798 26.1887C5.32798 27.1959 2.44798 27.052 2.44798 27.052C2.44798 27.052 3.74398 24.462 6.04798 22.4474Z" fill="#FDCF00"/>
<path d="M5.472 15.8283C5.328 17.4111 5.328 16.8356 5.328 17.9867C5.328 18.5623 5.328 19.1379 5.328 19.5695C5.472 20.0012 5.472 20.289 5.472 20.289C3.6 19.8573 1.44 18.8501 0 17.9867C1.728 16.9795 3.744 16.26 5.472 15.8283Z" fill="#FDCF00"/>
<path d="M8.35198 9.7848C8.35198 9.7848 8.06398 10.0726 7.91998 10.3604C7.19998 11.3676 6.47998 12.3749 6.04798 13.6699C4.89598 12.5188 3.45598 10.7921 2.44798 9.06533C4.46398 8.92144 6.76798 9.35312 8.35198 9.7848Z" fill="#FDCF00"/>
<path d="M13.68 6.04351C11.664 6.90687 10.8 7.48245 9.93598 8.20192C8.92798 5.32404 9.07198 2.44617 9.07198 2.44617C9.07198 2.44617 11.664 3.74121 13.68 6.04351Z" fill="#FDCF00"/>
<path d="M20.304 5.46796C17.424 5.18017 17.28 5.32407 16.56 5.32407C16.128 5.46796 15.84 5.46796 15.84 5.46796C16.272 3.59734 17.136 1.58283 18.144 0C19.008 1.58283 19.872 3.59734 20.304 5.46796Z" fill="#FDCF00"/>
<path d="M26.208 8.34581C25.776 7.77023 23.76 6.47519 22.464 6.04351C23.472 4.89236 25.2 3.45342 27.072 2.44617C27.072 4.60457 26.784 6.76298 26.208 8.34581Z" fill="#FDCF00"/>
<path d="M30.096 13.6699C29.664 12.8065 29.808 12.9504 29.088 11.6554C28.368 10.6481 28.944 11.3676 27.792 9.78474C30.816 8.92137 33.696 9.06527 33.696 9.06527C33.696 9.06527 32.256 11.6554 30.096 13.6699Z" fill="#FDCF00"/>
<path d="M30.672 20.289C30.816 18.7062 30.816 19.2818 30.816 17.9867C30.816 17.555 30.672 16.9795 30.672 16.5478C30.672 16.1161 30.672 15.8283 30.672 15.8283C32.544 16.26 34.704 17.1234 36 17.9867C34.56 18.994 32.544 19.8573 30.672 20.289Z" fill="#FDCF00"/>
<path d="M29.52 17.9867C29.52 24.4619 24.48 29.4981 18 29.4981C11.664 29.4981 6.47998 24.4619 6.47998 17.9867C6.47998 11.6553 11.664 6.47516 18 6.47516C24.48 6.47516 29.52 11.6553 29.52 17.9867Z" fill="#FDCF00"/>
<path d="M33.696 27.052C31.536 27.052 29.376 26.7643 27.792 26.1887C28.368 25.6131 29.52 23.7425 29.952 22.4474C31.248 23.4547 32.688 25.1814 33.696 27.052Z" fill="#FDCF00"/>
<path d="M27.072 33.6711C27.072 33.6711 24.48 32.2322 22.464 30.0738C23.328 29.6421 23.184 29.786 24.48 29.0665C25.488 28.3471 24.768 28.9226 26.208 27.7715C27.216 30.7933 27.072 33.6711 27.072 33.6711Z" fill="#FDCF00"/>
<path d="M20.304 30.6494C19.872 32.52 18.864 34.6784 18 35.9734C16.992 34.2467 16.272 32.3761 15.84 30.6494C16.848 30.6494 17.568 30.7932 18 30.7932C18.864 30.7932 19.008 30.6494 19.584 30.6494C20.016 30.6494 20.304 30.6494 20.304 30.6494Z" fill="#FDCF00"/>
<path d="M9.79201 27.7715C10.368 28.3471 12.384 29.4982 13.68 29.9299C12.528 31.2249 10.8 32.6639 9.07201 33.6711C8.92801 31.5127 9.36001 29.2104 9.79201 27.7715Z" fill="#FDCF00"/>
<path d="M6.04798 22.4474C6.47998 23.3108 6.33598 23.1669 7.05598 24.462C7.63198 25.4692 7.05598 24.7497 8.20798 26.1887C5.32798 27.1959 2.44798 27.052 2.44798 27.052C2.44798 27.052 3.74398 24.462 6.04798 22.4474Z" fill="#FDCF00"/>
<path d="M5.472 15.8283C5.328 17.4111 5.328 16.8356 5.328 17.9867C5.328 18.5623 5.328 19.1379 5.328 19.5695C5.472 20.0012 5.472 20.289 5.472 20.289C3.6 19.8573 1.44 18.8501 0 17.9867C1.728 16.9795 3.744 16.26 5.472 15.8283Z" fill="#FDCF00"/>
<path d="M8.35198 9.7848C8.35198 9.7848 8.06398 10.0726 7.91998 10.3604C7.19998 11.3676 6.47998 12.3749 6.04798 13.6699C4.89598 12.5188 3.45598 10.7921 2.44798 9.06533C4.46398 8.92144 6.76798 9.35312 8.35198 9.7848Z" fill="#FDCF00"/>
<path d="M13.68 6.04351C11.664 6.90687 10.8 7.48245 9.93598 8.20192C8.92798 5.32404 9.07198 2.44617 9.07198 2.44617C9.07198 2.44617 11.664 3.74121 13.68 6.04351Z" fill="#FDCF00"/>
<path d="M20.304 5.46796C19.152 5.32407 18.576 5.32407 18 5.32407C17.28 5.32407 16.992 5.32407 16.56 5.32407C16.128 5.46796 15.84 5.46796 15.84 5.46796C16.272 3.59734 17.136 1.58283 18 0.143894C18 0.143894 18 0 18.144 0C19.008 1.58283 19.872 3.59734 20.304 5.46796Z" fill="#FDCF00"/>
<path d="M26.208 8.34581C25.776 7.77023 23.76 6.47519 22.464 6.04351C23.472 4.89236 25.2 3.45342 27.072 2.44617C27.072 4.60457 26.784 6.76298 26.208 8.34581Z" fill="#FDCF00"/>
<path d="M33.696 9.06527C33.696 9.06527 32.256 11.6554 30.096 13.6699C29.664 12.8065 29.808 12.9504 29.088 11.6554C28.368 10.6481 28.944 11.3676 27.792 9.78474C30.816 8.92137 33.696 9.06527 33.696 9.06527Z" fill="#FDCF00"/>
<path d="M30.816 17.9867C30.816 17.555 30.672 16.9795 30.672 16.5478C30.672 16.1161 30.672 15.8283 30.672 15.8283C32.544 16.26 34.704 17.1234 36 17.9867C34.56 18.994 32.544 19.8573 30.672 20.289C30.816 18.7062 30.816 19.2818 30.816 17.9867Z" fill="#FDCF00"/>
<path d="M20.304 5.46796C19.152 5.32407 18.576 5.32407 18 5.32407V0.143894C18 0.143894 18 0 18.144 0C19.008 1.58283 19.872 3.59734 20.304 5.46796Z" fill="#FCE000"/>
<path d="M19.584 30.6494C20.016 30.6494 20.304 30.6494 20.304 30.6494C19.872 32.52 18.864 34.6784 18 35.9734V30.7932C18.864 30.7932 19.008 30.6494 19.584 30.6494Z" fill="#FCE000"/>
<path d="M18 29.4981V6.47516C24.48 6.47516 29.52 11.6553 29.52 17.9867C29.52 24.4619 24.48 29.4981 18 29.4981Z" fill="#FCE000"/>
<path d="M26.208 27.7715C27.216 30.7933 27.072 33.6711 27.072 33.6711C27.072 33.6711 24.48 32.2322 22.464 30.0738C23.328 29.6421 23.184 29.786 24.48 29.0665C25.488 28.3471 24.768 28.9226 26.208 27.7715Z" fill="#FCE000"/>
<path d="M26.208 8.34581C25.776 7.77023 23.76 6.47519 22.464 6.04351C23.472 4.89236 25.2 3.45342 27.072 2.44617C27.072 4.60457 26.784 6.76298 26.208 8.34581Z" fill="#FCE000"/>
<path d="M33.696 27.052C31.536 27.052 29.376 26.7643 27.792 26.1887C28.368 25.6131 29.52 23.7425 29.952 22.4474C31.248 23.4547 32.688 25.1814 33.696 27.052Z" fill="#FCE000"/>
<path d="M29.088 11.6554C28.368 10.6481 28.944 11.3676 27.792 9.78474C30.816 8.92137 33.696 9.06527 33.696 9.06527C33.696 9.06527 32.256 11.6554 30.096 13.6699C29.664 12.8065 29.808 12.9504 29.088 11.6554Z" fill="#FCE000"/>
<path d="M30.816 17.9867C30.816 17.555 30.672 16.9795 30.672 16.5478C30.672 16.1161 30.672 15.8283 30.672 15.8283C32.544 16.26 34.704 17.1234 36 17.9867C34.56 18.994 32.544 19.8573 30.672 20.289C30.816 18.7062 30.816 19.2818 30.816 17.9867Z" fill="#FCE000"/>
<path d="M28.224 17.9868H27.072C27.072 13.0944 23.04 9.06537 18 9.06537V7.77032C23.616 7.77032 28.224 12.3749 28.224 17.9868Z" fill="#FEFEFE"/>
<path d="M24.768 17.9867C24.768 21.7279 21.744 24.7497 18 24.7497C14.4 24.7497 11.376 21.7279 11.376 17.9867C11.376 14.3893 14.4 11.3676 18 11.3676C21.744 11.3676 24.768 14.3893 24.768 17.9867Z" fill="#FDCF00"/>
<path d="M18 11.3676V24.7497C14.4 24.7497 11.376 21.7279 11.376 17.9867C11.376 14.3893 14.4 11.3676 18 11.3676Z" fill="#FCE000"/>
</svg>
