<svg width="36" height="36" viewBox="0 0 36 36" fill="none" xmlns="http://www.w3.org/2000/svg">
<path d="M16.0126 15.6459C16.0126 19.1638 13.2871 22.0008 9.76657 22.0008C6.35963 22.0008 3.52051 19.1638 3.52051 15.6459C3.52051 12.2414 6.35963 9.40442 9.76657 9.40442C13.2871 9.40442 16.0126 12.2414 16.0126 15.6459Z" fill="#FDCF00"/>
<path d="M15.1041 20.1851C15.3312 19.8446 16.0126 18.8233 16.2397 18.0289C16.9211 18.7098 17.7161 19.6177 18.2839 20.639C17.1483 20.639 15.899 20.412 15.1041 20.1851Z" fill="#FDCF00"/>
<path d="M12.1514 22.2278C12.6057 22.0008 12.6057 22.0008 13.2871 21.6604C13.8549 21.3199 13.4006 21.6604 14.1956 20.9795C14.7634 22.5682 14.6498 24.157 14.6498 24.157C14.6498 24.157 13.2871 23.4761 12.1514 22.2278Z" fill="#FDCF00"/>
<path d="M8.63091 22.4547C10.1072 22.6817 10.2208 22.5682 10.5615 22.5682C10.7886 22.5682 11.0158 22.4547 11.0158 22.4547C10.7886 23.5895 10.2208 24.7243 9.76655 25.4052C9.19873 24.4973 8.74447 23.476 8.63091 22.4547Z" fill="#FDCF00"/>
<path d="M5.33753 20.9795C5.67823 21.3199 6.70031 22.0008 7.3817 22.2278C6.81388 22.9087 5.90536 23.5896 4.88327 24.157C4.88327 23.0221 5.1104 21.7739 5.33753 20.9795Z" fill="#FDCF00"/>
<path d="M3.29337 18.0289C3.5205 18.5963 3.40693 18.4829 3.74763 19.1637C4.20189 19.7312 3.86119 19.2772 4.54258 20.1851C2.83911 20.639 1.36276 20.5255 1.36276 20.5255C1.36276 20.5255 2.04415 19.1637 3.29337 18.0289Z" fill="#FDCF00"/>
<path d="M2.95268 14.511C2.83911 15.4188 2.83911 15.0784 2.83911 15.6458C2.83911 15.9863 2.95268 16.3267 2.95268 16.5537C2.95268 16.7806 2.95268 16.8941 2.95268 16.8941C1.9306 16.6671 0.794952 16.2132 0 15.6458C0.908517 15.0784 2.04416 14.738 2.95268 14.511Z" fill="#FDCF00"/>
<path d="M4.54258 11.22C4.54258 11.22 4.42902 11.3335 4.31545 11.5605C3.86119 12.0144 3.5205 12.6953 3.29337 13.3762C2.61198 12.6953 1.81702 11.7874 1.36276 10.7661C2.49841 10.7661 3.63406 10.9931 4.54258 11.22Z" fill="#FDCF00"/>
<path d="M7.3817 9.17737C6.35962 9.63129 5.90536 9.97174 5.33753 10.4257C4.88327 8.83692 4.88327 7.24817 4.88327 7.24817C4.88327 7.24817 6.24605 7.92906 7.3817 9.17737Z" fill="#FDCF00"/>
<path d="M11.0158 8.95047C9.42586 8.72351 9.42586 8.83699 8.9716 8.83699C8.74447 8.83699 8.63091 8.95047 8.63091 8.95047C8.85803 7.92915 9.31229 6.79436 9.76655 6C10.3344 6.79436 10.7886 7.81567 11.0158 8.95047Z" fill="#FDCF00"/>
<path d="M14.1956 10.4257C13.9684 10.0852 12.9464 9.40433 12.1514 9.17737C12.7192 8.60995 13.7413 7.81558 14.6498 7.24817C14.6498 8.38299 14.5363 9.63129 14.1956 10.4257Z" fill="#FDCF00"/>
<path d="M16.2397 13.3763C16.1262 12.8089 16.1262 12.9224 15.7855 12.2415C15.4448 11.674 15.6719 12.128 15.1041 11.2201C16.694 10.7662 18.2839 10.8797 18.2839 10.8797C18.2839 10.8797 17.489 12.2415 16.2397 13.3763Z" fill="#FDCF00"/>
<path d="M16.5804 16.8941C16.694 15.9863 16.694 16.3267 16.694 15.7593C16.694 15.4188 16.694 15.0784 16.694 14.8514C16.5804 14.6245 16.5804 14.511 16.5804 14.511C17.6025 14.738 18.7382 15.1919 19.5331 15.7593C18.7382 16.2132 17.6025 16.6671 16.5804 16.8941Z" fill="#FDCF00"/>
<path d="M16.0126 15.6459C16.0126 19.1638 13.2871 22.0008 9.76657 22.0008C6.35963 22.0008 3.52051 19.1638 3.52051 15.6459C3.52051 12.2414 6.35963 9.40442 9.76657 9.40442C13.2871 9.40442 16.0126 12.2414 16.0126 15.6459Z" fill="#FDCF00"/>
<path d="M18.1703 20.639C17.1483 20.639 15.899 20.412 15.1041 20.1851C15.3312 19.8446 16.0126 18.8233 16.2397 18.0289C16.9211 18.7098 17.7161 19.6177 18.1703 20.639Z" fill="#FDCF00"/>
<path d="M14.6498 24.157C14.6498 24.157 13.2871 23.4761 12.1514 22.2278C12.6057 22.0008 12.6057 22.0008 13.2871 21.6604C13.8549 21.3199 13.4006 21.6604 14.1956 20.9795C14.7634 22.5682 14.6498 24.157 14.6498 24.157Z" fill="#FDCF00"/>
<path d="M11.0158 22.4547C10.7886 23.5895 10.2208 24.7243 9.76655 25.4052C9.19873 24.4973 8.74447 23.476 8.63091 22.4547C9.19873 22.5682 9.53942 22.5682 9.76655 22.5682C10.2208 22.5682 10.3344 22.5682 10.5615 22.5682C10.7886 22.5682 11.0158 22.4547 11.0158 22.4547Z" fill="#FDCF00"/>
<path d="M5.33753 20.9795C5.67823 21.3199 6.70031 22.0008 7.3817 22.2278C6.81388 22.9087 5.90536 23.5896 4.88327 24.157C4.88327 23.0221 5.1104 21.7739 5.33753 20.9795Z" fill="#FDCF00"/>
<path d="M3.29337 18.0289C3.5205 18.5963 3.40693 18.4829 3.74763 19.1637C4.20189 19.7312 3.86119 19.2772 4.54258 20.1851C2.83911 20.639 1.36276 20.5255 1.36276 20.5255C1.36276 20.5255 2.04415 19.1637 3.29337 18.0289Z" fill="#FDCF00"/>
<path d="M2.95268 14.511C2.83911 15.4188 2.83911 15.0784 2.83911 15.6458C2.83911 15.9863 2.95268 16.3267 2.95268 16.5537C2.95268 16.7806 2.95268 16.8941 2.95268 16.8941C1.9306 16.6671 0.794952 16.2132 0 15.6458C0.908517 15.0784 2.04416 14.738 2.95268 14.511Z" fill="#FDCF00"/>
<path d="M4.54258 11.22C4.54258 11.22 4.42902 11.3335 4.31545 11.5605C3.86119 12.0144 3.5205 12.6953 3.29337 13.3762C2.61198 12.6953 1.81702 11.7874 1.36276 10.7661C2.49841 10.7661 3.63406 10.9931 4.54258 11.22Z" fill="#FDCF00"/>
<path d="M7.3817 9.17737C6.35962 9.63129 5.90536 9.97174 5.33753 10.4257C4.88327 8.83692 4.88327 7.24817 4.88327 7.24817C4.88327 7.24817 6.24605 7.92906 7.3817 9.17737Z" fill="#FDCF00"/>
<path d="M11.0158 8.95047C10.4479 8.83699 9.99368 8.83699 9.76655 8.83699C9.31229 8.83699 9.19873 8.83699 8.9716 8.83699C8.74447 8.83699 8.63091 8.95047 8.63091 8.95047C8.85803 7.92915 9.31229 6.79436 9.76655 6C10.3344 6.79436 10.7886 7.81567 11.0158 8.95047Z" fill="#FDCF00"/>
<path d="M14.1956 10.4257C13.9684 10.0852 12.9464 9.40433 12.1514 9.17737C12.7192 8.60995 13.7413 7.81558 14.6498 7.24817C14.6498 8.38299 14.5363 9.63129 14.1956 10.4257Z" fill="#FDCF00"/>
<path d="M18.2839 10.8797C18.2839 10.8797 17.489 12.2415 16.2397 13.3763C16.1262 12.8089 16.1262 12.9224 15.7855 12.2415C15.4448 11.674 15.6719 12.128 15.1041 11.2201C16.694 10.7662 18.2839 10.8797 18.2839 10.8797Z" fill="#FDCF00"/>
<path d="M16.694 15.7593C16.694 15.4188 16.694 15.0784 16.694 14.8514C16.5804 14.6245 16.5804 14.511 16.5804 14.511C17.6025 14.738 18.7382 15.1919 19.5331 15.7593C18.7382 16.2132 17.6025 16.6671 16.5804 16.8941C16.694 15.9863 16.694 16.3267 16.694 15.7593Z" fill="#FDCF00"/>
<path d="M11.0158 8.95047C10.4479 8.83699 9.99368 8.83699 9.76656 8.83699V6C10.3344 6.79436 10.7886 7.81567 11.0158 8.95047Z" fill="#FCE000"/>
<path d="M10.5615 22.5682C10.7886 22.5682 11.0158 22.4547 11.0158 22.4547C10.7886 23.5895 10.2208 24.7243 9.76656 25.4052V22.5682C10.2208 22.5682 10.3344 22.5682 10.5615 22.5682Z" fill="#FCE000"/>
<path d="M9.76656 22.0008V9.40442C13.2871 9.40442 16.0126 12.2414 16.0126 15.6459C16.0126 19.1638 13.2871 22.0008 9.76656 22.0008Z" fill="#FCE000"/>
<path d="M14.1956 20.9795C14.7634 22.5682 14.6498 24.157 14.6498 24.157C14.6498 24.157 13.2871 23.4761 12.1514 22.2278C12.6057 22.0008 12.6057 22.0008 13.2871 21.6604C13.8549 21.3199 13.4006 21.6604 14.1956 20.9795Z" fill="#FCE000"/>
<path d="M14.1956 10.4257C13.9684 10.0852 12.9464 9.40433 12.1514 9.17737C12.7192 8.60995 13.7413 7.81558 14.6498 7.24817C14.6498 8.38299 14.5363 9.63129 14.1956 10.4257Z" fill="#FCE000"/>
<path d="M18.1703 20.639C17.1483 20.639 15.899 20.412 15.1041 20.1851C15.3312 19.8446 16.0126 18.8233 16.2397 18.0289C16.9211 18.7098 17.7161 19.6177 18.1703 20.639Z" fill="#FCE000"/>
<path d="M15.7855 12.2415C15.4448 11.674 15.6719 12.128 15.1041 11.2201C16.694 10.7662 18.2839 10.8797 18.2839 10.8797C18.2839 10.8797 17.489 12.2415 16.2397 13.3763C16.1262 12.8089 16.1262 12.9224 15.7855 12.2415Z" fill="#FCE000"/>
<path d="M16.694 15.7593C16.694 15.4188 16.694 15.0784 16.694 14.8514C16.5804 14.6245 16.5804 14.511 16.5804 14.511C17.6025 14.738 18.7382 15.1919 19.5331 15.7593C18.7382 16.2132 17.6025 16.6671 16.5804 16.8941C16.694 15.9863 16.694 16.3267 16.694 15.7593Z" fill="#FCE000"/>
<path d="M15.3312 15.6458H14.6498C14.6498 13.0357 12.4921 10.8796 9.76656 10.8796V10.0852C12.8328 10.0852 15.3312 12.5818 15.3312 15.6458Z" fill="#FEFEFE"/>
<path d="M36 24.4973C36 25.9726 35.4322 27.3344 34.4101 28.3557C33.5016 29.2635 32.1388 29.9444 30.5489 29.9444H7.72239C5.1104 29.9444 3.06624 27.7883 3.06624 25.1782C3.06624 22.5682 5.1104 20.412 7.72239 20.412C8.63091 20.412 9.42586 20.639 10.1072 21.0929C9.99368 20.7525 9.88012 20.412 9.88012 20.0716C9.88012 18.4829 11.2429 17.2346 12.8328 17.2346C13.7413 17.2346 14.5363 17.6885 15.1041 18.3694C15.3312 14.738 18.2839 11.901 21.8044 11.5605C22.0315 11.5605 22.1451 11.5605 22.3722 11.5605C26.347 11.5605 29.6404 14.8515 29.6404 18.8233C29.6404 18.9368 29.6404 19.0503 29.6404 19.1637C29.9811 19.0503 30.2082 19.0503 30.5489 19.0503C33.6151 19.0503 36 21.4334 36 24.4973Z" fill="#16A8CA"/>
<path d="M36 24.4973C36 25.9726 35.4322 27.3344 34.4101 28.3557C33.5016 29.2635 32.1388 29.9444 30.5489 29.9444H21.8044V11.5605C22.0315 11.5605 22.1451 11.5605 22.3722 11.5605C26.347 11.5605 29.6404 14.8515 29.6404 18.8233C29.6404 18.9368 29.6404 19.0503 29.6404 19.1637C29.9811 19.0503 30.2082 19.0503 30.5489 19.0503C33.6151 19.0503 36 21.4334 36 24.4973Z" fill="#16B1D4"/>
<path d="M27.8233 18.8233H27.142C27.142 16.2132 24.9842 14.0571 22.3722 14.0571C22.1451 14.0571 22.0315 14.0571 21.918 14.0571L21.8044 13.3762C22.0315 13.3762 22.1451 13.3762 22.3722 13.3762C25.4385 13.3762 27.8233 15.8728 27.8233 18.8233Z" fill="#FEFEFE"/>
</svg>
