<svg width="36" height="36" viewBox="0 0 36 36" fill="none" xmlns="http://www.w3.org/2000/svg">
<path d="M36 15.0927C36 16.6998 35.2577 18.1832 34.268 19.2958C33.1546 20.4084 31.6701 21.0265 30.0619 21.0265H5.19588C2.35052 21.0265 0 18.6777 0 15.8344C0 12.9912 2.35052 10.766 5.19588 10.766C6.06186 10.766 6.92783 10.8896 7.6701 11.3841C7.54639 11.0132 7.54639 10.6424 7.54639 10.2715C7.54639 8.54083 8.90722 7.18101 10.6392 7.18101C11.6289 7.18101 12.6186 7.67549 13.1134 8.41721C13.4845 4.46136 16.5773 1.37086 20.5361 1.12362C20.6598 1 20.9072 1 21.0309 1C25.3608 1 28.9485 4.58498 28.9485 8.91169C28.9485 9.03531 28.9485 9.15893 28.9485 9.28255C29.3196 9.15893 29.6907 9.15893 30.0619 9.15893C33.2784 9.15893 36 11.755 36 15.0927Z" fill="#16A8CA"/>
<path d="M36 15.0927C36 16.6998 35.2577 18.1832 34.268 19.2958C33.1546 20.4084 31.6701 21.0265 30.0618 21.0265H20.5361V1.12362C20.6598 1 20.9072 1 21.0309 1C25.3608 1 28.9484 4.58498 28.9484 8.91169C28.9484 9.03531 28.9484 9.15893 28.9484 9.28255C29.3196 9.15893 29.6907 9.15893 30.0618 9.15893C33.2783 9.15893 36 11.755 36 15.0927Z" fill="#16B1D4"/>
<path d="M27.0928 9.03528H26.2268C26.2268 6.0684 23.8763 3.71963 21.0309 3.71963C20.9072 3.71963 20.6598 3.71963 20.5361 3.71963L20.4124 2.97791C20.6598 2.97791 20.7835 2.97791 21.0309 2.97791C24.3711 2.97791 27.0928 5.69754 27.0928 9.03528Z" fill="#FEFEFE"/>
<path d="M28.701 18.5541L30.433 13.6093L26.4742 19.7903C27.8351 19.7903 28.0825 19.7903 29.4433 19.7903L27.7113 24.7351C31.4227 18.8013 30.8041 19.9139 31.6701 18.5541C30.3093 18.5541 30.0619 18.5541 28.701 18.5541Z" fill="#FCE000"/>
<path d="M20.4124 23.1279L23.3814 14.2273L16.4536 25.2295C18.8041 25.2295 19.1752 25.2295 21.5258 25.2295L18.5567 34.0065C25.2371 23.6224 24 25.4767 25.4845 23.1279C23.134 23.1279 22.7629 23.1279 20.4124 23.1279Z" fill="#FCE000"/>
<path d="M23.3814 14.2273L18.5567 24.1169H23.3814L18.5567 34.0065L25.4845 23.1279H20.4124L23.3814 14.2273Z" fill="#FAEE00"/>
<path d="M14.1031 26.5894C14.1031 27.5783 13.2371 28.4437 12.2474 28.4437C11.2577 28.4437 10.3917 27.5783 10.3917 26.5894C10.3917 25.6004 12.2474 23.0044 12.2474 23.0044C12.2474 23.0044 14.1031 25.6004 14.1031 26.5894Z" fill="#AADCF1"/>
<path d="M14.1031 26.5894C14.1031 27.5783 13.2371 28.4437 12.2474 28.4437V23.0044C12.2474 23.0044 14.1031 25.6004 14.1031 26.5894Z" fill="#B4E0F5"/>
<path d="M7.79381 26.5894C7.79381 27.5783 7.05155 28.4437 5.93814 28.4437C4.94845 28.4437 4.08247 27.5783 4.08247 26.5894C4.08247 25.6004 5.93814 23.0044 5.93814 23.0044C5.93814 23.0044 7.79381 25.6004 7.79381 26.5894Z" fill="#AADCF1"/>
<path d="M7.79381 26.5894C7.79381 27.5783 7.05154 28.4437 5.93814 28.4437V23.0044C5.93814 23.0044 7.79381 25.6004 7.79381 26.5894Z" fill="#B4E0F5"/>
</svg>
