<svg width="36" height="37" viewBox="0 0 36 37" fill="none" xmlns="http://www.w3.org/2000/svg">
<path d="M13.7258 0.913237C8.50837 0.913237 4.36122 5.06039 4.36122 10.2778C4.36122 13.4885 5.96657 16.4316 8.50838 18.037C3.69232 19.9099 0.347839 24.7259 0.347839 30.2109H3.02342C3.02342 24.3246 7.83948 19.5086 13.7258 19.5086C14.5284 19.5086 15.1973 19.6423 15.8662 19.7761C15.9278 19.6918 16.0094 19.6196 16.0749 19.5366C14.556 21.4245 13.7272 23.7744 13.7258 26.1975C13.7258 32.0838 18.5418 36.8999 24.4281 36.8999C30.3144 36.8999 35.1304 32.0838 35.1304 26.1975C35.1304 20.3112 30.3144 15.4952 24.4281 15.4952C23.2716 15.4975 22.1233 15.6891 21.0288 16.0624C22.1343 14.6915 22.8282 13.035 23.0298 11.2854C23.2314 9.53583 22.9324 7.76496 22.1676 6.17852C21.4028 4.59208 20.2036 3.25519 18.7093 2.32317C17.215 1.39114 15.4869 0.902233 13.7258 0.913237ZM13.7258 3.45504C17.4716 3.45504 20.4147 6.39819 20.4147 10.144C20.4147 13.8898 17.4716 16.833 13.7258 16.833C9.97995 16.833 7.0368 13.8898 7.0368 10.144C7.0368 6.39819 9.97995 3.45504 13.7258 3.45504ZM18.107 17.5902L17.992 17.6744C18.0301 17.6461 18.0685 17.618 18.107 17.5902ZM24.4281 18.1708C28.8428 18.1708 32.4549 21.7828 32.4549 26.1975C32.4549 30.6122 28.8428 34.2243 24.4281 34.2243C20.0134 34.2243 16.4014 30.6122 16.4014 26.1975C16.4014 21.7828 20.0134 18.1708 24.4281 18.1708ZM23.0903 20.8463V27.0002L20.8161 29.2744L22.689 31.1474L25.7659 28.0704V20.8463H23.0903Z" fill="white"/>
</svg>
