<svg width="45" height="19" viewBox="0 0 45 19" fill="none" xmlns="http://www.w3.org/2000/svg">
<ellipse cx="21.5334" cy="17.3114" rx="20.6889" ry="1.68889" fill="#C4C4C4"/>
<path opacity="0.7" d="M43.7671 12.9319H42.5203C42.2124 11.3751 41.6639 9.24614 40.7927 8.11761C36.7195 2.83535 31.6052 0 25.1764 0C21.0108 0 18.2977 0.407306 16.885 1.24477C16.6943 1.35802 16.1319 1.69088 14.613 4.74575C12.3956 4.78057 6.53019 5.18289 3.71768 8.35301C2.30599 9.94359 1.74463 11.6532 1.5281 12.9309H0.939994C0.420268 12.9309 0 13.3522 0 13.8717C0 14.3903 0.420268 14.8126 0.939828 14.8126H1.4097C1.41369 14.8633 1.41768 14.902 1.41867 14.9139C1.46836 15.3907 1.87268 15.7543 2.35252 15.7543H3.53671C4.26391 17.4134 5.91806 18.5778 7.84334 18.5778C9.76861 18.5778 11.4228 17.4134 12.152 15.7543H30.0978C30.824 17.4134 32.4792 18.5778 34.4045 18.5778C36.3299 18.5778 37.985 17.4134 38.7112 15.7543H41.8824C41.8893 15.7543 41.8952 15.7543 41.9002 15.7543C42.4198 15.7543 42.842 15.333 42.842 14.8135H43.7669C44.2855 14.8135 44.7057 14.3913 44.7057 13.8727C44.7059 13.3522 44.2856 12.9319 43.7671 12.9319ZM7.84342 16.6961C6.28765 16.6961 5.02103 15.4305 5.02103 13.8727C5.02103 12.3149 6.28665 11.0483 7.84342 11.0483C9.40118 11.0483 10.6688 12.315 10.6688 13.8727C10.6689 15.4305 9.40118 16.6961 7.84342 16.6961ZM24.5267 5.75022C24.5267 6.01054 24.317 6.22109 24.0558 6.22109H16.7469C16.586 6.22109 16.436 6.13667 16.3495 5.99958C16.2621 5.86148 16.2541 5.68957 16.3256 5.54458C16.6704 4.83524 17.2953 3.60634 17.5943 3.35101C18.5898 2.7182 20.5856 2.41816 23.577 2.41816C23.7399 2.41816 23.9028 2.42015 24.0677 2.42315C24.322 2.42913 24.5257 2.63876 24.5257 2.89401L24.5267 5.75022ZM25.4695 5.75022V3.02712C25.4695 2.89302 25.5281 2.76481 25.6274 2.67541C25.7278 2.586 25.8609 2.5413 25.995 2.55916C29.3072 2.9486 31.8544 4.04439 32.8132 5.4899C32.9096 5.63498 32.9166 5.81977 32.8351 5.97274C32.7546 6.1257 32.5937 6.22109 32.4198 6.22109H25.9384C25.6811 6.22109 25.4695 6.01046 25.4695 5.75022ZM34.4047 16.6961C32.8489 16.6961 31.5813 15.4305 31.5813 13.8727C31.5813 12.3149 32.8479 11.0483 34.4047 11.0483C35.9615 11.0483 37.2281 12.315 37.2281 13.8727C37.2281 15.4305 35.9605 16.6961 34.4047 16.6961Z" fill="#006BC9"/>
</svg>
