<svg width="38" height="39" viewBox="0 0 38 39" fill="none" xmlns="http://www.w3.org/2000/svg">
<path d="M31.3963 17.5541V11.6145C31.3969 10.8513 31.0956 10.1187 30.5581 9.57684C30.2961 9.29737 29.9776 9.07683 29.6238 8.92983C29.27 8.78282 28.889 8.71273 28.506 8.72419H22.7254V5.83388C22.736 5.45235 22.6669 5.07281 22.5226 4.71947C22.3783 4.36614 22.1619 4.04677 21.8872 3.78175C21.6222 3.50709 21.3028 3.29069 20.9495 3.14637C20.5961 3.00205 20.2166 2.93298 19.8351 2.94356H14.0544C13.6729 2.93298 13.2934 3.00205 12.94 3.14637C12.5867 3.29069 12.2673 3.50709 12.0023 3.78175C11.7276 4.04677 11.5112 4.36614 11.3669 4.71947C11.2226 5.07281 11.1535 5.45235 11.1641 5.83388V8.72419H5.38348C5.00053 8.71273 4.61952 8.78282 4.26572 8.92983C3.91193 9.07683 3.59343 9.29737 3.33136 9.57684C2.79387 10.1187 2.49256 10.8513 2.49316 11.6145V27.5112C2.49256 28.2745 2.79387 29.007 3.33136 29.5489C3.59343 29.8284 3.91193 30.0489 4.26572 30.1959C4.61952 30.3429 5.00053 30.413 5.38348 30.4016H15.8753C16.6697 31.5617 17.6971 32.5435 18.8921 33.2843C20.0871 34.0251 21.4234 34.5087 22.8158 34.7042C24.2081 34.8997 25.626 34.8028 26.9788 34.4197C28.3316 34.0366 29.5897 33.3757 30.6728 32.4792C31.7559 31.5826 32.6402 30.4702 33.2693 29.2127C33.8984 27.9553 34.2585 26.5806 34.3266 25.1762C34.3946 23.7719 34.1692 22.3687 33.6647 21.0564C33.1602 19.744 32.3876 18.5512 31.3963 17.5541ZM14.0544 5.83388H19.8351V8.72419H14.0544V5.83388ZM5.38348 27.5112V11.6145H28.506V15.4875C27.1542 14.835 25.6716 14.499 24.1705 14.5048C21.4876 14.5048 18.9145 15.5706 17.0174 17.4678C15.1202 19.3649 14.0544 21.938 14.0544 24.6209C14.0517 25.5997 14.1929 26.5736 14.4735 27.5112H5.38348ZM28.506 30.4016C27.2553 31.3396 25.734 31.8467 24.1705 31.8467C22.6071 31.8467 21.0858 31.3396 19.8351 30.4016C18.9326 29.7333 18.2005 28.8615 17.6983 27.857C17.1961 26.8526 16.9379 25.7439 16.9447 24.6209C16.9447 22.7045 17.706 20.8666 19.0611 19.5115C20.4162 18.1564 22.2541 17.3951 24.1705 17.3951C25.735 17.3888 27.2582 17.8965 28.506 18.8403C29.4034 19.5134 30.1318 20.3861 30.6335 21.3895C31.1351 22.3928 31.3963 23.4992 31.3963 24.6209C31.3963 25.7427 31.1351 26.8491 30.6335 27.8524C30.1318 28.8557 29.4034 29.7285 28.506 30.4016ZM22.7254 20.2855H24.8931V24.3608L28.4193 26.3985L27.3354 28.2772L22.7254 25.6181V20.2855Z" fill="white"/>
</svg>
