<svg width="70" height="70" viewBox="0 0 70 70" fill="none" xmlns="http://www.w3.org/2000/svg">
<circle cx="35" cy="35" r="35" fill="white"/>
<path d="M67.052 44.9419C61.1616 56.7246 26.508 42.4848 11.4431 42.0703C5.61493 42.1141 0.337741 47.8753 10.3328 57.4022C12.8558 59.6941 15.3684 61.9775 17.9423 63.4168C40.0071 75.7556 62.778 60.4972 67.052 44.9419V44.9419Z" fill="#00558C"/>
<path d="M4.27074 48.2893C3.46288 39.5596 10.4706 39.2098 20.5807 41.5743C33.9076 42.989 52.3835 49.8122 62.6254 47.0548C70.6642 45.1701 71.1575 24.6519 60.5137 13.6599C54.081 6.1988 44.4129 2.16333 36.0174 2.09106C10.796 1.87394 -5.83437 25.9033 4.27074 48.2893V48.2893Z" fill="#00936F"/>
<path d="M18.7365 11.9913V38.1587H25.1302V28.4764L30.3055 38.2208H40.1917L25.1961 11.946L18.7365 11.9913Z" fill="white"/>
<path d="M32.2474 11.9755L38.5748 11.9884V22.3579L43.8807 11.9795L52.7791 11.9252L43.9222 26.4966L52.7807 38.1521L42.7949 38.1832L32.2321 19.7212L32.2474 11.9755Z" fill="white"/>
</svg>
