<svg width="36" height="36" viewBox="0 0 36 36" fill="none" xmlns="http://www.w3.org/2000/svg">
<path d="M33.2037 3.16821C32.7287 2.71006 32.0797 2.45721 31.377 2.45721C30.5875 2.45721 29.7922 2.77778 29.1824 3.33921L26.5653 5.38608L26.4635 5.47522C25.8848 6.03194 25.6571 6.81409 25.7972 7.6018L19.6961 13.31L18.6723 12.4563C19.4061 9.69067 19.3159 6.00665 16.8406 3.62164C15.0282 1.8752 12.7091 0.913055 10.3113 0.913055C9.35809 0.913055 8.41605 1.06648 7.51092 1.36863C7.09638 1.50706 6.77881 1.83277 6.66183 2.24035C6.54485 2.64792 6.64315 3.08421 6.92425 3.40864L10.2125 7.19552L10.0506 9.6311L7.31788 9.93153L3.41671 6.78666C3.08001 6.51494 2.62678 6.42023 2.20379 6.5338C1.7808 6.64694 1.44277 6.95294 1.29911 7.35237C0.23341 10.3177 1.17234 13.5114 3.87528 16.1141C5.33149 17.5181 7.42819 18.26 9.93764 18.26C10.1213 18.26 10.3064 18.251 10.4914 18.2424C10.3984 18.3204 10.305 18.3976 10.217 18.4824L2.72107 25.7048C0.63994 27.7101 0.63994 30.9724 2.72107 32.9777L3.97847 34.1892C4.98634 35.1608 6.32691 35.6957 7.75243 35.6957C9.17796 35.6957 10.5185 35.1608 11.5264 34.1892L19.0219 26.9665C19.4373 26.5666 19.7642 26.117 20.0106 25.6366L26.6685 33.0492C26.6899 33.0728 26.7121 33.0951 26.7344 33.1174C27.4807 33.8361 28.6007 34.2321 29.8896 34.2321C31.4557 34.2321 33.0454 33.6385 34.0377 32.6828C35.7821 31.0019 36.3318 27.4255 34.4878 25.6473C34.4642 25.6255 34.4415 25.604 34.4171 25.5848L24.7231 17.5027L30.3157 11.9531C30.4696 11.9784 30.6235 11.9908 30.7787 11.9908C31.4486 11.9908 32.0668 11.7495 32.5205 11.3128L34.7373 8.69295C35.2448 8.18209 35.5624 7.53795 35.6362 6.87109C35.722 6.09023 35.4592 5.34194 34.9152 4.81822L33.2037 3.16821ZM17.1351 25.1485L9.63964 32.3712C9.1357 32.8568 8.46542 33.1242 7.75243 33.1242C7.03945 33.1242 6.36961 32.8568 5.86523 32.3712L4.60783 31.1596C3.56749 30.1568 3.56749 28.5256 4.60783 27.5236L12.1037 20.3004C12.6077 19.8149 13.2779 19.5474 13.9905 19.5474C14.2 19.5474 14.405 19.574 14.6038 19.6182L17.9121 23.3017C17.9201 23.969 17.6626 24.6402 17.1351 25.1485ZM32.15 30.8648C31.6559 31.3409 30.7472 31.6606 29.8887 31.6606C29.3501 31.6606 28.8898 31.5351 28.6465 31.3225L14.4989 15.5716C14.1444 15.1768 13.5768 15.0277 13.0645 15.1944C12.0681 15.5176 10.9869 15.6881 9.9372 15.6881C8.17675 15.6881 6.69385 15.1936 5.76204 14.2953C4.91873 13.4827 3.73428 12.0453 3.55726 10.253L6.04358 12.2574C6.3238 12.4837 6.68718 12.5887 7.05146 12.5488L11.4615 12.0637C12.1033 11.993 12.6005 11.4898 12.6415 10.8684L12.9088 6.84666C12.9306 6.51708 12.8203 6.19265 12.6005 5.9398L10.4705 3.48664C12.0997 3.5295 13.6858 4.21907 14.9525 5.43965C16.6952 7.11923 16.6574 10.265 15.8844 12.4773C15.7113 12.9718 15.8661 13.5183 16.2758 13.8598L32.6246 27.4919C33.2175 28.1172 33.0774 29.9708 32.15 30.8648ZM32.7972 6.92809L30.7036 9.40181C30.6818 9.39367 30.6573 9.38253 30.6306 9.3671L29.7246 8.84853L22.7029 15.8171L21.7212 14.999L29.0201 8.16966L28.4823 7.29752C28.4668 7.27095 28.4543 7.24737 28.4468 7.2268L30.9113 5.29865L31.0136 5.20951C31.1466 5.08222 31.2796 5.03808 31.3623 5.03079L32.984 6.59337C32.9786 6.65766 32.9355 6.79437 32.7972 6.92809Z" fill="white"/>
</svg>
