<svg width="38" height="38" viewBox="0 0 38 38" fill="none" xmlns="http://www.w3.org/2000/svg">
<path d="M18.6469 30.1748C25.0056 30.1748 30.2082 24.9723 30.2082 18.6136C30.2082 12.2549 25.0056 7.0523 18.6469 7.0523C12.2882 7.0523 7.08563 12.2549 7.08563 18.6136C7.08563 24.9723 12.2882 30.1748 18.6469 30.1748ZM18.6469 4.16199C26.5953 4.16199 33.0985 10.6652 33.0985 18.6136C33.0985 26.5619 26.5953 33.0652 18.6469 33.0652C10.6985 33.0652 4.19531 26.5619 4.19531 18.6136C4.19531 10.6652 10.6985 4.16199 18.6469 4.16199ZM25.8727 17.891V20.0587H17.2017V11.3878H19.3695V17.891H25.8727Z" fill="white"/>
</svg>
