<svg width="36" height="36" viewBox="0 0 36 36" fill="none" xmlns="http://www.w3.org/2000/svg">
<path d="M36 22.0927C36 23.6998 35.2577 25.1832 34.268 26.2958C33.1546 27.4084 31.6701 28.0265 30.0619 28.0265H5.19588C2.35052 28.0265 0 25.6777 0 22.8344C0 19.9912 2.35052 17.766 5.19588 17.766C6.06186 17.766 6.92783 17.8896 7.6701 18.3841C7.54639 18.0132 7.54639 17.6424 7.54639 17.2715C7.54639 15.5408 8.90722 14.181 10.6392 14.181C11.6289 14.181 12.6186 14.6755 13.1134 15.4172C13.4845 11.4614 16.5773 8.37086 20.5361 8.12362C20.6598 8 20.9072 8 21.0309 8C25.3608 8 28.9485 11.585 28.9485 15.9117C28.9485 16.0353 28.9485 16.1589 28.9485 16.2825C29.3196 16.1589 29.6907 16.1589 30.0619 16.1589C33.2784 16.1589 36 18.755 36 22.0927Z" fill="#16A8CA"/>
<path d="M35.9999 22.0927C35.9999 23.6998 35.2577 25.1832 34.268 26.2958C33.1546 27.4084 31.67 28.0265 30.0618 28.0265H20.536V8.12362C20.6597 8 20.9071 8 21.0309 8C25.3608 8 28.9484 11.585 28.9484 15.9117C28.9484 16.0353 28.9484 16.1589 28.9484 16.2825C29.3195 16.1589 29.6906 16.1589 30.0618 16.1589C33.2783 16.1589 35.9999 18.755 35.9999 22.0927Z" fill="#16B1D4"/>
<path d="M27.0928 16.0354H26.2268C26.2268 13.0685 23.8763 10.7197 21.0309 10.7197C20.9072 10.7197 20.6598 10.7197 20.5361 10.7197L20.4124 9.97803C20.6598 9.97803 20.7835 9.97803 21.0309 9.97803C24.3711 9.97803 27.0928 12.6977 27.0928 16.0354Z" fill="#FEFEFE"/>
</svg>
