<svg width="36" height="36" viewBox="0 0 36 36" fill="none" xmlns="http://www.w3.org/2000/svg">
<path d="M26.8793 26.4931C26.312 27.3032 25.1063 27.5154 24.2956 26.9477C23.4849 26.38 23.2719 25.1745 23.8391 24.3644C24.4064 23.5543 27.4155 22.4921 27.4155 22.4921C27.4155 22.4921 27.4465 25.683 26.8793 26.4931Z" fill="#AADCF1"/>
<path d="M16.7629 27.9892C16.1957 28.7993 14.99 29.0115 14.1793 28.4438C13.3686 27.8761 13.1556 26.6706 13.7228 25.8605C14.29 25.0504 17.2991 23.9882 17.2991 23.9882C17.2991 23.9882 17.3302 27.1791 16.7629 27.9892Z" fill="#AADCF1"/>
<path d="M11.7631 25.9902C11.1958 26.8003 9.99012 27.0124 9.17941 26.4448C8.3687 25.8771 8.15567 24.6716 8.72292 23.8614C9.29016 23.0513 12.2993 21.9892 12.2993 21.9892C12.2993 21.9892 12.3303 25.1801 11.7631 25.9902Z" fill="#AADCF1"/>
<path d="M11.7631 31.9902C11.1958 32.8003 9.99012 33.0124 9.17941 32.4448C8.3687 31.8771 8.15567 30.6716 8.72292 29.8614C9.29016 29.0513 12.2993 27.9892 12.2993 27.9892C12.2993 27.9892 12.3303 31.1801 11.7631 31.9902Z" fill="#AADCF1"/>
<path d="M24.7631 32.9902C24.1958 33.8003 22.9901 34.0124 22.1794 33.4448C21.3687 32.8771 21.1557 31.6716 21.7229 30.8614C22.2902 30.0513 25.2993 28.9892 25.2993 28.9892C25.2993 28.9892 25.3303 32.1801 24.7631 32.9902Z" fill="#AADCF1"/>
<path d="M16.7631 33.9902C16.1958 34.8003 14.9901 35.0124 14.1794 34.4448C13.3687 33.8771 13.1557 32.6716 13.7229 31.8614C14.2902 31.0513 17.2993 29.9892 17.2993 29.9892C17.2993 29.9892 17.3303 33.1801 16.7631 33.9902Z" fill="#AADCF1"/>
<path d="M15.7631 22.9902C15.1958 23.8003 13.9901 24.0124 13.1794 23.4448C12.3687 22.8771 12.1557 21.6716 12.7229 20.8614C13.2902 20.0513 16.2993 18.9892 16.2993 18.9892C16.2993 18.9892 16.3303 22.1801 15.7631 22.9902Z" fill="#AADCF1"/>
<path d="M22.7631 24.9902C22.1958 25.8003 20.9901 26.0124 20.1794 25.4448C19.3687 24.8771 19.1557 23.6716 19.7229 22.8614C20.2902 22.0513 23.2993 20.9892 23.2993 20.9892C23.2993 20.9892 23.3303 24.1801 22.7631 24.9902Z" fill="#AADCF1"/>
<path d="M6.76307 26.9902C6.19583 27.8003 4.99012 28.0124 4.17941 27.4448C3.3687 26.8771 3.15567 25.6716 3.72292 24.8614C4.29016 24.0513 7.29925 22.9892 7.29925 22.9892C7.29925 22.9892 7.33031 26.1801 6.76307 26.9902Z" fill="#AADCF1"/>
<path d="M20.7631 30.9902C20.1958 31.8003 18.9901 32.0124 18.1794 31.4448C17.3687 30.8771 17.1557 29.6716 17.7229 28.8614C18.2902 28.0513 21.2993 26.9892 21.2993 26.9892C21.2993 26.9892 21.3303 30.1801 20.7631 30.9902Z" fill="#AADCF1"/>
<path d="M31.7631 25.9902C31.1958 26.8003 29.9901 27.0124 29.1794 26.4448C28.3687 25.8771 28.1557 24.6716 28.7229 23.8614C29.2902 23.0513 32.2993 21.9892 32.2993 21.9892C32.2993 21.9892 32.3303 25.1801 31.7631 25.9902Z" fill="#AADCF1"/>
<path d="M36 15.0927C36 16.6998 35.2577 18.1832 34.268 19.2958C33.1546 20.4084 31.6701 21.0265 30.0619 21.0265H5.19588C2.35052 21.0265 0 18.6777 0 15.8344C0 12.9912 2.35052 10.766 5.19588 10.766C6.06186 10.766 6.92783 10.8896 7.6701 11.3841C7.54639 11.0132 7.54639 10.6424 7.54639 10.2715C7.54639 8.54083 8.90722 7.18101 10.6392 7.18101C11.6289 7.18101 12.6186 7.67549 13.1134 8.41721C13.4845 4.46136 16.5773 1.37086 20.5361 1.12362C20.6598 1 20.9072 1 21.0309 1C25.3608 1 28.9485 4.58498 28.9485 8.91169C28.9485 9.03531 28.9485 9.15893 28.9485 9.28255C29.3196 9.15893 29.6907 9.15893 30.0619 9.15893C33.2784 9.15893 36 11.755 36 15.0927Z" fill="#16A8CA"/>
<path d="M35.9999 15.0927C35.9999 16.6998 35.2577 18.1832 34.268 19.2958C33.1546 20.4084 31.67 21.0265 30.0618 21.0265H20.536V1.12362C20.6597 1 20.9071 1 21.0309 1C25.3608 1 28.9484 4.58498 28.9484 8.91169C28.9484 9.03531 28.9484 9.15893 28.9484 9.28255C29.3195 9.15893 29.6906 9.15893 30.0618 9.15893C33.2783 9.15893 35.9999 11.755 35.9999 15.0927Z" fill="#16B1D4"/>
<path d="M27.0928 9.03541H26.2268C26.2268 6.06853 23.8763 3.71975 21.0309 3.71975C20.9072 3.71975 20.6598 3.71975 20.5361 3.71975L20.4124 2.97803C20.6598 2.97803 20.7835 2.97803 21.0309 2.97803C24.3711 2.97803 27.0928 5.69767 27.0928 9.03541Z" fill="#FEFEFE"/>
</svg>
