<svg width="165" height="106" viewBox="0 0 165 106" fill="none" xmlns="http://www.w3.org/2000/svg">
<path d="M10.128 105.555C10.128 105.555 -13.3611 81.9288 11.2038 61.2381C38.4583 38.4503 12.6382 12.8665 39.7134 3.63956C60.6921 -3.35055 72.1677 1.12312 85.4363 5.45699C96.374 9.23165 108.387 12.8665 127.752 9.93066C163.614 4.75798 162.896 45.8598 152.317 60.5391C143.531 72.7019 177.241 78.7134 160.027 105.555H10.128Z" fill="#EBFAF1"/>
<path d="M106.348 22.2455H102.943C105.631 17.3514 110.111 11.7322 117.459 10.6446C117.459 10.6446 117.638 10.4633 117.817 10.4633C118.534 10.4633 120.505 10.8258 121.222 13.1823C122.298 16.2638 116.742 16.4451 113.337 17.7139C111.724 18.439 109.036 20.0704 106.348 22.2455Z" fill="#8DD9AC"/>
<path d="M100.434 22.2453H99C99.5376 17.5324 101.33 10.6443 107.423 7.20031C107.423 7.20031 107.961 7.01904 108.677 7.01904C109.394 7.01904 110.29 7.20031 111.007 8.2879C112.62 10.2818 108.498 11.9132 106.168 13.9071C104.735 15.176 102.047 18.4387 100.434 22.2453Z" fill="#8DD9AC"/>
<path d="M31.7189 3.3636C33.5111 -1.71183 41.934 0.463353 41.934 0.463353C41.934 0.463353 46.9519 9.88915 48.744 10.2517C50.3569 10.6142 45.8766 1.36968 45.8766 1.36968C49.1024 1.36968 57.1669 5.90131 57.1669 5.90131C57.1669 5.90131 55.9124 16.4147 57.5253 16.2334C59.3174 16.2334 58.2421 6.98891 58.2421 6.98891C61.2887 8.25776 63.9769 12.0643 63.9769 12.0643C67.2027 18.4086 58.959 22.3965 58.959 22.3965C58.959 22.3965 58.6006 26.0218 60.5719 30.3721C60.5719 30.3721 60.9303 31.0972 61.4679 32.3661H60.5719C60.5719 32.1848 60.3927 31.8223 60.3927 31.641C60.2135 31.4597 60.2135 31.2785 60.2135 31.0972C59.855 30.5534 59.6758 30.1909 59.6758 29.8283C58.959 28.197 58.0629 26.0218 57.3461 25.478C57.3461 25.478 57.3461 25.2967 57.5253 25.1154C57.5253 25.1154 57.3461 25.2967 57.3461 25.478C55.554 28.5595 48.2063 28.5595 44.0845 27.2906C40.1419 26.203 41.934 25.1154 44.2637 23.4841C46.5934 21.6714 51.2529 22.5777 52.6866 21.8527C54.1203 21.3089 52.149 20.4025 49.4608 20.4025C46.5934 20.4025 45.1598 23.1215 40.6795 23.1215C36.1992 23.3028 33.5111 14.6021 33.5111 14.6021C36.3784 15.6896 41.934 14.4208 42.2924 13.3332C42.6508 12.4269 34.4071 11.8831 33.1526 11.5205C31.8982 10.9767 29.9268 8.25776 31.7189 3.3636Z" fill="#8DD9AC"/>
<path d="M1.66416 94.1061C-1.38242 88.6681 7.04048 82.8676 7.04048 82.8676C7.04048 82.8676 19.0476 85.4053 20.6605 84.3177C22.2734 83.0489 10.8039 79.9674 10.8039 79.9674C13.1337 77.0671 23.3487 73.4418 23.3487 73.4418C23.3487 73.4418 31.4132 82.5051 32.6676 80.8737C33.9221 79.2423 25.1408 73.2606 25.1408 73.2606C28.5458 71.4479 33.9221 71.9917 33.9221 71.9917C41.9866 73.9856 39.1192 84.3177 39.1192 84.3177C39.1192 84.3177 41.9866 87.3992 47.1837 88.8494C47.1837 88.8494 48.259 89.2119 49.6927 89.7557L49.155 90.4808C48.7966 90.4808 48.6174 90.2995 48.259 90.1182C48.0798 90.1182 47.9005 89.937 47.7213 89.937C47.0045 89.7557 46.4669 89.5744 46.2876 89.3932C44.1371 88.6681 41.449 87.943 40.5529 88.1243C40.5529 88.1243 40.5529 87.943 40.3737 87.5805C40.3737 87.7618 40.5529 87.943 40.5529 88.1243C41.9866 92.1121 36.2518 98.6377 32.13 101.357C28.0081 104.076 28.5458 101.719 28.9042 98.2752C29.0834 94.8311 33.3845 91.3871 33.9221 89.5744C34.4597 87.7618 32.13 88.8494 30.1587 91.3871C28.0081 93.7435 29.0834 97.1876 25.8576 101.357C22.4526 105.345 12.7752 101.175 12.7752 101.175C16.1802 99.3628 19.2268 93.381 18.51 92.2934C17.7931 91.3871 11.1623 98.2752 9.90786 99.0002C8.65338 99.7253 4.71074 99.544 1.66416 94.1061Z" fill="#8DD9AC"/>
<path d="M125.604 44.0768C121.124 44.0768 114.314 42.2641 113.238 38.8201C113.059 39.0014 112.88 39.1826 112.521 39.5451V21.4186C113.776 20.6935 115.21 19.9685 116.823 19.7872C116.823 19.7872 113.597 28.8505 115.21 29.3943H115.389C117.002 29.3943 118.077 18.8809 118.077 18.8809C118.077 18.8809 125.066 16.7057 129.188 16.7057C129.905 16.7057 130.443 16.887 130.801 16.887C130.801 16.887 123.991 25.4064 125.783 25.4064C127.575 25.4064 135.102 17.0682 135.102 17.0682C135.102 17.0682 135.102 17.0682 135.281 17.0682C136.536 17.0682 144.421 17.2495 144.959 22.3249C145.496 27.9442 142.808 30.3006 141.374 30.4819H141.195C140.478 30.4819 139.224 30.3006 137.611 30.1193C136.177 29.9381 134.385 29.7568 133.31 29.7568C132.235 29.7568 131.518 29.9381 131.518 30.1193C131.697 31.2069 136.177 33.5634 139.582 33.5634C139.941 33.5634 140.12 33.5634 140.478 33.5634C140.478 33.5634 136.177 40.6327 131.876 40.6327C131.518 40.6327 131.339 40.6327 130.98 40.6327C126.5 39.3639 125.425 36.2824 122.557 35.5573C121.661 35.376 120.765 35.1948 120.048 35.1948C118.794 35.1948 118.077 35.7386 118.794 36.2824C120.228 37.37 125.066 37.5512 127.038 39.9077C129.188 42.2641 130.801 43.8955 126.321 44.0768C126.142 44.0768 125.962 44.0768 125.604 44.0768ZM113.238 38.4576C113.238 38.8201 113.238 38.8201 113.238 38.8201C113.238 38.8201 113.238 38.6388 113.238 38.4576Z" fill="#8DD9AC"/>
<path d="M141.554 93.7435C139.582 93.7435 138.149 93.0184 137.611 92.2933C136.357 90.662 131.876 80.3298 130.443 80.3298C130.263 80.3298 130.263 80.3298 130.263 80.3298C128.83 81.2361 129.905 89.9369 133.131 93.5622C133.131 93.5622 132.952 93.5622 132.414 93.5622C130.622 93.5622 125.962 93.3809 122.378 91.9308C123.095 91.5683 123.812 91.0245 124.17 90.2994C124.17 90.2994 125.604 85.5865 121.482 85.4053C120.944 85.4053 120.586 85.5865 120.228 85.7678C119.869 85.4053 119.331 85.0427 118.435 85.0427C117.898 85.0427 117.539 85.224 117.002 85.5865C117.002 85.0427 117.002 84.6802 117.002 84.3177C118.077 83.7739 118.794 82.6863 118.794 82.6863C118.794 82.6863 117.36 81.5987 116.823 81.4174C117.002 78.5172 117.719 76.1607 116.823 73.8043C115.926 70.904 114.493 68.9101 113.597 68.9101C113.418 68.9101 113.059 69.2726 113.059 69.8164C112.88 71.9916 115.747 77.2483 115.389 81.2361C115.03 81.2361 114.851 81.2361 114.851 81.2361C115.21 81.4174 115.03 81.7799 114.672 81.7799C114.493 81.7799 114.493 81.7799 114.493 81.7799C113.955 81.7799 113.238 81.4174 112.521 81.0549V52.2336C113.955 50.2397 116.285 48.6083 119.511 48.6083C119.869 48.6083 120.407 48.7896 120.944 48.7896C120.944 48.7896 127.754 50.6023 130.98 54.4088C130.98 54.4088 117.719 57.6716 118.435 60.0281C118.615 60.3906 118.973 60.5719 119.511 60.5719C122.916 60.5719 132.952 55.3152 132.952 55.3152C132.952 55.3152 143.525 64.3784 145.138 69.0913C145.138 69.0913 139.582 68.5476 135.46 68.5476C132.952 68.5476 130.801 68.7288 131.339 69.6351C132.772 71.8103 148.364 74.348 148.364 74.348C148.364 74.348 155.711 85.224 149.797 90.2994C146.572 92.8371 143.704 93.7435 141.554 93.7435Z" fill="#8DD9AC"/>
<path d="M24.259 93.3308C24.259 93.3308 28.4016 93.9539 30.68 97.4847L30.0586 97.9C30.0586 97.9 26.9517 94.3693 24.4661 93.9539C21.9806 93.3308 24.259 93.3308 24.259 93.3308Z" fill="#33B368"/>
<path d="M26.1231 83.3615C26.1231 83.3615 30.0586 89.5923 27.7802 97.0692L26.7445 96.8615C26.7445 96.8615 27.7802 88.3461 25.7089 84.1923C23.4305 80.0385 26.1231 83.3615 26.1231 83.3615Z" fill="#33B368"/>
<path d="M33.1655 29.5692L19.0808 103.092C18.6665 104.546 19.9093 105.792 21.3592 105.792H28.8158L33.1655 29.5692Z" fill="#E75755"/>
<path d="M125.338 56.7769C125.338 56.7769 122.231 60.9307 123.473 66.3307H124.302C124.302 66.3307 123.888 60.3077 125.545 57.6077C127.202 54.7 125.338 56.7769 125.338 56.7769Z" fill="#93B3F4"/>
<path d="M110.424 41.6154C110.424 41.6154 108.56 48.2615 112.703 54.2846L113.531 53.8692C113.531 53.8692 110.424 46.8077 111.046 42.4462C111.874 38.0846 110.424 41.6154 110.424 41.6154Z" fill="white"/>
<path d="M33.3726 29.1538L23.8447 101.431C23.6376 103.715 25.5017 105.792 27.9873 105.792H41.6577L33.994 28.9461L33.3726 29.1538Z" fill="#0D9F4A"/>
<path d="M33.3726 29.1538L29.0229 100.808C29.0229 103.508 31.0942 105.792 33.7868 105.792H54.2925L33.3726 29.1538Z" fill="#8DD9AC"/>
<path d="M33.1655 29.7769L35.2368 100.808C35.0297 103.508 37.101 105.792 39.7936 105.792H60.5065L33.1655 29.7769Z" fill="#33B368"/>
<path d="M131.552 105.792H50.5643C48.493 105.792 46.836 104.338 46.4218 102.469L33.9941 34.7615C33.5798 31.6461 35.8582 28.9461 38.9651 28.9461H119.124C121.195 28.9461 122.852 30.4 123.266 32.2692L135.694 101.015C136.108 103.508 134.244 105.792 131.552 105.792Z" fill="white"/>
<path d="M35.6511 43.4846H125.338L123.059 30.8153C122.852 29.7769 121.816 28.9461 120.781 28.9461H33.994C33.3727 28.9461 33.1655 29.3615 33.1655 29.7769L35.6511 43.4846Z" fill="#FA7269"/>
<path d="M37.7223 25C35.651 25 33.994 26.8692 33.994 28.9462H34.6153C34.6153 27.2846 36.0652 25.8308 37.7223 25.8308C39.5864 25.8308 40.8292 27.2846 40.8292 28.9462C40.8292 29.3615 40.8292 29.5692 40.8292 29.9846C40.4149 30.8154 39.7936 31.6462 38.7579 31.8538C38.5508 32.0615 38.3437 32.0615 37.9294 32.0615V32.8923C38.3437 32.8923 38.5508 32.6846 38.965 32.6846C40.2078 32.2692 41.2435 31.2308 41.4506 29.9846C41.6577 29.5692 41.6577 29.3615 41.6577 28.9462C41.6577 26.8692 40.0007 25 37.7223 25Z" fill="#3662C1"/>
<path d="M38.9651 32.4769C38.9651 32.4769 38.9651 32.4769 38.9651 32.6846C38.7579 33.1 38.5508 33.3077 38.1366 33.3077C37.7223 33.3077 37.308 32.8923 37.308 32.4769C37.308 32.0616 37.7223 31.6462 38.1366 31.6462C38.3437 31.6462 38.7579 31.6462 38.7579 31.8539C38.9651 32.0616 38.9651 32.2693 38.9651 32.4769Z" fill="#3662C1"/>
<path d="M51.8071 25C49.5287 25 47.8716 26.8692 47.8716 28.9462H48.493C48.493 27.2846 49.9429 25.8308 51.8071 25.8308C53.4641 25.8308 54.914 27.2846 54.914 28.9462C54.914 29.3615 54.7069 29.5692 54.7069 29.9846C54.2926 30.8154 53.6712 31.6462 52.8427 31.8538C52.4285 32.0615 52.2213 32.0615 51.8071 32.0615V32.8923C52.2213 32.8923 52.6356 32.6846 52.8427 32.6846C54.0855 32.2692 55.1211 31.2308 55.5354 29.9846C55.5354 29.5692 55.5354 29.3615 55.5354 28.9462C55.5354 26.8692 53.8784 25 51.8071 25Z" fill="#3662C1"/>
<path d="M52.8426 32.4769C52.8426 32.4769 52.8426 32.4769 52.8426 32.6846C52.8426 33.1 52.4284 33.3077 52.0141 33.3077C51.5999 33.3077 51.1856 32.8923 51.1856 32.4769C51.1856 32.0616 51.5999 31.6462 52.0141 31.6462C52.4284 31.6462 52.6355 31.6462 52.8426 31.8539C52.8426 32.0616 52.8426 32.2693 52.8426 32.4769Z" fill="#3662C1"/>
<path d="M65.6847 25C63.6134 25 61.7493 26.8692 61.7493 28.9462H62.5778C62.5778 27.2846 63.8206 25.8308 65.6847 25.8308C67.3417 25.8308 68.7916 27.2846 68.7916 28.9462C68.7916 29.3615 68.7916 29.5692 68.5845 29.9846C68.3774 30.8154 67.5489 31.6462 66.7203 31.8538C66.5132 32.0615 66.099 32.0615 65.8918 32.0615V32.8923C66.099 32.8923 66.5132 32.6846 66.9275 32.6846C68.1702 32.2692 68.9988 31.2308 69.413 29.9846C69.413 29.5692 69.6201 29.3615 69.6201 28.9462C69.6201 26.8692 67.756 25 65.6847 25Z" fill="#3662C1"/>
<path d="M66.9274 32.4769C66.9274 32.4769 66.9274 32.4769 66.9274 32.6846C66.7203 33.1 66.306 33.3077 66.0989 33.3077C65.4775 33.3077 65.2704 32.8923 65.2704 32.4769C65.2704 32.0616 65.4775 31.6462 66.0989 31.6462C66.306 31.6462 66.5132 31.6462 66.7203 31.8539C66.7203 32.0616 66.9274 32.2693 66.9274 32.4769Z" fill="#3662C1"/>
<path d="M79.5623 25C77.491 25 75.6268 26.8692 75.6268 28.9462H76.4553C76.4553 27.2846 77.9052 25.8308 79.5623 25.8308C81.2193 25.8308 82.6692 27.2846 82.6692 28.9462C82.6692 29.3615 82.6692 29.5692 82.6692 29.9846C82.2549 30.8154 81.6336 31.6462 80.5979 31.8538C80.3908 32.0615 79.9765 32.0615 79.7694 32.0615V32.8923C80.1837 32.8923 80.3908 32.6846 80.805 32.6846C82.0478 32.2692 83.0835 31.2308 83.2906 29.9846C83.4977 29.5692 83.4977 29.3615 83.4977 28.9462C83.4977 26.8692 81.6336 25 79.5623 25Z" fill="#3662C1"/>
<path d="M80.805 32.4769C80.805 32.4769 80.805 32.4769 80.805 32.6846C80.5978 33.1 80.3907 33.3077 79.9765 33.3077C79.5622 33.3077 79.1479 32.8923 79.1479 32.4769C79.1479 32.0616 79.5622 31.6462 79.9765 31.6462C80.1836 31.6462 80.3907 31.6462 80.5978 31.8539C80.805 32.0616 80.805 32.2693 80.805 32.4769Z" fill="#3662C1"/>
<path d="M93.4398 25C91.3685 25 89.7115 26.8692 89.7115 28.9462H90.3329C90.3329 27.2846 91.7828 25.8308 93.4398 25.8308C95.304 25.8308 96.7539 27.2846 96.7539 28.9462C96.7539 29.3615 96.5467 29.5692 96.5467 29.9846C96.1325 30.8154 95.5111 31.6462 94.4754 31.8538C94.2683 32.0615 94.0612 32.0615 93.6469 32.0615V32.8923C94.0612 32.8923 94.4754 32.6846 94.6826 32.6846C95.9253 32.2692 96.961 31.2308 97.3752 29.9846C97.3752 29.5692 97.3752 29.3615 97.3752 28.9462C97.3752 26.8692 95.7182 25 93.4398 25Z" fill="#3662C1"/>
<path d="M94.6826 32.4769C94.6826 32.4769 94.6826 32.4769 94.6826 32.6846C94.6826 33.1 94.2683 33.3077 93.8541 33.3077C93.4398 33.3077 93.0256 32.8923 93.0256 32.4769C93.0256 32.0616 93.4398 31.6462 93.8541 31.6462C94.0612 31.6462 94.4755 31.6462 94.4755 31.8539C94.6826 32.0616 94.6826 32.2693 94.6826 32.4769Z" fill="#3662C1"/>
<path d="M107.525 25C105.246 25 103.589 26.8692 103.589 28.9462H104.418C104.418 27.2846 105.66 25.8308 107.525 25.8308C109.182 25.8308 110.632 27.2846 110.632 28.9462C110.632 29.3615 110.632 29.5692 110.424 29.9846C110.217 30.8154 109.389 31.6462 108.56 31.8538C108.146 32.0615 107.939 32.0615 107.732 32.0615V32.8923C107.939 32.8923 108.353 32.6846 108.56 32.6846C109.803 32.2692 110.839 31.2308 111.253 29.9846C111.253 29.5692 111.253 29.3615 111.253 28.9462C111.253 26.8692 109.596 25 107.525 25Z" fill="#3662C1"/>
<path d="M108.56 32.4769C108.56 32.4769 108.56 32.4769 108.56 32.6846C108.56 33.1 108.146 33.3077 107.732 33.3077C107.317 33.3077 106.903 32.8923 106.903 32.4769C106.903 32.0616 107.317 31.6462 107.732 31.6462C108.146 31.6462 108.353 31.6462 108.56 31.8539C108.56 32.0616 108.56 32.2693 108.56 32.4769Z" fill="#3662C1"/>
<path d="M121.402 25C119.331 25 117.467 26.8692 117.467 28.9462H118.295C118.295 27.2846 119.745 25.8308 121.402 25.8308C123.059 25.8308 124.509 27.2846 124.509 28.9462C124.509 29.3615 124.509 29.5692 124.302 29.9846C124.095 30.8154 123.266 31.6462 122.438 31.8538C122.231 32.0615 121.816 32.0615 121.609 32.0615V32.8923C121.816 32.8923 122.231 32.6846 122.645 32.6846C123.888 32.2692 124.716 31.2308 125.13 29.9846C125.13 29.5692 125.338 29.3615 125.338 28.9462C125.338 26.8692 123.473 25 121.402 25Z" fill="#3662C1"/>
<path d="M122.645 32.4769C122.645 32.4769 122.645 32.4769 122.645 32.6846C122.438 33.1 122.231 33.3077 121.816 33.3077C121.195 33.3077 120.988 32.8923 120.988 32.4769C120.988 32.0616 121.195 31.6462 121.816 31.6462C122.024 31.6462 122.231 31.6462 122.438 31.8539C122.438 32.0616 122.645 32.2693 122.645 32.4769Z" fill="#3662C1"/>
<path d="M87.4331 67.5769H83.0834C82.462 67.5769 82.0478 67.1615 81.8406 66.5384L81.0121 61.9692C80.805 61.5538 81.2193 61.1384 81.8406 61.1384H86.1903C86.8117 61.1384 87.226 61.5538 87.4331 61.9692L88.2616 66.5384C88.4688 67.1615 88.0545 67.5769 87.4331 67.5769Z" fill="#8DD9AC"/>
<path d="M99.0323 67.5769H94.4755C93.8541 67.5769 93.4398 67.1615 93.2327 66.5384L92.4042 61.9692C92.4042 61.5538 92.6113 61.1384 93.2327 61.1384H97.7895C98.2038 61.1384 98.8252 61.5538 98.8252 61.9692L99.6537 66.5384C99.8608 67.1615 99.4465 67.5769 99.0323 67.5769Z" fill="#8DD9AC"/>
<path d="M110.424 67.5769H105.868C105.246 67.5769 104.832 67.1615 104.832 66.5384L103.796 61.9692C103.796 61.5538 104.003 61.1384 104.625 61.1384H109.182C109.596 61.1384 110.217 61.5538 110.217 61.9692L111.253 66.5384C111.253 67.1615 110.839 67.5769 110.424 67.5769Z" fill="#3662C1"/>
<path d="M53.257 67.5769H48.7001C48.0787 67.5769 47.6645 67.1615 47.4574 66.5384L46.6288 61.9692C46.6288 61.5538 46.836 61.1384 47.4574 61.1384H52.0142C52.4284 61.1384 53.0498 61.5538 53.0498 61.9692L54.0855 66.5384C54.0855 67.1615 53.6712 67.5769 53.257 67.5769Z" fill="#8DD9AC"/>
<path d="M48.2858 53.8692H46.2145C46.0074 53.8692 45.8002 53.6615 45.8002 53.4538L45.386 51.5846C45.386 51.3769 45.5931 51.1692 45.8002 51.1692H47.6644C47.8715 51.1692 48.0787 51.3769 48.2858 51.5846L48.4929 53.4538C48.7 53.6615 48.4929 53.8692 48.2858 53.8692Z" fill="#FA7269"/>
<path d="M64.649 67.5769H60.0922C59.6779 67.5769 59.0565 67.1615 59.0565 66.5384L58.0209 61.9692C58.0209 61.5538 58.4351 61.1384 58.8494 61.1384H63.4062C64.0276 61.1384 64.4419 61.5538 64.649 61.9692L65.4775 66.5384C65.4775 67.1615 65.2704 67.5769 64.649 67.5769Z" fill="#8DD9AC"/>
<path d="M76.0411 67.5769H71.4843C71.07 67.5769 70.4486 67.1615 70.4486 66.5384L69.6201 61.9692C69.413 61.5538 69.8272 61.1384 70.2415 61.1384H74.7983C75.4197 61.1384 75.8339 61.5538 76.0411 61.9692L76.8696 66.5384C76.8696 67.1615 76.6625 67.5769 76.0411 67.5769Z" fill="#8DD9AC"/>
<path d="M121.816 67.5769H117.26C116.845 67.5769 116.224 67.1615 116.224 66.5384L115.395 61.9692C115.188 61.5538 115.603 61.1384 116.017 61.1384H120.574C121.195 61.1384 121.609 61.5538 121.816 61.9692L122.645 66.5384C122.645 67.1615 122.438 67.5769 121.816 67.5769Z" fill="#3662C1"/>
<path d="M85.569 57.6077H81.0121C80.5979 57.6077 79.9765 57.1923 79.9765 56.7769L79.148 52.2077C78.9409 51.5846 79.3551 51.1692 79.7694 51.1692H84.3262C84.9476 51.1692 85.3618 51.5846 85.569 52.2077L86.3975 56.7769C86.6046 57.1923 86.1904 57.6077 85.569 57.6077Z" fill="#8DD9AC"/>
<path d="M97.1682 57.6077H92.6114C91.99 57.6077 91.5757 57.1923 91.3686 56.7769L90.5401 52.2077C90.333 51.5846 90.7472 51.1692 91.3686 51.1692H95.9254C96.3397 51.1692 96.9611 51.5846 96.9611 52.2077L97.7896 56.7769C97.9967 57.1923 97.5825 57.6077 97.1682 57.6077Z" fill="#8DD9AC"/>
<path d="M108.56 57.6077H104.003C103.382 57.6077 102.968 57.1923 102.761 56.7769L101.932 52.2077C101.932 51.5846 102.139 51.1692 102.761 51.1692H107.317C107.732 51.1692 108.353 51.5846 108.353 52.2077L109.182 56.7769C109.389 57.1923 108.974 57.6077 108.56 57.6077Z" fill="#3662C1"/>
<path d="M119.952 57.6077H115.396C114.981 57.6077 114.36 57.1923 114.36 56.7769L113.324 52.2077C113.324 51.5846 113.738 51.1692 114.153 51.1692H118.71C119.124 51.1692 119.745 51.5846 119.745 52.2077L120.781 56.7769C120.781 57.1923 120.367 57.6077 119.952 57.6077Z" fill="#3662C1"/>
<path d="M89.5044 77.9615H84.9476C84.5333 77.9615 83.9119 77.5461 83.9119 77.1307L83.0834 72.5615C82.8763 71.9384 83.2905 71.523 83.7048 71.523H88.2616C88.883 71.523 89.2973 71.9384 89.5044 72.5615L90.3329 77.1307C90.3329 77.5461 90.1258 77.9615 89.5044 77.9615Z" fill="#8DD9AC"/>
<path d="M100.896 77.9615H96.5468C95.9254 77.9615 95.5112 77.5461 95.304 77.1307L94.4755 72.5615C94.2684 71.9384 94.6826 71.523 95.304 71.523H99.6537C100.275 71.523 100.689 71.9384 100.896 72.5615L101.725 77.1307C101.932 77.5461 101.518 77.9615 100.896 77.9615Z" fill="#8DD9AC"/>
<path d="M112.496 77.9615H107.939C107.318 77.9615 106.903 77.5461 106.696 77.1307L105.868 72.5615C105.868 71.9384 106.075 71.523 106.696 71.523H111.253C111.667 71.523 112.289 71.9384 112.289 72.5615L113.117 77.1307C113.324 77.5461 112.91 77.9615 112.496 77.9615Z" fill="#3662C1"/>
<path d="M55.3282 77.9615H50.7713C50.15 77.9615 49.7357 77.5461 49.5286 77.1307L48.7001 72.5615C48.4929 71.9384 48.9072 71.523 49.5286 71.523H54.0854C54.4997 71.523 55.121 71.9384 55.121 72.5615L55.9496 77.1307C56.1567 77.5461 55.7424 77.9615 55.3282 77.9615Z" fill="#8DD9AC"/>
<path d="M66.7203 77.9615H62.1634C61.5421 77.9615 61.1278 77.5461 60.9207 77.1307L60.0922 72.5615C60.0922 71.9384 60.2993 71.523 60.9207 71.523H65.4775C65.8918 71.523 66.5131 71.9384 66.5131 72.5615L67.3417 77.1307C67.5488 77.5461 67.1345 77.9615 66.7203 77.9615Z" fill="#8DD9AC"/>
<path d="M78.1123 77.9615H73.5555C73.1412 77.9615 72.5198 77.5461 72.5198 77.1307L71.4842 72.5615C71.4842 71.9384 71.8984 71.523 72.3127 71.523H76.8695C77.4909 71.523 77.9052 71.9384 77.9052 72.5615L78.9408 77.1307C78.9408 77.5461 78.7337 77.9615 78.1123 77.9615Z" fill="#8DD9AC"/>
<path d="M123.888 77.9615H119.331C118.709 77.9615 118.295 77.5461 118.088 77.1307L117.26 72.5615C117.26 71.9384 117.467 71.523 118.088 71.523H122.645C123.059 71.523 123.681 71.9384 123.681 72.5615L124.716 77.1307C124.716 77.5461 124.302 77.9615 123.888 77.9615Z" fill="#3662C1"/>
<path d="M91.5757 88.5538H87.0189C86.3975 88.5538 85.9832 88.1384 85.9832 87.5154L84.9476 82.9461C84.9476 82.5307 85.1547 82.1154 85.7761 82.1154H90.3329C90.7472 82.1154 91.3685 82.5307 91.3685 82.9461L92.4042 87.5154C92.4042 88.1384 91.9899 88.5538 91.5757 88.5538Z" fill="#8DD9AC"/>
<path d="M102.968 88.5538H98.4109C97.9967 88.5538 97.3753 88.1384 97.3753 87.5154L96.5468 82.9461C96.3397 82.5307 96.7539 82.1154 97.1682 82.1154H101.725C102.346 82.1154 102.761 82.5307 102.968 82.9461L103.796 87.5154C103.796 88.1384 103.589 88.5538 102.968 88.5538Z" fill="#8DD9AC"/>
<path d="M114.36 88.5538H109.803C109.389 88.5538 108.767 88.1384 108.767 87.5154L107.939 82.9461C107.732 82.5307 108.146 82.1154 108.56 82.1154H113.117C113.738 82.1154 114.153 82.5307 114.36 82.9461L115.188 87.5154C115.396 88.1384 114.981 88.5538 114.36 88.5538Z" fill="#3662C1"/>
<path d="M57.1924 88.5538H52.6356C52.2214 88.5538 51.6 88.1384 51.6 87.5154L50.7715 82.9461C50.5643 82.5307 50.9786 82.1154 51.3928 82.1154H55.9497C56.5711 82.1154 56.9853 82.5307 57.1924 82.9461L58.021 87.5154C58.021 88.1384 57.8138 88.5538 57.1924 88.5538Z" fill="#8DD9AC"/>
<path d="M68.5845 88.5538H64.2348C63.6134 88.5538 63.1991 88.1384 62.992 87.5154L62.1635 82.9461C61.9564 82.5307 62.3706 82.1154 62.992 82.1154H67.3417C67.9631 82.1154 68.3774 82.5307 68.5845 82.9461L69.413 87.5154C69.6201 88.1384 69.2059 88.5538 68.5845 88.5538Z" fill="#FA7269"/>
<path d="M80.1836 88.5538H75.6268C75.0054 88.5538 74.5912 88.1384 74.3841 87.5154L73.5555 82.9461C73.5555 82.5307 73.7627 82.1154 74.3841 82.1154H78.9409C79.3551 82.1154 79.9765 82.5307 79.9765 82.9461L80.805 87.5154C81.0122 88.1384 80.5979 88.5538 80.1836 88.5538Z" fill="#8DD9AC"/>
<path d="M125.959 88.5538H121.402C120.781 88.5538 120.366 88.1384 120.159 87.5154L119.331 82.9461C119.124 82.5307 119.538 82.1154 120.159 82.1154H124.716C125.13 82.1154 125.752 82.5307 125.752 82.9461L126.58 87.5154C126.787 88.1384 126.373 88.5538 125.959 88.5538Z" fill="#3662C1"/>
<path d="M93.4398 98.3154H88.8829C88.4687 98.3154 87.8473 97.9 87.8473 97.4846L86.8116 92.9154C86.8116 92.2923 87.2259 91.8769 87.6402 91.8769H92.197C92.8184 91.8769 93.2326 92.2923 93.4398 92.9154L94.2683 97.4846C94.2683 97.9 94.0611 98.3154 93.4398 98.3154Z" fill="#8DD9AC"/>
<path d="M104.832 98.3154H100.275C99.8608 98.3154 99.2394 97.9 99.2394 97.4846L98.4109 92.9154C98.2037 92.2923 98.618 91.8769 99.0323 91.8769H103.589C104.21 91.8769 104.625 92.2923 104.832 92.9154L105.66 97.4846C105.66 97.9 105.453 98.3154 104.832 98.3154Z" fill="#8DD9AC"/>
<path d="M116.224 98.3154H111.874C111.253 98.3154 110.839 97.9 110.632 97.4846L109.803 92.9154C109.596 92.2923 110.01 91.8769 110.632 91.8769H114.981C115.603 91.8769 116.017 92.2923 116.224 92.9154L117.053 97.4846C117.26 97.9 116.845 98.3154 116.224 98.3154Z" fill="#3662C1"/>
<path d="M59.0566 98.3154H54.7069C54.0855 98.3154 53.6712 97.9 53.4641 97.4846L52.6356 92.9154C52.4285 92.2923 52.8427 91.8769 53.4641 91.8769H57.8138C58.4352 91.8769 58.8495 92.2923 59.0566 92.9154L59.8851 97.4846C60.0922 97.9 59.678 98.3154 59.0566 98.3154Z" fill="#8DD9AC"/>
<path d="M70.6557 98.3154H66.0989C65.4775 98.3154 65.0632 97.9 64.8561 97.4846L64.0276 92.9154C64.0276 92.2923 64.2347 91.8769 64.8561 91.8769H69.4129C69.8272 91.8769 70.4486 92.2923 70.4486 92.9154L71.2771 97.4846C71.4842 97.9 71.07 98.3154 70.6557 98.3154Z" fill="#8DD9AC"/>
<path d="M82.0478 98.3154H77.491C76.8696 98.3154 76.4554 97.9 76.2483 97.4846L75.4197 92.9154C75.4197 92.2923 75.6269 91.8769 76.2483 91.8769H80.8051C81.2193 91.8769 81.8407 92.2923 81.8407 92.9154L82.8764 97.4846C82.8764 97.9 82.4621 98.3154 82.0478 98.3154Z" fill="#8DD9AC"/>
<path d="M61.9563 52.2077H49.9428C49.7357 52.2077 49.7357 52 49.7357 51.7923C49.7357 51.5846 49.7357 51.377 49.9428 51.377H61.9563C62.1634 51.377 62.3705 51.5846 62.3705 51.7923C62.3705 52 62.1634 52.2077 61.9563 52.2077Z" fill="#8DD9AC"/>
<path d="M62.3706 53.6615H50.3572C50.1501 53.6615 49.9429 53.4538 49.9429 53.2461C49.9429 53.0385 50.1501 53.0385 50.3572 53.0385H62.3706C62.5778 53.0385 62.5778 53.0385 62.5778 53.2461C62.5778 53.4538 62.5778 53.6615 62.3706 53.6615Z" fill="#8DD9AC"/>
<path d="M49.1144 41.2H44.9718C44.5575 41.2 44.3504 40.9923 44.3504 40.5769C44.3504 40.3692 44.5575 39.9539 44.9718 39.9539H49.1144C49.5286 39.9539 49.7357 40.3692 49.7357 40.5769C49.7357 40.9923 49.5286 41.2 49.1144 41.2Z" fill="white"/>
<path d="M60.5065 41.2H56.3639C55.9497 41.2 55.7426 40.9923 55.7426 40.5769C55.7426 40.3692 55.9497 39.9539 56.3639 39.9539H60.5065C60.7136 39.9539 61.1279 40.3692 61.1279 40.5769C61.1279 40.9923 60.7136 41.2 60.5065 41.2Z" fill="white"/>
<path d="M71.6913 41.2H67.5488C67.3416 41.2 66.9274 40.9923 66.9274 40.5769C66.9274 40.3692 67.3416 39.9539 67.5488 39.9539H71.6913C72.1056 39.9539 72.3127 40.3692 72.3127 40.5769C72.3127 40.9923 72.1056 41.2 71.6913 41.2Z" fill="white"/>
<path d="M83.0835 41.2H78.9409C78.5266 41.2 78.3195 40.9923 78.3195 40.5769C78.3195 40.3692 78.5266 39.9539 78.9409 39.9539H83.0835C83.2906 39.9539 83.7049 40.3692 83.7049 40.5769C83.7049 40.9923 83.2906 41.2 83.0835 41.2Z" fill="white"/>
<path d="M94.2683 41.2H90.1258C89.9187 41.2 89.5044 40.9923 89.5044 40.5769C89.5044 40.3692 89.9187 39.9539 90.1258 39.9539H94.2683C94.6826 39.9539 94.8897 40.3692 94.8897 40.5769C94.8897 40.9923 94.6826 41.2 94.2683 41.2Z" fill="white"/>
<path d="M105.66 41.2H101.518C101.104 41.2 100.896 40.9923 100.896 40.5769C100.896 40.3692 101.104 39.9539 101.518 39.9539H105.66C106.075 39.9539 106.282 40.3692 106.282 40.5769C106.282 40.9923 106.075 41.2 105.66 41.2Z" fill="white"/>
<path d="M116.845 41.2H112.91C112.496 41.2 112.288 40.9923 112.288 40.5769C112.288 40.3692 112.496 39.9539 112.91 39.9539H116.845C117.26 39.9539 117.467 40.3692 117.467 40.5769C117.467 40.9923 117.26 41.2 116.845 41.2Z" fill="white"/>
<path d="M90.9544 57.8154C89.9187 57.8154 89.2973 57.4 88.8831 56.9847C88.2617 55.9462 88.8831 54.2847 90.5401 52.4154C91.7829 50.9616 93.2328 49.9231 93.2328 49.9231C93.4399 49.9231 93.4399 49.9231 93.4399 49.9231C93.647 49.9231 93.4399 50.1308 93.4399 50.1308C93.4399 50.1308 87.6403 54.4924 89.0902 56.777C89.7116 57.6077 90.7472 57.6077 91.3686 57.4C92.8185 57.4 94.6827 56.5693 96.3397 55.5308C98.2039 54.2847 99.4466 53.0385 99.8609 51.7924C100.068 51.1693 99.8609 50.5462 99.4466 50.3385C99.0324 49.9231 97.7896 49.9231 96.5468 50.3385C95.0969 50.7539 93.8542 51.377 93.0257 52C93.0257 52 93.0257 52 92.8185 52V51.7924C93.647 51.1693 95.0969 50.3385 96.3397 50.1308C97.7896 49.7154 99.0324 49.7154 99.6538 50.1308C100.068 50.3385 100.482 50.7539 100.068 52C99.6538 53.0385 98.411 54.4924 96.5468 55.7385C94.8898 56.777 93.0257 57.6077 91.3686 57.8154C91.1615 57.8154 91.1615 57.8154 90.9544 57.8154Z" fill="#ED6966"/>
<path d="M114.774 50.3384L114.153 49.5076C114.153 49.5076 114.36 47.8461 112.496 46.8076C112.496 46.8076 111.667 46.6 111.253 47.223C111.046 47.6384 112.081 47.6384 112.081 48.4692C111.874 49.5076 112.289 49.923 112.91 50.3384L113.531 50.9615L114.774 50.3384Z" fill="#FC9290"/>
<path d="M133.208 48.2615C133.208 48.2615 131.551 56.5692 122.231 59.2692C119.331 60.1 112.703 50.5461 112.703 50.5461C112.703 50.5461 113.117 49.5077 114.567 49.7153C114.567 49.7153 120.988 54.0769 121.609 54.4923C122.438 54.9077 127.202 49.3 129.273 48.2615C131.551 47.4307 133.208 48.2615 133.208 48.2615Z" fill="#060632"/>
<path d="M116.224 46.1846L116.638 48.2616L106.489 50.1308L106.075 48.0539L116.224 46.1846Z" fill="#ED6966"/>
<path d="M104.003 49.5077L106.489 50.1308L106.075 48.0538L104.003 49.5077Z" fill="#FC9290"/>
<path d="M117.467 46.6L117.674 47.2231C117.674 47.6385 117.467 48.0539 117.052 48.0539L116.638 48.2615L116.224 46.1846L116.638 45.9769C117.052 45.9769 117.467 46.1846 117.467 46.6Z" fill="#FC9290"/>
<path d="M144.393 100.6C144.393 100.6 145.636 101.638 145.429 102.261C145.015 103.092 143.979 103.508 143.979 104.546C143.772 105.377 143.151 106 142.736 106C142.115 106 140.251 106 140.251 106C140.251 106 139.837 105.169 140.872 105.169C141.701 104.961 142.115 103.715 142.115 102.885C141.908 101.846 142.115 100.392 142.115 100.392L143.979 99.9769L144.393 100.6Z" fill="#060632"/>
<path d="M130.309 103.3C130.309 103.3 130.516 105.585 129.894 106L123.473 105.792C123.473 105.792 123.473 105.169 124.509 104.962C125.545 104.754 127.409 104.131 127.616 102.885C128.03 101.431 130.309 103.3 130.309 103.3Z" fill="#060632"/>
<path d="M124.716 69.2385C124.716 69.2385 125.131 73.3923 125.545 78.5846C125.959 85.4385 126.788 93.9539 126.788 95.4077C126.788 98.3154 127.409 102.677 127.409 102.677C127.409 102.677 128.445 103.715 130.516 103.3C130.516 103.3 132.38 97.0693 133.001 90.2154V90.0077C133.623 83.1539 134.244 68.6154 134.244 68.6154L124.716 69.2385Z" fill="#FA7269"/>
<path d="M124.716 69.2385C124.716 69.2385 125.131 73.3923 125.545 78.5846L133.001 90.2154V90.0077C133.623 83.1539 134.244 68.6154 134.244 68.6154L124.716 69.2385Z" fill="#E75755"/>
<path d="M126.373 69.8615C126.373 69.8615 132.587 85.0231 136.523 92.2923C140.665 99.3539 141.908 101.431 141.908 101.431C141.908 101.431 144.186 100.392 144.393 99.7692C144.393 99.7692 142.943 86.0615 140.044 82.5308C138.594 80.6615 136.73 75.0539 136.73 72.9769C136.73 70.9 136.108 66.9539 136.108 66.9539L126.373 69.8615Z" fill="#FA7269"/>
<path d="M134.451 46.1846C134.451 46.1846 130.309 48.2616 127.823 47.4308C127.823 47.4308 128.445 46.8077 129.48 46.1846C129.48 45.7692 129.273 45.3539 129.273 44.9385C129.273 44.1077 129.273 43.6923 129.273 43.6923L130.723 42.4462L132.38 41.2C132.173 44.5231 134.451 46.1846 134.451 46.1846Z" fill="#FC9290"/>
<path d="M124.509 69.6538H124.716C125.752 69.6538 128.237 70.2769 130.516 70.0692C132.38 69.8615 134.037 69.2384 135.901 68.4077C136.108 68.4077 136.73 67.9923 136.73 67.7846C136.73 67.5769 136.523 67.1615 136.523 66.5384C136.523 65.5 136.315 64.0461 136.315 62.3846C136.315 60.9307 136.315 59.4769 136.523 58.023C136.523 57.8154 136.523 57.8154 136.523 57.6077C136.523 57.1923 136.523 56.5692 136.523 55.9461C136.523 54.2846 136.315 52.4154 136.108 50.9615C135.694 48.2615 134.866 46.1846 133.623 45.3538C133.416 45.1461 132.38 45.7692 131.344 46.1846C130.516 46.6 129.687 46.6 128.859 46.3923L128.03 47.223C126.995 48.0538 125.752 49.3 125.338 51.3769C124.923 52.8307 124.716 55.9461 124.509 58.8538C124.509 60.3077 124.509 61.7615 124.509 63.0077C124.509 63.2154 124.509 63.423 124.509 63.423C124.302 66.9538 124.509 69.6538 124.509 69.6538Z" fill="#0B0754"/>
<path d="M132.38 42.4462C132.38 42.4462 131.344 44.3154 129.273 44.9385C129.273 44.1077 129.273 43.6923 129.273 43.6923L130.723 42.4462H132.38Z" fill="#EA8888"/>
<path d="M128.445 43.6923C128.445 43.6923 132.38 44.3154 132.794 41.8231C133.208 39.3308 134.037 37.8769 131.344 37.2538C128.859 36.6308 128.237 37.6692 128.03 38.2923C127.616 39.1231 127.409 43.2769 128.445 43.6923Z" fill="#FC9290"/>
<path d="M134.244 37.0461C134.244 36.8384 134.451 36.8384 134.658 36.8384C134.658 36.8384 134.451 36.8384 134.244 36.8384C134.244 36.4231 134.037 36.0077 133.623 36.0077C133.623 36.0077 133.83 36.0077 133.83 36.4231C133.416 35.8 132.173 35.3846 129.273 35.5923C125.13 36.0077 126.58 38.5 126.995 38.9154C127.616 39.1231 128.859 38.2923 129.894 38.5C130.723 38.5 130.93 39.9538 131.344 40.1615C131.551 40.3692 131.551 39.9538 131.966 39.7461C132.38 39.5384 132.38 40.3692 132.38 40.7846C132.173 41.2 132.794 41.8231 132.794 41.8231C132.794 41.8231 132.794 41.8231 133.416 41.2C134.037 40.5769 134.658 37.6692 134.244 37.0461Z" fill="#0B0B36"/>
<path d="M114.153 49.3C114.153 49.3 114.36 48.8846 113.946 48.6769C113.531 48.2615 113.324 47.6384 113.117 47.8461C112.703 47.8461 113.324 48.4692 113.117 49.3C113.117 49.5077 113.738 50.1307 114.153 49.3Z" fill="#FC9290"/>
<path d="M136.315 62.3846C136.315 60.9307 136.315 59.4769 136.523 58.0231C136.523 57.8154 136.523 57.8154 136.523 57.6077C136.108 55.7384 135.487 54.0769 134.658 54.0769C134.658 54.0769 132.173 58.0231 136.315 62.3846Z" fill="#060632"/>
<path d="M139.629 69.0307C139.629 69.0307 139.422 71.1077 139.215 71.523C139.008 71.9384 137.972 73.1846 137.558 73.3923C137.144 73.6 137.765 71.7307 137.765 71.3153C137.765 71.1077 137.351 72.1461 137.351 72.1461C137.144 72.1461 137.144 71.1077 137.144 70.9C137.144 70.4846 137.972 69.6538 138.387 69.0307C138.594 68.2 139.629 69.0307 139.629 69.0307Z" fill="#FC9290"/>
<path d="M133.623 45.3538C133.623 45.3538 136.108 46.3923 137.351 48.2615C139.215 51.1692 141.286 61.5538 141.286 62.5923C141.494 63.423 139.837 70.2769 139.837 70.2769C139.837 70.2769 138.18 70.2769 137.765 69.4461C137.765 69.4461 137.972 62.3846 137.765 61.9692C137.558 61.5538 130.93 52.6231 131.759 50.7538C132.38 48.6769 133.623 45.3538 133.623 45.3538Z" fill="#0B0754"/>
<path d="M105.246 48.6769V49.7154L104.003 49.5077L105.246 48.6769Z" fill="#ED6966"/>
</svg>
