<svg width="165" height="107" viewBox="0 0 165 107" fill="none" xmlns="http://www.w3.org/2000/svg">
<path d="M10.128 105.555C10.128 105.555 -13.3611 81.9288 11.2038 61.2381C38.4583 38.4503 12.6382 12.8665 39.7134 3.63956C60.6921 -3.35055 72.1677 1.12312 85.4363 5.45699C96.374 9.23165 108.387 12.8665 127.752 9.93066C163.614 4.75798 162.896 45.8598 152.317 60.5391C143.531 72.7019 177.241 78.7134 160.027 105.555H10.128Z" fill="#EBFAF1"/>
<path d="M84.9352 106.435C84.2082 105.861 72.4048 83.007 64.6187 93.8124C64.6187 93.8124 52.93 54.1861 36.9369 56.0603C20.9439 57.9345 34.4882 87.3292 34.4882 87.3292C34.4882 87.3292 20.7908 81.7065 23.9665 96.5473C23.9665 96.5473 6.51952 93.3726 7.82039 105.918L84.9352 106.435Z" fill="#8DD9AD"/>
<path d="M19.4135 68.606C21.5561 71.1879 22.1683 74.1904 20.7909 75.3379C19.4135 76.4854 16.563 75.3188 14.4204 72.737C12.297 70.1743 11.6848 67.1526 13.0622 66.0242C14.4396 64.8767 17.29 66.0242 19.4135 68.606Z" fill="#8DD9AD"/>
<path d="M16.1613 78.723C17.4239 80.253 17.7874 82.0316 16.9648 82.7201C16.1613 83.3894 14.4778 82.701 13.2152 81.1901C11.9526 79.6601 11.5891 77.8815 12.3926 77.193C13.2152 76.5237 14.8987 77.2122 16.1613 78.723Z" fill="#8DD9AD"/>
<path d="M80.2293 26.8186C80.2293 26.8186 83.2519 25.1357 90.4258 27.6601C97.6189 30.1655 102.803 38.1404 104.793 43.3997C106.782 48.6781 109.097 63.9014 107.815 65.5078C106.553 67.0952 78.3927 51.8337 78.3927 51.8337L76.5179 32.0588L80.2293 26.8186Z" fill="#4CB7D8"/>
<path d="M54.8623 96.6429L52.6049 101.08L59.3771 104.962L60.9458 101.845L60.4484 99.1483L54.8623 96.6429Z" fill="#FE9F73"/>
<path d="M58.4204 106.358H47.2482C47.1526 106.339 47.076 106.339 47.0187 106.301C46.2152 106.052 46.2343 105.536 46.2917 105.325C46.3108 105.249 46.3491 105.211 46.4065 105.172L52.6048 101.08L54.6517 101.998C55.3022 102.285 55.9909 102.476 56.6987 102.533C58.1526 102.686 60.4865 102.763 60.9457 101.845L60.85 105.345C60.85 105.345 61.1943 106.396 58.4204 106.358Z" fill="#EF3A4C"/>
<path d="M63.8726 60.4017C63.8726 60.4017 54.3648 86.5451 51.6674 97.9626C51.6674 97.9626 56.2778 102.495 62.1126 102.017L70.243 83.925L63.8726 60.4017Z" fill="#EF3A4C"/>
<path d="M81.9891 76.3899L86.3318 94.0802L86.7718 101.845L85.1839 104.962L78.89 102.591L70.4535 74.5922L81.9891 76.3899Z" fill="#FE9F73"/>
<path d="M71.1231 53.2299C71.1231 53.2299 64.3509 52.5414 62.9353 58.8716C62.1318 62.4288 66.704 77.1548 70.4153 87.8646C72.7109 94.5009 75.2935 100.946 75.2935 100.946C75.2935 100.946 83.6918 101.156 87.824 98.192L82.2379 73.196C82.2379 73.196 97.2936 78.0919 102.727 73.6359C108.141 69.1607 107.815 65.5079 107.815 65.5079L96.9684 56.8062L71.1231 53.2299Z" fill="#FF424D"/>
<path d="M98.6135 49.0224L87.6708 46.3067L87.5369 52.4266C87.5369 52.4266 80.5734 50.9349 75.676 50.1699L71.563 56.1177C72.5386 56.3854 77.5508 57.7815 78.9665 58.3935C78.9665 58.3935 92.6256 64.1501 95.8204 62.7922C99.0152 61.4343 98.6135 49.0224 98.6135 49.0224Z" fill="#FE9F73"/>
<path d="M89.8709 54.3964C89.9092 54.3964 89.9283 54.3773 89.9475 54.3582C89.9857 54.3199 89.9857 54.2625 89.9475 54.2243L87.6518 52.3309C87.6135 52.3118 87.5561 52.3118 87.5179 52.35C87.4796 52.3883 87.4796 52.4648 87.537 52.503L89.8136 54.3773C89.8327 54.3964 89.8518 54.3964 89.8709 54.3964Z" fill="#F07162"/>
<path d="M70.9126 25.6711C70.9126 25.6711 70.6065 25.958 70.817 26.5509C71.0465 27.1437 72.4431 30.0316 72.4431 30.0316C72.4431 30.0316 70.4535 47.3394 70.4535 50.189C70.4535 53.0386 79.6553 51.6807 79.6553 51.6807C79.6553 51.6807 77.857 30.2993 76.7857 29.324C75.7144 28.3295 70.9126 25.6711 70.9126 25.6711Z" fill="#F9956E"/>
<path d="M69.9944 24.562L73.6866 29.5344C73.6866 29.5344 74.8153 31.1791 76.3648 30.3376L77.6848 32.6708C78.1822 33.5506 79.2153 33.9522 80.1527 33.6271C80.6118 33.4741 81.1283 33.2255 81.6257 32.843C83.2327 31.6572 83.2135 29.8213 82.8883 29.1136C82.5822 28.406 80.057 25.8433 80.057 25.8433L79.0622 24.3898L74.8153 19.0732L69.9944 24.562Z" fill="#FE9F73"/>
<path d="M78.603 26.57C78.603 26.57 80.4969 29.324 77.3404 32.0588L76.3647 30.3376C76.3647 30.3376 78.8517 29.171 78.603 26.57Z" fill="#F07162"/>
<path d="M75.7908 24.2941C75.8099 24.275 75.8291 24.275 75.8291 24.2368C75.8291 24.1985 75.8099 24.1603 75.7526 24.1412C75.7334 24.1412 74.1265 23.8925 73.7821 25.193C73.7821 25.2312 73.8012 25.2695 73.8395 25.2886C73.8969 25.3077 73.9351 25.2695 73.9543 25.2312C74.2412 24.0838 75.676 24.2941 75.7334 24.3133C75.7526 24.3133 75.7717 24.3133 75.7908 24.2941Z" fill="black"/>
<path d="M77.5698 21.8845L76.3454 23.2614L76.288 23.7204C76.288 23.7204 74.6237 21.2151 74.5472 20.5457C74.4706 19.8572 77.5698 21.8845 77.5698 21.8845Z" fill="black"/>
<path d="M72.749 25.939C72.7682 25.9198 72.7682 25.9007 72.7682 25.8816C72.7873 25.8242 72.749 25.786 72.6916 25.786C72.6534 25.786 71.6203 25.7095 71.4673 26.3597C71.4673 26.398 71.4864 26.4553 71.5247 26.4553C71.5821 26.4745 71.6203 26.4362 71.6395 26.398C71.7542 25.8816 72.6725 25.9581 72.6916 25.9581C72.7108 25.9581 72.7299 25.9581 72.749 25.939Z" fill="black"/>
<path d="M74.643 25.5756C74.7195 25.6712 74.8725 25.7095 74.9873 25.6138C75.1021 25.5373 75.1212 25.3843 75.0447 25.2696C74.9682 25.1548 74.796 25.1357 74.7004 25.2122C74.5856 25.3078 74.5664 25.4608 74.643 25.5756Z" fill="black"/>
<path d="M72.3665 26.9525C72.443 27.0672 72.596 27.0863 72.7108 26.9907C72.8255 26.9142 72.8447 26.7612 72.7682 26.6465C72.6916 26.5317 72.5195 26.5126 72.4239 26.6082C72.3091 26.6847 72.29 26.8377 72.3665 26.9525Z" fill="black"/>
<path d="M76.25 24.275C76.7283 24.9252 77.6657 25.0782 78.3352 24.581C79.0048 24.0838 79.1387 23.1467 78.6413 22.4964C78.1631 21.8271 77.2257 21.6932 76.5561 22.1713C75.8865 22.6685 75.7526 23.6056 76.25 24.275Z" fill="#FE9F73"/>
<path d="M78.144 23.8926C78.3927 23.7014 78.4309 23.3954 78.3353 23.1659C78.2396 22.8981 78.01 22.726 77.7422 22.7643C77.3596 22.7834 77.1874 23.0703 77.13 23.2424C77.0918 23.0703 77.0918 22.9173 77.1492 22.7643C77.3022 22.4583 77.6657 22.3435 77.6657 22.3435C77.6848 22.3435 77.704 22.3053 77.6848 22.2861C77.6848 22.267 77.6657 22.2479 77.6274 22.267C77.6274 22.267 77.2257 22.4009 77.0727 22.7451C76.9961 22.9364 76.9961 23.1468 77.0918 23.3954L77.1492 23.5484L77.1683 23.3954C77.1874 23.3763 77.264 22.879 77.7613 22.8408C78.0292 22.8216 78.2013 23.0129 78.2587 23.185C78.3353 23.3763 78.3353 23.644 78.1057 23.8161L78.0866 23.8352C78.0674 23.8352 78.0674 23.8735 78.0866 23.8926C78.1057 23.9117 78.1248 23.9117 78.144 23.8926Z" fill="#F07162"/>
<path d="M74.9299 27.4498C74.9491 27.4307 74.9682 27.4116 74.9491 27.3925C74.9491 27.3733 74.9299 27.3542 74.9108 27.3733L74.0691 27.6411L73.1125 25.9199C73.0934 25.9007 73.0743 25.8816 73.0551 25.9007C73.036 25.9007 73.036 25.939 73.036 25.9581L74.0308 27.7367L74.9299 27.4498Z" fill="#F07162"/>
<path d="M75.2934 28.0618C75.2743 28.0618 75.2552 28.0618 75.236 28.0426C75.2169 28.0235 75.2169 27.9661 75.236 27.947C75.2552 27.9279 75.5995 27.5837 76.1734 27.2585C76.2116 27.2394 76.2499 27.2585 76.269 27.2968C76.2881 27.3159 76.269 27.3542 76.2499 27.3733C75.676 27.6793 75.3317 28.0426 75.3317 28.0426C75.3125 28.0618 75.3125 28.0618 75.2934 28.0618Z" fill="#F07162"/>
<path d="M79.3873 33.7992C78.1055 33.7992 77.6273 32.7091 77.6273 32.7091L76.4603 30.4523C74.9107 31.2173 73.6481 29.5917 73.629 29.5726L69.9368 24.6002C69.9177 24.5619 69.9177 24.5237 69.9368 24.5046C69.9751 24.4854 70.0134 24.4854 70.0325 24.5237L73.7438 29.4961C73.7821 29.5535 74.9873 31.1026 76.4603 30.2993L76.5177 30.2611L77.742 32.6517C77.7612 32.6899 78.2203 33.7418 79.502 33.6653C79.5403 33.6653 79.5786 33.7035 79.5786 33.7227C79.5786 33.7609 79.5594 33.7992 79.5212 33.7992C79.4638 33.7992 79.4255 33.7992 79.3873 33.7992Z" fill="#F07162"/>
<path d="M77.5701 21.8845C77.5701 21.8845 76.2309 19.2453 74.8727 18.901C73.5144 18.5759 68.2727 20.1059 68.1005 20.9091C67.9283 21.7124 68.8083 21.8654 68.8083 21.8654C68.8083 21.8654 66.7614 22.573 67.4883 24.3133C68.1961 26.0537 72.2135 24.0265 73.8205 21.7697C73.8205 21.7697 75.5231 21.1386 77.5701 21.8845Z" fill="black"/>
<path d="M81.5109 33.8757C81.4535 33.8757 81.3961 33.8374 81.3769 33.78C81.3578 33.7035 81.3961 33.627 81.4726 33.6079C84.2656 32.7091 83.1943 28.7885 83.1752 28.7502C83.1561 28.6737 83.1943 28.5972 83.2709 28.5781C83.3474 28.559 83.4239 28.5972 83.443 28.6737C83.443 28.712 84.61 32.8812 81.5491 33.8565C81.53 33.8757 81.53 33.8757 81.5109 33.8757Z" fill="#21111D"/>
<path d="M99.3788 49.3475L86.0639 46.058L86.0448 45.9624C86.0257 45.8859 84.3231 37.624 84.3804 33.3019C84.4378 28.8841 86.0639 28.2529 86.1405 28.2338C86.217 28.2147 86.2935 28.2529 86.3126 28.3294C86.3318 28.3868 86.2935 28.4633 86.2361 28.4824C86.1978 28.5016 84.7057 29.1327 84.6483 33.3019C84.5909 37.3754 86.1213 44.9488 86.2935 45.8285L99.0918 49.0032C99.0153 47.6836 98.6136 39.46 98.2501 36.4766C98.2501 36.4192 98.3075 36.3427 98.3649 36.3427C98.4414 36.3236 98.5179 36.3809 98.5179 36.4574C98.9005 39.6895 99.3596 49.0797 99.3596 49.1754L99.3788 49.3475Z" fill="#21111D"/>
<path d="M98.7474 40.3589C98.7091 40.3589 98.69 40.3397 98.6708 40.3206C98.6135 40.2824 98.5943 40.1867 98.6517 40.1294C99.0152 39.6704 99.57 38.3125 99.5891 38.3125C99.6082 38.236 99.6847 38.2169 99.7613 38.236C99.8187 38.2551 99.8569 38.3508 99.8378 38.4081C99.7995 38.4655 99.2448 39.8234 98.843 40.3015C98.8239 40.3397 98.7856 40.3589 98.7474 40.3589Z" fill="#21111D"/>
<path d="M99.0726 46.3259C99.0535 46.3259 99.0343 46.3259 98.9961 46.3068C96.5856 44.815 85.5091 42.0611 85.3944 42.0419C85.3178 42.0228 85.2796 41.9463 85.2987 41.8698C85.3178 41.8124 85.3944 41.7551 85.4709 41.7742C85.93 41.8889 96.7004 44.5664 99.1491 46.0773C99.2065 46.1155 99.2256 46.192 99.1874 46.2685C99.1682 46.3068 99.1109 46.3259 99.0726 46.3259Z" fill="#21111D"/>
<path d="M75.3316 101.08C75.3125 101.08 75.2934 101.08 75.2934 101.08H75.1977L75.1786 101.003C71.6586 92.4354 61.4429 62.8878 62.9159 58.3744C64.1403 54.5877 67.4116 53.6123 67.4307 53.6123C67.5072 53.5932 67.5838 53.6315 67.6029 53.6888C67.622 53.7653 67.5838 53.8418 67.5072 53.861C67.4881 53.8801 64.3507 54.8172 63.1646 58.4509C61.7298 62.8878 71.8499 92.1677 75.389 100.812C76.0968 100.812 80.7838 100.755 84.1699 99.7219C84.2464 99.7028 84.3038 99.7411 84.3421 99.8176C84.3612 99.8749 84.3229 99.9514 84.2464 99.9706C80.7073 101.061 75.7716 101.08 75.3316 101.08Z" fill="#21111D"/>
<path d="M83.9022 80.2148C83.8448 80.2148 83.7874 80.1765 83.7683 80.1192L81.6831 70.9011C81.6831 70.8437 81.7214 70.7672 81.7979 70.7481C81.8553 70.729 81.9318 70.7863 81.9509 70.8437L84.0361 80.0618C84.0553 80.1383 83.9979 80.1957 83.9213 80.2148H83.9022Z" fill="#21111D"/>
<path d="M90.483 75.1467C86.8099 74.6686 82.3717 73.4064 82.3334 73.3873C82.2569 73.3682 82.2187 73.2917 82.2378 73.2343C82.2569 73.1578 82.3334 73.1195 82.3908 73.1387C82.4673 73.1578 88.8952 74.9937 92.6638 75.0702C92.7404 75.0702 92.7978 75.1276 92.7978 75.2041C92.7978 75.2806 92.7212 75.338 92.6447 75.338C91.9943 75.3189 91.2482 75.2615 90.483 75.1467Z" fill="#21111D"/>
<path d="M70.7597 56.1368C71.1997 56.0029 73.9736 56.328 74.9875 56.5193L80.0953 57.5711L80.2293 50.954C80.2293 50.954 74.2032 49.8065 73.304 49.73C72.424 49.6344 69.3249 50.3229 68.3493 51.0114C66.5701 52.2545 67.584 52.4266 67.584 52.4266C65.8432 53.8992 67.5458 53.9948 67.5458 53.9948C65.8623 55.1806 67.431 55.563 67.431 55.563C66.6084 56.2898 66.7423 56.6914 66.991 56.8827C67.1823 57.0357 67.431 57.0739 67.6606 57.0165C68.1962 56.8827 69.5353 56.5193 70.7597 56.1368Z" fill="#FE9F73"/>
<path d="M69.4397 54.6069C69.478 54.6069 69.5163 54.626 69.5354 54.6834C69.5545 54.7407 69.5163 54.7981 69.4589 54.8172C68.6554 55.0467 67.5076 55.6587 67.4885 55.6587C67.4311 55.697 67.3737 55.6779 67.3354 55.6205C67.3163 55.5631 67.3354 55.5057 67.3928 55.4866C67.4311 55.4484 68.5789 54.8364 69.4015 54.6069C69.4015 54.6069 69.4206 54.6069 69.4397 54.6069Z" fill="#F07162"/>
<path d="M69.4778 53.2299C69.516 53.249 69.5734 53.2872 69.5734 53.3255C69.5926 53.3829 69.5352 53.4402 69.4778 53.4594C68.483 53.6124 67.603 54.0905 67.5839 54.0905C67.5265 54.1287 67.4691 54.1096 67.45 54.0522C67.4117 53.9948 67.4308 53.9375 67.4882 53.8992C67.5265 53.8801 68.4065 53.402 69.4587 53.249L69.4778 53.2299Z" fill="#F07162"/>
<path d="M69.2865 51.6807C69.3248 51.6807 69.363 51.719 69.3822 51.7763C69.4013 51.8337 69.363 51.8911 69.2865 51.8911C68.4448 52.0441 67.6413 52.5222 67.6413 52.5222C67.5839 52.5605 67.5265 52.5413 67.4882 52.484C67.4691 52.4457 67.4691 52.3692 67.5265 52.3501C67.5648 52.331 68.3683 51.8528 69.2483 51.6807C69.2674 51.6807 69.2674 51.6807 69.2865 51.6807Z" fill="#F07162"/>
<path d="M65.6136 64.131C65.537 64.131 65.4796 64.0736 65.4796 63.9971C65.4605 62.1229 66.1492 60.7077 66.1875 60.6503C66.2257 60.5738 66.3023 60.5547 66.3597 60.5738C66.4362 60.612 66.4553 60.6885 66.4171 60.765C66.4171 60.7842 65.7283 62.1994 65.7475 63.9971C65.7475 64.0545 65.6901 64.131 65.6136 64.131Z" fill="#21111D"/>
<path d="M66.3022 65.049C66.2257 65.049 66.1683 64.9916 66.1683 64.9342C66.0726 63.7485 66.7422 61.989 66.7804 61.9125C66.7996 61.836 66.8761 61.7977 66.9526 61.836C67.0291 61.8551 67.0482 61.9316 67.0291 62.0081C67.0291 62.0272 66.3596 63.7867 66.4361 64.9151C66.4361 64.9916 66.3978 65.049 66.3213 65.049H66.3022Z" fill="#21111D"/>
<path d="M61.5769 102.17C55.1108 102.17 51.5908 98.0962 51.5525 98.0389L51.5143 98.0006L51.5334 97.9241C53.7334 88.3044 62.8778 62.7347 62.9734 62.4861C62.9926 62.4096 63.0691 62.3713 63.1456 62.4096C63.2221 62.4287 63.2413 62.5052 63.2221 62.5817C63.1265 62.8303 54.0395 88.2662 51.8012 97.9241C52.2412 98.4022 55.8378 102.112 62.1126 101.883C62.1891 101.883 62.2465 101.94 62.2465 102.017C62.2465 102.093 62.1891 102.151 62.1126 102.17C61.9404 102.17 61.7491 102.17 61.5769 102.17Z" fill="#21111D"/>
<path d="M84.2464 106.358H73.0742C72.9594 106.339 72.8829 106.339 72.8255 106.301C72.0986 106.071 72.0412 105.651 72.0794 105.402C72.0986 105.287 72.1559 105.192 72.2516 105.134L78.4307 101.08L80.4586 101.998C81.109 102.285 81.7977 102.476 82.5055 102.533C83.9595 102.686 86.3125 102.763 86.7716 101.845L86.676 105.345C86.676 105.345 87.0012 106.396 84.2464 106.358Z" fill="#EF3A4C"/>
<path d="M108.81 106.167H107.911L105.807 76.103H106.706L108.81 106.167Z" fill="#F9BB78"/>
<path d="M88.2831 106.167H89.1631L91.2675 76.103H90.3683L88.2831 106.167Z" fill="#F9BB78"/>
<path d="M109.212 76.4854H87.8814C87.4223 76.4854 87.0588 76.1029 87.0588 75.6631C87.0588 75.2041 87.4223 74.8216 87.8814 74.8216H109.212C109.652 74.8216 110.035 75.2041 110.035 75.6631C110.035 76.1029 109.652 76.4854 109.212 76.4854Z" fill="#4C222E"/>
<path d="M90.1005 87.5586H106.84V86.7172H90.1005V87.5586Z" fill="#F9BB78"/>
<path d="M112.885 106.167C113.784 105.268 120.843 92.5885 125.741 99.11C125.741 99.11 133.718 80.7503 143.838 84.3457C143.838 84.3457 150.285 88.075 145.598 97.3696C145.598 97.3696 161.208 96.3751 160.998 106.167H112.885Z" fill="#8DD9AC"/>
<path d="M151.356 80.5399C149.539 82.7201 149.022 85.2637 150.189 86.2391C151.356 87.1953 153.766 86.22 155.565 84.0397C157.363 81.8595 157.879 79.3159 156.712 78.3597C155.565 77.3843 153.154 78.3788 151.356 80.5399Z" fill="#8DD9AC"/>
<path d="M154.092 89.1078C153.04 90.3891 152.734 91.9 153.422 92.4737C154.111 93.0474 155.527 92.4546 156.598 91.1732C157.669 89.8919 157.975 88.381 157.287 87.8073C156.598 87.2336 155.163 87.8073 154.092 89.1078Z" fill="#8DD9AC"/>
<path fill-rule="evenodd" clip-rule="evenodd" d="M137.383 106.583H136.421C137.126 106.583 137.742 106.109 137.934 105.429C139.55 99.8128 138.601 89.9005 137.652 79.9882C139.216 87.5026 140.409 94.9785 139.87 100.749C139.716 102.48 139.396 104.057 138.883 105.429C138.652 106.096 138.075 106.583 137.383 106.583Z" fill="#50976E"/>
<path fill-rule="evenodd" clip-rule="evenodd" d="M136.421 106.583H117.93C117.148 106.583 116.442 106.083 116.173 105.352C115.929 104.672 115.724 103.929 115.557 103.121C114.929 99.9022 114.968 95.6449 115.352 90.8363C115.622 87.4381 116.07 83.7579 116.57 80.0007C116.622 79.6288 116.673 79.2569 116.724 78.8851H117.622H117.686H137.549C137.575 79.2441 137.613 79.616 137.652 79.9879C138.601 89.9002 139.55 99.8125 137.934 105.429C137.742 106.109 137.126 106.583 136.421 106.583ZM127.15 83.5399C123.7 83.5399 120.994 86.3225 121.007 89.7335C121.02 93.1444 123.751 96.0553 127.188 96.2476C127.316 96.2605 127.432 96.2605 127.56 96.2605C130.945 96.2605 133.702 93.5932 133.702 90.1053C133.702 86.4892 130.714 83.5399 127.15 83.5399Z" fill="#FFA722"/>
<path fill-rule="evenodd" clip-rule="evenodd" d="M131.099 77.6542C131.099 77.9363 130.842 78.1799 130.522 78.1799H123.649C123.328 78.1799 123.072 77.9363 123.072 77.6542V77.6157C123.072 77.3208 123.328 77.09 123.649 77.09H130.522C130.842 77.09 131.099 77.3208 131.099 77.6157V77.6542ZM116.198 76.4873L116.647 79.6546L137.587 79.7059L138.075 76.8848C138.075 76.3975 137.639 76 137.1 76H116.724C116.429 76 116.198 76.218 116.198 76.4873Z" fill="#FFA722"/>
<path fill-rule="evenodd" clip-rule="evenodd" d="M127.65 99.5178C127.47 99.5178 127.291 99.505 127.111 99.4921C122.2 99.21 118.302 95.0425 118.276 90.1697C118.25 85.2841 122.123 81.3089 127.06 81.3089C132.163 81.3089 136.433 85.5277 136.433 90.7083C136.433 95.6837 132.484 99.5178 127.65 99.5178Z" fill="url(#paint0_linear)"/>
<path fill-rule="evenodd" clip-rule="evenodd" d="M128.816 85.9379C126.649 86.3482 125.598 89.2078 125.854 91.2595C125.931 91.8109 126.085 92.2725 126.265 92.6572C126.406 93.542 126.624 94.2344 126.649 94.2857C126.688 94.3883 126.79 94.4396 126.88 94.4011H126.893C126.983 94.3627 127.021 94.2601 126.983 94.1703C126.983 94.1447 125.957 91.08 127.047 89.5925C128.15 88.105 130.701 88.1178 130.727 88.1178C130.727 88.1178 126.419 88.2973 126.996 91.875C127.098 91.6826 127.226 91.5159 127.38 91.3492C128.278 90.426 129.458 90.862 130.766 90.0669C131.343 89.7207 132.048 89.0795 132.599 87.7331C131.612 86.4508 130.163 85.6814 128.816 85.9379Z" fill="#074D40"/>
<path fill-rule="evenodd" clip-rule="evenodd" d="M122.264 95.3889C122.264 95.3889 126.214 90.9264 131.83 95.4274C125.688 95.3632 122.264 95.3889 122.264 95.3889Z" fill="#074D40"/>
<path fill-rule="evenodd" clip-rule="evenodd" d="M121.725 85.3996C122.11 86.4639 122.354 89.7723 125.316 90.2852C125.341 89.6441 125.482 89.0029 125.688 88.4002C125.316 87.836 124.687 87.3615 124.033 86.9255C124.944 86.8614 125.598 87.2718 126.008 87.6693C126.316 87.0794 126.701 86.5665 127.188 86.169C125.88 85.1559 123.803 84.1044 121.725 85.3996Z" fill="#074D40"/>
<path d="M18.6726 99.3166C12.0145 99.664 7.5564 106.496 28.3993 105.743C39.9208 105.396 46 104.817 46 102.79C46 100.764 38.8208 98.2745 18.6726 99.3166Z" fill="#50976E"/>
<path d="M32.1026 88.5983C31.6395 87.093 32.6237 85.8772 30.8289 85.7614C29.092 85.6456 30.192 84.8929 28.2814 84.835C26.3708 84.7192 27.413 85.5877 25.734 85.5877C23.997 85.5298 23.7076 86.1088 23.5918 86.8035C23.5339 87.5562 24.4023 89.6984 24.4023 89.6984C24.4023 89.6984 28.4551 91.9564 28.6288 92.3037C28.8604 92.709 31.1184 91.3774 31.1184 91.3774L31.9868 89.0036L32.1026 88.5983Z" fill="#4FAD56"/>
<path d="M29.3813 87.2666C27.7023 88.4245 27.7602 87.2087 26.0233 87.2666C24.2864 87.3245 21.9126 87.2087 22.6653 88.9456C23.4758 90.6825 23.9969 91.2615 22.9548 92.2457C21.9126 93.1721 28.1655 93.809 28.1655 93.809C28.1655 93.809 32.8551 94.4458 33.1446 92.7668C33.492 91.1457 35.9237 89.4667 33.5499 88.7719C31.1761 88.135 30.5972 86.3981 29.3813 87.2666Z" fill="#074D40"/>
<path d="M33.55 90.9722C32.6815 89.988 31.871 89.3511 30.5393 89.988C29.1498 90.6248 28.3971 90.3932 27.4129 89.4669C26.4865 88.5405 26.4865 89.2353 24.9233 89.5827C23.418 89.9301 21.8548 90.509 22.2601 91.8407C22.7232 93.1144 27.0655 94.8513 27.0655 94.8513L33.3184 93.4039L33.55 90.9722Z" fill="#4FAD56"/>
<path d="M35.4027 86.8035C34.708 88.0193 35.6343 90.9142 38.1239 90.3931C40.6134 89.872 41.1924 87.1509 40.324 86.1666C39.4555 85.1824 36.6765 84.6034 35.4027 86.8035Z" fill="#FFB812"/>
<path d="M31.6974 89.2357C31.0026 90.5095 31.929 93.4043 34.4185 92.8833C36.9081 92.3622 37.4871 89.5831 36.6186 88.5989C35.7502 87.6146 32.9711 87.0357 31.6974 89.2357Z" fill="#FFB812"/>
<path d="M39.6291 89.5831C38.7607 88.4252 35.75 88.1936 35.2289 90.6832C34.7078 93.1727 37.0237 94.7938 38.2975 94.3307C39.5133 93.9254 41.1345 91.6095 39.6291 89.5831Z" fill="#FFA722"/>
<path d="M18.4387 92.3616C17.6282 90.972 16.6439 89.0036 16.8176 88.3667C16.9913 87.7298 21.2757 86.1666 22.0862 86.9772C22.8389 87.8456 24.1705 93.5195 23.7074 93.8669C23.2442 94.2143 18.4387 92.3616 18.4387 92.3616Z" fill="#E58C16"/>
<path d="M18.2652 89.004C18.6705 88.8882 19.0758 88.7725 19.539 88.7146C19.9443 88.7146 19.8285 88.0777 19.4232 88.0777C18.9021 88.1356 18.4389 88.2514 17.9757 88.4251C17.6284 88.5988 17.86 89.1777 18.2652 89.004Z" fill="#FFA722"/>
<path d="M20.5811 89.6409C20.9864 89.5251 21.4496 89.4672 21.8549 89.5251C22.2602 89.5251 22.3181 88.8882 21.9128 88.8882C21.4496 88.8303 20.9285 88.8882 20.4653 89.004C20.06 89.0619 20.1758 89.6988 20.5811 89.6409Z" fill="#FFA722"/>
<path d="M18.902 91.3195C19.3073 91.2616 19.7126 91.2037 20.1179 91.1458C20.5232 91.0879 20.4074 90.5089 20.0021 90.5089C19.5968 90.5668 19.1915 90.6247 18.7862 90.6826C18.381 90.7405 18.4968 91.3774 18.902 91.3195Z" fill="#FFA722"/>
<path d="M22.7812 91.088C22.2022 91.2617 21.6811 91.4354 21.1601 91.667C20.8127 91.8407 21.0443 92.4196 21.4496 92.2459C21.9706 92.0143 22.4917 91.8407 23.0128 91.667C23.4181 91.4933 23.1286 90.9143 22.7812 91.088Z" fill="#FFA722"/>
<path d="M17.5125 96.2411C16.9335 96.5305 16.9335 99.4254 17.5125 99.9464C18.0914 100.41 40.7292 100.873 41.0186 100.352C41.3081 99.8306 41.6555 96.4147 41.0186 96.2411C40.3818 96.0095 18.4388 95.72 17.5125 96.2411Z" fill="#50976E"/>
<path d="M17.5125 92.3042C16.9335 92.6516 16.9335 95.5464 17.5125 96.0096C18.0914 96.4728 40.7292 96.936 41.0186 96.4149C41.3081 95.9517 41.6555 92.5358 41.0186 92.3042C40.3818 92.1305 18.4388 91.841 17.5125 92.3042Z" fill="#FFB812"/>
<path d="M17.5125 99.8885C16.9335 100.236 16.9335 103.131 17.5125 103.594C18.0914 104.057 40.7292 104.52 41.0186 104.057C41.3081 103.536 41.6555 100.12 41.0186 99.8885C40.3818 99.7149 18.4388 99.4254 17.5125 99.8885Z" fill="#FFB812"/>
<path d="M39.8028 88.1355C39.687 89.1777 39.3396 103.768 39.8028 104.231C40.266 104.752 41.6555 104.636 41.8871 104.173C42.1187 103.71 42.2345 88.5987 41.8871 88.1355C41.5397 87.6723 39.8607 87.4407 39.8028 88.1355Z" fill="#50976E"/>
<path d="M16.0651 88.1355C15.9493 89.1777 15.602 103.768 16.0651 104.231C16.5283 104.752 17.9179 104.636 18.1494 104.173C18.381 103.71 18.4968 88.5987 18.1494 88.1355C17.8021 87.6723 16.123 87.4407 16.0651 88.1355Z" fill="#50976E"/>
<path d="M32.5657 93.5778C33.3184 94.9094 33.6658 95.8358 34.9395 95.4305C36.1553 94.9673 36.9659 94.9673 37.7186 94.3304C38.4133 93.7515 39.5134 92.1883 39.166 92.1883C38.8186 92.1883 34.3026 92.1304 33.3184 92.3619C32.2762 92.6514 32.5657 93.5778 32.5657 93.5778Z" fill="#4FAD56"/>
<path d="M20.002 84.372C19.3652 83.6193 18.3809 83.214 17.3967 82.9825C16.5861 82.8088 15.7755 82.7509 15.0808 82.9825C14.3281 83.2719 13.6913 83.9088 13.6334 84.6615C13.5755 85.472 14.0965 86.2826 13.7492 87.0353C13.4597 87.73 12.4175 88.0195 12.2438 88.7722C12.0122 89.6985 13.2281 90.2775 13.5755 91.2038C13.807 91.7249 13.6334 92.4197 13.5755 92.9987C13.4597 93.9829 13.5176 94.9672 14.0965 95.7777C14.6176 96.5304 15.7755 96.9935 16.5861 96.5304C17.0493 96.2988 17.3967 95.8356 17.5704 95.3145C17.8019 94.5619 17.744 93.7513 17.3967 93.0565C17.1072 92.5355 16.7598 91.9565 17.1072 91.4933C17.223 91.3775 17.3967 91.2617 17.5125 91.1459C18.1493 90.3933 16.8756 89.0617 17.5125 88.309C17.744 88.0774 18.0914 88.0195 18.4388 87.9037C19.1915 87.7879 20.2336 87.5563 20.6389 86.8616C20.9863 86.1089 20.5231 84.951 20.002 84.372Z" fill="#4FAD56"/>
<path d="M16.2966 96.6464C16.4124 96.5885 16.5282 96.5885 16.5861 96.5306C17.0493 96.299 17.3967 95.8358 17.5703 95.3147C17.8019 94.5621 17.744 93.7515 17.3967 93.0568C17.1072 92.5357 16.7598 91.9567 17.1072 91.4935C17.223 91.3777 17.3967 91.262 17.5124 91.1462C18.1493 90.3935 16.8756 89.0619 17.5124 88.3092C17.744 88.0776 18.0914 88.0197 18.4388 87.9039C19.0757 87.7881 20.0599 87.6144 20.4652 87.0934C19.2494 85.5881 17.2809 84.6617 16.5861 85.4723C15.7755 86.3986 16.5282 87.3829 15.8334 88.1355C15.1966 88.8882 14.5018 89.525 15.0229 90.4514C15.5439 91.4356 16.065 92.362 15.6018 93.5199C15.3124 94.3884 15.9492 95.8937 16.2966 96.6464Z" fill="#074D40"/>
<path d="M32.6236 91.2039C31.3499 91.0302 30.192 90.9723 29.7867 92.0724C29.3814 93.1145 29.4393 93.9251 29.7867 94.8514C30.192 95.7199 31.2341 96.4146 32.1026 95.662C33.0289 94.9672 33.0868 93.7514 34.2448 93.9251C35.4027 94.1567 36.0396 93.983 37.0238 93.0566C37.9502 92.1882 38.5291 92.3619 38.2975 91.8987C38.1239 91.4355 34.8816 91.2618 33.9553 91.2039C33.0289 91.2039 32.6236 91.2039 32.6236 91.2039Z" fill="#074D40"/>
<defs>
<linearGradient id="paint0_linear" x1="127.169" y1="65.273" x2="126.699" y2="107.678" gradientUnits="userSpaceOnUse">
<stop stop-color="#FFF4F3"/>
<stop offset="1" stop-color="#FFF0EF"/>
</linearGradient>
</defs>
</svg>
