<svg width="165" height="106" viewBox="0 0 165 106" fill="none" xmlns="http://www.w3.org/2000/svg">
<path d="M10.128 105.269C10.128 105.269 -13.3611 81.7063 11.2038 61.0718C38.4583 38.3459 12.6382 12.8316 39.7134 3.62968C60.6921 -3.34145 72.1677 1.12007 85.4363 5.44217C96.374 9.20658 108.387 12.8316 127.752 9.9037C163.614 4.74506 162.896 45.7353 152.317 60.3747C143.531 72.5045 177.241 78.4996 160.027 105.269H10.128Z" fill="#EBFAF1"/>
<path d="M105.89 15.2141H102.485C105.174 10.3332 109.654 4.72928 117.002 3.64464C117.002 3.64464 117.181 3.46387 117.36 3.46387C118.077 3.46387 120.048 3.82541 120.765 6.17546C121.84 9.2486 116.285 9.42937 112.88 10.6948C111.267 11.4179 108.579 13.0448 105.89 15.2141Z" fill="#8DD9AC"/>
<path d="M99.9764 15.2138H98.5427C99.0803 10.5137 100.872 3.64438 106.966 0.209703C106.966 0.209703 107.503 0.0289307 108.22 0.0289307C108.937 0.0289307 109.833 0.209703 110.55 1.29434C112.163 3.28284 108.041 4.90979 105.711 6.89829C104.277 8.16369 101.589 11.4176 99.9764 15.2138Z" fill="#8DD9AC"/>
<path d="M41.0164 15.3948C42.8085 10.3332 51.2315 12.5024 51.2315 12.5024C51.2315 12.5024 56.2494 21.9026 58.0415 22.2642C59.6544 22.6257 55.1741 13.4063 55.1741 13.4063C58.3999 13.4063 66.4644 17.9256 66.4644 17.9256C66.4644 17.9256 65.2099 28.4105 66.8228 28.2297C68.6149 28.2297 67.5396 19.0103 67.5396 19.0103C70.5862 20.2757 73.2744 24.0719 73.2744 24.0719C76.5002 30.399 68.2565 34.376 68.2565 34.376C68.2565 34.376 67.8981 37.9915 69.8694 42.33C69.8694 42.33 70.2278 43.0531 70.7654 44.3185H69.8694C69.8694 44.1378 69.6902 43.7762 69.6902 43.5954C69.511 43.4147 69.511 43.2339 69.511 43.0531C69.1525 42.5108 68.9733 42.1492 68.9733 41.7877C68.2565 40.1607 67.3604 37.9915 66.6436 37.4491C66.6436 37.4491 66.6436 37.2684 66.8228 37.0876C66.8228 37.0876 66.6436 37.2684 66.6436 37.4491C64.8515 40.5223 57.5038 40.5223 53.382 39.2569C49.4393 38.1722 51.2315 37.0876 53.5612 35.4606C55.8909 33.6529 60.5504 34.5568 61.9841 33.8337C63.4178 33.2914 61.4465 32.3875 58.7583 32.3875C55.8909 32.3875 54.4572 35.0991 49.977 35.0991C45.4967 35.2799 42.8085 26.6027 42.8085 26.6027C45.6759 27.6874 51.2315 26.422 51.5899 25.3373C51.9483 24.4335 43.7046 23.8912 42.4501 23.5296C41.1956 22.9873 39.2243 20.2757 41.0164 15.3948Z" fill="#8DD9AC"/>
<path d="M28.113 93.8506C25.0664 88.4274 33.4893 82.6426 33.4893 82.6426C33.4893 82.6426 45.4965 85.1734 47.1094 84.0888C48.7223 82.8234 37.2528 79.7503 37.2528 79.7503C39.5825 76.8579 49.7975 73.2424 49.7975 73.2424C49.7975 73.2424 57.862 82.2811 59.1165 80.6541C60.371 79.0272 51.5896 73.0616 51.5896 73.0616C54.9946 71.2539 60.371 71.7962 60.371 71.7962C68.4354 73.7847 65.5681 84.0888 65.5681 84.0888C65.5681 84.0888 68.4354 87.162 73.6326 88.6081C73.6326 88.6081 74.7078 88.9697 76.1415 89.512L75.6039 90.2351C75.2455 90.2351 75.0662 90.0543 74.7078 89.8735C74.5286 89.8735 74.3494 89.6928 74.1702 89.6928C73.4533 89.512 72.9157 89.3312 72.7365 89.1505C70.586 88.4274 67.8978 87.7043 67.0018 87.885C67.0018 87.885 67.0018 87.7043 66.8225 87.3427C66.8225 87.5235 67.0018 87.7043 67.0018 87.885C68.4354 91.8621 62.7007 98.3699 58.5788 101.081C54.457 103.793 54.9946 101.443 55.3531 98.0083C55.5323 94.5736 59.8333 91.139 60.371 89.3312C60.9086 87.5235 58.5788 88.6081 56.6075 91.139C54.457 93.489 55.5323 96.9237 52.3065 101.081C48.9015 105.058 39.2241 100.901 39.2241 100.901C42.6291 99.093 45.6757 93.1275 44.9588 92.0428C44.242 91.139 37.6112 98.0083 36.3567 98.7314C35.1022 99.4545 31.1596 99.2737 28.113 93.8506Z" fill="#8DD9AC"/>
<path d="M125.604 43.9571C121.124 43.9571 114.314 42.1494 113.238 38.7147C113.059 38.8955 112.88 39.0762 112.521 39.4378V21.3604C113.776 20.6374 115.21 19.9143 116.823 19.7335C116.823 19.7335 113.597 28.7722 115.21 29.3145H115.389C117.002 29.3145 118.077 18.8296 118.077 18.8296C118.077 18.8296 125.066 16.6603 129.188 16.6603C129.905 16.6603 130.443 16.8411 130.801 16.8411C130.801 16.8411 123.991 25.3375 125.783 25.3375C127.575 25.3375 135.102 17.0219 135.102 17.0219C135.102 17.0219 135.102 17.0219 135.281 17.0219C136.536 17.0219 144.421 17.2027 144.959 22.2643C145.496 27.8683 142.808 30.2183 141.374 30.3991H141.195C140.478 30.3991 139.224 30.2183 137.611 30.0376C136.177 29.8568 134.385 29.676 133.31 29.676C132.235 29.676 131.518 29.8568 131.518 30.0376C131.697 31.1222 136.177 33.4723 139.582 33.4723C139.941 33.4723 140.12 33.4723 140.478 33.4723C140.478 33.4723 136.177 40.5224 131.876 40.5224C131.518 40.5224 131.339 40.5224 130.98 40.5224C126.5 39.257 125.425 36.1839 122.557 35.4608C121.661 35.28 120.765 35.0992 120.048 35.0992C118.794 35.0992 118.077 35.6415 118.794 36.1839C120.228 37.2685 125.066 37.4493 127.038 39.7993C129.188 42.1494 130.801 43.7763 126.321 43.9571C126.142 43.9571 125.962 43.9571 125.604 43.9571ZM113.238 38.3531C113.238 38.7147 113.238 38.7147 113.238 38.7147C113.238 38.7147 113.238 38.5339 113.238 38.3531Z" fill="#8DD9AC"/>
<path d="M141.554 93.489C139.582 93.489 138.149 92.7659 137.611 92.0428C136.357 90.4158 131.876 80.1117 130.443 80.1117C130.263 80.1117 130.263 80.1117 130.263 80.1117C128.83 81.0156 129.905 89.6927 133.131 93.3082C133.131 93.3082 132.952 93.3082 132.414 93.3082C130.622 93.3082 125.962 93.1274 122.378 91.6812C123.095 91.3197 123.812 90.7774 124.17 90.0543C124.17 90.0543 125.604 85.3542 121.482 85.1734C120.944 85.1734 120.586 85.3542 120.228 85.5349C119.869 85.1734 119.331 84.8118 118.435 84.8118C117.898 84.8118 117.539 84.9926 117.002 85.3542C117.002 84.8118 117.002 84.4503 117.002 84.0887C118.077 83.5464 118.794 82.4618 118.794 82.4618C118.794 82.4618 117.36 81.3771 116.823 81.1964C117.002 78.304 117.719 75.9539 116.823 73.6039C115.926 70.7115 114.493 68.723 113.597 68.723C113.418 68.723 113.059 69.0845 113.059 69.6269C112.88 71.7961 115.747 77.0386 115.389 81.0156C115.03 81.0156 114.851 81.0156 114.851 81.0156C115.21 81.1964 115.03 81.5579 114.672 81.5579C114.493 81.5579 114.493 81.5579 114.493 81.5579C113.955 81.5579 113.238 81.1964 112.521 80.8348V52.0918C113.955 50.1033 116.285 48.4764 119.511 48.4764C119.869 48.4764 120.407 48.6572 120.944 48.6572C120.944 48.6572 127.754 50.4649 130.98 54.2611C130.98 54.2611 117.719 57.515 118.435 59.8651C118.615 60.2267 118.973 60.4074 119.511 60.4074C122.916 60.4074 132.952 55.165 132.952 55.165C132.952 55.165 143.525 64.2037 145.138 68.9038C145.138 68.9038 139.582 68.3615 135.46 68.3615C132.952 68.3615 130.801 68.5422 131.339 69.4461C132.772 71.6154 148.364 74.1462 148.364 74.1462C148.364 74.1462 155.711 84.9926 149.797 90.0543C146.572 92.5851 143.704 93.489 141.554 93.489Z" fill="#8DD9AC"/>
<path d="M56.2491 52.2726C55.8907 52.9957 55.3531 53.8996 54.9947 54.0804C54.2778 54.4419 54.0986 54.8035 54.0986 54.8035L53.561 54.4419L53.0233 54.0804C53.0233 54.0804 53.0233 54.0804 53.0233 53.8996C53.0233 53.8996 53.2025 53.7188 53.2025 53.538C53.2025 53.538 53.3817 53.3573 53.2025 52.9957C53.2025 52.8149 53.2025 52.2726 53.3817 52.0919C53.561 51.7303 53.7402 51.0072 53.7402 51.188C54.0986 51.188 53.7402 52.0919 53.7402 52.2726C53.9194 52.4534 54.0986 52.2726 54.0986 52.2726C54.8154 51.9111 55.7115 50.1034 56.0699 50.4649C56.2491 50.4649 56.4284 51.9111 56.2491 52.2726Z" fill="#FFB27D"/>
<path d="M53.561 53.3573L54.6363 53.8996C54.6363 54.0804 54.6363 54.0804 54.8155 53.8996L57.1452 50.4649C57.3244 50.4649 57.1452 50.2841 57.1452 50.2841L56.2492 49.561C56.07 49.561 56.07 49.561 56.07 49.561L53.561 52.9957C53.561 53.1765 53.561 53.1765 53.561 53.3573Z" fill="#00692C"/>
<path d="M54.4569 53.8996L54.9945 54.2612C55.1738 54.2612 55.1738 54.2612 55.1738 54.2612L57.6827 50.8265C57.6827 50.6457 57.6827 50.6457 57.6827 50.6457L57.1451 50.1034C56.9659 50.1034 56.9659 50.1034 56.9659 50.2842L54.4569 53.7189V53.8996Z" fill="#233862"/>
<path d="M40.12 48.2957C40.12 48.2957 44.9587 56.792 46.5716 58.2382L53.0232 53.5381C53.0232 53.5381 53.9193 53.7188 54.2777 54.8035C54.2777 54.8035 50.5143 62.7575 46.5716 63.119C42.8082 63.2998 37.4319 53.5381 37.4319 53.5381L40.12 48.2957Z" fill="#94B0ED"/>
<path d="M29.1882 105.782H26.5C26.1416 105.601 25.7832 105.239 25.604 104.516C25.604 103.612 24.5287 103.07 24.3495 102.347C24.1703 101.624 25.2456 100.539 25.2456 100.539L25.4248 100.359L25.604 100.178L27.3961 100.539C27.3961 100.539 27.5753 100.901 27.5753 101.624C27.5753 101.985 27.5753 102.347 27.5753 102.889C27.3961 103.793 27.7545 104.878 28.6506 105.059C29.3674 105.239 29.1882 105.601 29.1882 105.782Z" fill="#233862"/>
<path d="M45.3173 105.782H39.0449C38.6865 105.42 38.8657 103.974 38.8657 103.612C38.8657 103.432 38.8657 103.432 38.8657 103.432C38.8657 103.432 41.0163 101.624 41.3747 103.07C41.7331 104.336 43.346 104.878 44.4213 105.059C44.9589 105.239 45.3173 105.601 45.3173 105.782Z" fill="#233862"/>
<path d="M44.0631 69.9886C44.0631 69.9886 43.7047 74.1464 43.3462 79.208C42.8086 85.8967 42.271 94.2122 42.0918 95.8392C42.0918 98.5508 41.5541 102.889 41.5541 102.889C41.5541 102.889 40.6581 103.974 38.5076 103.432C38.5076 103.432 36.7154 97.2854 36.1778 90.5968V90.416C35.6402 83.5466 34.9233 69.4463 34.9233 69.4463L44.0631 69.9886Z" fill="#F99746"/>
<path d="M44.0631 69.9886C44.0631 69.9886 43.7047 74.1464 43.3462 79.2081L36.1778 90.5968V90.4161C35.6402 83.5467 34.9233 69.4463 34.9233 69.4463L44.0631 69.9886Z" fill="#ED7D2B"/>
<path d="M42.6293 70.5308C42.6293 70.5308 36.7153 85.535 32.7727 92.5852C28.8301 99.6353 27.5756 101.624 27.5756 101.624C27.5756 101.624 25.4251 100.72 25.2458 99.9969C25.2458 99.9969 26.6795 86.4389 29.3677 83.185C30.8014 81.3772 32.5935 75.5925 32.5935 73.7847C32.7727 71.7962 33.1311 67.8192 33.1311 67.8192L42.6293 70.5308Z" fill="#F99746"/>
<path d="M41.1955 48.6571C38.8658 49.3802 34.7439 47.3917 34.7439 47.3917C34.7439 47.3917 36.8944 45.7648 36.8944 42.5109L38.6865 43.957L39.7618 44.8609C39.7618 44.8609 39.7618 45.4032 39.7618 46.4878C39.5826 46.8494 39.941 47.3917 40.2994 47.7532C40.8371 48.6571 41.1955 48.6571 41.1955 48.6571Z" fill="#FFB27D"/>
<path d="M39.7616 44.8611C39.7616 44.8611 39.7616 45.4034 39.7616 46.488C38.328 46.3072 36.8943 44.138 36.8943 44.138C37.4319 43.7764 38.1488 43.7764 38.6864 43.9572L39.7616 44.8611Z" fill="#ED975D"/>
<path d="M40.4785 44.861C40.4785 44.861 36.715 45.4033 36.3566 43.0533C35.9982 40.7032 35.2813 39.0763 37.6111 38.534C40.12 38.1724 40.6577 38.8955 41.0161 39.7994C41.3745 40.5225 41.5537 44.6802 40.4785 44.861Z" fill="#FFB27D"/>
<path d="M44.4211 70.3499C44.2419 70.5306 44.2419 70.5306 44.0627 70.5306C43.1666 70.5306 40.6577 70.8922 38.5072 70.7114C36.7151 70.5306 35.1022 69.9883 33.4893 69.2652C33.1308 69.0845 32.5932 68.9037 32.7724 68.5421C32.7724 68.3614 32.7724 67.9998 32.7724 67.4575C32.9516 65.6498 33.1308 62.5766 32.9516 58.9612C32.7724 58.2381 32.7724 57.6958 32.7724 56.9727C32.7724 52.2726 33.6685 47.934 35.6398 46.4879C35.819 46.3071 36.8943 46.8494 37.7903 47.3917C38.5072 47.7533 39.4032 47.7533 40.2993 47.5725L41.0161 48.2956C42.0914 49.1994 42.9874 50.4649 43.5251 52.4534C43.8835 54.0803 44.2419 56.9727 44.2419 59.865C44.4211 61.3112 44.4211 62.5766 44.4211 63.842V64.0228C44.4211 64.0228 44.4211 64.2036 44.4211 64.3844C44.4211 67.6383 44.4211 70.3499 44.4211 70.3499Z" fill="#AEC3FF"/>
<path d="M32.7725 67.4576C32.9517 65.6498 33.1309 62.5767 32.9517 58.9612C32.7725 58.2381 32.7725 57.6958 32.7725 56.9727C33.6685 54.9842 34.2062 53.7188 34.2062 53.7188H36.1775C36.1775 53.7188 37.7904 63.6613 32.7725 67.4576Z" fill="#94B0ED"/>
<path d="M29.0091 67.8192C29.0091 67.8192 28.4715 68.3615 28.4715 68.5422C28.4715 70.1692 29.1884 70.35 27.217 71.4346C27.217 71.4346 26.5002 71.6154 26.5002 71.0731C26.321 70.35 27.0378 70.35 26.8586 69.4461C26.6794 68.3615 26.6794 68.3615 27.3963 67.8192L27.9339 67.0961L29.0091 67.8192Z" fill="#FFB27D"/>
<path d="M27.9338 68.1807C28.6506 68.3615 29.3675 68.3615 29.3675 68.3615C29.3675 68.3615 31.518 61.6728 31.6972 60.9497C32.0556 60.4074 38.1488 53.1765 38.1488 53.1765L35.6399 46.8494C35.6399 46.8494 29.0091 57.8766 28.2922 59.5036C27.2169 62.0344 26.8585 67.8192 26.8585 67.8192C26.8585 67.8192 27.2169 68.1807 27.9338 68.1807Z" fill="#AEC3FF"/>
<path d="M36.3569 42.8725C36.3569 42.8725 36.7153 42.6917 36.7153 42.1494C36.5361 41.607 36.5361 40.884 37.0737 41.0647C37.4322 41.2455 37.6114 41.607 37.7906 41.4263C37.9698 41.2455 37.9698 40.3416 39.2243 40.1609C40.4787 40.1609 41.0164 40.7032 41.7332 40.3416C42.2708 40.1609 42.2708 39.0762 42.2708 39.0762C42.2708 39.0762 42.0916 39.4378 41.9124 39.6185C41.9124 39.6185 42.8085 38.1724 41.7332 37.2685C40.4787 36.3646 39.4035 36.907 38.6866 36.907C37.0737 37.0877 36.1777 37.0877 35.6401 38.1724C35.1024 39.0762 35.4608 41.9686 36.3569 42.8725Z" fill="#233862"/>
<path d="M28.2922 68.5422C28.2922 68.5422 28.6506 68.9037 28.8298 69.0845C28.8298 69.6268 29.009 69.9883 29.009 69.9883C28.6506 70.169 28.4714 69.8075 28.2922 69.2652C28.113 68.9037 28.2922 68.5422 28.2922 68.5422Z" fill="#FFB27D"/>
<path d="M107.862 105.059H66.1058C63.5968 105.059 61.4463 102.889 61.4463 100.358V20.0951C61.4463 17.3835 63.5968 15.2142 66.1058 15.2142H107.862C110.371 15.2142 112.521 17.3835 112.521 20.0951V100.358C112.521 102.889 110.371 105.059 107.862 105.059Z" fill="#33B368"/>
<path d="M66.1058 15.9372C63.9553 15.9372 61.984 17.745 61.984 20.095V100.358C61.984 102.528 63.9553 104.516 66.1058 104.516H107.862C110.012 104.516 111.984 102.528 111.984 100.358V20.095C111.984 17.745 110.012 15.9372 107.862 15.9372H66.1058ZM107.862 105.601H66.1058C63.2384 105.601 60.9087 103.251 60.9087 100.358V20.095C60.9087 17.0219 63.2384 14.6718 66.1058 14.6718H107.862C110.729 14.6718 113.059 17.0219 113.059 20.095V100.358C113.059 103.251 110.729 105.601 107.862 105.601Z" fill="#207744"/>
<path d="M70.2278 72.8808H103.74V38.8954H70.2278V72.8808Z" fill="#F0F2FC"/>
<path d="M73.6327 70.5307H74.8872V69.2653H73.6327V70.5307Z" fill="#00692C"/>
<path d="M74.8872 70.5307H76.1417V69.2653H74.8872V70.5307Z" fill="#00692C"/>
<path d="M76.1415 70.5307H77.5752V69.2653H76.1415V70.5307Z" fill="#00692C"/>
<path d="M77.5754 70.5307H78.8299V69.2653H77.5754V70.5307Z" fill="#00692C"/>
<path d="M78.83 70.5307H80.2636V69.2653H78.83V70.5307Z" fill="#00692C"/>
<path d="M81.5177 70.5307H82.9513V69.2653H81.5177V70.5307Z" fill="#00692C"/>
<path d="M82.9517 70.5307H84.2061V69.2653H82.9517V70.5307Z" fill="#00692C"/>
<path d="M86.8945 70.5307H88.149V69.2653H86.8945V70.5307Z" fill="#00692C"/>
<path d="M89.5823 70.5307H91.016V69.2653H89.5823V70.5307Z" fill="#00692C"/>
<path d="M91.0162 70.5307H92.2708V69.2653H91.0162V70.5307Z" fill="#00692C"/>
<path d="M93.7041 70.5307H94.9586V69.2653H93.7041V70.5307Z" fill="#00692C"/>
<path d="M94.9585 70.5307H96.3922V69.2653H94.9585V70.5307Z" fill="#00692C"/>
<path d="M96.3926 70.5307H97.6471V69.2653H96.3926V70.5307Z" fill="#00692C"/>
<path d="M97.6469 70.5307H98.9014V69.2653H97.6469V70.5307Z" fill="#00692C"/>
<path d="M98.9011 70.5307H100.335V69.2653H98.9011V70.5307Z" fill="#00692C"/>
<path d="M100.335 70.5307H101.769V69.2653H100.335V70.5307Z" fill="#00692C"/>
<path d="M72.1989 70.5307H73.6325V69.2653H72.1989V70.5307Z" fill="#00692C"/>
<path d="M78.83 69.2654H80.2636V67.8192H78.83V69.2654Z" fill="#00692C"/>
<path d="M82.9517 69.2654H84.2061V67.8192H82.9517V69.2654Z" fill="#00692C"/>
<path d="M85.6396 69.2654H86.8941V67.8192H85.6396V69.2654Z" fill="#00692C"/>
<path d="M86.8945 69.2654H88.149V67.8192H86.8945V69.2654Z" fill="#00692C"/>
<path d="M88.1488 69.2654H89.5825V67.8192H88.1488V69.2654Z" fill="#00692C"/>
<path d="M89.5823 69.2654H91.016V67.8192H89.5823V69.2654Z" fill="#00692C"/>
<path d="M93.7041 69.2654H94.9586V67.8192H93.7041V69.2654Z" fill="#00692C"/>
<path d="M100.335 69.2654H101.769V67.8192H100.335V69.2654Z" fill="#00692C"/>
<path d="M72.1989 69.2654H73.6325V67.8192H72.1989V69.2654Z" fill="#00692C"/>
<path d="M74.8872 67.8193H76.1417V66.5538H74.8872V67.8193Z" fill="#00692C"/>
<path d="M76.1415 67.8193H77.5752V66.5538H76.1415V67.8193Z" fill="#00692C"/>
<path d="M78.83 67.8193H80.2636V66.5538H78.83V67.8193Z" fill="#00692C"/>
<path d="M81.5177 67.8193H82.9513V66.5538H81.5177V67.8193Z" fill="#00692C"/>
<path d="M82.9517 67.8193H84.2061V66.5538H82.9517V67.8193Z" fill="#00692C"/>
<path d="M84.2061 67.8193H85.6397V66.5538H84.2061V67.8193Z" fill="#00692C"/>
<path d="M86.8945 67.8193H88.149V66.5538H86.8945V67.8193Z" fill="#00692C"/>
<path d="M88.1488 67.8193H89.5825V66.5538H88.1488V67.8193Z" fill="#00692C"/>
<path d="M89.5823 67.8193H91.016V66.5538H89.5823V67.8193Z" fill="#00692C"/>
<path d="M91.0162 67.8193H92.2708V66.5538H91.0162V67.8193Z" fill="#00692C"/>
<path d="M93.7041 67.8193H94.9586V66.5538H93.7041V67.8193Z" fill="#00692C"/>
<path d="M96.3926 67.8193H97.6471V66.5538H96.3926V67.8193Z" fill="#00692C"/>
<path d="M97.6469 67.8193H98.9014V66.5538H97.6469V67.8193Z" fill="#00692C"/>
<path d="M100.335 67.8193H101.769V66.5538H100.335V67.8193Z" fill="#00692C"/>
<path d="M72.1989 67.8193H73.6325V66.5538H72.1989V67.8193Z" fill="#00692C"/>
<path d="M74.8872 66.5538H76.1417V65.2884H74.8872V66.5538Z" fill="#00692C"/>
<path d="M76.1415 66.5538H77.5752V65.2884H76.1415V66.5538Z" fill="#00692C"/>
<path d="M78.83 66.5538H80.2636V65.2884H78.83V66.5538Z" fill="#00692C"/>
<path d="M81.5177 66.5538H82.9513V65.2884H81.5177V66.5538Z" fill="#00692C"/>
<path d="M84.2061 66.5538H85.6397V65.2884H84.2061V66.5538Z" fill="#00692C"/>
<path d="M86.8945 66.5538H88.149V65.2884H86.8945V66.5538Z" fill="#00692C"/>
<path d="M93.7041 66.5538H94.9586V65.2884H93.7041V66.5538Z" fill="#00692C"/>
<path d="M96.3926 66.5538H97.6471V65.2884H96.3926V66.5538Z" fill="#00692C"/>
<path d="M97.6469 66.5538H98.9014V65.2884H97.6469V66.5538Z" fill="#00692C"/>
<path d="M100.335 66.5538H101.769V65.2884H100.335V66.5538Z" fill="#00692C"/>
<path d="M72.1989 66.5538H73.6325V65.2884H72.1989V66.5538Z" fill="#00692C"/>
<path d="M78.83 65.2883H80.2636V63.8422H78.83V65.2883Z" fill="#00692C"/>
<path d="M81.5177 65.2883H82.9513V63.8422H81.5177V65.2883Z" fill="#00692C"/>
<path d="M82.9517 65.2883H84.2061V63.8422H82.9517V65.2883Z" fill="#00692C"/>
<path d="M84.2061 65.2883H85.6397V63.8422H84.2061V65.2883Z" fill="#00692C"/>
<path d="M86.8945 65.2883H88.149V63.8422H86.8945V65.2883Z" fill="#00692C"/>
<path d="M88.1488 65.2883H89.5825V63.8422H88.1488V65.2883Z" fill="#00692C"/>
<path d="M91.0162 65.2883H92.2708V63.8422H91.0162V65.2883Z" fill="#00692C"/>
<path d="M93.7041 65.2883H94.9586V63.8422H93.7041V65.2883Z" fill="#00692C"/>
<path d="M100.335 65.2883H101.769V63.8422H100.335V65.2883Z" fill="#00692C"/>
<path d="M72.1989 65.2883H73.6325V63.8422H72.1989V65.2883Z" fill="#00692C"/>
<path d="M73.6327 63.8421H74.8872V62.5767H73.6327V63.8421Z" fill="#00692C"/>
<path d="M74.8872 63.8421H76.1417V62.5767H74.8872V63.8421Z" fill="#00692C"/>
<path d="M76.1415 63.8421H77.5752V62.5767H76.1415V63.8421Z" fill="#00692C"/>
<path d="M77.5754 63.8421H78.8299V62.5767H77.5754V63.8421Z" fill="#00692C"/>
<path d="M78.83 63.8421H80.2636V62.5767H78.83V63.8421Z" fill="#00692C"/>
<path d="M81.5177 63.8421H82.9513V62.5767H81.5177V63.8421Z" fill="#00692C"/>
<path d="M84.2061 63.8421H85.6397V62.5767H84.2061V63.8421Z" fill="#00692C"/>
<path d="M85.6396 63.8421H86.8941V62.5767H85.6396V63.8421Z" fill="#00692C"/>
<path d="M88.1488 63.8421H89.5825V62.5767H88.1488V63.8421Z" fill="#00692C"/>
<path d="M93.7041 63.8421H94.9586V62.5767H93.7041V63.8421Z" fill="#00692C"/>
<path d="M94.9585 63.8421H96.3922V62.5767H94.9585V63.8421Z" fill="#00692C"/>
<path d="M96.3926 63.8421H97.6471V62.5767H96.3926V63.8421Z" fill="#00692C"/>
<path d="M97.6469 63.8421H98.9014V62.5767H97.6469V63.8421Z" fill="#00692C"/>
<path d="M98.9011 63.8421H100.335V62.5767H98.9011V63.8421Z" fill="#00692C"/>
<path d="M100.335 63.8421H101.769V62.5767H100.335V63.8421Z" fill="#00692C"/>
<path d="M72.1989 63.8421H73.6325V62.5767H72.1989V63.8421Z" fill="#00692C"/>
<path d="M85.6396 62.5768H86.8941V61.1307H85.6396V62.5768Z" fill="#00692C"/>
<path d="M86.8945 62.5768H88.149V61.1307H86.8945V62.5768Z" fill="#00692C"/>
<path d="M88.1488 62.5768H89.5825V61.1307H88.1488V62.5768Z" fill="#00692C"/>
<path d="M91.0162 62.5768H92.2708V61.1307H91.0162V62.5768Z" fill="#00692C"/>
<path d="M73.6327 61.1306H74.8872V59.8651H73.6327V61.1306Z" fill="#00692C"/>
<path d="M74.8872 61.1306H76.1417V59.8651H74.8872V61.1306Z" fill="#00692C"/>
<path d="M76.1415 61.1306H77.5752V59.8651H76.1415V61.1306Z" fill="#00692C"/>
<path d="M77.5754 61.1306H78.8299V59.8651H77.5754V61.1306Z" fill="#00692C"/>
<path d="M81.5177 61.1306H82.9513V59.8651H81.5177V61.1306Z" fill="#00692C"/>
<path d="M82.9517 61.1306H84.2061V59.8651H82.9517V61.1306Z" fill="#00692C"/>
<path d="M84.2061 61.1306H85.6397V59.8651H84.2061V61.1306Z" fill="#00692C"/>
<path d="M86.8945 61.1306H88.149V59.8651H86.8945V61.1306Z" fill="#00692C"/>
<path d="M88.1488 61.1306H89.5825V59.8651H88.1488V61.1306Z" fill="#00692C"/>
<path d="M89.5823 61.1306H91.016V59.8651H89.5823V61.1306Z" fill="#00692C"/>
<path d="M91.0162 61.1306H92.2708V59.8651H91.0162V61.1306Z" fill="#00692C"/>
<path d="M92.2705 61.1306H93.7042V59.8651H92.2705V61.1306Z" fill="#00692C"/>
<path d="M93.7041 61.1306H94.9586V59.8651H93.7041V61.1306Z" fill="#00692C"/>
<path d="M94.9585 61.1306H96.3922V59.8651H94.9585V61.1306Z" fill="#00692C"/>
<path d="M96.3926 61.1306H97.6471V59.8651H96.3926V61.1306Z" fill="#00692C"/>
<path d="M98.9011 61.1306H100.335V59.8651H98.9011V61.1306Z" fill="#00692C"/>
<path d="M100.335 61.1306H101.769V59.8651H100.335V61.1306Z" fill="#00692C"/>
<path d="M74.8872 59.865H76.1417V58.4189H74.8872V59.865Z" fill="#00692C"/>
<path d="M76.1415 59.865H77.5752V58.4189H76.1415V59.865Z" fill="#00692C"/>
<path d="M80.2634 59.865H81.5179V58.4189H80.2634V59.865Z" fill="#00692C"/>
<path d="M81.5177 59.865H82.9513V58.4189H81.5177V59.865Z" fill="#00692C"/>
<path d="M84.2061 59.865H85.6397V58.4189H84.2061V59.865Z" fill="#00692C"/>
<path d="M88.1488 59.865H89.5825V58.4189H88.1488V59.865Z" fill="#00692C"/>
<path d="M91.0162 59.865H92.2708V58.4189H91.0162V59.865Z" fill="#00692C"/>
<path d="M92.2705 59.865H93.7042V58.4189H92.2705V59.865Z" fill="#00692C"/>
<path d="M94.9585 59.865H96.3922V58.4189H94.9585V59.865Z" fill="#00692C"/>
<path d="M96.3926 59.865H97.6471V58.4189H96.3926V59.865Z" fill="#00692C"/>
<path d="M73.6327 58.419H74.8872V57.1536H73.6327V58.419Z" fill="#00692C"/>
<path d="M76.1415 58.419H77.5752V57.1536H76.1415V58.419Z" fill="#00692C"/>
<path d="M77.5754 58.419H78.8299V57.1536H77.5754V58.419Z" fill="#00692C"/>
<path d="M78.83 58.419H80.2636V57.1536H78.83V58.419Z" fill="#00692C"/>
<path d="M80.2634 58.419H81.5179V57.1536H80.2634V58.419Z" fill="#00692C"/>
<path d="M82.9517 58.419H84.2061V57.1536H82.9517V58.419Z" fill="#00692C"/>
<path d="M84.2061 58.419H85.6397V57.1536H84.2061V58.419Z" fill="#00692C"/>
<path d="M85.6396 58.419H86.8941V57.1536H85.6396V58.419Z" fill="#00692C"/>
<path d="M86.8945 58.419H88.149V57.1536H86.8945V58.419Z" fill="#00692C"/>
<path d="M88.1488 58.419H89.5825V57.1536H88.1488V58.419Z" fill="#00692C"/>
<path d="M89.5823 58.419H91.016V57.1536H89.5823V58.419Z" fill="#00692C"/>
<path d="M96.3926 58.419H97.6471V57.1536H96.3926V58.419Z" fill="#00692C"/>
<path d="M97.6469 58.419H98.9014V57.1536H97.6469V58.419Z" fill="#00692C"/>
<path d="M100.335 58.419H101.769V57.1536H100.335V58.419Z" fill="#00692C"/>
<path d="M72.1989 58.419H73.6325V57.1536H72.1989V58.419Z" fill="#00692C"/>
<path d="M73.6327 57.1535H74.8872V55.7073H73.6327V57.1535Z" fill="#00692C"/>
<path d="M74.8872 57.1535H76.1417V55.7073H74.8872V57.1535Z" fill="#00692C"/>
<path d="M76.1415 57.1535H77.5752V55.7073H76.1415V57.1535Z" fill="#00692C"/>
<path d="M81.5177 57.1535H82.9513V55.7073H81.5177V57.1535Z" fill="#00692C"/>
<path d="M82.9517 57.1535H84.2061V55.7073H82.9517V57.1535Z" fill="#00692C"/>
<path d="M88.1488 57.1535H89.5825V55.7073H88.1488V57.1535Z" fill="#00692C"/>
<path d="M92.2705 57.1535H93.7042V55.7073H92.2705V57.1535Z" fill="#00692C"/>
<path d="M93.7041 57.1535H94.9586V55.7073H93.7041V57.1535Z" fill="#00692C"/>
<path d="M96.3926 57.1535H97.6471V55.7073H96.3926V57.1535Z" fill="#00692C"/>
<path d="M97.6469 57.1535H98.9014V55.7073H97.6469V57.1535Z" fill="#00692C"/>
<path d="M98.9011 57.1535H100.335V55.7073H98.9011V57.1535Z" fill="#00692C"/>
<path d="M100.335 57.1535H101.769V55.7073H100.335V57.1535Z" fill="#00692C"/>
<path d="M72.1989 57.1535H73.6325V55.7073H72.1989V57.1535Z" fill="#00692C"/>
<path d="M76.1415 55.7073H77.5752V54.442H76.1415V55.7073Z" fill="#00692C"/>
<path d="M77.5754 55.7073H78.8299V54.442H77.5754V55.7073Z" fill="#00692C"/>
<path d="M78.83 55.7073H80.2636V54.442H78.83V55.7073Z" fill="#00692C"/>
<path d="M80.2634 55.7073H81.5179V54.442H80.2634V55.7073Z" fill="#00692C"/>
<path d="M81.5177 55.7073H82.9513V54.442H81.5177V55.7073Z" fill="#00692C"/>
<path d="M82.9517 55.7073H84.2061V54.442H82.9517V55.7073Z" fill="#00692C"/>
<path d="M86.8945 55.7073H88.149V54.442H86.8945V55.7073Z" fill="#00692C"/>
<path d="M91.0162 55.7073H92.2708V54.442H91.0162V55.7073Z" fill="#00692C"/>
<path d="M92.2705 55.7073H93.7042V54.442H92.2705V55.7073Z" fill="#00692C"/>
<path d="M97.6469 55.7073H98.9014V54.442H97.6469V55.7073Z" fill="#00692C"/>
<path d="M72.1989 55.7073H73.6325V54.442H72.1989V55.7073Z" fill="#00692C"/>
<path d="M73.6327 54.4419H74.8872V52.9957H73.6327V54.4419Z" fill="#00692C"/>
<path d="M74.8872 54.4419H76.1417V52.9957H74.8872V54.4419Z" fill="#00692C"/>
<path d="M76.1415 54.4419H77.5752V52.9957H76.1415V54.4419Z" fill="#00692C"/>
<path d="M77.5754 54.4419H78.8299V52.9957H77.5754V54.4419Z" fill="#00692C"/>
<path d="M80.2634 54.4419H81.5179V52.9957H80.2634V54.4419Z" fill="#00692C"/>
<path d="M82.9517 54.4419H84.2061V52.9957H82.9517V54.4419Z" fill="#00692C"/>
<path d="M84.2061 54.4419H85.6397V52.9957H84.2061V54.4419Z" fill="#00692C"/>
<path d="M86.8945 54.4419H88.149V52.9957H86.8945V54.4419Z" fill="#00692C"/>
<path d="M88.1488 54.4419H89.5825V52.9957H88.1488V54.4419Z" fill="#00692C"/>
<path d="M89.5823 54.4419H91.016V52.9957H89.5823V54.4419Z" fill="#00692C"/>
<path d="M91.0162 54.4419H92.2708V52.9957H91.0162V54.4419Z" fill="#00692C"/>
<path d="M93.7041 54.4419H94.9586V52.9957H93.7041V54.4419Z" fill="#00692C"/>
<path d="M94.9585 54.4419H96.3922V52.9957H94.9585V54.4419Z" fill="#00692C"/>
<path d="M96.3926 54.4419H97.6471V52.9957H96.3926V54.4419Z" fill="#00692C"/>
<path d="M97.6469 54.4419H98.9014V52.9957H97.6469V54.4419Z" fill="#00692C"/>
<path d="M100.335 54.4419H101.769V52.9957H100.335V54.4419Z" fill="#00692C"/>
<path d="M73.6327 52.9959H74.8872V51.7305H73.6327V52.9959Z" fill="#00692C"/>
<path d="M76.1415 52.9959H77.5752V51.7305H76.1415V52.9959Z" fill="#00692C"/>
<path d="M78.83 52.9959H80.2636V51.7305H78.83V52.9959Z" fill="#00692C"/>
<path d="M80.2634 52.9959H81.5179V51.7305H80.2634V52.9959Z" fill="#00692C"/>
<path d="M84.2061 52.9959H85.6397V51.7305H84.2061V52.9959Z" fill="#00692C"/>
<path d="M85.6396 52.9959H86.8941V51.7305H85.6396V52.9959Z" fill="#00692C"/>
<path d="M86.8945 52.9959H88.149V51.7305H86.8945V52.9959Z" fill="#00692C"/>
<path d="M89.5823 52.9959H91.016V51.7305H89.5823V52.9959Z" fill="#00692C"/>
<path d="M91.0162 52.9959H92.2708V51.7305H91.0162V52.9959Z" fill="#00692C"/>
<path d="M92.2705 52.9959H93.7042V51.7305H92.2705V52.9959Z" fill="#00692C"/>
<path d="M94.9585 52.9959H96.3922V51.7305H94.9585V52.9959Z" fill="#00692C"/>
<path d="M97.6469 52.9959H98.9014V51.7305H97.6469V52.9959Z" fill="#00692C"/>
<path d="M98.9011 52.9959H100.335V51.7305H98.9011V52.9959Z" fill="#00692C"/>
<path d="M100.335 52.9959H101.769V51.7305H100.335V52.9959Z" fill="#00692C"/>
<path d="M72.1989 52.9959H73.6325V51.7305H72.1989V52.9959Z" fill="#00692C"/>
<path d="M73.6327 51.7303H74.8872V50.465H73.6327V51.7303Z" fill="#00692C"/>
<path d="M78.83 51.7303H80.2636V50.465H78.83V51.7303Z" fill="#00692C"/>
<path d="M80.2634 51.7303H81.5179V50.465H80.2634V51.7303Z" fill="#00692C"/>
<path d="M82.9517 51.7303H84.2061V50.465H82.9517V51.7303Z" fill="#00692C"/>
<path d="M84.2061 51.7303H85.6397V50.465H84.2061V51.7303Z" fill="#00692C"/>
<path d="M86.8945 51.7303H88.149V50.465H86.8945V51.7303Z" fill="#00692C"/>
<path d="M88.1488 51.7303H89.5825V50.465H88.1488V51.7303Z" fill="#00692C"/>
<path d="M91.0162 51.7303H92.2708V50.465H91.0162V51.7303Z" fill="#00692C"/>
<path d="M92.2705 51.7303H93.7042V50.465H92.2705V51.7303Z" fill="#00692C"/>
<path d="M93.7041 51.7303H94.9586V50.465H93.7041V51.7303Z" fill="#00692C"/>
<path d="M94.9585 51.7303H96.3922V50.465H94.9585V51.7303Z" fill="#00692C"/>
<path d="M96.3926 51.7303H97.6471V50.465H96.3926V51.7303Z" fill="#00692C"/>
<path d="M97.6469 51.7303H98.9014V50.465H97.6469V51.7303Z" fill="#00692C"/>
<path d="M72.1989 51.7303H73.6325V50.465H72.1989V51.7303Z" fill="#00692C"/>
<path d="M82.9517 50.465H84.2061V49.0187H82.9517V50.465Z" fill="#00692C"/>
<path d="M85.6396 50.465H86.8941V49.0187H85.6396V50.465Z" fill="#00692C"/>
<path d="M86.8945 50.465H88.149V49.0187H86.8945V50.465Z" fill="#00692C"/>
<path d="M89.5823 50.465H91.016V49.0187H89.5823V50.465Z" fill="#00692C"/>
<path d="M91.0162 50.465H92.2708V49.0187H91.0162V50.465Z" fill="#00692C"/>
<path d="M92.2705 50.465H93.7042V49.0187H92.2705V50.465Z" fill="#00692C"/>
<path d="M73.6327 49.0188H74.8872V47.7533H73.6327V49.0188Z" fill="#00692C"/>
<path d="M74.8872 49.0188H76.1417V47.7533H74.8872V49.0188Z" fill="#00692C"/>
<path d="M76.1415 49.0188H77.5752V47.7533H76.1415V49.0188Z" fill="#00692C"/>
<path d="M77.5754 49.0188H78.8299V47.7533H77.5754V49.0188Z" fill="#00692C"/>
<path d="M78.83 49.0188H80.2636V47.7533H78.83V49.0188Z" fill="#00692C"/>
<path d="M81.5177 49.0188H82.9513V47.7533H81.5177V49.0188Z" fill="#00692C"/>
<path d="M82.9517 49.0188H84.2061V47.7533H82.9517V49.0188Z" fill="#00692C"/>
<path d="M86.8945 49.0188H88.149V47.7533H86.8945V49.0188Z" fill="#00692C"/>
<path d="M92.2705 49.0188H93.7042V47.7533H92.2705V49.0188Z" fill="#00692C"/>
<path d="M93.7041 49.0188H94.9586V47.7533H93.7041V49.0188Z" fill="#00692C"/>
<path d="M96.3926 49.0188H97.6471V47.7533H96.3926V49.0188Z" fill="#00692C"/>
<path d="M100.335 49.0188H101.769V47.7533H100.335V49.0188Z" fill="#00692C"/>
<path d="M72.1989 49.0188H73.6325V47.7533H72.1989V49.0188Z" fill="#00692C"/>
<path d="M78.83 47.7534H80.2636V46.3071H78.83V47.7534Z" fill="#00692C"/>
<path d="M89.5823 47.7534H91.016V46.3071H89.5823V47.7534Z" fill="#00692C"/>
<path d="M91.0162 47.7534H92.2708V46.3071H91.0162V47.7534Z" fill="#00692C"/>
<path d="M93.7041 47.7534H94.9586V46.3071H93.7041V47.7534Z" fill="#00692C"/>
<path d="M94.9585 47.7534H96.3922V46.3071H94.9585V47.7534Z" fill="#00692C"/>
<path d="M97.6469 47.7534H98.9014V46.3071H97.6469V47.7534Z" fill="#00692C"/>
<path d="M98.9011 47.7534H100.335V46.3071H98.9011V47.7534Z" fill="#00692C"/>
<path d="M100.335 47.7534H101.769V46.3071H100.335V47.7534Z" fill="#00692C"/>
<path d="M72.1989 47.7534H73.6325V46.3071H72.1989V47.7534Z" fill="#00692C"/>
<path d="M74.8872 46.3072H76.1417V45.0417H74.8872V46.3072Z" fill="#00692C"/>
<path d="M76.1415 46.3072H77.5752V45.0417H76.1415V46.3072Z" fill="#00692C"/>
<path d="M78.83 46.3072H80.2636V45.0417H78.83V46.3072Z" fill="#00692C"/>
<path d="M81.5177 46.3072H82.9513V45.0417H81.5177V46.3072Z" fill="#00692C"/>
<path d="M82.9517 46.3072H84.2061V45.0417H82.9517V46.3072Z" fill="#00692C"/>
<path d="M85.6396 46.3072H86.8941V45.0417H85.6396V46.3072Z" fill="#00692C"/>
<path d="M86.8945 46.3072H88.149V45.0417H86.8945V46.3072Z" fill="#00692C"/>
<path d="M89.5823 46.3072H91.016V45.0417H89.5823V46.3072Z" fill="#00692C"/>
<path d="M94.9585 46.3072H96.3922V45.0417H94.9585V46.3072Z" fill="#00692C"/>
<path d="M96.3926 46.3072H97.6471V45.0417H96.3926V46.3072Z" fill="#00692C"/>
<path d="M97.6469 46.3072H98.9014V45.0417H97.6469V46.3072Z" fill="#00692C"/>
<path d="M72.1989 46.3072H73.6325V45.0417H72.1989V46.3072Z" fill="#00692C"/>
<path d="M74.8872 45.0416H76.1417V43.5955H74.8872V45.0416Z" fill="#00692C"/>
<path d="M76.1415 45.0416H77.5752V43.5955H76.1415V45.0416Z" fill="#00692C"/>
<path d="M78.83 45.0416H80.2636V43.5955H78.83V45.0416Z" fill="#00692C"/>
<path d="M81.5177 45.0416H82.9513V43.5955H81.5177V45.0416Z" fill="#00692C"/>
<path d="M84.2061 45.0416H85.6397V43.5955H84.2061V45.0416Z" fill="#00692C"/>
<path d="M85.6396 45.0416H86.8941V43.5955H85.6396V45.0416Z" fill="#00692C"/>
<path d="M86.8945 45.0416H88.149V43.5955H86.8945V45.0416Z" fill="#00692C"/>
<path d="M88.1488 45.0416H89.5825V43.5955H88.1488V45.0416Z" fill="#00692C"/>
<path d="M89.5823 45.0416H91.016V43.5955H89.5823V45.0416Z" fill="#00692C"/>
<path d="M92.2705 45.0416H93.7042V43.5955H92.2705V45.0416Z" fill="#00692C"/>
<path d="M93.7041 45.0416H94.9586V43.5955H93.7041V45.0416Z" fill="#00692C"/>
<path d="M94.9585 45.0416H96.3922V43.5955H94.9585V45.0416Z" fill="#00692C"/>
<path d="M97.6469 45.0416H98.9014V43.5955H97.6469V45.0416Z" fill="#00692C"/>
<path d="M98.9011 45.0416H100.335V43.5955H98.9011V45.0416Z" fill="#00692C"/>
<path d="M100.335 45.0416H101.769V43.5955H100.335V45.0416Z" fill="#00692C"/>
<path d="M72.1989 45.0416H73.6325V43.5955H72.1989V45.0416Z" fill="#00692C"/>
<path d="M78.83 43.5955H80.2636V42.3301H78.83V43.5955Z" fill="#00692C"/>
<path d="M84.2061 43.5955H85.6397V42.3301H84.2061V43.5955Z" fill="#00692C"/>
<path d="M85.6396 43.5955H86.8941V42.3301H85.6396V43.5955Z" fill="#00692C"/>
<path d="M88.1488 43.5955H89.5825V42.3301H88.1488V43.5955Z" fill="#00692C"/>
<path d="M89.5823 43.5955H91.016V42.3301H89.5823V43.5955Z" fill="#00692C"/>
<path d="M91.0162 43.5955H92.2708V42.3301H91.0162V43.5955Z" fill="#00692C"/>
<path d="M92.2705 43.5955H93.7042V42.3301H92.2705V43.5955Z" fill="#00692C"/>
<path d="M98.9011 43.5955H100.335V42.3301H98.9011V43.5955Z" fill="#00692C"/>
<path d="M72.1989 43.5955H73.6325V42.3301H72.1989V43.5955Z" fill="#00692C"/>
<path d="M73.6327 42.3302H74.8872V40.884H73.6327V42.3302Z" fill="#00692C"/>
<path d="M74.8872 42.3302H76.1417V40.884H74.8872V42.3302Z" fill="#00692C"/>
<path d="M76.1415 42.3302H77.5752V40.884H76.1415V42.3302Z" fill="#00692C"/>
<path d="M77.5754 42.3302H78.8299V40.884H77.5754V42.3302Z" fill="#00692C"/>
<path d="M78.83 42.3302H80.2636V40.884H78.83V42.3302Z" fill="#00692C"/>
<path d="M81.5177 42.3302H82.9513V40.884H81.5177V42.3302Z" fill="#00692C"/>
<path d="M82.9517 42.3302H84.2061V40.884H82.9517V42.3302Z" fill="#00692C"/>
<path d="M89.5823 42.3302H91.016V40.884H89.5823V42.3302Z" fill="#00692C"/>
<path d="M92.2705 42.3302H93.7042V40.884H92.2705V42.3302Z" fill="#00692C"/>
<path d="M94.9585 42.3302H96.3922V40.884H94.9585V42.3302Z" fill="#00692C"/>
<path d="M96.3926 42.3302H97.6471V40.884H96.3926V42.3302Z" fill="#00692C"/>
<path d="M100.335 42.3302H101.769V40.884H100.335V42.3302Z" fill="#00692C"/>
<path d="M72.1989 42.3302H73.6325V40.884H72.1989V42.3302Z" fill="#00692C"/>
<path d="M74.3494 36.1839H67.7187C67.5394 36.1839 67.3602 36.3647 67.3602 36.5454V43.0533C67.3602 43.4149 67.5394 43.5956 67.7187 43.5956C68.0771 43.5956 68.2563 43.4149 68.2563 43.0533V37.0878H74.3494C74.5286 37.0878 74.7079 36.907 74.7079 36.5454C74.7079 36.3647 74.5286 36.1839 74.3494 36.1839Z" fill="#E0E4FA"/>
<path d="M106.249 43.5956C105.891 43.5956 105.712 43.4149 105.712 43.2341V37.0878H99.7975C99.4391 37.0878 99.2599 36.907 99.2599 36.5454C99.2599 36.3647 99.4391 36.1839 99.7975 36.1839H106.249C106.428 36.1839 106.608 36.3647 106.608 36.5454V43.2341C106.608 43.4149 106.428 43.5956 106.249 43.5956Z" fill="#E0E4FA"/>
<path d="M106.249 76.4963H99.6183C99.4391 76.4963 99.2599 76.3155 99.2599 75.954C99.2599 75.7732 99.4391 75.4117 99.6183 75.4117H105.712V69.4461C105.712 69.2654 105.891 68.9038 106.249 68.9038C106.428 68.9038 106.608 69.2654 106.608 69.4461V75.954C106.608 76.3155 106.428 76.4963 106.249 76.4963Z" fill="#E0E4FA"/>
<path d="M74.1702 76.4963H67.7187C67.5394 76.4963 67.3602 76.3155 67.3602 75.954V69.4461C67.3602 69.0846 67.5394 68.9038 67.7187 68.9038C68.0771 68.9038 68.2563 69.0846 68.2563 69.4461V75.5924H74.1702C74.5286 75.5924 74.7079 75.7732 74.7079 75.954C74.7079 76.3155 74.5286 76.4963 74.1702 76.4963Z" fill="#E0E4FA"/>
<path d="M103.74 85.5348V86.4387C103.74 86.981 103.382 87.3426 102.844 87.3426H71.1238C70.5862 87.3426 70.2278 86.981 70.2278 86.4387V85.5348C70.2278 84.9925 70.5862 84.6309 71.1238 84.6309H102.844C103.382 84.6309 103.74 84.9925 103.74 85.5348Z" fill="white"/>
<path d="M93.7044 84.6309V87.3426H71.1238C70.5862 87.3426 70.2278 86.981 70.2278 86.4387V85.5348C70.2278 84.9925 70.5862 84.6309 71.1238 84.6309H93.7044Z" fill="#ED7D2B"/>
<path d="M88.8657 84.6309L86.5359 87.3426H81.6973L84.2062 84.6309H88.8657Z" fill="#F99746"/>
<path d="M93.7041 84.6309V87.3426H89.4031L91.7328 84.6309H93.7041Z" fill="#F99746"/>
<path d="M81.5179 84.6309L79.009 87.3426H74.3495L76.6792 84.6309H81.5179Z" fill="#F99746"/>
<path d="M73.9912 84.6309L71.4823 87.3426H71.1238C70.5862 87.3426 70.2278 86.981 70.2278 86.4387V85.5348C70.2278 84.9925 70.5862 84.6309 71.1238 84.6309H73.9912Z" fill="#F99746"/>
<path d="M83.4894 83.0041L83.6686 82.8234C83.8478 83.0041 84.027 83.0041 84.2062 83.0041C84.3854 83.0041 84.5647 83.0041 84.5647 82.8234C84.5647 82.8234 84.3854 82.6426 84.2062 82.6426C83.8478 82.4618 83.6686 82.4618 83.6686 82.1003C83.6686 81.7387 83.8478 81.5579 84.2062 81.5579C84.3854 81.5579 84.5647 81.7387 84.7439 81.7387L84.5647 82.1003C84.3854 81.9195 84.3854 81.9195 84.2062 81.9195C84.027 81.9195 83.8478 81.9195 83.8478 82.1003C83.8478 82.281 84.027 82.281 84.2062 82.281C84.5647 82.4618 84.9231 82.6426 84.9231 82.8234C84.9231 83.1849 84.5647 83.3657 84.2062 83.3657C84.027 83.3657 83.6686 83.1849 83.4894 83.0041Z" fill="white"/>
<path d="M85.1021 82.4618C85.1021 81.9195 85.4605 81.5579 85.9981 81.5579C86.3565 81.5579 86.5358 81.7387 86.715 81.9195L86.3565 82.1003C86.3565 81.9195 86.1773 81.9195 85.9981 81.9195C85.6397 81.9195 85.4605 82.1003 85.4605 82.4618C85.4605 82.8234 85.6397 83.0041 85.9981 83.0041C86.1773 83.0041 86.3565 83.0041 86.5358 82.8234L86.715 83.0041C86.5358 83.1849 86.3565 83.3657 85.9981 83.3657C85.4605 83.3657 85.1021 83.0041 85.1021 82.4618Z" fill="white"/>
<path d="M87.9698 82.6426L87.6114 81.9195L87.4322 82.6426H87.9698ZM87.6114 81.5579H87.7906L88.5075 83.3657H88.3283L88.1491 82.8234H87.253L87.0738 83.3657H86.8945L87.6114 81.5579Z" fill="white"/>
<path d="M88.8655 81.5579H89.0447L89.9408 82.8234V81.5579H90.2992V83.3657H90.12L89.2239 82.1003V83.3657H88.8655V81.5579Z" fill="white"/>
<path d="M112.163 69.8077C113.776 69.2654 115.389 69.8077 116.464 71.0731C119.331 73.9655 117.181 76.3155 118.615 78.304C119.511 79.5694 120.048 81.7387 117.539 83.0041C116.464 83.7272 112.88 86.8004 112.163 86.8004C104.994 87.5235 104.815 80.1118 107.324 78.1232C110.729 75.0501 107.503 71.0731 112.163 69.8077Z" fill="#233862"/>
<path d="M115.926 81.1962C115.926 81.1962 122.557 84.4501 123.812 84.2693C125.066 84.2693 132.772 81.5578 132.772 81.5578L132.593 82.8232C132.593 82.8232 126.679 86.2578 124.528 86.4386C122.557 86.6194 115.747 84.6309 115.03 84.2693C114.313 83.727 113.955 81.5578 115.926 81.1962Z" fill="#ED985F"/>
<path d="M116.643 84.2695C116.106 84.631 115.389 84.9926 114.314 85.1733C110.909 86.0772 109.475 83.0041 108.937 81.0156C109.475 80.654 109.833 80.654 110.192 80.654C110.371 80.4732 110.729 80.4732 110.909 80.4732C111.267 80.2925 111.984 79.0271 111.984 77.0386H112.163L115.03 77.7617C115.03 77.7617 114.851 78.6655 114.851 79.5694C114.672 80.2925 114.672 80.8348 114.851 81.0156C115.03 81.0156 115.21 81.0156 115.21 81.0156C115.21 81.1963 116.106 82.4617 116.643 84.2695Z" fill="#FFB27D"/>
<path d="M115.03 77.7617C115.03 77.7617 114.851 78.6655 114.851 79.5694C113.238 79.3886 112.521 77.9424 112.163 77.0386L115.03 77.7617Z" fill="#ED985F"/>
<path d="M115.389 78.6656C115.389 78.6656 111.804 78.4849 111.804 76.1348C111.984 73.7847 111.625 72.1578 114.134 72.1578C116.464 72.1578 116.822 73.0616 117.001 73.9655C117.181 74.6886 116.464 78.6656 115.389 78.6656Z" fill="#FFB27D"/>
<path d="M117.002 72.7001C116.464 71.7962 115.926 71.977 115.747 72.1578C113.776 70.8924 112.342 72.5193 112.342 72.5193C111.984 74.1463 110.729 75.0502 110.729 75.0502C110.729 75.0502 111.446 75.5925 112.88 75.2309C115.03 74.6886 115.747 73.0616 115.747 72.7001C115.926 72.8809 116.285 73.0616 116.464 73.604C116.822 74.1463 116.822 74.5078 116.822 75.4117C116.822 75.4117 117.718 73.7847 117.002 72.7001Z" fill="#233862"/>
<path d="M107.862 91.862C107.504 90.235 106.428 83.1848 107.504 81.0156C108.041 80.1117 109.475 80.1117 111.267 80.1117C111.805 80.4732 113.776 81.7387 114.672 81.5579C115.03 81.5579 115.209 81.1963 114.851 81.0156C114.851 81.0156 115.568 81.0156 116.643 81.1963C117.181 81.3771 118.794 82.4617 118.794 82.4617C118.794 82.4617 118.077 83.5464 117.002 84.0887C117.181 85.8964 116.822 86.6195 115.03 90.7773C113.417 94.3928 115.209 97.6467 115.209 97.6467C115.209 97.6467 105.891 105.239 105.891 101.262C105.891 98.3698 108.4 94.212 107.862 91.862Z" fill="#F99746"/>
<path d="M115.747 105.782C116.106 105.782 116.643 105.42 116.822 105.058C117.002 105.058 117.002 104.878 117.002 104.878C118.077 103.251 118.615 98.1891 120.944 92.9467C121.482 91.6812 123.632 91.5005 124.17 90.0543C124.17 90.0543 125.604 85.3542 121.482 85.1734C117.36 84.9926 110.55 98.1891 110.371 99.6353C110.371 101.081 107.683 106.685 115.747 105.782Z" fill="#94B0ED"/>
<path d="M131.876 105.781H126.141C126.141 105.781 125.783 104.877 126.141 104.154C126.5 103.612 126.5 103.25 126.141 102.708C126.5 102.889 126.858 103.07 127.217 103.07C127.396 102.889 127.754 102.889 127.933 102.708C128.292 102.889 129.367 104.154 129.726 104.516C130.084 104.697 131.697 104.697 131.876 105.781Z" fill="#0D2644"/>
<path d="M124.349 86.6196C124.708 89.1505 125.962 97.466 128.471 101.624C129.188 102.889 126.5 103.612 126.5 103.612C126.141 103.431 125.425 102.889 125.245 102.708C123.274 100.901 119.331 95.839 119.331 91.862C119.331 89.8735 119.152 86.0773 120.586 85.1735C121.482 84.6311 124.17 85.535 124.349 86.6196Z" fill="#94B0ED"/>
<path d="M108.22 84.2697C108.22 84.2697 109.296 86.6197 114.851 88.4275C120.228 90.0544 117.181 85.7159 117.181 85.7159L109.475 83.0043L108.22 84.2697Z" fill="#ED7D2B"/>
<path d="M112.88 105.781C112.88 105.781 113.059 105.42 113.238 104.697C113.597 103.612 113.776 102.889 114.314 101.081C115.03 99.2735 115.747 97.1042 116.643 94.7542C117.002 94.0311 117.181 93.308 117.539 92.5849C118.077 91.3195 119.69 91.5003 120.228 90.0541C120.228 90.0541 122.557 84.9925 118.435 84.8117C114.314 84.8117 106.607 98.3697 106.249 99.6351C105.711 101.081 103.919 107.228 112.88 105.781Z" fill="#AEC3FF"/>
<path d="M127.575 105.781H121.84C121.84 105.781 121.661 104.877 122.02 104.154C122.378 103.612 122.199 103.25 121.84 102.708C122.199 102.889 122.557 103.07 122.916 103.07C123.274 102.889 123.453 102.889 123.812 102.708C123.991 102.889 125.066 104.154 125.425 104.516C125.783 104.697 127.575 104.697 127.575 105.781Z" fill="#163560"/>
<path d="M114.314 101.081C112.88 97.6467 115.03 90.7773 115.03 90.7773C115.926 91.5004 116.464 92.9466 116.643 94.7543C115.747 97.1043 115.03 99.2736 114.314 101.081Z" fill="#A1B9F6"/>
<path d="M120.944 86.2579C121.303 88.9695 121.661 97.4659 124.17 101.624C124.887 102.889 122.199 103.612 122.199 103.612C121.84 103.431 121.123 102.889 120.944 102.708C118.973 100.901 115.03 95.8389 115.03 91.8619C115.03 89.8734 117.36 86.2579 118.614 85.3541C119.511 84.8117 120.765 85.3541 120.944 86.2579Z" fill="#AEC3FF"/>
<path d="M133.489 78.1233L127.575 77.581C127.396 77.4002 127.217 77.581 127.038 77.7618L125.066 83.3658C124.887 83.5465 125.066 83.9081 125.246 83.9081L131.16 84.0889C131.339 84.0889 131.518 84.0889 131.518 83.9081L133.668 78.6656C133.848 78.4849 133.668 78.1233 133.489 78.1233Z" fill="#DB6B3A"/>
<path d="M134.027 78.1233L127.934 77.5809C127.934 77.5809 127.755 77.5809 127.575 77.7617L125.425 83.3657C125.425 83.7272 125.604 83.908 125.783 83.908L131.697 84.2695C131.876 84.2695 132.056 84.0888 132.056 83.908L134.206 78.6656C134.385 78.4848 134.206 78.304 134.027 78.1233Z" fill="#F78248"/>
<path d="M130.622 80.8349C130.801 80.654 130.622 80.4731 130.443 80.4731C130.263 80.4731 130.084 80.654 129.905 80.8349C129.905 81.0159 129.905 81.1968 130.263 81.1968C130.443 81.1968 130.622 81.0159 130.622 80.8349Z" fill="#EBF3FA"/>
<path d="M133.848 78.6658C133.848 78.6658 133.848 78.4849 133.669 78.4849C133.489 78.4849 133.489 78.6658 133.489 78.6658C133.31 78.8467 133.489 78.8467 133.489 78.8467C133.669 78.8467 133.669 78.8467 133.848 78.6658Z" fill="#EBF3FA"/>
<path d="M108.937 81.0155C108.937 81.0155 117.181 84.0887 118.435 83.9079C119.331 83.9079 125.962 81.5578 125.962 81.5578L126.5 82.6425C126.5 82.6425 120.048 86.8003 118.256 86.8003C114.672 86.8003 108.758 84.631 108.22 84.2695C107.503 83.7271 106.966 81.3771 108.937 81.0155Z" fill="#FFB27D"/>
<path d="M125.962 81.5578C125.962 81.5578 126.5 80.6539 127.038 80.6539C127.754 80.6539 128.65 81.0155 129.009 81.0155C129.367 81.1963 130.443 81.377 130.084 81.9194C129.726 82.4617 128.471 82.6425 127.754 82.4617C127.217 82.2809 126.5 82.6425 126.5 82.6425L125.962 81.5578Z" fill="#FFB27D"/>
<path d="M126.858 80.6545C126.858 80.6545 127.933 80.1118 128.113 80.1118C128.471 79.9309 128.292 80.1118 128.292 80.2927C128.113 80.6545 127.754 80.8354 127.754 81.0163L126.858 80.6545Z" fill="#FFB27D"/>
<path d="M133.31 81.0155C133.31 81.0155 132.951 79.75 132.593 80.1116C132.055 80.6539 132.414 81.0155 132.414 81.5578C132.593 82.4617 132.772 82.4617 132.951 82.4617C132.951 82.4617 133.489 81.5578 133.31 81.0155Z" fill="#FFB27D"/>
<path d="M133.31 81.1962C133.31 81.1962 133.489 82.2809 132.593 82.8232L132.772 82.1001L133.31 81.1962Z" fill="#FFB27D"/>
<path d="M116.106 77.2194C116.106 77.2194 115.747 77.2194 114.851 77.2194C114.851 77.2194 114.851 77.5812 115.568 77.7621C116.106 77.7621 116.106 77.2194 116.106 77.2194Z" fill="white"/>
<path d="M113.238 82.4619C113.238 82.4619 112.521 84.812 110.012 85.3543C110.012 85.3543 105.711 84.0889 107.862 81.1965C107.862 81.1965 109.833 79.5695 113.238 82.4619Z" fill="#F99746"/>
<path d="M133.31 81.3777C133.31 81.3777 133.489 80.8349 133.489 80.654C133.489 80.654 133.489 80.473 133.489 80.654C133.31 80.654 133.31 80.8349 133.31 81.0158C133.31 81.1968 133.31 81.3777 133.31 81.3777Z" fill="#FFB27D"/>
<circle cx="119.126" cy="21.4443" r="12.4443" fill="#F64E60"/>
<path d="M106.059 32.3816L108.346 26.5382L113.96 29.5058L106.059 32.3816Z" fill="#F64E60"/>
<path d="M117.781 35.8576C121.817 36.2429 124.619 35.3461 127.422 33.2159" stroke="#F64E60" stroke-linecap="round" stroke-linejoin="bevel"/>
<path d="M120.233 24.4448H118.124L117.825 15.5767H120.532L120.233 24.4448ZM119.179 25.8335C119.606 25.8335 119.949 25.9595 120.207 26.2114C120.471 26.4634 120.603 26.7856 120.603 27.1782C120.603 27.5649 120.471 27.8843 120.207 28.1362C119.949 28.3882 119.606 28.5142 119.179 28.5142C118.757 28.5142 118.414 28.3882 118.15 28.1362C117.893 27.8843 117.764 27.5649 117.764 27.1782C117.764 26.7915 117.893 26.4722 118.15 26.2202C118.414 25.9624 118.757 25.8335 119.179 25.8335Z" fill="white"/>
</svg>
