<svg width="86" height="86" viewBox="0 0 86 86" fill="none" xmlns="http://www.w3.org/2000/svg">
<g clip-path="url(#clip0)">
<path d="M77.4481 53.0459C77.4481 53.0459 90.4766 42.2767 85.7698 35.8754C81.063 29.4741 70.0678 43.2557 70.0678 43.2557C70.0678 43.2557 65.6999 23.4117 59.035 23.8636C52.3701 24.3154 50.0732 41.7495 50.0732 41.7495C50.0732 41.7495 43.7849 29.3988 37.2706 29.3988C31.0952 29.3988 27.6687 40.6575 27.6687 40.6575C27.6687 40.6575 22.3217 22.8092 15.9957 24.466C9.66975 26.1605 6.24318 48.8662 6.24318 48.8662L19.6482 51.4268L77.4481 53.0459Z" fill="#DAFFBC"/>
<path d="M77.4481 59.5226C80.3099 59.4096 89.0081 53.3472 86.3346 47.5484C83.6611 41.7496 77.4481 47.4731 77.4481 47.4731C77.4481 47.4731 82.9457 26.8007 73.7956 26.2735C64.6079 25.7087 64.3819 44.0841 64.3819 44.0841C64.3819 44.0841 60.6918 30.9803 54.7047 34.5199C48.7176 38.0971 48.9812 50.0712 48.9812 50.0712C48.9812 50.0712 48.3411 36.3273 40.5466 37.231C32.7897 38.0971 33.6181 48.3768 33.6181 48.3768C33.6181 48.3768 32.2249 30.7544 25.1835 31.018C18.1797 31.2816 18.6316 47.2471 18.6316 47.2471C18.6316 47.2471 15.4686 32.5618 7.52344 37.118C-0.421693 41.6743 5.60305 61.5936 5.60305 61.5936L77.4481 59.5226Z" fill="#B7EA8D"/>
<path d="M9.7074 38.8501C8.80369 44.6113 9.66975 51.0125 12.8327 55.983C12.9834 56.2465 13.3223 56.0206 13.2093 55.757C10.837 50.2971 9.51913 44.9125 10.0463 38.8878C10.0839 38.6995 9.74506 38.6618 9.7074 38.8501Z" fill="#9AD46A"/>
<path d="M6.24318 39.9044C6.54442 40.9587 7.03393 42.2766 7.97529 42.9168C8.20122 43.105 8.42715 42.7661 8.31418 42.5779C8.08826 42.126 7.74936 41.7118 7.48578 41.26C7.2222 40.8081 6.99627 40.2809 6.808 39.7538C6.69503 39.4149 6.13021 39.5655 6.24318 39.9044Z" fill="#9AD46A"/>
<path d="M5.33947 44.31C5.6407 44.8372 5.97959 45.3267 6.3938 45.8162C6.73269 46.2304 7.14689 46.7576 7.6364 46.9835C7.93763 47.0965 8.12591 46.7199 8.01294 46.494C7.78702 46.0422 7.25985 45.6656 6.88331 45.2891C6.50676 44.8749 6.09256 44.4607 5.67836 44.0465C5.49008 43.8582 5.18885 44.0841 5.33947 44.31Z" fill="#9AD46A"/>
<path d="M5.52774 49.0172C5.90429 49.6197 6.28083 50.1468 6.77034 50.5987C7.18454 51.0129 7.78702 51.6154 8.38949 51.6907C8.69073 51.7283 8.879 51.4271 8.69073 51.1635C8.35184 50.7117 7.71171 50.4857 7.29751 50.1092C6.808 49.695 6.43145 49.2431 6.09256 48.716C5.86663 48.3771 5.33947 48.6783 5.52774 49.0172Z" fill="#9AD46A"/>
<path d="M13.2846 40.808C12.7951 41.8623 12.1926 42.9543 11.929 44.084C11.8537 44.2723 12.1173 44.4229 12.2679 44.2723C13.0587 43.4062 13.5858 42.2012 13.8871 41.0716C14 40.7327 13.4352 40.4691 13.2846 40.808Z" fill="#9AD46A"/>
<path d="M14.3013 44.0844C14.0753 44.6116 13.8118 45.1388 13.5482 45.6283C13.2846 46.0801 12.9457 46.5696 12.7951 47.0591C12.7198 47.3227 13.0587 47.5863 13.2846 47.4357C14.1883 46.7956 14.7155 45.4023 14.9791 44.3857C15.0544 44.0091 14.4896 43.7079 14.3013 44.0844Z" fill="#9AD46A"/>
<path d="M15.1297 47.7739C14.4895 49.2047 13.7741 50.7109 13.5482 52.2548C13.5105 52.5183 13.9624 52.6313 14.0753 52.4054C14.7908 51.0122 15.1673 49.4683 15.7321 48.0375C15.8828 47.6609 15.2803 47.3973 15.1297 47.7739Z" fill="#9AD46A"/>
<path d="M25.7859 34.8964C25.1458 41.5612 24.0915 48.9792 26.3508 55.4935C26.4637 55.7947 26.8779 55.6817 26.8403 55.3428C25.7859 48.452 25.6353 41.8248 26.1248 34.8964C26.1248 34.6704 25.8236 34.7081 25.7859 34.8964Z" fill="#9AD46A"/>
<path d="M24.1668 38.5491C23.602 37.4948 23.4137 36.2898 23.376 35.0849C23.3384 34.9343 23.0748 34.859 23.0372 35.0472C22.6983 36.4028 22.9995 37.6454 23.7149 38.8503C23.8656 39.1139 24.3174 38.8503 24.1668 38.5491Z" fill="#9AD46A"/>
<path d="M22.4347 45.1009C22.0581 43.5194 21.7192 41.9002 21.1921 40.3564C21.1168 40.1304 20.7402 40.1304 20.7779 40.4317C20.8155 42.0885 21.3427 43.7453 22.0205 45.2891C22.1334 45.5151 22.51 45.3268 22.4347 45.1009Z" fill="#9AD46A"/>
<path d="M22.6229 50.2216C22.1334 49.3556 21.6063 48.3765 20.8155 47.7364C20.6273 47.5858 20.326 47.6988 20.4013 47.9623C20.7779 48.9414 21.6063 49.7321 22.2841 50.4852C22.4347 50.6735 22.7359 50.4099 22.6229 50.2216Z" fill="#9AD46A"/>
<path d="M27.744 39.6034C28.0452 39.3022 28.3465 39.0386 28.6477 38.775C28.9866 38.5115 29.2878 38.3232 29.5137 37.9843C29.6267 37.796 29.4384 37.6454 29.2878 37.6831C28.4971 37.796 27.8569 38.6621 27.3674 39.2269C27.1792 39.4905 27.5181 39.867 27.744 39.6034Z" fill="#9AD46A"/>
<path d="M27.5934 44.7995C27.8946 44.423 28.2335 44.0464 28.5724 43.7075C28.9113 43.4439 29.4761 43.1427 29.6267 42.7285C29.7397 42.5402 29.6267 42.2013 29.3631 42.239C28.836 42.2766 28.4218 42.7661 28.0829 43.105C27.7063 43.5192 27.3674 43.9334 27.0285 44.3853C26.8403 44.7242 27.3298 45.1384 27.5934 44.7995Z" fill="#9AD46A"/>
<path d="M28.0829 50.636C28.4594 50.2218 28.836 49.883 29.2502 49.5441C29.6267 49.2052 30.0409 48.8663 30.3422 48.4521C30.5304 48.2261 30.2292 47.8873 29.9656 48.0002C28.9866 48.3015 28.1582 49.2428 27.4804 50.0336C27.1039 50.4478 27.7063 51.0502 28.0829 50.636Z" fill="#9AD46A"/>
<path d="M39.2663 40.8082C40.9231 42.8415 40.9608 45.7409 41.1867 48.2261C41.375 50.5231 40.9608 52.6317 40.8855 54.9287C40.8855 55.1169 41.149 55.1546 41.2243 55.004C42.6929 52.8953 42.2034 49.5817 41.9021 47.1718C41.6009 44.7619 41.3373 42.352 39.6052 40.4693C39.3793 40.2434 39.078 40.5822 39.2663 40.8082Z" fill="#9AD46A"/>
<path d="M38.3249 42.1263C38.7768 42.917 39.191 43.896 39.8688 44.4985C40.057 44.6491 40.3583 44.5362 40.283 44.2726C39.9817 43.4065 39.304 42.6158 38.7391 41.8627C38.5509 41.5991 38.1367 41.825 38.3249 42.1263Z" fill="#9AD46A"/>
<path d="M37.0447 45.1008C37.3459 45.6656 37.7225 46.1551 38.099 46.6823C38.4002 47.0965 38.7768 47.6237 39.2663 47.8496C39.4546 47.9625 39.6805 47.8119 39.6428 47.586C39.5299 47.0588 39.078 46.607 38.7391 46.1928C38.3249 45.7033 37.9484 45.1761 37.4965 44.7619C37.233 44.536 36.8941 44.7996 37.0447 45.1008Z" fill="#9AD46A"/>
<path d="M42.5423 40.3941C42.467 40.7707 42.4293 41.1096 42.354 41.4485C42.2787 41.7874 42.1281 42.1639 42.1657 42.5028C42.2034 42.7664 42.5046 42.917 42.6929 42.7287C43.2577 42.2016 43.2577 41.0719 43.1447 40.3941C43.0694 40.0929 42.5799 40.0929 42.5423 40.3941Z" fill="#9AD46A"/>
<path d="M44.7639 42.8794C44.1238 44.122 43.1447 45.214 42.6176 46.4942C42.5423 46.6825 42.7682 46.7955 42.9188 46.7202C44.1238 46.0047 44.8392 44.4985 45.404 43.2559C45.5923 42.8417 44.9898 42.4652 44.7639 42.8794Z" fill="#9AD46A"/>
<path d="M45.5923 47.0213C45.2157 47.8121 44.7639 48.5652 44.2744 49.3183C43.7849 50.0714 43.1824 50.7491 42.7682 51.5399C42.6176 51.8411 42.9565 52.293 43.2953 52.0671C44.7639 51.0127 45.6676 49.0547 46.383 47.4355C46.609 46.946 45.8559 46.4942 45.5923 47.0213Z" fill="#9AD46A"/>
<path d="M74.3228 30.1898C73.7956 34.5577 72.8166 38.8504 71.3857 42.9924C69.9548 47.172 67.9215 50.9752 65.9635 54.9289C65.8128 55.2301 66.1894 55.4561 66.3777 55.1925C71.574 48.1511 74.0592 38.8127 74.8123 30.1898C74.8499 29.8886 74.3604 29.8886 74.3228 30.1898Z" fill="#9AD46A"/>
<path d="M70.5573 31.5074C70.7079 32.0346 70.8209 32.5617 70.9715 33.0889C71.0845 33.5784 71.1975 34.1056 71.4234 34.5198C71.574 34.7457 71.9882 34.6704 71.9882 34.3692C71.9505 33.3901 71.3857 32.2982 71.0845 31.3568C70.9715 31.0179 70.4444 31.1685 70.5573 31.5074Z" fill="#9AD46A"/>
<path d="M68.4487 36.8547C68.7876 37.5701 69.0135 38.2855 69.2018 39.0386C69.3524 39.7164 69.39 40.3942 69.5783 41.072C69.6536 41.3356 70.1431 41.3732 70.1808 41.072C70.4067 39.5658 69.6536 37.8713 68.8629 36.6287C68.7122 36.3651 68.3357 36.5911 68.4487 36.8547Z" fill="#9AD46A"/>
<path d="M66.453 43.9335C66.9425 44.9879 66.9048 46.0422 67.1684 47.1718C67.2437 47.4354 67.6579 47.4354 67.7332 47.1718C68.0345 46.0045 67.5073 44.649 66.9801 43.6323C66.7919 43.2557 66.3024 43.5946 66.453 43.9335Z" fill="#9AD46A"/>
<path d="M76.2808 35.9509C75.9796 36.3275 75.7913 36.817 75.5654 37.2312C75.3395 37.6454 75.1135 38.0972 74.9253 38.5491C74.8499 38.7374 75.1135 38.888 75.2641 38.7374C75.9043 38.0972 76.6197 37.0429 76.6574 36.1015C76.6574 35.9509 76.4314 35.838 76.2808 35.9509Z" fill="#9AD46A"/>
<path d="M75.716 40.5447C75.4524 40.9213 75.1512 41.2978 74.8123 41.6367C74.5111 41.938 74.1722 42.2768 73.9462 42.6157C73.8333 42.8417 74.0215 43.1429 74.2851 43.0676C75.1512 42.691 75.829 41.6744 76.2808 40.8836C76.5068 40.5071 75.9419 40.1682 75.716 40.5447Z" fill="#9AD46A"/>
<path d="M74.5864 45.2517C73.3061 46.6449 71.7999 47.8499 70.595 49.2808C70.4444 49.469 70.6326 49.7326 70.8586 49.6197C72.5154 48.6783 73.8333 47.1721 75.0759 45.7412C75.3395 45.4023 74.8876 44.9505 74.5864 45.2517Z" fill="#9AD46A"/>
<path d="M77.0716 55.4182C79.3685 54.2132 81.8537 52.9706 83.4352 50.862C83.5858 50.636 83.2469 50.4101 83.0963 50.5607C81.1006 52.2175 79.0673 53.7237 76.8833 55.0793C76.695 55.2299 76.8456 55.5312 77.0716 55.4182Z" fill="#9AD46A"/>
<path d="M78.9166 53.1966C78.9166 52.4435 79.2179 51.841 79.3685 51.1633C79.4062 51.0126 79.2179 50.7867 79.0296 50.8997C78.3518 51.4645 78.2389 52.4435 78.3518 53.2719C78.3895 53.5731 78.9166 53.4978 78.9166 53.1966Z" fill="#9AD46A"/>
<path d="M80.5734 51.7655C80.9123 50.7865 81.4772 49.8451 81.7407 48.8661C81.7784 48.6778 81.5148 48.4519 81.3642 48.6402C80.6488 49.4686 80.3475 50.5982 80.0086 51.5772C79.8957 51.9538 80.4228 52.1044 80.5734 51.7655Z" fill="#9AD46A"/>
<path d="M79.5191 55.2677C80.2346 55.456 81.4772 55.343 81.8914 54.6276C82.042 54.364 81.8161 54.1381 81.5901 54.1758C81.2512 54.2511 80.9123 54.477 80.5735 54.59C80.2346 54.7029 79.858 54.7782 79.5191 54.8535C79.2932 54.8912 79.3308 55.1924 79.5191 55.2677Z" fill="#9AD46A"/>
<path d="M82.5315 53.121C83.2093 53.0081 84.2636 52.6315 84.4895 51.8784C84.5272 51.6525 84.3013 51.5019 84.113 51.5772C83.8118 51.7278 83.5858 51.9914 83.3222 52.1797C83.021 52.368 82.7198 52.4809 82.3809 52.5939C82.0043 52.6692 82.1926 53.1964 82.5315 53.121Z" fill="#9AD46A"/>
<path d="M83.8494 49.431C84 49.0921 84.1506 48.7909 84.3389 48.452C84.4895 48.1884 84.6778 47.8119 84.7155 47.5106C84.7531 47.2847 84.5272 47.0211 84.3013 47.1717C84 47.36 83.7741 47.7366 83.6235 48.0378C83.4352 48.3767 83.2846 48.7532 83.1716 49.1298C83.0587 49.5063 83.6611 49.7699 83.8494 49.431Z" fill="#9AD46A"/>
<path d="M57.2652 36.2519C56.2862 41.9001 55.872 48.0378 57.3405 53.686C57.4158 53.912 57.83 53.8743 57.7924 53.6107C57.3029 47.7742 56.851 42.2014 57.7547 36.3649C57.7924 36.0636 57.3405 35.9507 57.2652 36.2519Z" fill="#9AD46A"/>
<path d="M59.9764 40.5447C59.7128 41.0342 59.4492 41.5237 59.2233 42.0132C58.9973 42.4651 58.6961 42.9169 58.6208 43.4065C58.5831 43.7077 58.922 43.9713 59.148 43.7077C59.4868 43.2935 59.6375 42.7663 59.8634 42.2768C60.0893 41.7873 60.2776 41.2978 60.5035 40.7706C60.6165 40.4694 60.127 40.2811 59.9764 40.5447Z" fill="#9AD46A"/>
<path d="M60.5412 44.6111C59.9387 45.5149 59.0727 46.4562 58.7338 47.5106C58.6585 47.7741 59.035 47.9624 59.2233 47.7741C60.0517 47.0587 60.5788 45.8537 61.1437 44.95C61.3696 44.5735 60.8048 44.2346 60.5412 44.6111Z" fill="#9AD46A"/>
<path d="M60.6541 48.226C60.1646 49.0921 59.4869 49.8828 59.1103 50.8242C58.9973 51.0501 59.3362 51.2008 59.4869 51.0501C60.2399 50.41 60.7295 49.3933 61.1813 48.5273C61.3696 48.1884 60.8424 47.8495 60.6541 48.226Z" fill="#9AD46A"/>
<path d="M54.7424 37.1935C54.5541 38.0596 54.6671 39.1516 55.2319 39.867C55.3825 40.0176 55.6837 39.9046 55.6837 39.6787C55.6461 39.3022 55.5331 38.9256 55.4578 38.5491C55.3448 38.1349 55.3072 37.683 55.2319 37.2312C55.2319 37.0052 54.8177 36.8546 54.7424 37.1935Z" fill="#9AD46A"/>
<path d="M52.822 40.7708C53.2362 42.2017 53.801 43.6702 54.78 44.7622C54.9306 44.9505 55.3072 44.7245 55.1942 44.4986C54.6671 43.1807 53.9516 41.9757 53.4998 40.6202C53.3491 40.1683 52.709 40.3566 52.822 40.7708Z" fill="#9AD46A"/>
<path d="M51.9559 46.8332C52.2948 48.0758 52.935 49.582 54.0269 50.3351C54.2905 50.5234 54.5164 50.1845 54.4411 49.9585C54.1776 49.3937 53.801 48.9042 53.4998 48.377C53.1609 47.8499 52.8973 47.2474 52.6337 46.6449C52.4831 46.2307 51.843 46.3813 51.9559 46.8332Z" fill="#9AD46A"/>
<path d="M74.0216 64.9823C78.766 64.9823 80.0463 61.5557 78.9167 59.8236C77.7494 58.1292 64.1184 56.4347 57.1146 56.397C50.1485 56.3217 28.9866 59.0329 22.9995 58.6563C17.0124 58.2421 4.47341 58.7693 5.60305 61.5934C6.77034 64.4175 24.0162 64.1163 29.6644 63.8527C35.3126 63.5891 69.9172 64.9823 74.0216 64.9823Z" fill="#E1E1E1"/>
<path d="M49.1318 49.9577C49.3201 50.4472 49.546 50.9743 49.8096 51.4639C50.0355 51.9157 50.2238 52.4805 50.6004 52.8571C50.8639 53.1207 51.2028 52.8571 51.1652 52.5182C51.0899 52.0287 50.7886 51.5768 50.525 51.125C50.2615 50.6355 49.9979 50.1836 49.6966 49.7317C49.546 49.4305 48.9812 49.6188 49.1318 49.9577Z" fill="#9AD46A"/>
<path d="M60.6165 60.9156C60.6165 60.8402 60.6541 60.3131 60.6541 59.447C59.6751 59.56 58.6961 59.7106 57.8677 59.8612C58.056 60.539 58.2066 60.9156 58.3572 60.9156C59.035 60.9909 60.6165 61.2921 60.6165 60.9156Z" fill="#590E3D"/>
<path d="M61.5955 60.4633C61.8591 60.8399 64.2313 60.3504 64.4196 60.4633C64.4573 60.4633 64.4573 59.9362 64.4196 59.0325C63.4029 59.1454 62.3486 59.2207 61.3319 59.3714C61.4826 60.0115 61.5579 60.388 61.5955 60.4633Z" fill="#590E3D"/>
<path d="M62.8758 56.2837C64.0431 55.7189 64.5326 51.8404 63.7042 51.4262C62.8758 51.012 60.5035 50.8614 59.5622 49.92C58.5831 49.0163 57.2652 47.6984 56.0226 48.1126C54.8177 48.5268 54.3282 49.3552 52.2572 49.0163C50.1861 48.7151 48.2281 48.1879 47.3244 49.1293C46.383 50.033 44.7262 51.9157 45.291 52.9701C45.8935 54.0621 46.6466 56.2837 46.6466 56.2837H62.8758Z" fill="#FFD372"/>
<path d="M45.3287 55.719C45.1781 56.1708 46.4207 60.953 46.8349 61.2919C47.2491 61.5931 62.4616 61.5178 62.7251 61.2165C62.9511 60.8777 64.4196 55.719 64.0431 55.719C63.6289 55.719 45.517 55.0412 45.3287 55.719Z" fill="#590E3D"/>
<path d="M45.5923 48.9036C45.4793 48.9036 45.404 48.9789 45.404 49.0918C45.4417 49.3554 45.4793 49.619 45.5546 49.8826C45.3664 49.732 45.1404 49.619 44.9145 49.4684C44.7262 49.3931 44.4626 49.5813 44.6133 49.7696C45.0275 50.4474 45.5546 51.0122 46.1571 51.5017C46.383 51.69 46.6843 51.3888 46.4583 51.2005C46.4207 51.1628 46.383 51.1252 46.3454 51.1252C46.383 51.1252 46.383 51.1252 46.4207 51.0875C46.5336 51.1628 46.7219 51.1252 46.7219 50.9369C46.6843 50.485 46.3454 48.6023 45.5923 48.9036Z" fill="#E58C16"/>
<path d="M62.6498 49.6944C62.198 49.7697 61.8591 50.0333 61.6332 50.3722C61.5579 50.1463 61.4825 49.958 61.4072 49.7321C61.3319 49.5061 61.1813 49.2802 60.9177 49.3179C60.7671 49.3179 60.6918 49.3932 60.6918 49.5438C60.6541 50.1086 60.8424 50.6734 61.219 51.0876C61.0683 51.3136 61.4449 51.5395 61.5955 51.3136C61.6332 51.2759 61.6332 51.2759 61.6332 51.2759C61.6708 51.2759 61.7085 51.2383 61.7085 51.2383C61.7461 51.2383 61.7838 51.2383 61.8214 51.2383C62.3486 50.937 62.6875 50.5228 62.9134 49.958C62.9511 49.8074 62.8005 49.6944 62.6498 49.6944Z" fill="#E58C16"/>
<path d="M52.596 51.8781C52.3701 51.8028 52.2195 51.9534 52.1442 52.1793C52.0312 51.9534 51.8806 51.7651 51.6547 51.6522C51.5417 51.6145 51.4288 51.6145 51.3911 51.6898C50.8263 52.2546 51.73 52.9701 52.1065 53.3843C52.1442 53.4596 52.2195 53.4596 52.2948 53.4219C52.3701 53.4219 52.4831 53.3843 52.4831 53.2713C52.6714 52.9324 53.1609 52.0287 52.596 51.8781Z" fill="#E58C16"/>
<path d="M63.8548 53.1587C63.7042 53.1963 63.5912 53.234 63.4406 53.2716C63.6665 52.9327 63.6665 52.4056 63.3276 52.1043C63.2523 51.9914 63.064 52.029 62.9887 52.142C62.8005 52.5185 62.5369 53.234 62.8005 53.6858C62.6122 53.8741 62.9134 54.1377 63.1394 53.9871C63.1394 53.9494 63.177 53.9494 63.177 53.9494C63.2147 53.9494 63.2523 53.9494 63.29 53.9118C63.5536 53.8741 63.7042 53.6482 63.9678 53.6105C64.2313 53.5352 64.1184 53.121 63.8548 53.1587Z" fill="#E58C16"/>
<path d="M56.7381 47.3597C56.3992 47.5856 56.1732 47.9245 56.0979 48.301C55.9473 47.9998 55.759 47.6609 55.5708 47.3597C55.4578 47.209 55.1566 47.2467 55.1566 47.4726C55.1566 47.9621 55.3825 48.6023 55.872 48.8659C55.872 48.9035 55.872 48.9035 55.872 48.9412C55.9473 49.1294 56.1732 49.1294 56.2486 49.0165C56.3615 49.0165 56.4368 48.9788 56.4745 48.9035C56.851 48.6776 56.964 47.9245 57.0393 47.5856C57.077 47.435 56.8887 47.2467 56.7381 47.3597Z" fill="#E58C16"/>
<path d="M46.4583 53.0833C46.3454 53.0079 46.1948 53.0833 46.1571 53.2339C46.1195 53.3468 46.0818 53.4975 46.0818 53.6104C45.7806 53.5351 45.404 53.6104 45.1781 53.8364C45.0651 53.9493 45.1028 54.0999 45.2157 54.1752C45.5546 54.4388 46.0065 54.5894 46.383 54.4012C46.5337 54.5141 46.7596 54.3259 46.6843 54.1752C46.9102 53.7987 46.8349 53.3092 46.4583 53.0833Z" fill="#E58C16"/>
<path d="M47.8516 57.5264C48.567 57.5264 49.2824 57.4888 50.0355 57.4511C50.2991 57.4135 50.2991 56.9993 50.0355 56.9993C49.2824 57.0369 48.567 57.0746 47.8516 57.1122C47.5503 57.1122 47.5503 57.5641 47.8516 57.5264Z" fill="#C63678"/>
<path d="M50.3368 58.8071C51.9936 58.8071 53.688 58.8071 55.3448 58.8071C55.6084 58.8071 55.6084 58.3552 55.3448 58.3552C53.688 58.3552 51.9936 58.3552 50.3368 58.3552C50.0732 58.3552 50.0732 58.8071 50.3368 58.8071Z" fill="#C63678"/>
<path d="M54.2152 57.3002C55.4955 57.3755 56.8134 57.4508 58.0936 57.5261C58.3572 57.5261 58.3572 57.1119 58.0936 57.0743C56.8134 57.0366 55.4955 56.9613 54.2152 56.886C53.9516 56.8484 53.9516 57.3002 54.2152 57.3002Z" fill="#C63678"/>
<path d="M58.4325 59.2961C58.8467 59.2961 59.2986 59.2961 59.7128 59.2961C59.9764 59.2961 59.9764 58.8442 59.7128 58.8442C59.2986 58.8442 58.8467 58.8442 58.4325 58.8442C58.1313 58.8442 58.1313 59.2961 58.4325 59.2961Z" fill="#C63678"/>
<path d="M54.7047 60.3131C56.0979 60.3507 57.4535 60.3131 58.8467 60.2001C59.1103 60.2001 59.1103 59.7483 58.8467 59.7859C57.4535 59.8989 56.0979 59.9365 54.7047 59.8989C54.4411 59.8989 54.4411 60.3131 54.7047 60.3131Z" fill="#C63678"/>
<path d="M60.7671 57.3381C61.106 57.3757 61.4825 57.4134 61.8214 57.4134C62.085 57.451 62.085 57.0368 61.8214 56.9992C61.4825 56.9615 61.106 56.9239 60.7671 56.8862C60.5035 56.8862 60.5035 57.3004 60.7671 57.3381Z" fill="#C63678"/>
<path d="M48.1528 60.0116C48.6047 60.0116 49.0565 60.0116 49.546 60.0116C49.8096 60.0116 49.8096 59.5974 49.546 59.5974C49.0565 59.5974 48.6047 59.5974 48.1528 59.5974C47.8892 59.5974 47.8892 60.0116 48.1528 60.0116Z" fill="#C63678"/>
<path d="M12.1926 58.393C3.94624 60.3134 4.09686 61.8949 8.35184 62.4974C12.6068 63.0998 13.0963 63.4387 14.6025 64.1542C16.1087 64.8696 23.8279 65.5474 27.5557 65.0579C31.2835 64.5684 33.3169 61.9325 33.2416 60.7276C33.1286 59.485 21.0415 56.2843 12.1926 58.393Z" fill="#DFDFDF"/>
<path d="M17.3136 51.0882C15.9581 51.8413 13.6611 54.703 13.9624 57.6777C14.226 60.6525 16.4852 63.4389 18.0291 63.4389C19.6106 63.4389 28.0829 63.5519 28.723 63.2506C30.0033 62.6858 31.2459 58.3932 30.794 56.2092C30.3422 53.9876 29.1749 51.3894 28.4218 51.0505C27.631 50.674 18.368 50.5234 17.3136 51.0882Z" fill="#FFD372"/>
<path d="M17.6525 51.728C14.6778 51.9162 13.2469 61.3299 17.9161 61.7818C22.5853 62.2336 24.8069 51.2761 17.6525 51.728Z" fill="#E58C16"/>
<path d="M19.347 53.4222C17.5396 53.3469 16.2593 55.4179 15.9957 56.9994C15.8451 57.8654 15.8828 58.8068 16.2593 59.6352C16.6359 60.4636 17.5019 61.1414 18.4433 60.8025C19.2717 60.5389 19.9118 59.7481 20.326 58.9574C20.7026 58.1666 21.0038 57.15 20.8155 56.2839C20.6649 55.3802 19.8742 54.7024 18.9704 54.9283C18.1044 55.1543 17.3513 55.945 17.2007 56.8111C17.0877 57.3382 17.163 57.8654 17.5019 58.242C17.8032 58.5808 18.2927 58.7691 18.7445 58.6562C19.5729 58.4679 19.7989 57.0747 18.8575 56.8111C18.5186 56.7358 18.2927 57.2629 18.5939 57.4512C18.7445 57.5265 18.7822 57.6771 18.7069 57.8278C18.5939 58.016 18.3303 57.9407 18.1797 57.8278C17.6902 57.4889 17.9538 56.6981 18.2174 56.3216C18.5562 55.8697 19.2717 55.3425 19.7989 55.7191C20.3637 56.0956 20.2884 56.924 20.1754 57.5265C20.0248 58.129 19.7989 58.7315 19.46 59.221C19.1211 59.7105 18.4809 60.3506 17.8408 60.2753C17.1254 60.1623 16.7488 59.4092 16.6359 58.7691C16.4852 58.129 16.4852 57.4889 16.6359 56.8864C16.7865 56.2086 17.0501 55.5685 17.4643 55.0037C17.9161 54.4012 18.5562 53.7987 19.347 53.7611C19.5729 53.7611 19.5729 53.4222 19.347 53.4222Z" fill="#FFD372"/>
<path d="M26.3508 51.6905C26.5014 51.314 26.6897 50.9751 26.9532 50.6738C27.2168 50.4103 27.5181 50.1843 27.7816 49.9208C27.8946 49.8078 27.744 49.6948 27.631 49.6948C26.765 49.8078 26.2001 50.7868 26.0495 51.5776C26.0119 51.8035 26.3131 51.9164 26.3508 51.6905Z" fill="#E58C16"/>
<path d="M27.1415 51.8406C27.3298 51.5771 27.5557 51.3888 27.7816 51.2382C28.0076 51.1252 28.3088 51.0875 28.4971 50.8993C28.61 50.824 28.5347 50.598 28.4218 50.5604C28.1205 50.4851 27.7063 50.711 27.4804 50.8616C27.1792 51.0499 26.9532 51.3135 26.8026 51.6147C26.652 51.8406 26.9909 52.0666 27.1415 51.8406Z" fill="#E58C16"/>
<path d="M25.1835 58.6942C25.2964 59.4472 25.673 60.6145 26.5767 60.7275C26.6896 60.7275 26.765 60.5769 26.7273 60.4639C26.539 60.1627 26.2378 59.9368 26.0495 59.6355C25.8236 59.3343 25.6353 59.033 25.56 58.6565C25.5224 58.4682 25.1458 58.5059 25.1835 58.6942Z" fill="#E58C16"/>
<path d="M26.4261 58.619C26.4637 59.2214 26.8026 60.0875 27.5181 60.1252C27.631 60.1252 27.7063 59.9745 27.6687 59.8992C27.5181 59.6733 27.3674 59.5227 27.2168 59.3344C27.0285 59.1085 26.9156 58.8449 26.8779 58.5437C26.8403 58.2801 26.3884 58.3554 26.4261 58.619Z" fill="#E58C16"/>
<path d="M17.9161 51.3889C17.7278 51.0876 17.5396 50.7488 17.3513 50.4475C17.163 50.1839 17.0501 49.845 16.7488 49.6568C16.6359 49.6191 16.5229 49.6944 16.5229 49.8074C16.5229 50.1463 16.7865 50.4475 16.9748 50.7488C17.163 51.05 17.389 51.3512 17.6525 51.6148C17.8032 51.7654 18.0291 51.5772 17.9161 51.3889Z" fill="#E58C16"/>
<path d="M18.4433 50.9373C18.368 50.749 18.3303 50.5607 18.2927 50.3724C18.255 50.1842 18.2174 49.9959 18.0667 49.8829C17.9914 49.8076 17.8785 49.8453 17.8408 49.9582C17.8032 50.1089 17.8408 50.2971 17.9161 50.4478C17.9538 50.6737 18.0291 50.862 18.0667 51.0502C18.142 51.2762 18.4809 51.2009 18.4433 50.9373Z" fill="#E58C16"/>
<path d="M30.0409 56.8869C30.2668 56.7739 30.4928 56.6233 30.7564 56.548C30.9823 56.4727 31.1706 56.4351 31.3965 56.3221C31.4718 56.2468 31.4341 56.1338 31.3588 56.1338C30.8317 55.9455 30.2668 56.2844 29.8526 56.5857C29.702 56.7363 29.8526 57.0375 30.0409 56.8869Z" fill="#E58C16"/>
<path d="M30.0409 57.7904C30.2292 57.7528 30.4175 57.7151 30.5681 57.6774C30.7564 57.6398 30.907 57.6021 31.0576 57.4892C31.1329 57.4139 31.0952 57.2632 30.9823 57.2256C30.794 57.2256 30.6434 57.3009 30.4928 57.3386C30.3045 57.4139 30.1539 57.4515 29.9656 57.5268C29.815 57.6021 29.8526 57.8281 30.0409 57.7904Z" fill="#E58C16"/>
<path d="M22.6229 62.6104C22.5476 62.761 22.51 62.9493 22.51 63.0999C22.4723 63.2505 22.4347 63.4011 22.4347 63.5517C22.4347 63.74 22.5853 63.9659 22.8112 63.8906C22.8865 63.853 22.9242 63.7777 22.8865 63.7024C22.8112 63.5517 22.8112 63.4388 22.8489 63.2882C22.8865 63.0622 22.9242 62.8739 22.8865 62.648C22.8865 62.4597 22.6606 62.4597 22.6229 62.6104Z" fill="#E58C16"/>
<path d="M23.2254 62.9865C23.2254 63.1371 23.2254 63.2877 23.2254 63.476C23.2254 63.6266 23.1878 63.7772 23.3007 63.8902C23.376 63.9655 23.489 63.9655 23.5643 63.8902C23.6773 63.7772 23.6773 63.6266 23.6773 63.476C23.6773 63.2877 23.6396 63.1371 23.6396 62.9865C23.6396 62.7229 23.2631 62.7229 23.2254 62.9865Z" fill="#E58C16"/>
<path d="M21.1921 54.9283C21.4557 54.7023 21.7569 54.5517 22.0581 54.4388C22.3217 54.3635 22.6229 54.3635 22.8865 54.2505C22.9618 54.2505 22.9618 54.1375 22.8865 54.0999C22.2841 53.874 21.4933 54.3258 21.0415 54.74C20.8908 54.853 21.0791 55.0036 21.1921 54.9283Z" fill="#E58C16"/>
<path d="M21.4933 55.4934C21.4933 55.4557 21.4933 55.4557 21.4933 55.4557C21.4933 55.4934 21.4933 55.5687 21.4557 55.6064C21.531 55.5687 21.7569 55.6064 21.8322 55.5687C21.9452 55.5687 22.0205 55.5687 22.1334 55.5687C22.3594 55.6064 22.5476 55.644 22.7736 55.6064C22.9242 55.5687 22.9242 55.3428 22.8112 55.2675C22.51 55.0415 22.0205 55.0792 21.6816 55.1545C21.4933 55.1922 21.1168 55.3428 21.2674 55.6064C21.305 55.644 21.3427 55.6817 21.418 55.644C21.4933 55.6064 21.531 55.531 21.4933 55.4934Z" fill="#E58C16"/>
<path d="M15.9204 54.7027C15.3179 54.1379 14.226 53.6484 13.3976 54.0626C13.2846 54.1002 13.3223 54.2508 13.4352 54.3262C13.7741 54.4391 14.1883 54.5144 14.5649 54.5897C14.9414 54.7027 15.3179 54.8533 15.6945 55.0039C15.8828 55.1169 16.1087 54.891 15.9204 54.7027Z" fill="#E58C16"/>
<path d="M15.8828 53.8743C15.6945 53.1966 15.3179 52.5188 14.6402 52.2552C14.5649 52.2175 14.4519 52.3305 14.4895 52.4435C14.7155 53.0459 15.205 53.5354 15.5815 54.0626C15.6945 54.1756 15.9204 54.025 15.8828 53.8743Z" fill="#E58C16"/>
<path d="M17.0124 62.7606C16.8241 62.5724 16.5229 62.8359 16.4476 62.9866C16.297 63.1748 16.2217 63.4761 16.3723 63.6643C16.4476 63.702 16.5229 63.702 16.5606 63.6643C16.5982 63.6267 16.6359 63.589 16.6359 63.5137C16.6735 63.4384 16.5982 63.5514 16.6735 63.4761C16.7488 63.3631 16.7488 63.2878 16.8241 63.2125C16.8618 63.0995 17.163 62.8736 17.0124 62.7606Z" fill="#E58C16"/>
<path d="M17.5396 63.062C17.3136 63.1374 17.2383 63.3256 17.163 63.5139C17.1254 63.7022 17.1254 63.8904 17.2383 64.0787C17.3136 64.1917 17.4643 64.154 17.5019 64.0411C17.5396 63.9658 17.5396 63.9281 17.5772 63.8528C17.5772 63.7775 17.5772 63.7022 17.6149 63.6269C17.6525 63.4762 17.7278 63.3633 17.7278 63.2127C17.7278 63.0997 17.6149 63.0244 17.5396 63.062Z" fill="#E58C16"/>
<path d="M20.5519 50.8998C20.1001 51.0128 20.0624 51.2763 20.5519 51.3893C21.0415 51.5023 23.1501 51.3893 23.4514 51.1257C23.7149 50.8621 21.3803 50.7115 20.5519 50.8998Z" fill="#E58C16"/>
<path d="M22.3594 47.021C23.1125 44.3099 23.7526 40.5444 21.9075 39.1889C19.8365 37.645 15.9957 39.3771 16.1464 38.3981C16.184 38.0592 16.184 37.0802 16.1464 35.8752C13.7741 37.7203 10.7617 39.0382 7.71171 38.5111C7.89998 40.2808 8.0506 41.9376 8.08826 42.9543C8.31418 46.8328 9.51913 52.8952 10.3099 56.5477C11.1383 56.6606 11.9667 56.6606 12.7951 56.397C12.7951 55.7193 12.8327 55.1168 12.8327 54.7026C12.8704 52.9328 13.5482 46.0044 14.5272 45.2136C15.1673 44.7241 19.6106 42.5401 19.6482 43.3309C19.6859 44.0463 19.7989 45.4772 19.9118 46.9081C20.7026 47.0963 21.531 47.1716 22.3594 47.021Z" fill="#590E3D"/>
<path d="M9.97099 56.0586C10.3852 57.9037 10.9877 59.6358 10.9877 59.7111C10.9877 59.9747 8.84135 60.6148 9.06728 60.9913C9.25555 61.3679 12.042 60.9913 12.4185 60.5395C12.7198 60.2383 13.0587 57.7907 13.0963 56.0586C12.2679 56.3222 10.7994 56.1716 9.97099 56.0586Z" fill="#FFB812"/>
<path d="M21.4557 50.1088C21.418 49.9582 22.2088 48.2637 22.6606 46.6069C21.8322 46.7576 20.439 46.7952 19.6482 46.6069C19.7989 48.5273 20.2507 50.7489 20.326 50.8619C20.6273 51.2008 22.9242 51.2385 22.9995 50.8619C23.0372 50.4854 21.531 50.4854 21.4557 50.1088Z" fill="#FFB812"/>
<path d="M21.305 38.4736C20.8155 38.3606 22.0958 35.1223 22.5853 32.3358C23.0372 29.5494 17.163 28.0809 13.7741 27.5537C13.7741 27.5537 14.7531 28.1562 15.2803 29.6624C15.6568 30.8673 15.8075 32.0723 15.8075 32.0723C16.5229 31.7334 19.9118 33.0136 19.8365 33.7291C19.7612 34.4445 19.9871 38.8501 20.326 39.1513C20.7026 39.5279 21.1921 40.6199 21.305 40.4316C21.418 40.2433 20.8532 39.4526 21.0415 39.3396C21.1921 39.2266 22.2841 40.3563 22.397 40.168C22.4723 40.0174 21.4933 39.3773 21.531 39.3396C21.531 39.302 22.51 40.0927 22.623 39.9421C22.6606 39.8291 21.5686 39.189 21.6063 39.1513C21.6063 39.1137 22.5476 39.7538 22.6983 39.7162C23.0748 39.7162 21.7569 39.0007 21.7192 38.9631C21.7192 38.8878 22.7736 39.5655 22.8865 39.4526C22.9618 39.3396 21.7192 38.5865 21.305 38.4736Z" fill="#FFB9A1"/>
<path d="M21.9828 30.4531C21.7945 30.6413 20.0248 33.3901 19.8365 33.5407C19.6482 33.6537 19.5353 33.8043 19.4223 33.8043C19.2717 33.8043 19.3093 33.5407 19.2717 33.4654C18.8198 33.1642 18.0291 32.5994 16.8994 32.4864C15.3556 32.2981 14.6402 32.3358 14.6402 32.3358L13.0963 27.403C13.0963 27.403 16.5606 27.2148 18.368 28.0808C19.7989 28.7209 21.1544 29.4364 21.7192 29.9259C21.8322 30.0389 21.9452 29.8129 22.0958 29.9635C22.2464 30.1142 22.0958 30.3401 21.9828 30.4531Z" fill="#333333"/>
<path d="M16.6735 37.7582C16.5606 35.6496 15.7322 30.9427 15.1297 29.2859C14.0377 26.2359 10.2346 26.9137 9.40617 27.2149C8.31419 27.5915 7.25986 29.0977 7.10924 30.3779C7.03393 31.244 7.41047 37.1558 7.71171 40.5447C10.7617 41.1095 14.3013 39.6033 16.6735 37.7582Z" fill="#4FAD56"/>
<path d="M14.113 36.9297C14.0377 36.5532 13.9624 36.2143 13.8871 35.8377C13.7741 35.1976 13.6235 34.5951 13.5105 33.955C13.9247 33.842 14.3766 33.6914 14.7908 33.5408C14.9791 34.5575 15.092 35.5741 15.2426 36.5908C14.8661 36.7038 14.4895 36.8167 14.113 36.9297ZM11.9667 37.4192C11.8914 36.9297 11.8161 36.4402 11.7031 35.9507C11.6278 35.4988 11.5525 35.0093 11.4772 34.5198C12.0043 34.4068 12.5315 34.2562 13.0587 34.1056C13.2846 35.0846 13.4729 36.0637 13.6611 37.0427C13.0963 37.1933 12.5315 37.3439 11.9667 37.4192ZM10.1593 37.6828C10.084 37.3063 10.0463 36.8921 9.97099 36.5155C9.89568 35.9883 9.78272 35.4235 9.66975 34.8964C9.97099 34.8587 10.2722 34.7834 10.5735 34.7457C10.7241 34.7081 10.8747 34.6704 11.0253 34.6328C11.1759 35.6118 11.3266 36.5532 11.4772 37.5322C11.0253 37.6075 10.5735 37.6451 10.1593 37.6828ZM9.59444 34.4822C9.44382 33.6538 9.2179 32.7877 9.02962 31.9593C9.51913 31.884 9.97099 31.771 10.4605 31.6957C10.6488 32.5241 10.7994 33.3525 10.95 34.2186C10.4982 34.3315 10.0463 34.4068 9.59444 34.4822ZM8.35184 29.5117C8.72838 29.3611 9.14259 29.2105 9.51913 29.0975C9.6321 29.0599 9.74506 29.0222 9.85802 28.9846C10.0463 29.7753 10.2346 30.5284 10.3852 31.2815C9.89568 31.3945 9.40617 31.5074 8.91666 31.6204C8.72838 30.905 8.54011 30.1895 8.35184 29.5117ZM11.7031 28.4951C11.929 29.2858 12.1173 30.0389 12.3056 30.8297C11.8161 30.9426 11.3266 31.0932 10.7994 31.2062C10.6488 30.4155 10.4228 29.6624 10.2346 28.8716C10.7241 28.7587 11.2136 28.608 11.7031 28.4951ZM13.6235 28.0809C13.8494 28.834 14.0377 29.5871 14.1883 30.3401C13.6988 30.4531 13.2093 30.6037 12.7198 30.7167C12.5315 29.9636 12.3056 29.1729 12.0796 28.4198C12.6068 28.3068 13.0963 28.1938 13.6235 28.0809ZM12.9834 33.6538C12.4562 33.842 11.929 33.955 11.4019 34.1056C11.2512 33.2772 11.063 32.4112 10.9124 31.5827C11.4019 31.4698 11.929 31.3568 12.4185 31.2439C12.6068 32.0346 12.7951 32.863 12.9834 33.6538ZM14.7531 33.0889C14.4895 33.1642 14.2636 33.2396 14.0377 33.3149C13.8118 33.3902 13.6235 33.4655 13.3976 33.5408C13.2093 32.7124 13.021 31.9216 12.8327 31.1309C13.3223 31.0179 13.8118 30.8673 14.3013 30.7543C14.4519 31.5074 14.6025 32.2982 14.7531 33.0889ZM16.5606 36.6285C16.5606 36.5155 16.5606 36.3272 16.5229 36.1766C16.2217 36.2896 15.9204 36.3649 15.6568 36.4779C15.5815 35.913 15.5062 35.3482 15.4309 34.821C15.3556 34.3315 15.2803 33.842 15.205 33.3902C15.5062 33.2772 15.7698 33.1642 16.0334 33.0513C15.9957 32.9007 15.9957 32.75 15.9581 32.5994C15.6945 32.7124 15.4309 32.8254 15.1297 32.9383C15.0167 32.1476 14.8661 31.3945 14.7155 30.6414C14.9791 30.5661 15.205 30.4908 15.4686 30.4155C15.4309 30.2648 15.3933 30.1142 15.3556 30.0013C15.092 30.0766 14.8661 30.1519 14.6025 30.2272C14.4142 29.4741 14.226 28.7587 14 28.0432C14.113 28.0056 14.226 28.0056 14.3389 27.9679C14.1883 27.8549 14.0377 27.7043 13.8494 27.5914C13.6988 27.4784 13.5482 27.4031 13.3976 27.3278C13.4352 27.4407 13.4729 27.5537 13.5105 27.6667C13.2093 27.742 12.8704 27.7796 12.5692 27.8549C12.3809 27.8926 12.155 27.9302 11.929 28.0056C11.929 27.9679 11.929 27.9302 11.929 27.9302C11.8161 27.5914 11.7031 27.2525 11.5901 26.9136C11.4772 26.9136 11.3642 26.9136 11.2512 26.9136C11.3642 27.2901 11.4772 27.7043 11.5901 28.0809C11.1006 28.1938 10.6111 28.3445 10.084 28.4951C10.0463 28.2691 9.97099 28.0056 9.89568 27.7796C9.82037 27.5537 9.74506 27.3278 9.66975 27.1018C9.55679 27.1395 9.44382 27.1772 9.40617 27.2148C9.36851 27.2148 9.36851 27.2148 9.36851 27.2148C9.51913 27.6667 9.6321 28.1185 9.74506 28.608C9.25555 28.7587 8.72838 28.9469 8.23887 29.1352C8.16356 28.8716 8.08826 28.608 7.97529 28.3445C7.86233 28.4951 7.74936 28.6457 7.67405 28.7963C7.71171 28.9846 7.74936 29.1352 7.78702 29.2858C7.6364 29.3611 7.48578 29.4364 7.33516 29.4741C7.29751 29.6247 7.2222 29.7753 7.18454 29.9259C7.44813 29.8506 7.67405 29.7377 7.89998 29.6624C8.08826 30.3401 8.27653 31.0556 8.4648 31.7334C8.38949 31.7334 8.35184 31.7334 8.31418 31.771C7.93764 31.8463 7.52344 31.9216 7.14689 31.9969C7.14689 32.1099 7.14689 32.1852 7.14689 32.2982C7.59874 32.2229 8.0506 32.1476 8.54011 32.0723C8.72838 32.9007 8.91666 33.7291 9.06728 34.5951C8.61542 34.6704 8.12591 34.7457 7.67405 34.7834C7.52344 34.821 7.41047 34.821 7.29751 34.821C7.29751 34.9717 7.29751 35.0846 7.29751 35.2352C7.93764 35.1599 8.54011 35.0846 9.14259 35.0093C9.2932 35.913 9.44382 36.8167 9.59444 37.7205C9.36851 37.7581 9.14259 37.7581 8.91666 37.7581C8.4648 37.7581 7.97529 37.7205 7.48578 37.6828C7.48578 37.7958 7.48578 37.9087 7.52344 37.984C8.20122 38.0593 8.91666 38.097 9.6321 38.0593C9.70741 38.8124 9.82037 39.5655 9.89568 40.281C9.89568 40.3939 9.93333 40.5069 9.93333 40.6199C10.1216 40.6199 10.3099 40.5822 10.4982 40.5446C10.3852 39.7162 10.3099 38.8877 10.1969 38.0593C10.6488 38.0217 11.1006 37.984 11.5148 37.9087C11.6278 38.5489 11.7031 39.189 11.8161 39.8291C11.8537 39.9421 11.8537 40.0927 11.8914 40.2433C12.042 40.168 12.2303 40.1304 12.3809 40.055C12.2679 39.3396 12.155 38.5865 12.0043 37.8334C12.1173 37.7958 12.2303 37.7958 12.3432 37.7581C12.7951 37.6828 13.2846 37.5698 13.7365 37.4569C13.8494 38.097 13.9624 38.7371 14.0753 39.3773C14.226 39.3019 14.3766 39.2266 14.5272 39.1513C14.4142 38.5489 14.3013 37.9464 14.1883 37.3439C14.5649 37.2686 14.9414 37.1556 15.2803 37.0427C15.3556 37.4945 15.3933 37.9464 15.4686 38.3982C15.4686 38.4735 15.4686 38.5112 15.5062 38.5865C15.6192 38.5112 15.7322 38.4359 15.8451 38.3606C15.8075 37.8711 15.7698 37.3816 15.6945 36.9297C15.9957 36.8544 16.297 36.7414 16.5606 36.6285Z" fill="#FFD372"/>
<path d="M12.3809 27.5536C12.6068 26.2734 11.8914 24.3153 11.2512 24.5036C10.3475 24.7672 10.0463 26.3487 10.0086 27.3277C10.0086 27.4783 10.0086 27.8172 10.0086 27.8549C9.97099 28.6833 11.1006 31.0555 12.2303 30.9049C12.8327 30.8296 13.0963 29.8129 13.0963 29.0222C13.0963 28.4573 12.3432 27.9678 12.3809 27.5536Z" fill="#FF8C8C"/>
<path d="M12.5315 21.115C10.8747 20.5878 8.76604 21.3033 9.33086 25.257C9.59444 27.1021 11.4772 27.6293 12.7574 26.8762C14 26.0854 14.4142 21.6798 12.5315 21.115Z" fill="#FFB9A1"/>
<path d="M13.6235 24.8804C13.2469 24.8804 12.9834 25.144 12.9834 25.4828C12.9834 25.7464 13.134 25.9724 13.3599 26.0853C13.5105 25.7464 13.6611 25.3322 13.7365 24.8804C13.6988 24.8804 13.6611 24.8804 13.6235 24.8804Z" fill="#FF8C8C"/>
<path d="M9.85802 25.4828C9.85802 25.8217 10.1216 26.123 10.4605 26.123C10.7994 26.123 11.1006 25.8217 11.1006 25.4828C11.1006 25.144 10.7994 24.8804 10.4605 24.8804C10.1216 24.8804 9.85802 25.144 9.85802 25.4828Z" fill="#FF8C8C"/>
<path d="M9.74506 23.0352C9.40617 23.0352 8.54011 23.2987 8.50246 23.6376C8.4648 23.9765 8.42715 24.3154 8.69073 24.466C8.91666 24.6167 9.59444 24.692 9.59444 24.692L9.85802 23.0352H9.74506Z" fill="#FFB9A1"/>
<path d="M11.7408 25.2943C11.2889 25.4449 11.2136 25.8968 10.95 26.1227C10.6864 26.3486 11.8537 26.2357 12.0797 25.8591C12.4185 26.1227 12.7951 26.311 13.0963 26.198C13.3976 26.085 12.6068 25.2943 12.2679 25.2566C11.9667 25.219 11.7408 25.2943 11.7408 25.2943Z" fill="#590E3D"/>
<path d="M10.3852 22.8845C10.2722 23.0352 10.3475 24.1271 10.0086 24.3154C9.66975 24.5037 9.48148 23.5623 9.36851 23.6C9.25555 23.6376 8.72838 23.6376 8.76604 24.0895C8.84135 24.5413 9.25555 24.6167 9.25555 24.6167L9.2932 24.8802C9.2932 24.8802 8.57777 24.9556 8.50246 24.579C8.38949 24.2401 8.4648 23.7506 8.16356 23.2611C7.86233 22.7716 8.12591 22.2821 8.35184 21.7549C8.54011 21.2277 9.93333 20.5876 10.3852 20.324C11.4395 19.6839 13.0587 19.4956 13.7741 19.9851C14.4895 20.4746 14.9791 20.1734 15.2426 21.1524C15.3933 21.7173 15.0544 22.3574 14.7531 22.7339C14.3389 23.1481 14.2636 24.2025 13.8118 24.1648C13.7365 23.7883 14.1883 22.1315 12.3056 22.2068C11.3642 22.2444 10.6488 22.5457 10.3852 22.8845Z" fill="#590E3D"/>
<path d="M4.92527 37.2311C4.96292 36.7416 7.33516 34.2564 7.86233 33.5786C8.38949 32.9008 10.2346 30.3026 9.06728 28.3822C7.78702 26.2736 1.91289 34.1058 1.38573 37.2311C0.820908 40.3564 8.08826 40.7706 7.93764 41.4108C7.86233 41.9379 7.74936 43.1429 7.82467 43.1805C8.01295 43.2182 7.93764 42.3145 8.08826 42.3898C8.12591 42.4274 7.97529 43.5571 8.08826 43.5571C8.31418 43.5571 8.27653 42.3898 8.35184 42.3898C8.38949 42.3898 8.35184 43.7453 8.50246 43.7453C8.69073 43.7077 8.69073 42.3145 8.76604 42.2768C8.80369 42.2392 8.91666 43.4441 9.06728 43.4065C9.33086 43.2935 8.879 41.6367 9.02962 41.5614C9.14259 41.5237 9.74506 42.1262 9.85802 41.9003C9.93333 41.7873 9.74506 41.3731 8.879 40.8459C8.0506 40.3564 4.92527 37.7583 4.92527 37.2311Z" fill="#FFB9A1"/>
<path d="M10.4982 49.4683C10.3475 49.3177 10.1216 49.393 10.0086 49.5436C9.97099 49.5813 9.93333 49.6189 9.89568 49.6566C9.74506 50.0331 9.70741 50.4097 9.82037 50.7862C9.93333 51.1251 10.1969 51.6523 10.6111 51.577C11.0253 51.5017 11.0253 50.9369 10.9877 50.6356C10.95 50.1838 10.7617 49.8072 10.4982 49.4683Z" fill="#C63678"/>
<path d="M22.4723 40.5444C22.3217 40.2808 21.9828 40.0172 21.7192 40.2808C21.4933 40.5067 21.5686 40.8833 21.6816 41.1092C21.7946 41.3728 21.9828 41.8623 22.3217 41.7493C22.4347 41.7117 22.4723 41.6364 22.51 41.5234V41.4858C22.6229 41.1845 22.6229 40.8456 22.4723 40.5444Z" fill="#C63678"/>
<path d="M8.95431 28.0055C8.57777 27.7419 6.54441 27.9302 4.84996 30.679C3.53204 32.75 1.9882 35.0093 1.31042 36.1766C1.23511 36.2895 0.971527 36.2895 0.858563 36.4778C0.783253 36.6661 0.933872 36.892 1.08449 37.005C1.46104 37.2309 5.2265 37.6451 5.45243 37.3815C5.60305 37.2309 5.60305 37.0426 5.67836 36.9297C6.46911 35.8753 8.72838 33.2772 8.95431 32.7123C9.21789 32.0346 10.6111 29.3234 8.95431 28.0055Z" fill="#333333"/>
</g>
<defs>
<clipPath id="clip0">
<rect width="86" height="86" fill="white"/>
</clipPath>
</defs>
</svg>
