<svg width="40" height="40" viewBox="0 0 40 40" fill="none" xmlns="http://www.w3.org/2000/svg">
<path d="M1 29.424C1 29.424 8.38205 25.6275 17.6623 25.2057C26.6263 24.7838 39 30.6895 39 30.6895C39 30.6895 26.3451 38.2474 17.4514 37.0522C6.2729 35.5406 1 29.424 1 29.424Z" fill="#63696F"/>
<path d="M12.4598 6.64502C12.4598 6.64502 8.73358 17.3314 8.73358 27.2093C8.73358 27.2093 10.4209 27.9124 11.124 27.8069C11.124 27.8069 11.6161 30.0567 12.4598 30.5488C13.3034 31.0409 15.272 10.9336 12.4598 6.64502Z" fill="#F1BB10"/>
<path d="M11.124 27.8772C11.3349 18.5969 12.3894 10.7931 12.3543 6.92627C11.7919 8.71905 8.73358 18.2454 8.73358 27.2093C8.73358 27.2093 10.4209 27.9124 11.124 27.8069C11.124 27.8069 11.124 27.8421 11.124 27.8772Z" fill="#E4A119"/>
<path d="M24.6577 6.64502H12.1785C12.1785 6.64502 13.1628 16.1011 12.741 21.1631C12.3543 26.2602 12.1785 30.5488 12.1785 30.5488C12.1785 30.5488 18.1896 31.4276 21.3534 30.9706C24.4819 30.4785 29.7548 28.8615 29.7548 28.8615C29.7548 28.8615 29.0518 13.078 24.6577 6.64502Z" fill="#F5DB37"/>
<path d="M15.4126 9.21118L13.3386 9.73847C13.3386 9.73847 12.495 12.3046 14.569 12.8671L16.3969 12.164L15.4126 9.21118Z" fill="#F2C215"/>
<path d="M15.4829 10.3012L14.112 10.8284C14.112 10.8284 13.7253 10.3715 13.6198 10.3012C13.5144 10.2308 13.198 11.3909 14.2877 11.883L15.8696 11.3206L15.4829 10.3012Z" fill="#E8B11B"/>
<path d="M12.1785 6.64513C12.1785 6.64513 15.975 5.37964 26.5911 5.34448C26.5911 5.34448 28.5245 8.12154 28.2785 10.758C28.2785 10.758 20.4043 12.9023 14.5689 12.8671C14.5689 12.8671 15.6587 11.3907 14.4635 9.10581C13.2683 6.82089 12.1785 6.64513 12.1785 6.64513Z" fill="#F5DB37"/>
<path d="M26.7318 20.7415C26.9427 23.9755 24.4468 26.8229 21.1074 27.069C17.803 27.2799 15.0963 24.7489 15.0611 21.5148C15.026 18.3863 17.5218 15.7498 20.6504 15.5389C23.7789 15.2928 26.5208 17.5777 26.7318 20.7415Z" fill="#6AAA44"/>
<path d="M25.9935 20.7764C26.1692 23.4832 24.0952 25.8384 21.3533 26.0142C18.6466 26.1899 16.3968 24.1159 16.3265 21.4443C16.2913 18.8431 18.3653 16.6284 20.9666 16.4527C23.5679 16.2769 25.8529 18.1752 25.9935 20.7764Z" fill="#F7E778"/>
<path d="M20.791 19.6869C20.4043 19.4057 20.0528 20.0736 20.4043 20.2846C20.7207 20.5306 21.1074 19.9682 20.791 19.6869Z" fill="#6AAA44"/>
<path d="M20.6855 19.5461C20.6152 19.0188 20.5098 18.5267 20.791 18.0346C20.9667 17.683 21.5995 17.1206 22.0213 17.4721C22.4431 17.7885 22.2673 18.4564 22.0213 18.8079C21.7401 19.2298 21.1073 19.2649 20.6855 19.5461Z" fill="#6AAA44"/>
<path d="M21.037 19.7569C21.4237 19.4757 23.2516 18.0696 22.9352 19.5812C22.7243 20.6006 21.4588 20.2491 21.037 19.7569Z" fill="#6AAA44"/>
<path d="M20.3339 19.6517C20.3339 19.1244 20.2987 18.5971 19.9472 18.2104C19.6308 17.894 18.9981 17.6831 18.6466 18.0698C18.3302 18.4916 18.5763 19.1947 18.9981 19.4408C19.2442 19.5814 19.4902 19.5814 19.7714 19.5814C19.9472 19.5814 20.1581 19.5814 20.3339 19.6517Z" fill="#6AAA44"/>
<path d="M20.1582 20.0382C19.631 19.4054 17.9085 19.7921 18.2248 20.8467C18.4006 21.4795 19.2443 21.3388 19.631 21.0225C20.0879 20.7061 20.1582 20.0382 20.1582 20.0382Z" fill="#6AAA44"/>
<path d="M20.5098 20.425C19.6309 20.9875 19.2443 22.253 20.1934 22.1475C21.0722 22.0421 20.9667 20.8117 20.5098 20.425Z" fill="#6AAA44"/>
<path d="M20.9667 20.2143C21.0018 20.6009 21.1776 21.1985 21.4588 21.4446C21.7401 21.6907 22.3025 21.7258 22.4431 21.3391C22.8298 20.4252 21.4588 20.0736 20.9667 20.2143Z" fill="#6AAA44"/>
<path d="M20.8261 20.7766C21.4237 21.8312 21.8104 23.2022 21.5643 24.4676C21.5291 24.5731 21.2128 25.3465 21.5995 25.2059C21.8104 25.1356 21.8104 24.538 21.8455 24.3622C21.8807 23.7646 21.8807 23.1318 21.7049 22.5342C21.5291 21.9367 21.2831 21.1633 20.8261 20.7766Z" fill="#6AAA44"/>
<path d="M24.2007 18.8433C23.3922 19.476 22.9352 20.1088 22.7243 21.1282C22.5837 21.9367 22.5486 22.8507 21.951 23.4834C23.0407 23.5537 23.9547 22.9561 24.0601 21.8664C24.1656 20.847 23.6735 19.7572 24.2007 18.8433Z" fill="#6AAA44"/>
<path d="M21.5643 23.7644C21.6346 21.5498 19.2091 22.9208 18.2248 21.8662C18.2248 22.6044 19.0685 23.6238 19.7715 23.8347C20.0879 23.9753 20.4043 23.8699 20.6855 23.7996C20.9667 23.6941 21.2479 23.6238 21.5643 23.7644Z" fill="#6AAA44"/>
<path d="M28.3136 10.4066C28.3136 10.4066 28.3136 10.4066 28.2784 10.4066C28.3136 10.3363 28.3136 10.3011 28.3136 10.266C28.3136 10.2308 28.3136 10.2308 28.2784 10.1957C28.2784 10.1253 28.2784 10.055 28.2784 10.0199V9.94958C28.2784 9.87928 28.2784 9.80897 28.2784 9.73867V9.70352C28.2433 9.63321 28.2433 9.56291 28.2433 9.4926V9.45745C28.2433 9.38714 28.2081 9.31684 28.2081 9.24653V9.21138C28.173 9.14107 28.173 9.07077 28.1378 9.00046V8.96531C28.1378 8.89501 28.1027 8.8247 28.1027 8.75439C28.2433 9.28168 28.3136 9.84413 28.3136 10.4066Z" fill="#EBBC27"/>
<path d="M25.2202 22.1474L27.0481 31.7089L32.3562 32.5525L34.395 31.5683L37.4884 21.5146L34.395 22.7801L25.2202 22.1474Z" fill="#DA6947"/>
<path d="M25.2202 22.1475L27.0481 31.709L32.3562 32.5526L34.395 22.7802L25.2202 22.1475Z" fill="#C35131"/>
<path d="M24.0953 21.1632L30.3173 19.5813L38.4727 20.4953L38.0509 21.7608L30.4228 20.7062L25.4311 22.1474L24.0953 21.1632Z" fill="#B24933"/>
<path d="M24.0953 21.1632L30.3173 19.5813L30.4228 20.7062L25.4311 22.1474L24.0953 21.1632Z" fill="#D15836"/>
<path d="M26.3802 21.8312C26.4154 21.5852 26.6966 21.3039 26.8723 21.1282C27.1536 20.8821 27.5051 20.7063 27.9269 20.7063C28.1378 20.7063 28.3488 20.7415 28.5597 20.7767C28.8057 20.8118 29.0167 20.7415 29.1924 20.636C29.4736 20.5306 29.6846 20.3197 29.9658 20.2494C30.247 20.1439 30.5634 20.0736 30.8797 20.1088C31.1258 20.1088 31.407 20.1439 31.5828 20.2845C31.7586 20.4251 31.8992 20.6009 32.1101 20.6712C32.3562 20.8118 32.6725 20.6712 32.9537 20.6009C33.5162 20.4251 34.1489 20.4251 34.7465 20.6009C35.309 20.7767 36.3636 21.1282 36.7502 21.5852C36.5393 21.6203 36.2581 22.0773 36.0472 22.1476C35.7308 22.2882 35.2738 22.71 34.9574 22.8155C34.8168 22.8506 34.6411 22.7452 34.4653 22.6397C34.2895 22.5343 34.0786 22.4288 33.9732 22.4991C33.7623 22.6046 33.6216 22.5694 33.4107 22.5343C31.5828 22.2882 29.7549 22.2882 27.9269 22.007C27.6105 21.9367 27.3293 21.9015 27.013 21.8664C26.9426 21.8664 26.8723 21.8664 26.7669 21.9015C26.6263 21.9015 26.4857 21.9015 26.3802 21.8312Z" fill="#444846"/>
<path d="M35.1684 22.1475L34.4302 22.0772C34.395 22.5342 34.3247 22.9912 34.2544 23.4482L34.7465 23.4833L37.9806 21.9718L38.4727 20.4954L35.1684 22.1475Z" fill="#DA6947"/>
<path d="M34.7465 23.3778L34.2544 23.3075C34.2544 23.3426 34.2544 23.3778 34.2544 23.4481L34.7465 23.4832L37.9806 21.9717L38.0509 21.8311L34.7465 23.3778Z" fill="#EB8C5E"/>
<path d="M24.0953 21.1631L24.6577 22.5692L34.7465 23.4832L35.1684 22.1474L24.0953 21.1631Z" fill="#C75231"/>
<path d="M24.6226 22.4639L24.6577 22.5693L34.7465 23.4833L34.7817 23.3427L24.6226 22.4639Z" fill="#EB8C5E"/>
<path d="M31.1961 16.4879C31.1258 18.4916 31.0555 20.3899 31.0555 21.0929C31.2313 21.0929 31.407 21.1632 31.5828 21.2335C31.5828 20.8117 31.6179 19.1947 31.6531 17.3316C31.6883 17.2613 31.6883 17.1558 31.7234 17.1207C31.7586 16.9449 31.8992 16.8043 32.0046 16.6285C32.1101 16.4528 32.3913 16.2419 32.3913 16.0309C32.0749 16.2419 31.864 16.4879 31.6531 16.7692C31.6883 13.7109 31.7234 10.2659 31.5125 10.5823C31.5125 10.5823 31.3719 12.7969 31.2664 15.1873C30.6688 14.5897 29.1573 11.9884 28.8057 11.8829C28.8057 11.8829 30.95 15.117 31.1961 16.4879Z" fill="#42AA43"/>
<path d="M28.4542 7.9458C28.63 8.15672 28.7003 8.43794 28.7354 8.71916C28.8409 9.14099 28.9815 9.59797 29.2276 9.98465C29.5088 10.4065 29.8251 10.5822 30.3173 10.6174C30.4227 10.6174 30.5633 10.5822 30.6688 10.5822C30.8094 10.5471 30.95 10.5119 31.0906 10.5119C31.1609 10.5119 31.2312 10.5471 31.3015 10.5822C31.2664 10.4416 31.407 10.301 31.4422 10.2307C31.5828 10.055 31.6531 9.8792 31.7234 9.66828C31.8288 9.2816 31.7937 8.89492 31.5476 8.57855C31.3367 8.33248 30.95 8.29733 30.6688 8.29733C30.493 8.26217 30.3524 8.29733 30.2118 8.29733C30.0009 8.29733 29.79 8.29733 29.5791 8.26217C29.1924 8.22702 28.4542 7.98095 28.4542 7.9458Z" fill="#53A040"/>
<path d="M29.6143 10.4065C29.4736 10.3011 29.333 10.1605 29.2276 9.98469C29.333 10.1605 29.4736 10.3011 29.6143 10.4065ZM29.2276 9.98469C29.087 9.80893 29.0167 9.59801 28.9464 9.3871C28.9464 9.4574 28.9815 9.49255 28.9815 9.52771C29.0167 9.56286 29.0518 9.63316 29.0518 9.70347C29.1221 9.80893 29.1573 9.87923 29.2276 9.98469ZM31.4422 8.47313H31.407V8.43797C31.3367 8.43797 31.3016 8.40282 31.2664 8.40282C31.1961 8.36767 31.161 8.36767 31.0907 8.33252C31.0204 8.33252 30.9852 8.33252 30.9149 8.29736C31.1258 8.33252 31.3016 8.36767 31.4422 8.47313Z" fill="#428E3F"/>
<path d="M25.8881 11.8829C26.0639 11.9884 26.2748 12.0587 26.4506 11.8477C26.5912 11.6368 26.6263 11.3908 26.7669 11.1798C27.013 10.7229 27.47 10.3713 28.0324 10.3713C28.4894 10.3713 28.8761 10.6174 29.0167 11.0744C29.1222 11.4259 29.087 11.8477 29.0519 12.1993C28.9464 12.0235 28.7706 11.8126 28.5597 11.7423C28.3137 11.672 28.0676 11.8126 27.8567 11.9181C27.6106 12.0938 27.4348 12.1993 27.1185 12.1993C26.8724 12.1993 26.6615 12.0938 26.4154 12.1641C26.2045 12.1993 25.8178 12.2344 25.8881 11.8829Z" fill="#53A040"/>
<path d="M27.1184 12.1992C27.1536 12.1992 27.1887 12.1992 27.2239 12.1992C27.2942 12.1992 27.3293 12.1992 27.3996 12.1641C27.3996 12.1641 27.3996 12.1641 27.4348 12.1641C27.3645 12.1992 27.259 12.1992 27.1184 12.1992ZM27.4348 12.1641C27.4699 12.1641 27.4699 12.1641 27.4699 12.1641C27.4699 12.1641 27.4699 12.1641 27.4348 12.1641ZM27.4699 12.1641C27.4699 12.1641 27.4699 12.1641 27.4699 12.1289C27.4699 12.1641 27.4699 12.1641 27.4699 12.1641ZM27.4699 12.1289H27.5051H27.4699ZM27.5051 12.1289H27.5402H27.5051Z" fill="#C6E1B9"/>
<path d="M27.1184 12.1992C27.1536 12.1992 27.1887 12.1992 27.2239 12.1992C27.1887 12.1992 27.1536 12.1992 27.1184 12.1992ZM27.2239 12.1992C27.2942 12.1992 27.3293 12.1992 27.3996 12.164C27.3293 12.1992 27.2942 12.1992 27.2239 12.1992ZM28.5948 11.7773C28.5596 11.7773 28.5596 11.7422 28.5596 11.7422C28.5596 11.7422 28.5596 11.7773 28.5948 11.7773ZM28.4893 11.7422C28.4542 11.7422 28.419 11.707 28.419 11.707L28.4542 11.7422C28.4542 11.7422 28.4542 11.7422 28.4893 11.7422ZM28.419 11.707H28.3839H28.419Z" fill="#428E3F"/>
<path d="M31.6531 10.7931C31.5828 10.5822 31.3016 10.4416 31.0907 10.3362C30.7391 10.1956 30.3525 10.1252 29.9658 10.2307C29.2276 10.4416 28.7706 11.1798 28.7003 11.918C28.7003 12.3399 28.8409 12.7265 28.9112 13.1132C28.9463 13.4647 28.876 13.6405 28.7354 13.9217C28.9815 13.746 29.1221 13.535 29.4385 13.4296C29.6846 13.3593 29.9306 13.3593 30.1767 13.3593C30.2821 13.3593 30.3876 13.3593 30.4931 13.3593C31.0555 13.3241 31.8289 12.9726 31.7234 12.2696C31.6883 11.9883 31.5476 11.7071 31.4773 11.4259C31.4773 11.215 31.407 10.8283 31.6531 10.7931Z" fill="#53A040"/>
<path d="M31.6882 12.0586C31.6882 12.0234 31.6882 12.0234 31.6531 11.9883C31.6882 12.0234 31.6882 12.0234 31.6882 12.0586Z" fill="#C6E1B9"/>
<path d="M29.4385 13.4295C29.4736 13.4295 29.4736 13.4295 29.4736 13.4295C29.4736 13.4295 29.4736 13.4295 29.4385 13.4295ZM29.4736 13.4295C29.5439 13.3943 29.6142 13.3943 29.6846 13.3943C29.6142 13.3943 29.5439 13.3943 29.4736 13.4295ZM29.9658 13.3592C30.0009 13.3592 30.0361 13.3592 30.0712 13.3592C30.1064 13.3592 30.1415 13.3592 30.1767 13.3592C30.2118 13.3592 30.247 13.3592 30.2821 13.3592C30.3525 13.3592 30.3876 13.3592 30.4579 13.3592C30.3876 13.3592 30.3525 13.3592 30.2821 13.3592C30.247 13.3592 30.2118 13.3592 30.1767 13.3592C30.1415 13.3592 30.1064 13.3592 30.0712 13.3592C30.0361 13.3592 30.0009 13.3592 29.9658 13.3592ZM30.4931 13.3592C30.7743 13.3592 31.1258 13.2537 31.3719 13.0428C31.1258 13.2186 30.8094 13.324 30.5634 13.3592C30.5282 13.3592 30.4931 13.3592 30.4931 13.3592ZM28.9112 13.2889C28.9112 13.2537 28.9112 13.1834 28.9112 13.1131C28.9112 13.078 28.876 13.0428 28.876 13.0077C28.8057 12.6562 28.7003 12.3749 28.7003 12.0234C28.7003 12.4101 28.8409 12.7616 28.9112 13.1131C28.9112 13.1834 28.9112 13.2537 28.9112 13.2889ZM31.6883 12.6913C31.6883 12.621 31.7234 12.5858 31.7234 12.5155C31.7234 12.5858 31.6883 12.621 31.6883 12.6913ZM31.6883 12.0586V12.0234H31.6531C31.6531 12.0234 31.6531 12.0234 31.6531 11.9883C31.6883 12.0234 31.6883 12.0234 31.6883 12.0586ZM28.7003 11.918C28.7003 11.8828 28.7003 11.8828 28.7354 11.8477C28.7354 11.8828 28.7003 11.918 28.7003 11.918Z" fill="#428E3F"/>
<path d="M32.8835 11.3911C32.7077 11.2153 32.4617 11.145 32.2507 11.2505C31.8641 11.3911 31.6883 11.7075 31.6883 12.0941C31.6531 12.5863 31.9344 13.0784 32.321 13.3948C32.6726 13.6408 33.0944 13.7112 33.4811 13.8869C33.692 13.9221 33.9381 14.0627 34.0084 14.2384C34.0084 14.0978 34.0084 13.9572 34.1138 13.8166C34.2193 13.6057 34.395 13.4651 34.5356 13.2893C34.7817 12.9026 34.8169 12.4808 34.7817 12.0238C34.6763 11.3559 34.1138 10.4771 33.3053 10.8638C33.1999 10.9341 33.0592 11.0044 32.9889 11.145C32.9889 11.1802 32.9538 11.2505 32.9538 11.2856C32.9186 11.3559 32.8483 11.3911 32.8835 11.3911Z" fill="#53A040"/>
<path d="M34.7817 12.3398C34.7817 12.3398 34.7817 12.3398 34.7817 12.3047C34.7817 12.2343 34.7817 12.1289 34.7817 12.0234C34.7817 12.0234 34.7465 11.9883 34.7465 11.9531C34.7465 11.9883 34.7817 12.0234 34.7817 12.0234C34.7817 12.1289 34.7817 12.2343 34.7817 12.3398Z" fill="#C6E1B9"/>
<path d="M33.235 13.7811C33.0241 13.7108 32.8131 13.6405 32.6022 13.535C32.7428 13.6053 32.8834 13.6756 33.0592 13.7108C33.0944 13.7459 33.1647 13.7459 33.235 13.7811ZM32.6022 13.535C32.5671 13.535 32.5671 13.535 32.5671 13.535C32.5671 13.535 32.5671 13.535 32.6022 13.535ZM32.5319 13.535V13.4998V13.535ZM32.321 13.3944C32.0398 13.1483 31.8289 12.8671 31.7234 12.5156L31.7586 12.5859C31.7586 12.621 31.7937 12.6562 31.7937 12.6913C31.7937 12.6913 31.7937 12.7265 31.8289 12.7265C31.8289 12.7616 31.8289 12.7968 31.864 12.8319C31.8992 12.8671 31.8992 12.9022 31.9343 12.9374C31.9343 12.9726 31.9695 13.0077 31.9695 13.0077C32.0046 13.0429 32.0046 13.078 32.0398 13.1132L32.0749 13.1483C32.1101 13.1835 32.1452 13.2186 32.1452 13.2186L32.2155 13.2538C32.2507 13.3241 32.2858 13.3592 32.321 13.3944ZM34.5356 13.2538C34.7114 13.0077 34.7817 12.7265 34.7817 12.4101C34.7817 12.7265 34.7114 13.0077 34.5356 13.2538ZM34.7817 12.3047C34.7817 12.2343 34.7817 12.1289 34.7817 12.0234C34.7817 12.0234 34.7465 11.9883 34.7465 11.9531C34.7465 11.9883 34.7817 12.0234 34.7817 12.0234C34.7817 12.1289 34.7817 12.2343 34.7817 12.3047Z" fill="#428E3F"/>
<path d="M34.9575 14.6248C34.852 14.6599 34.7466 14.6951 34.6059 14.6599C34.3247 14.6599 34.0435 14.5193 33.7974 14.449C33.235 14.2381 32.6022 14.3436 32.2859 14.8708C32.1452 15.0818 32.1101 15.4333 32.0749 15.6794C32.0749 15.8551 32.0398 16.2066 32.1804 16.3121C32.3913 16.523 32.9186 16.6636 33.1647 16.6988C33.4811 16.7339 33.7974 16.8042 34.0787 16.5933C34.6763 16.2066 34.6059 15.2575 34.8169 14.8708C34.8872 14.8005 34.9575 14.6951 35.0629 14.5896C35.0278 14.6248 35.0278 14.6248 34.9575 14.6248Z" fill="#53A040"/>
<path d="M33.5865 16.7338C33.5513 16.7338 33.5513 16.7338 33.5162 16.7338C33.5513 16.7338 33.5513 16.7338 33.5865 16.7338ZM34.0786 16.5932C34.1138 16.5932 34.1138 16.5932 34.1138 16.5932C34.1138 16.5932 34.1138 16.5932 34.0786 16.5932ZM32.0749 15.6792V15.644V15.6792Z" fill="#C6E1B9"/>
<path d="M33.5865 16.734C33.5513 16.734 33.5513 16.734 33.5162 16.734C33.5513 16.734 33.5513 16.734 33.5865 16.734C33.6217 16.734 33.6217 16.734 33.6568 16.734C33.6217 16.734 33.6217 16.734 33.5865 16.734ZM33.6568 16.734C33.692 16.734 33.692 16.734 33.692 16.734C33.692 16.734 33.692 16.734 33.6568 16.734ZM33.7974 16.6988C33.8326 16.6988 33.8326 16.6988 33.8677 16.6988C33.8326 16.6988 33.8326 16.6988 33.7974 16.6988ZM32.9186 16.6285C32.6725 16.5934 32.3913 16.4879 32.2155 16.3473C32.3913 16.4879 32.6725 16.5934 32.9186 16.6285ZM34.0786 16.5934C34.1138 16.5934 34.1489 16.5582 34.1841 16.5231L34.2192 16.4879C34.2192 16.4527 34.2544 16.4527 34.2544 16.4176L34.2895 16.3824C34.3247 16.3473 34.3247 16.3473 34.3599 16.3121V16.277C34.395 16.2418 34.395 16.2067 34.4302 16.2067V16.1364C34.4653 16.1364 34.4653 16.1012 34.4653 16.0661L34.5005 16.0309C34.5005 15.9958 34.5005 15.9606 34.5356 15.9255V15.8903C34.5356 15.8552 34.5708 15.82 34.5708 15.7848C34.5708 15.7497 34.6059 15.6794 34.6059 15.6442C34.5356 15.9958 34.395 16.3473 34.1138 16.5934C34.1138 16.5934 34.1138 16.5934 34.0786 16.5934ZM32.1101 16.2418C32.0749 16.1364 32.0749 15.9958 32.0749 15.8903V15.8552C32.0749 15.9958 32.0749 16.1364 32.1101 16.2418ZM32.0749 15.6794V15.6442C32.1101 15.5036 32.1101 15.3279 32.1452 15.1521V15.2224C32.1452 15.2576 32.1101 15.3279 32.1101 15.3982V15.4333C32.1101 15.5388 32.0749 15.6091 32.0749 15.6794Z" fill="#428E3F"/>
<path d="M33.7973 6.92627C33.7973 6.92627 33.3755 7.45356 32.2506 7.87539C31.4773 8.15661 31.0906 8.85966 31.1258 9.63302C31.1258 10.09 31.3367 10.4415 31.4773 10.8282C31.5476 10.8282 31.6179 10.8282 31.6882 10.8282C31.7585 10.8282 31.8288 10.8282 31.8991 10.8282C32.0749 10.8282 32.2506 10.8634 32.4264 10.8985C32.7779 10.9688 33.0943 10.8985 33.4107 10.7579C34.0786 10.5118 34.4652 9.84394 34.3246 9.14089C34.2543 8.71905 33.938 8.36753 33.7622 8.016C33.6216 7.76993 33.5864 7.13719 33.7973 6.92627Z" fill="#53A040"/>
<path d="M32.6725 10.9338C32.9186 10.9338 33.1647 10.8635 33.4107 10.7581C33.1647 10.8635 32.9186 10.9338 32.6725 10.9338Z" fill="#C6E1B9"/>
<path d="M31.618 10.8284C31.618 10.8284 31.6531 10.8284 31.6883 10.8284C31.6531 10.8284 31.618 10.8284 31.618 10.8284ZM31.7234 10.8284H31.7586H31.7234ZM31.7586 10.8284C31.7937 10.8284 31.7937 10.8284 31.7937 10.8284C31.7937 10.8284 31.7937 10.8284 31.7586 10.8284ZM33.4107 10.7581C33.481 10.723 33.5513 10.6878 33.6217 10.6527C33.6568 10.6527 33.692 10.6175 33.692 10.6175C33.7623 10.5824 33.7974 10.5472 33.8326 10.5121C33.8677 10.4769 33.9029 10.4769 33.9029 10.4418C33.938 10.4066 33.9732 10.3715 34.0083 10.3363C34.0435 10.3012 34.0435 10.266 34.0786 10.266C34.1138 10.2308 34.1138 10.1957 34.1489 10.1605C34.1841 10.1254 34.1841 10.0902 34.2192 10.0551C34.2192 9.98478 34.2544 9.94963 34.2544 9.91448C34.2544 9.87932 34.2896 9.84417 34.2896 9.80902C34.2896 9.77387 34.3247 9.73872 34.3247 9.70356C34.3247 9.66841 34.3247 9.59811 34.3247 9.56295C34.3247 9.5278 34.3599 9.49265 34.3599 9.4575C34.3599 9.38719 34.3599 9.35204 34.3247 9.31689C34.3247 9.28173 34.3599 9.28173 34.3247 9.24658C34.395 9.91448 34.0786 10.4769 33.4459 10.7581C33.4459 10.7581 33.4459 10.7581 33.4107 10.7581ZM31.3367 10.4769C31.3367 10.4418 31.3367 10.4418 31.3367 10.4418V10.4769Z" fill="#428E3F"/>
<path d="M33.446 7.69971C33.3405 8.01608 33.2702 8.40276 33.1648 8.71913C33.0593 9.0355 32.8484 9.35188 32.6726 9.59795C32.4617 9.87917 32.1805 10.0901 31.8992 10.2658C31.8289 10.301 31.5477 10.4416 31.618 10.5471C31.6532 10.6174 31.9695 10.4065 32.0398 10.3713C32.4968 10.1252 32.9538 9.7034 33.1648 9.21127C33.3405 8.71913 33.446 8.19184 33.446 7.69971Z" fill="#3B823D"/>
<path d="M33.7271 8.29736C33.7271 8.29736 33.481 8.75435 33.1998 8.71919C33.1647 8.71919 33.235 8.89496 33.235 8.89496C33.235 8.89496 33.692 8.64889 33.7271 8.29736Z" fill="#3B823D"/>
<path d="M33.0242 7.98096C33.0242 7.98096 32.9187 8.75431 33.1648 8.93008L33.1999 8.82462C33.1999 8.82462 33.0242 8.33248 33.0242 7.98096Z" fill="#3B823D"/>
<path d="M33.5513 9.24658C33.5513 9.24658 32.9889 9.6684 32.7428 9.5981L32.7077 9.73871C32.7077 9.73871 33.3404 9.63325 33.5513 9.24658Z" fill="#3B823D"/>
<path d="M32.5319 8.40283C32.5319 8.40283 32.3913 9.38711 32.6725 9.73863L32.7428 9.63317C32.7428 9.63317 32.5319 8.85982 32.5319 8.40283Z" fill="#3B823D"/>
<path d="M32.0398 8.96533C32.0398 8.96533 31.6531 9.77384 32.0398 10.266L32.1101 10.1957C32.1101 10.1957 31.8289 9.73869 32.0398 8.96533Z" fill="#3B823D"/>
<path d="M33.4459 10.1252C33.4459 10.1252 32.8131 10.758 32.0398 10.301L32.1101 10.1955C32.1101 10.1955 32.7428 10.5119 33.4459 10.1252Z" fill="#3B823D"/>
<path d="M29.2276 8.61377C29.2276 8.61377 29.6143 9.28167 30.3876 9.52774C31.0555 9.73865 31.3015 10.3362 31.3015 10.3362C31.3015 10.3362 31.5124 9.80896 30.4931 9.42228C29.5088 9.07075 29.544 8.85984 29.2276 8.61377Z" fill="#3B823D"/>
<path d="M29.9306 8.68408C29.9306 8.68408 30.1064 9.03561 30.0712 9.28168L30.1415 9.35198C30.1415 9.35198 30.1767 8.93015 29.9306 8.68408Z" fill="#3B823D"/>
<path d="M30.0361 9.31689C30.0361 9.31689 29.7197 9.49266 29.4033 9.45751C29.4033 9.45751 29.8252 9.56296 30.1415 9.35205L30.0361 9.31689Z" fill="#3B823D"/>
<path d="M30.5985 8.68408C30.5985 8.68408 30.7743 9.17622 30.6337 9.59805L30.7391 9.6332C30.7391 9.6332 30.9149 8.9653 30.5985 8.68408Z" fill="#3B823D"/>
<path d="M29.8252 9.94943C29.8252 9.94943 30.4579 9.80882 30.6337 9.56274L30.7391 9.63305C30.7391 9.63305 30.3173 9.98459 29.8252 9.94943Z" fill="#3B823D"/>
<path d="M31.161 8.89502C31.161 8.89502 31.3016 9.45746 31.0203 9.84414L31.0906 9.91445C31.0906 9.91445 31.4422 9.42231 31.161 8.89502Z" fill="#3B823D"/>
<path d="M30.1767 10.2658C30.1767 10.2658 30.9149 10.1604 31.0555 9.84399L31.1258 9.94946C31.1258 9.94946 30.7743 10.3361 30.1767 10.2658Z" fill="#3B823D"/>
<path d="M32.9538 11.5313C32.9538 11.5313 33.6568 12.4101 33.7974 13.7108C33.7974 13.7108 33.8677 13.0077 33.5162 12.3047C33.1295 11.6368 33.0241 11.3907 32.9538 11.5313Z" fill="#3B823D"/>
<path d="M33.0241 11.5664C33.0241 11.5664 32.2858 11.8476 32.3562 12.7264C32.3562 12.7264 32.5671 11.7773 33.0592 11.6719L33.0241 11.5664Z" fill="#3B823D"/>
<path d="M34.3599 11.883C34.3599 11.883 33.9029 11.3909 33.0592 11.6721L32.9889 11.5666C32.9889 11.5666 33.9732 11.2503 34.3599 11.883Z" fill="#3B823D"/>
<path d="M33.3756 12.1641C33.3756 12.1641 32.8483 12.6562 32.9186 13.2186C32.9186 13.2186 33.0944 12.4453 33.4459 12.2344L33.3756 12.1641Z" fill="#3B823D"/>
<path d="M34.395 12.621C34.395 12.621 33.938 12.1641 33.4108 12.2695L33.3756 12.1641C33.3756 12.1641 34.0435 12.0586 34.395 12.621Z" fill="#3B823D"/>
<path d="M33.6567 12.7617C33.6567 12.7617 33.1997 13.0429 33.3755 13.6054C33.3755 13.6054 33.3403 12.9726 33.6919 12.8672L33.6567 12.7617Z" fill="#3B823D"/>
<path d="M34.1489 13.3593C34.1489 13.3593 33.938 12.9023 33.6568 12.8672V12.7617C33.6568 12.7617 34.1489 12.8672 34.1489 13.3593Z" fill="#3B823D"/>
<path d="M26.9778 11.6367C26.9778 11.6367 27.0833 11.9179 27.6105 11.9882L27.6809 11.9531C27.6809 11.9531 27.2239 11.8828 26.9778 11.6367Z" fill="#3B823D"/>
<path d="M27.3293 11.0393C27.3293 11.0393 27.8215 11.5666 28.2081 11.7072L28.3136 11.6369C28.3136 11.6369 27.6106 11.2854 27.3293 11.0393Z" fill="#3B823D"/>
<path d="M28.1027 10.6877C28.1027 10.6877 28.6651 11.1799 28.5948 11.7072L28.6651 11.7423C28.6651 11.7423 28.8057 10.969 28.1027 10.6877Z" fill="#3B823D"/>
<path d="M31.2664 10.7581C31.2664 10.7581 29.2979 11.7423 29.087 13.289C29.087 13.289 29.9306 11.426 31.2664 10.9338C31.2664 10.9338 31.3367 10.8635 31.2664 10.7581Z" fill="#3B823D"/>
<path d="M29.4385 10.9692C29.4385 10.9692 30.3525 10.6528 30.8797 11.0395L30.9149 10.9692C30.9149 10.9692 30.3173 10.4419 29.4385 10.9692Z" fill="#3B823D"/>
<path d="M30.2821 11.461L30.1767 11.5665C30.1767 11.5665 29.5088 11.461 29.087 11.7774C29.087 11.7774 29.4033 11.3556 30.2821 11.461Z" fill="#3B823D"/>
<path d="M29.6846 12.1992C29.6846 12.1992 29.2276 12.1289 28.9815 12.4101C28.9815 12.4101 29.4736 12.2695 29.5791 12.3398L29.6846 12.1992Z" fill="#3B823D"/>
<path d="M31.161 12.4102C31.161 12.4102 31.1961 11.1799 30.8797 11.0393L30.9149 10.969C30.9149 10.969 31.4773 11.1096 31.161 12.4102Z" fill="#3B823D"/>
<path d="M30.1767 11.5664C30.1767 11.5664 30.6688 12.0937 30.5633 12.7967C30.5633 12.7967 30.8797 12.0585 30.247 11.4961L30.1767 11.5664Z" fill="#3B823D"/>
<path d="M29.5439 12.3047C29.5439 12.3047 29.8603 12.5156 29.79 13.0429C29.79 13.0429 29.9658 12.5859 29.6494 12.1992L29.5439 12.3047Z" fill="#3B823D"/>
<path d="M34.6059 14.8357C34.6059 14.8357 33.1295 14.9763 32.2155 16.2066C32.2155 16.2066 32.2507 16.2769 32.2858 16.2769C32.321 16.2769 32.9186 15.2927 34.6059 14.8357Z" fill="#3B823D"/>
<path d="M33.7623 14.6599C33.7623 14.6599 33.5162 14.8005 33.5513 15.1169L33.4459 15.152C33.4459 15.152 33.4459 14.7302 33.7623 14.6599Z" fill="#3B823D"/>
<path d="M34.2895 15.363C34.2895 15.363 33.692 15.3981 33.5162 15.1169L33.4459 15.1521C33.4459 15.1521 33.7974 15.5739 34.2895 15.363Z" fill="#3B823D"/>
<path d="M33.0241 14.6599C33.0241 14.6599 32.7781 14.8708 32.9889 15.4333L32.8835 15.5036C32.8835 15.5036 32.6727 14.8357 33.0241 14.6599Z" fill="#3B823D"/>
<path d="M34.0435 15.8903C34.0435 15.8903 33.2701 16.031 32.8834 15.5037L32.9889 15.4333C32.9889 15.4333 33.235 15.82 34.0435 15.8903Z" fill="#3B823D"/>
<path d="M32.3561 15.0466C32.3561 15.0466 32.2156 15.5388 32.4264 15.9606L32.4967 15.9254C32.4967 15.9254 32.2507 15.4685 32.3561 15.0466Z" fill="#3B823D"/>
<path d="M33.6568 16.3473C33.6568 16.3473 32.8131 16.488 32.4265 15.9607L32.4616 15.8552C32.4616 15.8552 32.7428 16.277 33.6568 16.3473Z" fill="#3B823D"/>
<path d="M5.25343 4.1845C5.25343 4.1845 5.04252 1.65351 3.21458 2.04019C1.56241 2.42687 2.30061 4.8524 2.30061 4.8524L5.25343 4.1845Z" fill="#9EA09E"/>
<path d="M3.07397 2.11035C1.59756 2.56734 2.30061 4.85225 2.30061 4.85225L4.05825 4.46558C3.39035 3.97344 2.8279 2.95401 3.07397 2.11035Z" fill="#717472"/>
<path d="M3.49584 3.30563C2.89824 3.37593 2.54671 3.69231 2.16003 4.07899C2.19519 4.50082 2.30065 4.85235 2.30065 4.85235L5.25348 4.18444C5.25348 4.18444 5.21833 3.90322 5.11287 3.5517C4.62073 3.34078 4.02313 3.23532 3.49584 3.30563Z" fill="#444848"/>
<path d="M6.80018 15.0115L5.25347 4.18452C5.25347 4.18452 3.14431 3.41116 2.30064 4.85242L4.72618 15.2576L6.80018 15.0115Z" fill="#E7A051"/>
<path d="M4.72619 15.2576C4.72619 15.2576 5.32378 14.3085 6.80019 15.0115C6.80019 15.0115 6.69473 16.8043 6.9408 17.5425C7.18687 18.2807 7.88992 19.0541 8.9445 19.265C9.96393 19.4759 10.21 19.2299 10.2803 19.9681C10.3858 20.7414 10.4561 26.858 12.741 30.9005C12.741 30.9005 12.9519 31.3926 12.3895 31.1817C11.827 31.006 11.0537 30.0568 10.5615 28.475C10.0342 26.8931 8.9445 22.2178 8.76874 22.0069C8.59298 21.796 8.17115 21.9014 8.13599 22.5342C8.13599 23.1669 8.38206 25.2058 9.01481 27.4556C9.6124 29.7053 10.8427 31.4629 10.8427 31.7793C10.8076 32.3066 9.43664 31.8496 8.34691 29.3186C7.36263 27.0337 6.30806 23.3427 5.78077 22.6397C5.25348 21.9366 4.62073 22.4287 4.79649 23.7294C4.97226 24.9597 6.9408 29.8108 8.31176 31.8848C8.48752 32.2012 8.2766 32.3066 8.13599 32.3066C7.71416 32.2363 6.97596 31.6387 6.23775 30.3732C5.11287 28.475 3.91768 26.0846 3.21462 23.9754C2.65218 22.3584 2.16004 20.4953 3.24978 20.179C4.33951 19.8977 5.67531 18.9838 5.46439 17.648C5.25348 16.3122 4.72619 15.2576 4.72619 15.2576Z" fill="#3A3C3C"/>
<path d="M6.13228 17.2612C6.13228 17.2612 5.28863 15.0114 5.78076 15.0114C6.02682 14.9763 6.09713 17.0151 6.13228 17.2612Z" fill="#737674"/>
<path d="M6.27287 15.3278C6.27287 15.3278 6.23772 14.9763 6.37833 14.9763C6.51894 15.0115 6.51894 15.6091 6.58925 16.4176C6.6244 17.1909 6.6947 17.6128 6.80016 17.894C6.90562 18.1752 7.71413 18.9486 8.10081 19.3704C8.48749 19.7922 7.85474 19.7219 7.71413 19.511C7.64382 19.4055 6.51894 17.9994 6.51894 17.894C6.48379 17.7885 6.27287 15.3278 6.27287 15.3278Z" fill="#737674"/>
<path d="M14.815 31.3926C14.2174 30.9708 13.9362 30.2326 13.1628 30.1271C12.4246 30.0217 12.1785 30.1271 11.5809 30.4787C11.0888 30.7599 10.6318 30.549 10.1397 30.3381C9.6827 30.1623 9.26087 29.9865 8.76873 30.1623C8.31175 30.3381 7.96022 30.8653 7.46808 31.006C6.87049 31.1817 6.58927 30.5138 6.13228 30.3381C5.7456 30.1623 5.11286 30.092 4.79648 30.3381C4.48011 30.6193 4.16373 30.9708 4.09343 31.3926C4.48011 31.3575 5.25347 31.4278 5.49953 31.6739C5.6753 31.8145 5.64015 31.9551 5.78076 32.0605C6.02682 32.2363 6.62442 32.2363 6.90564 32.2714C8.06568 32.4472 8.97965 33.5369 10.2451 33.0096C10.7021 32.7987 10.913 32.623 11.4052 32.5878C11.8622 32.5878 12.6004 32.5878 12.987 32.3418C13.1277 32.2363 13.1628 32.0957 13.3386 32.0254C13.5143 31.9199 13.8659 31.8848 14.0768 31.8848C14.3932 31.8496 14.8853 31.8848 14.9204 31.4629C14.8501 31.4629 14.8501 31.4278 14.815 31.3926Z" fill="#444846"/>
<path d="M15.5532 33.3613C15.975 33.291 16.1156 32.9746 16.432 32.7988C16.7484 32.5879 16.8187 32.5879 17.2757 32.5879C17.3811 32.5879 17.4514 32.5879 17.5569 32.5879C17.9084 32.5879 18.2951 32.5879 18.6115 32.6582C18.9982 32.7637 19.4903 33.0801 19.877 32.9043C20.2637 32.7637 20.2988 32.5528 20.6152 32.2716C20.9316 31.9552 21.2831 31.8497 21.7401 31.8849C22.5134 31.9552 22.8649 32.2716 23.3922 32.7285C23.9195 33.2207 24.6929 33.2207 25.4662 33.1855C26.3802 33.1855 27.259 33.1855 27.7511 33.8886C28.63 35.1892 26.8723 35.0486 25.5014 34.8728C24.8686 34.8025 24.3413 34.7322 24.1304 34.7674C23.7086 34.908 23.3219 35.2244 22.9352 35.4001C22.408 35.6111 21.951 35.6462 21.3885 35.6814C20.7909 35.6814 20.6503 35.6814 20.1933 35.3298C19.9121 35.1189 19.877 35.0486 19.5254 34.9783C18.7169 34.8728 17.9084 35.1541 17.1351 35.1541C16.5375 35.1541 15.0962 34.9783 14.815 34.4159C15.1314 34.2401 15.5884 33.8886 15.4126 33.4667C15.5532 33.3964 15.4829 33.3964 15.4477 33.3964C15.4477 33.3964 15.4477 33.3964 15.5532 33.3613Z" fill="#444846"/>
<path d="M14.0416 33.8884C13.6901 33.9236 12.9871 33.9939 12.9167 34.4157C13.2683 34.5212 13.4792 34.5212 13.444 34.943C13.5846 34.943 14.2174 34.6266 14.2877 34.5212C14.3932 34.2751 14.2877 33.8884 14.0416 33.8884Z" fill="#444846"/>
<path d="M14.7095 32.2715C14.4283 32.2715 13.901 32.0958 13.7253 32.3418C13.3737 32.7285 14.0768 32.6933 14.2877 32.7636C14.5338 32.8691 14.815 33.0448 14.9907 32.6582C15.1313 32.3067 14.9556 32.2715 14.7095 32.2715Z" fill="#444846"/>
<path d="M25.1147 35.0836C24.9038 34.9781 24.2007 34.9429 24.2007 35.2945C24.4117 35.3648 24.482 35.5406 24.6929 35.5757C24.7983 35.6109 24.939 35.5406 25.0796 35.5054C25.185 35.5054 25.2905 35.4702 25.396 35.4702C25.642 35.0484 25.2905 35.189 25.1147 35.0836Z" fill="#444846"/>
<path d="M28.6301 33.5721C28.8058 33.5018 29.0168 33.3612 29.2277 33.3261C29.5089 33.2557 29.544 33.3964 29.7901 33.5018C29.8604 33.5018 29.9659 33.5018 30.0713 33.5018C30.1768 33.4667 30.2471 33.4667 30.3174 33.5018C30.5635 33.5721 30.5635 33.8533 30.3174 33.9939C30.2471 34.0291 30.1065 33.9939 30.001 33.9939C29.9307 33.9588 29.8604 33.9236 29.7901 33.9236C29.5792 33.9588 29.5089 33.9939 29.298 33.9588C29.1222 33.9588 28.841 33.9939 28.7355 33.8533C28.5598 33.6424 28.384 33.537 28.6301 33.5721Z" fill="#444846"/>
<path d="M24.0251 31.4277C23.9548 31.4629 23.8845 31.4629 23.779 31.4629C23.5681 31.4277 23.322 31.4277 23.3923 31.7793C23.6033 31.8144 23.8142 31.9199 23.7087 32.166C23.9196 32.2363 24.3063 32.2011 24.4118 31.955C24.4821 31.7441 24.1657 31.6035 24.0251 31.4277Z" fill="#444846"/>
<path d="M18.8224 35.4705C18.5763 35.4002 18.1896 35.365 18.0139 35.6111C17.9787 35.7165 18.0842 35.822 18.049 35.9275C18.0139 35.9978 17.8381 36.0329 17.7678 36.1032C17.9436 36.2087 18.7521 36.3493 18.9278 36.2087C19.0333 36.1384 19.1036 35.8572 19.0685 35.7517C18.9981 35.6111 18.7872 35.6111 18.8224 35.4705Z" fill="#444846"/>
<path d="M20.3691 35.7518C19.877 35.576 19.9824 35.9627 19.877 36.279C20.4394 36.3142 21.0019 35.9627 20.3691 35.7518Z" fill="#444846"/>
<path d="M4.23406 29.0375C3.95284 29.0024 3.21463 29.0727 3.10917 29.4594C3.00372 29.7758 3.39039 29.7055 3.70677 29.6351C3.88253 29.6 4.05829 29.5648 4.1286 29.6C4.33951 29.6351 4.33951 29.7758 4.58558 29.6703C4.65589 29.6351 4.8668 29.4594 4.8668 29.3891C4.8668 29.3188 4.30436 29.0375 4.23406 29.0375Z" fill="#444846"/>
<path fill-rule="evenodd" clip-rule="evenodd" d="M22.5134 36.9467C30.4579 35.7867 39 30.6895 39 30.6895C39 30.6895 30.4579 35.7867 22.5134 36.9467ZM9.40148 19.3352C9.26087 19.3001 9.15541 19.3001 8.97964 19.2649C9.15541 19.3001 9.26087 19.3001 9.40148 19.3352ZM12.2488 7.27788C12.2137 6.99666 12.1785 6.78574 12.1785 6.71544C12.1785 6.68028 12.1785 6.64513 12.1785 6.64513C12.1785 6.68028 12.2137 6.8912 12.2488 7.27788ZM12.5652 6.53967C13.7604 6.2233 17.8733 5.37964 26.5911 5.34448C17.8733 5.37964 13.7604 6.2233 12.5652 6.53967Z" fill="url(#paint0_radial)"/>
<path fill-rule="evenodd" clip-rule="evenodd" d="M12.2137 29.8458C11.7567 28.8615 11.4052 27.7718 11.1591 26.6821C11.37 18.9134 12.1785 12.3047 12.3192 8.33241C12.4246 9.21123 12.4949 10.3713 12.6004 11.7071C12.6004 11.7071 12.6004 11.7071 12.6004 11.7422C12.6355 12.4804 12.7058 13.2889 12.741 14.0974C12.8464 16.5581 12.9168 19.1946 12.741 21.1631C12.4598 25.0651 12.284 28.4749 12.2137 29.8458ZM9.40149 19.3352C10.2452 13.7459 11.6864 8.96516 12.2489 7.27783C12.2489 7.31298 12.2489 7.31298 12.2489 7.31298C11.6864 9.03546 10.2452 13.7811 9.40149 19.3352Z" fill="url(#paint1_radial)"/>
<path fill-rule="evenodd" clip-rule="evenodd" d="M11.1591 26.6821C10.4209 23.5184 10.3506 20.4952 10.2803 19.9679C10.21 19.3703 10.0342 19.4055 9.40149 19.3352C10.2452 13.7811 11.6864 9.03547 12.2489 7.31299C12.284 7.59421 12.284 7.91058 12.3192 8.33242C12.1785 12.3047 11.37 18.9134 11.1591 26.6821Z" fill="url(#paint2_radial)"/>
<path fill-rule="evenodd" clip-rule="evenodd" d="M12.741 14.0977C12.7058 13.2891 12.6355 12.4806 12.6004 11.7424C12.6355 12.4806 12.7058 13.2891 12.741 14.0977Z" fill="url(#paint3_radial)"/>
<path fill-rule="evenodd" clip-rule="evenodd" d="M12.2488 7.27777C12.2137 6.89109 12.1785 6.68017 12.1785 6.64502C12.1785 6.68017 12.2137 6.89109 12.2488 7.27777Z" fill="url(#paint4_radial)"/>
<path fill-rule="evenodd" clip-rule="evenodd" d="M12.3191 8.33243C12.284 7.91059 12.284 7.59421 12.2488 7.31299C12.284 7.59421 12.284 7.91059 12.3191 8.33243Z" fill="url(#paint5_radial)"/>
<path fill-rule="evenodd" clip-rule="evenodd" d="M14.5689 12.867C14.5689 12.867 13.3737 12.7264 12.6004 11.7422C12.6004 11.6718 12.6004 11.6367 12.6004 11.5664C12.3895 8.57841 12.1785 6.64502 12.1785 6.64502C12.1785 6.64502 13.2683 6.82078 14.4635 9.1057C14.5338 9.21116 14.5689 9.31662 14.6041 9.42208L13.3386 9.73845C13.3386 9.73845 12.4949 12.3046 14.5689 12.867Z" fill="url(#paint6_radial)"/>
<path fill-rule="evenodd" clip-rule="evenodd" d="M14.569 12.8671C12.495 12.3046 13.3386 9.73849 13.3386 9.73849L14.6041 9.42212C14.7799 9.8088 14.9205 10.1603 14.9556 10.5119L14.112 10.8282C14.112 10.8282 13.7253 10.3712 13.6199 10.3009C13.4792 10.3009 13.2332 11.3907 14.2878 11.8828L14.9908 11.6367C14.8853 12.4101 14.569 12.8671 14.569 12.8671Z" fill="url(#paint7_radial)"/>
<path fill-rule="evenodd" clip-rule="evenodd" d="M14.2878 11.8829C13.2332 11.3908 13.4792 10.301 13.6199 10.301C13.5144 10.301 13.4089 10.7229 13.5496 11.1447L13.5847 11.1095C13.7605 10.9689 13.9362 10.8986 14.112 10.8283L14.9557 10.5119C15.026 10.9338 15.026 11.3205 14.9908 11.6368L14.2878 11.8829Z" fill="url(#paint8_radial)"/>
<path fill-rule="evenodd" clip-rule="evenodd" d="M14.1119 10.8283C14.1119 10.8283 13.7252 10.3713 13.6198 10.301C13.7252 10.3713 14.1119 10.8283 14.1119 10.8283Z" fill="url(#paint9_radial)"/>
<path fill-rule="evenodd" clip-rule="evenodd" d="M13.5496 11.1447C13.4089 10.7229 13.5144 10.301 13.6199 10.301C13.7253 10.3713 14.112 10.8283 14.112 10.8283C13.9362 10.8986 13.7605 10.9689 13.5847 11.1095L13.5496 11.1447Z" fill="url(#paint10_radial)"/>
<path fill-rule="evenodd" clip-rule="evenodd" d="M15.3423 12.5508C15.2368 12.5508 15.1665 12.5508 15.0962 12.5508C15.0962 12.5508 16.1156 11.1799 14.9907 9.10586C13.901 7.03185 12.8464 6.85609 12.8464 6.85609C12.8464 6.85609 12.8816 6.85609 12.9167 6.85609C13.0222 6.85609 13.1277 6.89124 13.2683 6.89124C14.358 6.96155 15.3423 8.19189 16.1508 8.85979C17.5217 10.0198 18.8927 10.3362 20.6503 10.3714C20.6855 10.3714 20.7558 10.3714 20.7909 10.3714C22.3025 10.3714 23.8141 9.94952 24.9741 8.96525C25.6068 8.40281 26.4857 6.50456 26.4154 5.76636C26.6263 6.11788 27.3645 7.27792 27.716 8.64887C27.4348 8.61372 27.1887 8.50826 26.8723 8.47311C26.9426 8.78948 27.0129 9.14101 26.8723 9.42223C26.5911 9.94952 26.1341 10.3714 25.8529 10.9338C25.8178 11.0041 25.7826 11.0744 25.7123 11.1447C23.1813 11.7072 18.8927 12.5508 15.3423 12.5508Z" fill="url(#paint11_radial)"/>
<path fill-rule="evenodd" clip-rule="evenodd" d="M26.3802 12.4453C26.4154 12.3399 26.5208 12.2344 26.6614 12.1289C26.7669 12.1641 26.8723 12.1992 26.9778 12.1992C26.7669 12.3047 26.5911 12.375 26.3802 12.4453Z" fill="url(#paint12_radial)"/>
<path fill-rule="evenodd" clip-rule="evenodd" d="M21.5291 23.237C21.1776 21.7958 19.1387 22.8152 18.2247 21.8661C18.2247 22.1122 18.3302 22.4285 18.506 22.7098C17.7677 22.3934 17.0295 21.9364 16.3265 21.4443C16.2913 18.843 18.3653 16.6284 20.9666 16.4526C21.1072 16.4526 21.2127 16.4526 21.3182 16.4526C23.6031 16.4526 25.5365 18.0345 25.9232 20.2139C25.3256 20.46 24.6577 20.6358 24.0249 20.7764C23.9546 20.1085 23.8492 19.4406 24.2007 18.843C23.3922 19.4757 22.9352 20.0733 22.7594 21.0224C22.7243 21.0576 22.6891 21.0576 22.6891 21.0576C22.4079 21.1631 22.5134 21.5146 22.6188 21.8309C22.5485 22.2879 22.443 22.7449 22.2321 23.1316C22.0915 23.1667 21.9861 23.1667 21.8455 23.2019C21.8103 22.9558 21.7751 22.7449 21.7048 22.534C21.5291 21.9364 21.283 21.1631 20.826 20.7764C21.2127 21.4794 21.5291 22.3582 21.5994 23.2019C21.5642 23.237 21.5642 23.237 21.5291 23.237ZM20.5097 20.4249C19.666 20.9521 19.2793 22.1473 20.0878 22.1473C20.123 22.1473 20.1581 22.1473 20.1933 22.1473C21.0721 22.0419 20.9666 20.8115 20.5097 20.4249ZM21.2479 20.2139C21.1424 20.2139 21.0369 20.2139 20.9666 20.2139C21.0018 20.6006 21.1776 21.1982 21.4588 21.4443C21.5994 21.5497 21.8103 21.62 21.9861 21.62C22.197 21.62 22.3727 21.5497 22.443 21.3388C22.7594 20.5655 21.8103 20.2139 21.2479 20.2139ZM19.3848 19.7218C18.7169 19.7218 18.0138 20.1436 18.2247 20.8467C18.295 21.1631 18.5763 21.3037 18.8575 21.3037C19.1387 21.3037 19.4551 21.1631 19.6308 21.0224C20.0878 20.7061 20.1581 20.0382 20.1581 20.0382C19.9824 19.8273 19.7011 19.7218 19.3848 19.7218ZM20.58 19.6163C20.2987 19.6163 20.123 20.1085 20.4042 20.2842C20.4393 20.3194 20.5097 20.3545 20.5448 20.3545C20.826 20.3545 21.0721 19.8976 20.7909 19.6867C20.7206 19.6515 20.6503 19.6163 20.58 19.6163ZM22.654 18.8781C22.197 18.8781 21.3182 19.546 21.0369 19.757C21.283 20.003 21.7048 20.2491 22.1267 20.2491C22.5134 20.2491 22.8297 20.0382 22.9352 19.5812C23.0406 19.0539 22.9 18.8781 22.654 18.8781ZM20.3339 19.6515C20.3339 19.1242 20.2987 18.5969 19.9472 18.2103C19.7714 18.0345 19.4551 17.8587 19.1387 17.8587C18.9629 17.8587 18.7872 17.929 18.6466 18.0696C18.3302 18.4915 18.5763 19.1945 18.9981 19.4406C19.209 19.5812 19.4199 19.5812 19.666 19.5812C19.7011 19.5812 19.7363 19.5812 19.7714 19.5812C19.8066 19.5812 19.8418 19.5812 19.8769 19.5812C20.0175 19.5812 20.1933 19.5812 20.3339 19.6515ZM21.74 17.3314C21.3533 17.3314 20.9315 17.7533 20.7909 18.0345C20.5097 18.5266 20.6151 19.0188 20.6854 19.546C21.1072 19.2648 21.74 19.2297 22.0212 18.8078C22.2673 18.4563 22.443 17.7884 22.0212 17.4721C21.9158 17.3666 21.8455 17.3314 21.74 17.3314Z" fill="url(#paint13_radial)"/>
<path fill-rule="evenodd" clip-rule="evenodd" d="M21.9861 21.6202C21.8104 21.6202 21.5994 21.5499 21.4588 21.4445C21.1776 21.1984 21.0018 20.6008 20.9667 20.2141C21.037 20.2141 21.1425 20.2141 21.2479 20.2141C21.8104 20.2141 22.7595 20.5656 22.4431 21.339C22.3728 21.5499 22.197 21.6202 21.9861 21.6202Z" fill="url(#paint14_radial)"/>
<path fill-rule="evenodd" clip-rule="evenodd" d="M21.529 25.241C21.2478 25.241 21.529 24.5731 21.5642 24.4676C21.6345 24.0458 21.6696 23.624 21.5993 23.2021C21.7048 23.2021 21.7751 23.2021 21.8454 23.2021C21.8805 23.5888 21.8805 23.9755 21.8454 24.3622C21.8102 24.5379 21.8102 25.1355 21.5993 25.2058C21.5642 25.241 21.5642 25.241 21.529 25.241Z" fill="url(#paint15_radial)"/>
<path fill-rule="evenodd" clip-rule="evenodd" d="M24.025 13.2888C23.9898 13.2537 23.9547 13.2185 23.9547 13.1834C24.0953 13.0428 24.3414 13.0428 24.5171 12.867C24.728 12.7264 24.7632 12.4803 24.9741 12.3046C25.1147 12.164 25.2202 12.0937 25.3256 12.0233C25.3959 11.8476 25.4662 11.6367 25.5717 11.4258C26.0287 11.3203 26.4154 11.25 26.7669 11.1445C26.7669 11.1797 26.7669 11.1797 26.7669 11.1797C26.6263 11.3906 26.5911 11.6367 26.4505 11.8476C26.3802 11.953 26.2747 11.9882 26.1693 11.9882C26.0638 11.9882 25.9584 11.9179 25.8881 11.8827C25.8529 12.1288 26.0287 12.1991 26.2044 12.1991C26.2747 12.1991 26.3451 12.164 26.4154 12.164C26.4857 12.1288 26.5208 12.1288 26.5911 12.1288C26.5911 12.1288 26.6263 12.1288 26.6614 12.1288C26.5208 12.2343 26.4154 12.3397 26.3802 12.4452C25.6068 12.7967 24.8335 13.0428 24.025 13.2888Z" fill="url(#paint16_radial)"/>
<path fill-rule="evenodd" clip-rule="evenodd" d="M25.5717 11.426C25.642 11.3557 25.6772 11.2502 25.7123 11.1448C26.2044 11.0393 26.6614 10.9339 26.9778 10.8636C26.9075 10.969 26.8372 11.0393 26.7669 11.1448C26.4154 11.2502 26.0287 11.3205 25.5717 11.426ZM28.2784 10.4066C28.2081 10.3714 28.1378 10.3714 28.0324 10.3714C27.9972 10.3714 27.9621 10.3714 27.9269 10.3714C27.9269 9.80897 27.8566 9.21137 27.716 8.64893C27.8566 8.68408 27.9621 8.71923 28.1027 8.75438C28.1027 8.82469 28.1378 8.895 28.1378 8.9653V9.00045C28.173 9.07076 28.173 9.14106 28.2081 9.21137V9.24652C28.2081 9.31683 28.2433 9.38713 28.2433 9.45744V9.49259C28.2433 9.5629 28.2433 9.6332 28.2784 9.70351V9.73866C28.2784 9.80897 28.2784 9.87927 28.2784 9.94958V10.0199C28.2784 10.055 28.2784 10.1253 28.2784 10.1956C28.3136 10.2308 28.3136 10.2308 28.3136 10.266C28.3136 10.3011 28.3136 10.3363 28.2784 10.4066Z" fill="url(#paint17_radial)"/>
<path fill-rule="evenodd" clip-rule="evenodd" d="M25.7123 11.1447C25.7826 11.0744 25.8178 11.0041 25.8529 10.9338C26.1341 10.3714 26.5911 9.94956 26.8723 9.42227C27.013 9.14104 26.9426 8.78952 26.8723 8.47314C27.1887 8.5083 27.4348 8.61376 27.716 8.64891C27.8566 9.21135 27.9269 9.80894 27.9269 10.3714C27.5402 10.4065 27.2239 10.5823 26.9778 10.8635C26.6614 10.9338 26.2044 11.0393 25.7123 11.1447Z" fill="url(#paint18_radial)"/>
<path fill-rule="evenodd" clip-rule="evenodd" d="M23.6734 22.8154C23.8843 22.5342 24.0249 22.2178 24.06 21.8663C24.0952 21.5148 24.06 21.1281 24.0249 20.7766C24.6576 20.6359 25.3255 20.4602 25.9231 20.2141C25.9583 20.3899 25.9935 20.5305 25.9935 20.6711L24.0952 21.1632L24.6225 22.499C24.3413 22.6045 24.0249 22.7099 23.6734 22.8154ZM22.6188 21.8311C22.5133 21.5148 22.4079 21.1632 22.6891 21.0578C22.6891 21.0578 22.7242 21.0578 22.7594 21.0226C22.7242 21.0578 22.7242 21.0929 22.7242 21.1281C22.6891 21.339 22.6539 21.5851 22.6188 21.8311Z" fill="url(#paint19_radial)"/>
<path fill-rule="evenodd" clip-rule="evenodd" d="M24.0953 29.4944C24.1304 28.5804 24.1304 27.7016 24.1656 26.7876C24.1656 26.5415 24.1656 26.2955 24.1656 25.9791C24.7632 25.5924 25.2553 25.0651 25.642 24.5027L26.4857 28.8968C25.7474 29.0725 24.9389 29.2834 24.0953 29.4944Z" fill="url(#paint20_radial)"/>
<path fill-rule="evenodd" clip-rule="evenodd" d="M24.1656 25.979C24.1656 25.6626 24.1656 25.3111 24.1304 24.9596C24.6577 24.5377 25.1147 23.9753 25.4311 23.3777L25.642 24.5026C25.2554 25.065 24.7632 25.5923 24.1656 25.979Z" fill="url(#paint21_radial)"/>
<path fill-rule="evenodd" clip-rule="evenodd" d="M24.1304 24.9597C24.0601 24.4324 23.9195 23.9403 23.6031 23.6591C23.3922 23.4481 23.3219 23.5536 23.111 23.2724C23.3219 23.1669 23.5328 22.9912 23.6734 22.8154C24.025 22.7099 24.3413 22.6045 24.6226 22.499L24.6577 22.5693L25.2905 22.6396L25.4311 23.3778C25.1147 23.9754 24.6577 24.5379 24.1304 24.9597Z" fill="url(#paint22_radial)"/>
<path fill-rule="evenodd" clip-rule="evenodd" d="M32.7077 31.9552L33.5162 28.5805C33.5865 28.5805 33.6568 28.5805 33.7623 28.5805H33.7974C34.3247 28.5805 34.7817 28.3344 35.2035 28.0884L34.2544 31.217L32.7077 31.9552Z" fill="url(#paint23_radial)"/>
<path fill-rule="evenodd" clip-rule="evenodd" d="M36.9612 23.2021L37.2424 22.3232L36.9612 23.2021Z" fill="url(#paint24_radial)"/>
<path fill-rule="evenodd" clip-rule="evenodd" d="M32.3561 32.5527L27.0481 31.7091L26.6614 29.7405L26.4857 28.8969L25.642 24.5027L25.4311 23.3779L25.2905 22.6396L25.5014 23.6239C26.6966 23.6591 31.4773 24.2918 33.5513 24.2918C33.7623 24.2918 33.938 24.2918 34.0786 24.2567L32.3561 32.5527ZM26.7317 27.8774L27.3996 31.3224L32.0046 32.0606L32.778 28.4047C32.1804 28.7211 31.4773 28.8969 30.7391 28.9672C30.5985 28.9672 30.4228 28.9672 30.2821 28.9672C29.1924 28.9672 28.1378 28.6859 27.1887 28.1586C27.0481 28.0532 26.8723 27.9477 26.7317 27.8774Z" fill="url(#paint25_radial)"/>
<path fill-rule="evenodd" clip-rule="evenodd" d="M34.1138 24.1159L34.2544 23.448L34.1138 24.1159Z" fill="url(#paint26_radial)"/>
<path fill-rule="evenodd" clip-rule="evenodd" d="M33.5513 24.2919C31.4773 24.2919 26.6966 23.6591 25.5014 23.624L25.2905 22.6396L34.2544 23.4482L34.1138 24.1161L34.0786 24.2567C33.938 24.2919 33.7623 24.2919 33.5513 24.2919Z" fill="url(#paint27_radial)"/>
<path fill-rule="evenodd" clip-rule="evenodd" d="M36.6096 21.4443C36.1526 21.0577 35.2387 20.7413 34.7465 20.6007C34.4302 20.4952 34.1138 20.4601 33.7974 20.4601C33.5162 20.4601 33.235 20.4952 32.9537 20.6007C32.7428 20.6358 32.5319 20.7413 32.321 20.7413C32.2507 20.7413 32.1804 20.7062 32.1101 20.671C31.8992 20.6007 31.7586 20.4249 31.5828 20.2843C31.5828 20.1086 31.6179 19.9328 31.6179 19.7219L38.4727 20.4952L36.6096 21.4443ZM30.3876 20.1437L30.3173 19.5813L31.0907 19.6516C31.0555 19.8274 31.0555 19.968 31.0555 20.1086C30.9852 20.1086 30.95 20.1086 30.8797 20.1086C30.8446 20.1086 30.8446 20.1086 30.8094 20.1086C30.6688 20.1086 30.5282 20.1086 30.3876 20.1437Z" fill="url(#paint28_radial)"/>
<path fill-rule="evenodd" clip-rule="evenodd" d="M26.5911 21.4092L24.0953 21.1632L30.3173 19.5813L30.3876 20.1437C30.247 20.1789 30.1064 20.214 29.9658 20.2492C29.6846 20.3195 29.4737 20.5304 29.1924 20.6359C29.0518 20.7413 28.8409 20.7765 28.6652 20.7765C28.63 20.7765 28.5949 20.7765 28.5597 20.7765C28.3488 20.7413 28.1379 20.7062 27.9269 20.7062C27.5051 20.7062 27.1536 20.8819 26.8724 21.128C26.8021 21.1983 26.6966 21.3038 26.5911 21.4092Z" fill="url(#paint29_radial)"/>
<path fill-rule="evenodd" clip-rule="evenodd" d="M34.7817 23.3427L35.1684 22.1475L34.4302 22.0772L35.1684 22.1475L36.6096 21.4445L38.4727 20.4954L38.0509 21.8312L36.6448 22.4639C36.7854 22.1827 36.8908 21.9015 37.0315 21.6202C37.1018 21.4445 37.1721 21.3039 37.2072 21.1281L36.1878 21.6554C35.8714 22.0772 35.6605 22.6045 35.4144 23.0615L34.7817 23.3427Z" fill="url(#paint30_radial)"/>
<path fill-rule="evenodd" clip-rule="evenodd" d="M35.309 23.2018L36.6096 22.6042L35.309 23.2018Z" fill="url(#paint31_radial)"/>
<path fill-rule="evenodd" clip-rule="evenodd" d="M35.4144 23.0613C35.6605 22.6043 35.8714 22.0771 36.1878 21.6552L37.2072 21.1279C37.1721 21.3037 37.1018 21.4443 37.0314 21.6201C36.8908 21.9013 36.7854 22.1825 36.6448 22.4637L35.4144 23.0613Z" fill="url(#paint32_radial)"/>
<path fill-rule="evenodd" clip-rule="evenodd" d="M35.309 23.2021C35.3441 23.1669 35.3793 23.0966 35.4144 23.0615L36.6448 22.4639C36.6448 22.5342 36.6096 22.5693 36.6096 22.6045L35.309 23.2021Z" fill="url(#paint33_radial)"/>
<path fill-rule="evenodd" clip-rule="evenodd" d="M34.7465 23.4832L34.7817 23.3425L24.6226 22.4637L24.6577 22.5692L24.6226 22.4989L24.0953 21.1631L26.5911 21.4092L34.4302 22.0771L35.1684 22.1474L34.7817 23.3425L34.7465 23.4832Z" fill="url(#paint34_radial)"/>
<path fill-rule="evenodd" clip-rule="evenodd" d="M34.7465 23.4833L34.2544 23.4481L25.2905 22.6396L24.6577 22.5693L24.6226 22.4639L34.7817 23.3427L34.7465 23.4833Z" fill="url(#paint35_radial)"/>
<path fill-rule="evenodd" clip-rule="evenodd" d="M31.5828 21.2335C31.407 21.1632 31.2313 21.0929 31.0555 21.0929C31.0555 20.882 31.0555 20.5305 31.0555 20.1087C31.0555 19.9681 31.0555 19.8274 31.0907 19.6517C31.0907 18.7729 31.161 17.648 31.1961 16.4879C31.1961 16.4528 31.1961 16.4528 31.1961 16.4528C31.1961 16.4528 31.1961 16.4528 31.1961 16.4176C31.1961 16.3825 31.1961 16.3825 31.1961 16.3825C31.161 16.3825 31.161 16.3473 31.161 16.3473C30.95 15.574 30.3173 14.3436 29.7197 13.3594C29.79 13.3594 29.8955 13.3594 29.9658 13.3594C30.4579 14.0976 30.9852 14.9061 31.2664 15.1873C31.3016 14.4491 31.3367 13.7109 31.3719 13.043C31.5125 12.9375 31.6179 12.8321 31.6883 12.6915C31.6883 13.8515 31.6883 15.3279 31.6531 16.734C31.6531 16.7692 31.6531 16.7692 31.6531 16.7692C31.7937 16.5582 31.9343 16.3825 32.1101 16.2419C32.1452 16.277 32.1452 16.3122 32.1804 16.3122C32.1804 16.3473 32.2155 16.3473 32.2155 16.3473C32.1452 16.4528 32.0398 16.5582 32.0046 16.6286C31.8992 16.7692 31.7937 16.9098 31.7586 17.0504C31.7234 17.0504 31.7234 17.0855 31.7234 17.1207C31.6883 17.1207 31.6883 17.1558 31.6883 17.1558C31.6883 17.2261 31.6531 17.2613 31.6531 17.3316C31.6531 17.8237 31.6531 18.2807 31.6179 18.7026C31.6179 19.0892 31.6179 19.4056 31.6179 19.722C31.6179 19.9329 31.5828 20.1087 31.5828 20.2844C31.5828 20.7414 31.5828 21.0578 31.5828 21.2335ZM31.6531 11.9884C31.6531 11.9181 31.6179 11.8478 31.5828 11.7775C31.5476 11.672 31.5125 11.5314 31.4773 11.426C31.4773 11.2502 31.4422 10.9338 31.5828 10.8284C31.5828 10.8284 31.5828 10.8284 31.6179 10.8284C31.6179 11.0744 31.6531 11.4963 31.6531 11.9884Z" fill="url(#paint36_radial)"/>
<path fill-rule="evenodd" clip-rule="evenodd" d="M31.6531 11.9883C31.6531 11.918 31.618 11.8476 31.5828 11.7773C31.618 11.8476 31.6531 11.918 31.6531 11.9883Z" fill="url(#paint37_radial)"/>
<path fill-rule="evenodd" clip-rule="evenodd" d="M28.7354 13.9219C28.7706 13.9219 28.7706 13.8868 28.7706 13.8516C28.8409 13.6407 28.9112 13.5001 28.9112 13.2892C28.9112 13.254 28.9112 13.1837 28.9112 13.1134C28.8409 12.7619 28.7003 12.4103 28.7003 12.0236C28.7003 11.9885 28.7003 11.9533 28.7003 11.9182C28.7003 11.9182 28.7354 11.883 28.7354 11.8479C28.7354 11.7424 28.7354 11.637 28.7706 11.5315C28.9815 11.8127 29.2627 12.0236 29.5791 12.1291C29.5791 12.1643 29.5439 12.1643 29.5439 12.1994C29.4033 12.1994 29.1573 12.2346 28.9815 12.4103C28.9815 12.4103 29.2979 12.3049 29.4736 12.3049C29.2627 12.5861 29.1221 12.9376 29.087 13.2892C29.087 13.2892 29.2627 12.8673 29.6142 12.3752C29.7197 12.4455 29.8603 12.6916 29.79 13.0431C29.79 13.0431 29.9658 12.6564 29.6846 12.2697C29.7197 12.2346 29.7197 12.1994 29.7549 12.1643C29.9658 12.2346 30.1767 12.2697 30.3876 12.2697H30.4228C30.4579 12.2697 30.4931 12.2697 30.5282 12.2697C30.5634 12.4455 30.5985 12.6212 30.5634 12.797C30.5634 12.797 30.6688 12.5861 30.6337 12.2697C30.8094 12.2346 30.9852 12.1643 31.161 12.0939C31.161 12.2697 31.161 12.4103 31.161 12.4103C31.1961 12.2697 31.1961 12.1643 31.2313 12.0236C31.3367 11.9533 31.4773 11.883 31.5828 11.7776C31.6179 11.8479 31.6531 11.9182 31.6531 11.9885C31.6531 12.0236 31.6531 12.0236 31.6531 12.0236H31.6883V12.0588C31.6883 12.0588 31.6883 12.0588 31.6883 12.0939C31.6883 12.2346 31.6883 12.3752 31.7234 12.5158C31.7234 12.5861 31.6883 12.6212 31.6883 12.6916C31.6179 12.8322 31.5125 12.9376 31.3719 13.0431C31.1258 13.254 30.7743 13.3595 30.4931 13.3595C30.4579 13.3595 30.4579 13.3595 30.4579 13.3595C30.3876 13.3595 30.3525 13.3595 30.2821 13.3595C30.247 13.3595 30.2118 13.3595 30.1767 13.3595C30.1415 13.3595 30.1064 13.3595 30.0712 13.3595C30.0361 13.3595 30.0009 13.3595 29.9658 13.3595C29.8955 13.3595 29.79 13.3595 29.7197 13.3595C29.7197 13.3946 29.7197 13.3946 29.6846 13.3946C29.6142 13.3946 29.5439 13.3946 29.4736 13.4298C29.4736 13.4298 29.4736 13.4298 29.4385 13.4298C29.1221 13.5352 28.9815 13.7462 28.7354 13.9219Z" fill="url(#paint38_radial)"/>
<path fill-rule="evenodd" clip-rule="evenodd" d="M33.5162 16.7341C33.4107 16.7341 33.3053 16.699 33.1647 16.699C33.0944 16.699 33.0241 16.6638 32.9186 16.6287C33.0241 16.6638 33.0944 16.699 33.1647 16.699C33.3053 16.699 33.4107 16.7341 33.5162 16.7341Z" fill="url(#paint39_radial)"/>
<path fill-rule="evenodd" clip-rule="evenodd" d="M29.087 13.289C29.1221 12.9375 29.2627 12.586 29.4736 12.3048C29.5439 12.3048 29.5439 12.3048 29.5791 12.3399V12.3048C29.5791 12.3399 29.6142 12.3399 29.6142 12.3751C29.2627 12.8672 29.087 13.289 29.087 13.289ZM29.6845 12.2696L29.6494 12.2345L29.6845 12.1993C29.6845 12.1993 29.6494 12.1993 29.5791 12.1993H29.5439C29.5439 12.1642 29.5791 12.1642 29.5791 12.129C29.7549 11.9181 29.9306 11.7072 30.1415 11.5666C30.1767 11.5666 30.1767 11.5666 30.1767 11.5666L30.247 11.4963L30.1767 11.5666C30.1767 11.5666 30.1767 11.6017 30.2118 11.6369C30.0361 11.8126 29.8955 11.9884 29.7549 12.1642C29.7197 12.1993 29.7197 12.2345 29.6845 12.2696ZM30.3173 11.5666C30.2821 11.5314 30.247 11.5314 30.247 11.4963L30.2821 11.4611C30.247 11.4611 30.247 11.4611 30.247 11.4611C30.4579 11.2853 30.6337 11.1096 30.8094 11.0041C30.8446 11.0393 30.8446 11.0393 30.8797 11.0393L30.9149 10.969C31.1258 10.8284 31.2664 10.7581 31.2664 10.7581C31.3367 10.8635 31.2664 10.9338 31.2664 10.9338C31.1961 10.969 31.0906 11.0041 31.0203 11.0393C30.95 11.0041 30.9149 10.969 30.9149 10.969L30.8797 11.0393L30.9149 11.0744C30.704 11.215 30.4931 11.3908 30.3173 11.5666Z" fill="url(#paint40_radial)"/>
<path fill-rule="evenodd" clip-rule="evenodd" d="M7.71416 30.9005C7.15171 29.881 6.55412 28.6156 6.06198 27.3852C6.48381 27.2446 6.9408 27.104 7.43293 26.9634C7.46809 27.0688 7.50324 27.1743 7.53839 27.2798C7.43293 27.3501 7.36263 27.4204 7.25717 27.4907C7.25717 27.4907 7.22202 27.5258 7.22202 27.561C7.25717 27.7016 7.29232 28.4398 8.31175 29.2835C8.3469 29.2835 8.3469 29.3186 8.3469 29.3186C8.48751 29.635 8.62812 29.9162 8.76873 30.1623C8.38206 30.3029 8.06568 30.6896 7.71416 30.9005Z" fill="url(#paint41_radial)"/>
<path fill-rule="evenodd" clip-rule="evenodd" d="M11.0536 30.6193C10.913 30.6193 10.7724 30.5841 10.6318 30.549C10.4912 30.4787 10.3154 30.4084 10.1397 30.3381C9.78816 29.5999 9.29603 28.5804 9.01481 27.4556C8.97966 27.4204 8.97966 27.3501 8.9445 27.3149C9.26087 27.4204 9.82331 27.6313 10.3154 27.7368C10.3857 28.018 10.4912 28.2641 10.5615 28.475C10.8427 29.3538 11.1942 30.0217 11.5458 30.4787C11.37 30.5841 11.2294 30.6193 11.0536 30.6193Z" fill="url(#paint42_radial)"/>
<path fill-rule="evenodd" clip-rule="evenodd" d="M5.25348 4.18459C5.25348 4.18459 5.21833 3.90337 5.11287 3.55184C4.72619 3.37608 4.2692 3.27062 3.84737 3.27062C3.74191 3.27062 3.6013 3.27062 3.49584 3.30577C3.39038 3.30577 3.28493 3.34093 3.21462 3.37608C3.03886 2.95425 2.96855 2.49726 3.07401 2.11058C3.10916 2.07543 3.14431 2.07543 3.17947 2.04028C3.21462 2.04028 3.21462 2.04028 3.21462 2.04028C3.35523 2.00513 3.49584 2.00513 3.6013 2.00513C4.09344 2.00513 4.48012 2.28635 4.72619 2.60272C5.18317 3.27062 5.25348 4.18459 5.25348 4.18459Z" fill="url(#paint43_radial)"/>
<path fill-rule="evenodd" clip-rule="evenodd" d="M2.16005 4.0789V4.00859V3.97344C2.16005 3.93829 2.16005 3.93829 2.16005 3.90313V3.86798C2.16005 3.83283 2.12489 3.79768 2.12489 3.79768V3.72737C2.12489 3.72737 2.12489 3.69222 2.12489 3.65706V3.62191C2.12489 3.58676 2.12489 3.58676 2.12489 3.55161L2.16005 3.51645C2.16005 3.4813 2.16005 3.44615 2.16005 3.411V3.37584C2.16005 3.34069 2.16005 3.34069 2.16005 3.30554V3.27039C2.16005 3.23523 2.16005 3.20008 2.1952 3.20008V3.12978C2.1952 3.12978 2.1952 3.09462 2.1952 3.05947L2.23035 3.02432C2.23035 2.98917 2.23035 2.98917 2.23035 2.95401L2.2655 2.91886C2.2655 2.88371 2.2655 2.84856 2.2655 2.84856L2.30066 2.8134C2.30066 2.77825 2.30066 2.7431 2.33581 2.7431V2.70795C2.37096 2.67279 2.37096 2.63764 2.37096 2.63764L2.40611 2.60249C2.40611 2.56734 2.44127 2.56734 2.44127 2.53218L2.47642 2.49703C2.47642 2.46188 2.51157 2.46188 2.51157 2.42672H2.54672C2.58188 2.39157 2.58188 2.35642 2.61703 2.35642V2.32127C2.75764 2.25096 2.89825 2.1455 3.07401 2.11035C2.96856 2.49703 3.03886 2.95401 3.21463 3.37584C2.75764 3.4813 2.47642 3.76252 2.16005 4.0789Z" fill="url(#paint44_radial)"/>
<path fill-rule="evenodd" clip-rule="evenodd" d="M2.30065 4.85238C2.30065 4.85238 2.19519 4.50085 2.16003 4.07902C2.47641 3.76264 2.75763 3.48142 3.21462 3.37597C3.28492 3.34081 3.39038 3.30566 3.49584 3.30566C3.6013 3.27051 3.74191 3.27051 3.84737 3.27051C4.2692 3.27051 4.72619 3.37597 5.11287 3.55173C5.21833 3.90326 5.25348 4.18448 5.25348 4.18448C5.25348 4.18448 4.69103 3.97356 4.02313 3.97356C3.46069 3.97356 2.86309 4.11417 2.44126 4.64146C2.44126 4.64146 2.44126 4.64146 2.44126 4.67661H2.4061C2.4061 4.71177 2.4061 4.71177 2.4061 4.71177C2.4061 4.71177 2.4061 4.71177 2.37095 4.71177C2.37095 4.74692 2.37095 4.74692 2.37095 4.74692C2.37095 4.78207 2.37095 4.78207 2.3358 4.78207C2.3358 4.78207 2.3358 4.78207 2.3358 4.81722C2.30065 4.81722 2.30065 4.81722 2.30065 4.81722V4.85238Z" fill="url(#paint45_radial)"/>
<path fill-rule="evenodd" clip-rule="evenodd" d="M6.80018 15.0113C6.58927 14.9059 6.4135 14.8356 6.23774 14.8004L4.30434 3.97339C4.19889 3.97339 4.09343 3.97339 4.02312 3.97339C3.81221 3.97339 3.60129 4.00854 3.39038 4.04369C3.56614 4.8522 5.32377 12.41 5.81591 14.7301C5.81591 14.7301 5.81591 14.7301 5.78076 14.7301C5.64014 14.7301 5.46438 14.7652 5.35892 14.8004L2.89824 4.25461C3.24977 4.04369 3.63644 3.97339 4.02312 3.97339C4.69102 3.97339 5.25347 4.1843 5.25347 4.1843L6.80018 15.0113ZM2.89824 4.25461H2.86309L2.82793 4.28976H2.79278V4.32492H2.75763L2.72248 4.36007H2.68732V4.39522H2.65217V4.43037H2.61702V4.46553C2.61702 4.46553 2.58187 4.46553 2.58187 4.50068H2.54671V4.53583H2.51156V4.57098H2.47641V4.60614H2.44125V4.64129V4.60614H2.47641V4.57098H2.51156V4.53583H2.54671V4.50068H2.58187C2.58187 4.46553 2.61702 4.46553 2.61702 4.46553V4.43037H2.65217V4.39522H2.68732V4.36007H2.72248L2.75763 4.32492H2.79278V4.28976H2.82793L2.86309 4.25461H2.89824ZM2.30064 4.8522V4.81705V4.8522ZM2.3358 4.81705V4.7819V4.81705ZM2.44125 4.67644V4.64129V4.67644Z" fill="url(#paint46_radial)"/>
<path fill-rule="evenodd" clip-rule="evenodd" d="M2.30064 4.81712C2.30064 4.81712 2.30064 4.81712 2.3358 4.81712C2.30064 4.81712 2.30064 4.81712 2.30064 4.81712ZM2.4061 4.67651H2.44125H2.4061Z" fill="url(#paint47_radial)"/>
<path fill-rule="evenodd" clip-rule="evenodd" d="M4.72618 15.2574L2.30064 4.85223V4.81708C2.30064 4.81708 2.30064 4.81708 2.3358 4.81708C2.3358 4.78193 2.3358 4.78193 2.3358 4.78193C2.37095 4.78193 2.37095 4.78193 2.37095 4.74678C2.37095 4.74678 2.37095 4.74678 2.37095 4.71162C2.4061 4.71162 2.4061 4.71162 2.4061 4.71162C2.4061 4.71162 2.4061 4.71162 2.4061 4.67647H2.44125C2.44125 4.64132 2.44125 4.64132 2.44125 4.64132C2.58187 4.46555 2.72248 4.32494 2.89824 4.25464L5.35892 14.8004C4.90194 14.941 4.72618 15.2574 4.72618 15.2574Z" fill="url(#paint48_radial)"/>
<path fill-rule="evenodd" clip-rule="evenodd" d="M6.23774 14.8004C6.09713 14.7652 5.95652 14.7652 5.81591 14.7301C5.32378 12.41 3.56614 4.8522 3.39038 4.04369C3.6013 4.00854 3.81221 3.97339 4.02313 3.97339C4.09343 3.97339 4.19889 3.97339 4.30435 3.97339L6.23774 14.8004Z" fill="url(#paint49_radial)"/>
<path fill-rule="evenodd" clip-rule="evenodd" d="M7.32749 31.041C5.92138 28.4749 4.7965 25.8385 4.48012 24.1511C4.40982 23.7645 3.91768 21.7256 4.65589 21.3038C4.97226 21.128 4.55043 20.8116 4.55043 20.8116C4.44497 20.8116 4.37467 20.7765 4.30436 20.7765C3.60131 20.7765 3.531 21.6904 3.67161 22.4638C3.74192 22.8505 4.23406 24.7839 4.26921 24.9596C5.14802 28.1937 6.62443 30.2677 7.22203 31.041C6.83535 31.0059 6.58928 30.5841 6.23775 30.4083C6.23775 30.3731 6.23775 30.3731 6.23775 30.3731C5.78077 29.5998 5.28863 28.721 4.83165 27.807C4.1989 26.5415 3.63646 25.2409 3.21463 24.0105C3.21463 24.0105 3.21463 24.0105 3.21463 23.9754C2.89826 23.0966 2.61703 22.0771 2.61703 21.3389C2.61703 20.7413 2.7928 20.3195 3.24978 20.1789C4.26921 19.9328 5.49955 19.1243 5.49955 17.9291C5.49955 17.8588 5.49955 17.7534 5.4644 17.6479C5.25348 16.3121 4.72619 15.2575 4.72619 15.2575C4.72619 15.2575 4.90195 14.9411 5.35894 14.8005C5.4644 14.7654 5.64016 14.7302 5.78077 14.7302C5.81592 14.7302 5.81592 14.7302 5.81592 14.7302C5.95653 14.7654 6.09714 14.7654 6.23775 14.8005C6.41352 14.8357 6.58928 14.906 6.8002 15.0114C6.8002 15.0114 6.76504 15.3278 6.76504 15.7497C6.76504 16.3472 6.8002 17.1206 6.94081 17.5424C7.18687 18.2806 7.88993 19.054 8.94451 19.2649H8.97966C9.15542 19.3001 9.26088 19.3001 9.40149 19.3352C10.0342 19.4055 10.21 19.3704 10.2803 19.968C10.3506 20.4953 10.4209 23.5184 11.1591 26.6821C11.4052 27.7719 11.7567 28.8616 12.2137 29.8459C12.2489 29.9513 12.284 30.0216 12.3192 30.1271C12.284 30.1271 12.2137 30.1622 12.1785 30.1622C11.0537 27.4555 10.4209 24.7839 10.3155 23.0262C10.2803 22.6044 10.1748 21.1632 10.1045 21.0929C10.0694 21.0225 9.99908 20.9874 9.96393 20.9874C9.78817 20.9874 9.75302 21.585 9.75302 21.6904C9.75302 22.1826 9.82332 22.7099 9.89363 23.202C9.96393 23.4129 9.99908 23.5887 9.99908 23.7996C10.5615 27.4555 11.827 29.6701 12.1434 30.1974C11.9676 30.2325 11.7919 30.338 11.581 30.4786H11.5458C11.1943 30.0216 10.8427 29.3537 10.5615 28.4749C10.4912 28.264 10.3858 28.0179 10.3155 27.7367C9.89363 26.2251 9.29603 23.7996 8.97966 22.6396C8.8742 22.288 8.80389 22.042 8.76874 22.0068C8.69844 21.9365 8.62813 21.9014 8.55783 21.9014C8.38206 21.9014 8.17115 22.0771 8.136 22.4638C8.136 22.499 8.136 22.499 8.136 22.499C8.136 22.499 8.136 22.499 8.136 22.5341C8.136 23.0966 8.31176 24.6433 8.73359 26.4361C8.80389 26.7173 8.8742 26.9985 8.94451 27.3149C8.97966 27.35 8.97966 27.4203 9.01481 27.4555C9.29603 28.5804 9.78817 29.5998 10.1397 30.338L10.1748 30.3731C10.1397 30.3731 10.1397 30.338 10.1397 30.338C10.0342 30.3028 9.92878 30.2677 9.78817 30.2325C8.62813 27.4906 8.10084 25.3112 7.99538 23.6941C7.96023 23.3075 7.88993 22.0068 7.67901 21.7608C7.5384 21.6553 7.43294 21.585 7.32749 21.585C7.11657 21.585 6.94081 21.7608 6.90565 22.1123C6.8705 22.6044 7.43294 24.362 7.4681 24.573C8.10084 27.2446 9.01481 29.1428 9.61241 30.1622C9.47179 30.1271 9.33118 30.0919 9.19057 30.0919C9.04996 30.0919 8.90935 30.0919 8.76874 30.1622C8.62813 29.9162 8.48752 29.6349 8.34691 29.3186C8.34691 29.3186 8.34691 29.2834 8.31176 29.2834C8.06569 28.6858 7.81962 27.9828 7.5384 27.2797C7.50325 27.1743 7.4681 27.0688 7.43294 26.9633C6.8705 25.3815 6.34321 23.7996 5.99169 23.0262C5.99169 22.9911 5.99169 22.9911 5.99169 22.9911C5.99169 22.9911 5.95653 22.9911 5.95653 22.9559C5.92138 22.8505 5.85108 22.7099 5.78077 22.6396C5.78077 22.6044 5.78077 22.6044 5.74562 22.6044C5.71046 22.5341 5.67531 22.499 5.60501 22.4638C5.60501 22.4638 5.60501 22.4638 5.60501 22.4287C5.60501 22.4287 5.60501 22.4287 5.56985 22.4287C5.49955 22.3583 5.39409 22.3232 5.28863 22.3232C4.97226 22.3232 4.72619 22.7099 4.76134 23.4129C4.76134 23.5184 4.76134 23.5887 4.7965 23.6941V23.7293C4.7965 23.7293 4.7965 23.7293 4.7965 23.7645V23.7996C4.93711 24.4324 5.42924 25.8736 6.06199 27.3852C6.55413 28.6155 7.15172 29.881 7.71416 30.9004C7.64386 30.9356 7.57355 30.9707 7.4681 31.0059C7.43294 31.0059 7.36264 31.041 7.32749 31.041ZM5.99169 20.4953C5.92138 20.4953 5.81592 20.5304 5.74562 20.5656C5.56985 20.671 5.42924 20.8468 5.5347 21.0577C5.64016 21.2335 5.78077 21.2686 5.95653 21.2686C6.27291 21.2686 6.65959 21.0577 6.90565 20.9874C7.18687 20.8819 7.4681 20.8819 7.74932 20.8468C8.03054 20.8116 8.41722 20.7765 8.62813 20.671C9.01481 20.4601 8.8742 20.0031 8.48752 19.968H8.45237C8.17115 19.968 7.88993 20.2492 7.67901 20.3195C7.50325 20.3898 7.32749 20.425 7.11657 20.4601C6.8705 20.5304 6.62443 20.5304 6.37836 20.5304H6.34321C6.27291 20.5304 6.23775 20.5304 6.16745 20.4953C6.09714 20.4953 6.06199 20.4953 5.99169 20.4953ZM6.37836 14.9763C6.23775 14.9763 6.27291 15.3278 6.27291 15.3278C6.27291 15.3278 6.48382 17.7885 6.51898 17.894C6.51898 17.9994 7.64386 19.4055 7.71416 19.511C7.78447 19.6164 7.96023 19.6867 8.06569 19.6867C8.2063 19.6867 8.31176 19.5813 8.10084 19.3704C7.71416 18.9485 6.90565 18.1752 6.8002 17.894C6.69474 17.6127 6.62443 17.1909 6.58928 16.4176C6.51898 15.609 6.51898 15.0114 6.37836 14.9763ZM6.1323 17.2612C6.09714 17.0151 6.02684 15.0114 5.78077 15.0114C5.28863 15.0114 6.1323 17.2612 6.1323 17.2612Z" fill="url(#paint50_radial)"/>
<path fill-rule="evenodd" clip-rule="evenodd" d="M6.13228 17.2612C6.13228 17.2612 5.28863 15.0115 5.78076 15.0115C6.02682 15.0115 6.09713 17.0152 6.13228 17.2612Z" fill="url(#paint51_radial)"/>
<path fill-rule="evenodd" clip-rule="evenodd" d="M9.78811 30.2325C9.7178 30.1974 9.68265 30.1622 9.61234 30.1622C9.01475 29.1428 8.10079 27.2445 7.46804 24.5729C7.43289 24.362 6.87045 22.6044 6.9056 22.1123C6.94076 21.7607 7.11652 21.585 7.32743 21.585C7.43289 21.585 7.53835 21.6553 7.67896 21.7607C7.88987 22.0068 7.96018 23.3074 7.99533 23.6941C8.10079 25.3111 8.62807 27.4906 9.78811 30.2325Z" fill="url(#paint52_radial)"/>
<path fill-rule="evenodd" clip-rule="evenodd" d="M21.1425 35.6812C20.7206 35.6812 20.58 35.6109 20.1933 35.3297C19.9121 35.1188 19.877 35.0485 19.5254 34.9782C19.3848 34.9782 19.2442 34.9782 19.1036 34.9782C18.4357 34.9782 17.7678 35.1539 17.1351 35.1539H17.0999C16.4672 35.1539 15.0962 34.9782 14.815 34.4157C15.1314 34.24 15.5884 33.8884 15.4126 33.4666C15.4829 33.3963 15.4829 33.3963 15.4829 33.3963C15.4829 33.3963 15.5181 33.3963 15.5532 33.3612C15.975 33.2909 16.1156 32.9745 16.432 32.7987C16.7484 32.5878 16.8187 32.5878 17.2054 32.5878C17.2405 32.5878 17.2405 32.5878 17.2757 32.5878C17.3811 32.5878 17.4866 32.5878 17.5569 32.5878C17.6624 32.5878 17.7678 32.5878 17.8733 32.5878C18.1193 32.5878 18.3654 32.5878 18.6115 32.6581C18.9278 32.7284 19.2794 32.9393 19.6309 32.9393C19.7364 32.9393 19.8067 32.9393 19.877 32.9042C20.2636 32.7636 20.2988 32.5527 20.6152 32.2714C20.8964 31.9902 21.2128 31.8848 21.5643 31.8848C21.6346 31.8848 21.7049 31.8848 21.74 31.8848C22.5134 31.9551 22.8649 32.2714 23.3922 32.7284C23.8492 33.1502 24.4468 33.2205 25.1147 33.2205C25.2201 33.2205 25.3608 33.1854 25.4662 33.1854C25.6068 33.1854 25.7123 33.1854 25.8177 33.1854C26.5911 33.1854 27.3293 33.2557 27.7511 33.8884C28.3487 34.7672 27.7511 34.9782 26.9075 34.9782C26.4505 34.9782 25.9583 34.9079 25.5014 34.8727C25.0444 34.8024 24.6225 34.7672 24.3413 34.7672C24.271 34.7672 24.2007 34.7672 24.1304 34.7672C23.7086 34.9079 23.3219 35.2242 22.9352 35.4C22.4079 35.6109 21.951 35.646 21.3885 35.6812C21.2831 35.6812 21.2128 35.6812 21.1425 35.6812ZM15.4477 33.3963C15.4477 33.3963 15.4477 33.3963 15.4829 33.3963C15.4477 33.3963 15.4477 33.3963 15.4477 33.3963Z" fill="url(#paint53_radial)"/>
<defs>
<radialGradient id="paint0_radial" cx="0" cy="0" r="1" gradientUnits="userSpaceOnUse" gradientTransform="translate(21.5969 17.0279) scale(11.4154 11.4155)">
<stop stop-color="#FCE7D3"/>
<stop offset="1" stop-color="#D7CBD5"/>
</radialGradient>
<radialGradient id="paint1_radial" cx="0" cy="0" r="1" gradientUnits="userSpaceOnUse" gradientTransform="translate(21.347 17.2313) scale(11.2245 11.4155)">
<stop stop-color="#F4C313"/>
<stop offset="1" stop-color="#F2B514"/>
</radialGradient>
<radialGradient id="paint2_radial" cx="0" cy="0" r="1" gradientUnits="userSpaceOnUse" gradientTransform="translate(21.5497 17.1783) scale(11.4154)">
<stop stop-color="#EDAE15"/>
<stop offset="1" stop-color="#E49918"/>
</radialGradient>
<radialGradient id="paint3_radial" cx="0" cy="0" r="1" gradientUnits="userSpaceOnUse" gradientTransform="translate(21.5807 17.1367) scale(11.4246 11.4154)">
<stop stop-color="#F1AF13"/>
<stop offset="1" stop-color="#EA9918"/>
</radialGradient>
<radialGradient id="paint4_radial" cx="0" cy="0" r="1" gradientUnits="userSpaceOnUse" gradientTransform="translate(21.5789 17.1454) scale(11.4165)">
<stop stop-color="#F6E331"/>
<stop offset="1" stop-color="#F5DB37"/>
</radialGradient>
<radialGradient id="paint5_radial" cx="0" cy="0" r="1" gradientUnits="userSpaceOnUse" gradientTransform="translate(21.5698 17.1278) scale(11.4256 11.4155)">
<stop stop-color="#E69A17"/>
<stop offset="1" stop-color="#DD8121"/>
</radialGradient>
<radialGradient id="paint6_radial" cx="0" cy="0" r="1" gradientUnits="userSpaceOnUse" gradientTransform="translate(21.5855 17.1225) scale(11.4155)">
<stop stop-color="#EDB417"/>
<stop offset="1" stop-color="#E6A21A"/>
</radialGradient>
<radialGradient id="paint7_radial" cx="0" cy="0" r="1" gradientUnits="userSpaceOnUse" gradientTransform="translate(19.7836 17.1228) scale(8.2804 11.4154)">
<stop stop-color="#F6CA11"/>
<stop offset="1" stop-color="#F1BC17"/>
</radialGradient>
<radialGradient id="paint8_radial" cx="0" cy="0" r="1" gradientUnits="userSpaceOnUse" gradientTransform="translate(20.5589 17.1406) scale(9.67102 11.4159)">
<stop stop-color="#EDBA1A"/>
<stop offset="1" stop-color="#E8A91D"/>
</radialGradient>
<radialGradient id="paint9_radial" cx="0" cy="0" r="1" gradientUnits="userSpaceOnUse" gradientTransform="translate(21.5747 17.13) scale(11.418 11.4157)">
<stop stop-color="#F0B813"/>
<stop offset="1" stop-color="#ECA615"/>
</radialGradient>
<radialGradient id="paint10_radial" cx="0" cy="0" r="1" gradientUnits="userSpaceOnUse" gradientTransform="translate(20.8038 17.1346) scale(10.2081 11.4157)">
<stop stop-color="#EBAA1C"/>
<stop offset="1" stop-color="#DF931E"/>
</radialGradient>
<radialGradient id="paint11_radial" cx="0" cy="0" r="1" gradientUnits="userSpaceOnUse" gradientTransform="translate(21.6081 17.1571) scale(11.4154)">
<stop stop-color="#F6CD19"/>
<stop offset="1" stop-color="#F4C318"/>
</radialGradient>
<radialGradient id="paint12_radial" cx="0" cy="0" r="1" gradientUnits="userSpaceOnUse" gradientTransform="translate(21.5714 17.1488) scale(11.4152 11.4191)">
<stop stop-color="#F1C515"/>
<stop offset="1" stop-color="#EAB517"/>
</radialGradient>
<radialGradient id="paint13_radial" cx="0" cy="0" r="1" gradientUnits="userSpaceOnUse" gradientTransform="translate(21.6332 17.1159) scale(11.3739 11.4154)">
<stop stop-color="#F9ED77"/>
<stop offset="1" stop-color="#F6E67A"/>
</radialGradient>
<radialGradient id="paint14_radial" cx="0" cy="0" r="1" gradientUnits="userSpaceOnUse" gradientTransform="translate(21.5033 17.1553) scale(9.82675 11.4153)">
<stop stop-color="#8AB642"/>
<stop offset="1" stop-color="#67A344"/>
</radialGradient>
<radialGradient id="paint15_radial" cx="0" cy="0" r="1" gradientUnits="userSpaceOnUse" gradientTransform="translate(21.6518 17.1589) scale(8.38356 11.4149)">
<stop stop-color="#88A234"/>
<stop offset="1" stop-color="#688B38"/>
</radialGradient>
<radialGradient id="paint16_radial" cx="0" cy="0" r="1" gradientUnits="userSpaceOnUse" gradientTransform="translate(21.571 17.1575) scale(11.4154)">
<stop stop-color="#ECAF18"/>
<stop offset="1" stop-color="#E59B1A"/>
</radialGradient>
<radialGradient id="paint17_radial" cx="0" cy="0" r="1" gradientUnits="userSpaceOnUse" gradientTransform="translate(21.5501 17.1402) scale(11.4149 11.4153)">
<stop stop-color="#F1C528"/>
<stop offset="1" stop-color="#EBB629"/>
</radialGradient>
<radialGradient id="paint18_radial" cx="0" cy="0" r="1" gradientUnits="userSpaceOnUse" gradientTransform="translate(21.6079 17.1283) scale(11.3254 11.4155)">
<stop stop-color="#F0B61B"/>
<stop offset="1" stop-color="#ECA41A"/>
</radialGradient>
<radialGradient id="paint19_radial" cx="0" cy="0" r="1" gradientUnits="userSpaceOnUse" gradientTransform="translate(21.6818 17.1517) scale(11.1472 11.4156)">
<stop stop-color="#F4CE4E"/>
<stop offset="1" stop-color="#F0C352"/>
</radialGradient>
<radialGradient id="paint20_radial" cx="0" cy="0" r="1" gradientUnits="userSpaceOnUse" gradientTransform="translate(21.5816 17.1159) scale(11.4155)">
<stop stop-color="#EDAE1E"/>
<stop offset="1" stop-color="#E49B23"/>
</radialGradient>
<radialGradient id="paint21_radial" cx="0" cy="0" r="1" gradientUnits="userSpaceOnUse" gradientTransform="translate(21.5792 17.1383) scale(11.4163 11.4154)">
<stop stop-color="#868F31"/>
<stop offset="1" stop-color="#667632"/>
</radialGradient>
<radialGradient id="paint22_radial" cx="0" cy="0" r="1" gradientUnits="userSpaceOnUse" gradientTransform="translate(21.5643 17.1466) scale(11.4157)">
<stop stop-color="#EFB836"/>
<stop offset="1" stop-color="#EAA73A"/>
</radialGradient>
<radialGradient id="paint23_radial" cx="0" cy="0" r="1" gradientUnits="userSpaceOnUse" gradientTransform="translate(21.5735 17.1449) scale(11.4157 11.4154)">
<stop stop-color="#D74E31"/>
<stop offset="1" stop-color="#C44332"/>
</radialGradient>
<radialGradient id="paint24_radial" cx="0" cy="0" r="1" gradientUnits="userSpaceOnUse" gradientTransform="translate(21.579 17.1337) scale(11.4168 11.4162)">
<stop stop-color="#EA9670"/>
<stop offset="1" stop-color="#CF8273"/>
</radialGradient>
<radialGradient id="paint25_radial" cx="0" cy="0" r="1" gradientUnits="userSpaceOnUse" gradientTransform="translate(21.6143 17.1586) scale(11.4154 11.4155)">
<stop stop-color="#D7592F"/>
<stop offset="1" stop-color="#C34B31"/>
</radialGradient>
<radialGradient id="paint26_radial" cx="0" cy="0" r="1" gradientUnits="userSpaceOnUse" gradientTransform="translate(21.5807 17.1408) scale(11.4155 11.4169)">
<stop stop-color="#C8352C"/>
<stop offset="1" stop-color="#AF2C2C"/>
</radialGradient>
<radialGradient id="paint27_radial" cx="0" cy="0" r="1" gradientUnits="userSpaceOnUse" gradientTransform="translate(21.6244 17.1194) scale(11.4154 11.4162)">
<stop stop-color="#C83F2C"/>
<stop offset="1" stop-color="#AF332C"/>
</radialGradient>
<radialGradient id="paint28_radial" cx="0" cy="0" r="1" gradientUnits="userSpaceOnUse" gradientTransform="translate(21.5805 17.1352) scale(11.4155 11.4156)">
<stop stop-color="#CC5132"/>
<stop offset="1" stop-color="#B24234"/>
</radialGradient>
<radialGradient id="paint29_radial" cx="0" cy="0" r="1" gradientUnits="userSpaceOnUse" gradientTransform="translate(21.5747 17.1259) scale(11.4156 11.4154)">
<stop stop-color="#DF6032"/>
<stop offset="1" stop-color="#D05135"/>
</radialGradient>
<radialGradient id="paint30_radial" cx="0" cy="0" r="1" gradientUnits="userSpaceOnUse" gradientTransform="translate(21.5932 17.1234) scale(11.4154)">
<stop stop-color="#E67644"/>
<stop offset="1" stop-color="#D96147"/>
</radialGradient>
<radialGradient id="paint31_radial" cx="0" cy="0" r="1" gradientUnits="userSpaceOnUse" gradientTransform="translate(21.5754 17.1392) scale(11.4158 11.415)">
<stop stop-color="#E67543"/>
<stop offset="1" stop-color="#DB6246"/>
</radialGradient>
<radialGradient id="paint32_radial" cx="0" cy="0" r="1" gradientUnits="userSpaceOnUse" gradientTransform="translate(21.5636 17.153) scale(11.4155 11.4154)">
<stop stop-color="#F09358"/>
<stop offset="1" stop-color="#E97A5C"/>
</radialGradient>
<radialGradient id="paint33_radial" cx="0" cy="0" r="1" gradientUnits="userSpaceOnUse" gradientTransform="translate(21.565 17.1396) scale(11.4161 11.4156)">
<stop stop-color="#F5AD6D"/>
<stop offset="1" stop-color="#F29A74"/>
</radialGradient>
<radialGradient id="paint34_radial" cx="0" cy="0" r="1" gradientUnits="userSpaceOnUse" gradientTransform="translate(21.5436 17.1154) scale(11.4154)">
<stop stop-color="#D95B2E"/>
<stop offset="1" stop-color="#C64C32"/>
</radialGradient>
<radialGradient id="paint35_radial" cx="0" cy="0" r="1" gradientUnits="userSpaceOnUse" gradientTransform="translate(21.5656 17.1548) scale(11.4154 11.4151)">
<stop stop-color="#F19B5B"/>
<stop offset="1" stop-color="#EA825E"/>
</radialGradient>
<radialGradient id="paint36_radial" cx="0" cy="0" r="1" gradientUnits="userSpaceOnUse" gradientTransform="translate(21.571 17.1795) scale(11.4158 11.4154)">
<stop stop-color="#5EB542"/>
<stop offset="1" stop-color="#43A243"/>
</radialGradient>
<radialGradient id="paint37_radial" cx="0" cy="0" r="1" gradientUnits="userSpaceOnUse" gradientTransform="translate(21.573 17.1448) scale(11.4067 11.4149)">
<stop stop-color="#48A441"/>
<stop offset="1" stop-color="#358D41"/>
</radialGradient>
<radialGradient id="paint38_radial" cx="0" cy="0" r="1" gradientUnits="userSpaceOnUse" gradientTransform="translate(21.5797 17.1122) scale(11.4155 11.4159)">
<stop stop-color="#5B9D3E"/>
<stop offset="1" stop-color="#43843D"/>
</radialGradient>
<radialGradient id="paint39_radial" cx="0" cy="0" r="1" gradientUnits="userSpaceOnUse" gradientTransform="translate(21.5803 17.1261) scale(11.417 11.4228)">
<stop stop-color="#D2D599"/>
<stop offset="1" stop-color="#AFBD9D"/>
</radialGradient>
<radialGradient id="paint40_radial" cx="0" cy="0" r="1" gradientUnits="userSpaceOnUse" gradientTransform="translate(21.7497 17.14) scale(11.1673 11.4156)">
<stop stop-color="#51903E"/>
<stop offset="1" stop-color="#40763A"/>
</radialGradient>
<radialGradient id="paint41_radial" cx="0" cy="0" r="1" gradientUnits="userSpaceOnUse" gradientTransform="translate(21.5736 17.1679) scale(11.4157 11.4155)">
<stop stop-color="#84756A"/>
<stop offset="1" stop-color="#64606F"/>
</radialGradient>
<radialGradient id="paint42_radial" cx="0" cy="0" r="1" gradientUnits="userSpaceOnUse" gradientTransform="translate(21.5899 17.1286) scale(11.4152 11.4155)">
<stop stop-color="#5C524E"/>
<stop offset="1" stop-color="#474652"/>
</radialGradient>
<radialGradient id="paint43_radial" cx="0" cy="0" r="1" gradientUnits="userSpaceOnUse" gradientTransform="translate(21.1843 17.1322) scale(11.1307 11.4154)">
<stop stop-color="#C0AD9C"/>
<stop offset="1" stop-color="#A097A0"/>
</radialGradient>
<radialGradient id="paint44_radial" cx="0" cy="0" r="1" gradientUnits="userSpaceOnUse" gradientTransform="translate(21.583 17.1338) scale(11.4163 11.4153)">
<stop stop-color="#94806D"/>
<stop offset="1" stop-color="#716973"/>
</radialGradient>
<radialGradient id="paint45_radial" cx="0" cy="0" r="1" gradientUnits="userSpaceOnUse" gradientTransform="translate(21.559 17.1422) scale(11.4155 11.4158)">
<stop stop-color="#584E44"/>
<stop offset="1" stop-color="#444148"/>
</radialGradient>
<radialGradient id="paint46_radial" cx="0" cy="0" r="1" gradientUnits="userSpaceOnUse" gradientTransform="translate(21.5961 17.1039) scale(11.4154)">
<stop stop-color="#EEAC4F"/>
<stop offset="1" stop-color="#E79650"/>
</radialGradient>
<radialGradient id="paint47_radial" cx="0" cy="0" r="1" gradientUnits="userSpaceOnUse" gradientTransform="translate(21.5824 17.1264) scale(11.4131 11.4168)">
<stop stop-color="#503F32"/>
<stop offset="1" stop-color="#413633"/>
</radialGradient>
<radialGradient id="paint48_radial" cx="0" cy="0" r="1" gradientUnits="userSpaceOnUse" gradientTransform="translate(21.59 17.1473) scale(11.4157 11.4154)">
<stop stop-color="#DF8C37"/>
<stop offset="1" stop-color="#D17539"/>
</radialGradient>
<radialGradient id="paint49_radial" cx="0" cy="0" r="1" gradientUnits="userSpaceOnUse" gradientTransform="translate(21.5906 17.194) scale(11.4154)">
<stop stop-color="#F5C66A"/>
<stop offset="1" stop-color="#F3B96B"/>
</radialGradient>
<radialGradient id="paint50_radial" cx="0" cy="0" r="1" gradientUnits="userSpaceOnUse" gradientTransform="translate(21.5685 17.1921) scale(11.415 11.4154)">
<stop stop-color="#494139"/>
<stop offset="1" stop-color="#3B383C"/>
</radialGradient>
<radialGradient id="paint51_radial" cx="0" cy="0" r="1" gradientUnits="userSpaceOnUse" gradientTransform="translate(15.4034 17.1293) scale(6.86939 11.4157)">
<stop stop-color="#97856E"/>
<stop offset="1" stop-color="#746C76"/>
</radialGradient>
<radialGradient id="paint52_radial" cx="0" cy="0" r="1" gradientUnits="userSpaceOnUse" gradientTransform="translate(21.4303 17.1258) scale(11.284 11.4155)">
<stop stop-color="#867461"/>
<stop offset="1" stop-color="#645F66"/>
</radialGradient>
<radialGradient id="paint53_radial" cx="0" cy="0" r="1" gradientUnits="userSpaceOnUse" gradientTransform="translate(21.4165 17.1257) scale(11.117 11.4153)">
<stop stop-color="#564F43"/>
<stop offset="1" stop-color="#444246"/>
</radialGradient>
</defs>
</svg>
