<svg width="32" height="31" viewBox="0 0 32 31" fill="none" xmlns="http://www.w3.org/2000/svg">
<path d="M28.7536 11.8261V24.5797C28.7536 24.8872 28.6315 25.1821 28.4141 25.3996C28.1966 25.617 27.9017 25.7392 27.5942 25.7392C27.2867 25.7392 26.9918 25.617 26.7744 25.3996C26.5569 25.1821 26.4348 24.8872 26.4348 24.5797V19.942C26.4348 19.0196 26.0683 18.1348 25.416 17.4825C24.7637 16.8302 23.879 16.4638 22.9565 16.4638H19.4783V2.55074C19.4783 1.93575 19.234 1.34594 18.7991 0.911076C18.3642 0.476209 17.7744 0.231903 17.1594 0.231903H3.24639C2.6314 0.231903 2.04159 0.476209 1.60672 0.911076C1.17186 1.34594 0.927551 1.93575 0.927551 2.55074V28.058C0.927551 28.673 1.17186 29.2628 1.60672 29.6977C2.04159 30.1325 2.6314 30.3768 3.24639 30.3768H17.1594C17.7744 30.3768 18.3642 30.1325 18.7991 29.6977C19.234 29.2628 19.4783 28.673 19.4783 28.058V18.7826H22.9565C23.264 18.7826 23.5589 18.9048 23.7764 19.1222C23.9938 19.3396 24.116 19.6346 24.116 19.942V24.5797C24.116 25.5022 24.4824 26.3869 25.1347 27.0392C25.787 27.6915 26.6717 28.058 27.5942 28.058C28.5167 28.058 29.4014 27.6915 30.0537 27.0392C30.706 26.3869 31.0725 25.5022 31.0725 24.5797V9.50727C31.0725 8.89227 30.8282 8.30247 30.3933 7.8676C29.9584 7.43273 29.3686 7.18843 28.7536 7.18843V3.68698C28.7476 3.38351 28.6227 3.09453 28.406 2.88209C28.1892 2.66965 27.8977 2.55068 27.5942 2.55074C27.4328 2.55341 27.2735 2.58912 27.1264 2.65567C26.9793 2.72221 26.8473 2.81819 26.7387 2.93768C26.6301 3.05717 26.5471 3.19765 26.4948 3.35044C26.4425 3.50324 26.4221 3.66512 26.4348 3.82611V9.50727C26.4348 9.96589 26.5708 10.4142 26.8256 10.7955C27.0804 11.1769 27.4425 11.4741 27.8663 11.6496C28.29 11.8251 28.7562 11.871 29.206 11.7816C29.6558 11.6921 30.069 11.4712 30.3933 11.1469C30.7176 10.8226 30.9384 10.4095 31.0279 9.95965C31.1174 9.50984 31.0715 9.0436 30.896 8.61988C30.7205 8.19617 30.4232 7.83402 30.0419 7.57922C29.6606 7.32442 29.2123 7.18843 28.7536 7.18843V11.8261ZM17.1594 12.9855C17.1594 13.293 17.0373 13.5879 16.8198 13.8054C16.6024 14.0228 16.3075 14.1449 16 14.1449H4.40581C4.09831 14.1449 3.80341 14.0228 3.58598 13.8054C3.36854 13.5879 3.24639 13.293 3.24639 12.9855V6.02901C3.24639 5.72151 3.36854 5.4266 3.58598 5.20917C3.80341 4.99174 4.09831 4.86958 4.40581 4.86958H16C16.3075 4.86958 16.6024 4.99174 16.8198 5.20917C17.0373 5.4266 17.1594 5.72151 17.1594 6.02901V12.9855Z" fill="white"/>
</svg>
