<svg width="60" height="33" viewBox="0 0 60 33" fill="none" xmlns="http://www.w3.org/2000/svg">
<ellipse cx="30" cy="16.5" rx="30" ry="16.5" fill="white"/>
<path d="M57.4731 21.187C52.4242 26.7417 22.7211 20.0287 9.80831 19.8333C4.81275 19.8539 0.28944 22.5699 8.85661 27.0611C11.0192 28.1416 13.1728 29.218 15.3791 29.8966C34.2918 35.7135 53.8097 28.5202 57.4731 21.187V21.187Z" fill="#00558C"/>
<path d="M3.66066 22.765C2.96821 18.6495 8.97479 18.4846 17.6406 19.5993C29.0637 20.2662 44.9002 23.4829 53.6789 22.183C60.5694 21.2945 60.9922 11.6216 51.8689 6.43966C46.3551 2.9223 38.0682 1.01987 30.8721 0.985796C9.25376 0.883439 -5.00086 12.2116 3.66066 22.765V22.765Z" fill="#00936F"/>
<path d="M16.0598 5.65295V17.989H21.5402V13.4245L25.9762 18.0183H34.45L21.5966 5.63159L16.0598 5.65295Z" fill="white"/>
<path d="M27.6405 5.64555L33.064 5.65164V10.5401L37.6119 5.64745L45.2391 5.62183L37.6475 12.4912L45.2405 17.9859L36.6812 18.0006L27.6274 9.29711L27.6405 5.64555Z" fill="white"/>
</svg>
