<svg width="30" height="31" viewBox="0 0 30 31" fill="none" xmlns="http://www.w3.org/2000/svg">
<g clip-path="url(#clip0)">
<path d="M15.8241 28.3074C22.1828 28.3074 27.3854 23.1048 27.3854 16.7461C27.3854 10.3874 22.1828 5.18487 15.8241 5.18487C9.46544 5.18487 4.26288 10.3874 4.26288 16.7461C4.26288 23.1048 9.46544 28.3074 15.8241 28.3074ZM15.8241 2.29456C23.7725 2.29456 30.2757 8.79777 30.2757 16.7461C30.2757 24.6945 23.7725 31.1977 15.8241 31.1977C7.87577 31.1977 1.37256 24.6945 1.37256 16.7461C1.37256 8.79777 7.87577 2.29456 15.8241 2.29456ZM16.5467 9.52035V18.1913H8.59835V16.0236H14.379V9.52035H16.5467Z" fill="white"/>
</g>
<defs>
<clipPath id="clip0">
<rect width="30" height="31" fill="white"/>
</clipPath>
</defs>
</svg>
