<svg width="18" height="18" viewBox="0 0 18 18" fill="none" xmlns="http://www.w3.org/2000/svg">
<g clip-path="url(#clip0)">
<path d="M14.4362 11.88H3.56305L4.6079 2.52H6.47962V3.70828C6.26305 3.81656 6.11962 4.06828 6.11962 4.32C6.11962 4.71656 6.44305 5.04 6.83962 5.04C7.23618 5.04 7.55962 4.71656 7.55962 4.32C7.55962 4.06828 7.41618 3.81656 7.19962 3.70828V2.52H6.47962C6.47962 1.11656 7.59618 0 8.99962 0C10.4031 0 11.5196 1.11656 11.5196 2.52H10.7996C10.7996 1.51172 10.0079 0.72 8.99962 0.72C7.99133 0.72 7.19962 1.51172 7.19962 2.52H10.7996V3.70828C10.5831 3.81656 10.4396 4.06828 10.4396 4.32C10.4396 4.71656 10.7631 5.04 11.1596 5.04C11.5562 5.04 11.8796 4.71656 11.8796 4.32C11.8796 4.06828 11.7362 3.81656 11.5196 3.70828V2.52H13.3913L14.4362 11.88ZM17.987 11.0658C17.9827 11.0489 17.9771 11.032 17.9701 11.0166C17.9363 10.9392 17.8759 10.8731 17.7957 10.8352C17.7929 10.8338 17.7901 10.8323 17.7873 10.8323L15.2687 9.68062C15.0873 9.59766 14.8749 9.67781 14.792 9.85781C14.7104 10.0392 14.7891 10.253 14.9706 10.3345L16.8591 11.198L8.99962 15.7838L1.14009 11.198L3.02868 10.3359C3.21009 10.253 3.29024 10.0392 3.20727 9.85781C3.1243 9.67781 2.91055 9.59766 2.73055 9.68062L0.210555 10.8323C0.209148 10.8338 0.206336 10.8338 0.20493 10.8352C0.123367 10.8731 0.0628983 10.9392 0.0291484 11.0166C0.0221172 11.032 0.0164922 11.0489 0.0122734 11.0658V11.0672C0.00383593 11.0995 -0.00178908 11.1333 -0.000382834 11.1684V12.6C-0.000382834 12.728 0.0671172 12.8461 0.178211 12.9108L8.81821 17.9508C8.87446 17.9831 8.93633 18 8.99962 18C9.0629 18 9.12477 17.9831 9.18102 17.9508L17.821 12.9108C17.9321 12.8461 17.9996 12.728 17.9996 12.6V11.1684C18.001 11.1333 17.9954 11.0995 17.987 11.0658Z" fill="#00C9DD"/>
</g>
<defs>
<clipPath id="clip0">
<rect width="18" height="18" fill="white"/>
</clipPath>
</defs>
</svg>
