<svg width="130" height="144" viewBox="0 0 130 144" fill="none" xmlns="http://www.w3.org/2000/svg">
<path d="M56.8577 67.1987C56.6715 67.1986 56.4906 67.1371 56.3428 67.0238C56.1951 66.9105 56.0888 66.7517 56.0404 66.5719C55.943 66.2077 46.1982 30.0321 44.4788 18.5764C43.3565 11.0889 45.5841 6.65904 47.6508 4.26202C48.8255 2.8995 50.2852 1.81169 51.9266 1.07549C53.5681 0.339288 55.3512 -0.0273208 57.15 0.00158576C64.6756 0.00158576 68.5252 6.82844 69.5078 10.4367C70.3548 13.5791 71.8031 19.0465 71.8201 19.1015C71.8668 19.3156 71.8288 19.5394 71.714 19.726C71.5992 19.9125 71.4166 20.0474 71.2045 20.1022C70.9924 20.157 70.7673 20.1275 70.5765 20.0199C70.3856 19.9123 70.2439 19.7349 70.1811 19.525C70.1811 19.47 68.7285 14.0195 67.873 10.8729C67.0176 7.72627 63.6507 1.6956 57.15 1.6956C55.5954 1.67035 54.0542 1.98601 52.6348 2.62037C51.2154 3.25472 49.9521 4.19237 48.934 5.36736C47.1002 7.48487 45.1225 11.4743 46.1558 18.3265C47.8498 29.6891 57.5904 65.7588 57.6793 66.1315C57.7376 66.3482 57.7074 66.5793 57.5955 66.7738C57.4835 66.9684 57.2989 67.1105 57.0822 67.1691C57.0092 67.1896 56.9336 67.1996 56.8577 67.1987Z" fill="#263238"/>
<path d="M9.12472 107.804C5.58424 107.804 2.70442 106.58 1.25181 103.031C-1.66612 95.9207 7.41377 91.2621 17.9251 85.8625C21.3131 84.1261 24.8112 82.3262 28.1484 80.357C40.8069 72.8144 39.8922 67.7874 39.8795 67.7366C39.8328 67.5226 39.8708 67.2988 39.9856 67.1122C40.1004 66.9256 40.283 66.7907 40.4951 66.7359C40.7072 66.6811 40.9323 66.7106 41.1231 66.8182C41.3139 66.9259 41.4556 67.1032 41.5184 67.3131C41.6836 67.9399 42.7296 73.6656 29.0166 81.818C25.6286 83.8339 22.1051 85.6296 18.7001 87.3956C8.92991 92.4098 0.489502 96.7423 2.81877 102.413C5.4106 108.736 14.2745 105.733 22.8504 102.836C28.1612 101.041 33.1754 99.3426 36.3051 100.194C39.0918 100.956 39.6635 102.887 39.9684 103.925C40.0107 104.09 40.0659 104.251 40.1336 104.408C40.2795 104.574 40.3544 104.791 40.3422 105.012C40.3301 105.234 40.2318 105.441 40.0684 105.591C39.905 105.74 39.6896 105.82 39.4682 105.812C39.2469 105.805 39.0373 105.711 38.8842 105.551C38.6149 105.218 38.4304 104.824 38.3464 104.403C38.0753 103.484 37.7365 102.341 35.8604 101.829C33.2305 101.109 28.4534 102.731 23.3925 104.442C18.5561 106.047 13.364 107.804 9.12472 107.804Z" fill="#263238"/>
<path d="M98.1237 91.1474C97.9757 91.1498 97.8297 91.1133 97.7002 91.0416C97.6029 90.9877 97.5171 90.9151 97.4478 90.828C97.3785 90.7409 97.327 90.641 97.2963 90.5341C97.2657 90.4271 97.2564 90.3151 97.269 90.2045C97.2816 90.0939 97.3159 89.9869 97.3699 89.8896C101.791 81.9363 109.762 79.5858 116.8 77.5149C119.256 76.8414 121.672 76.0327 124.038 75.0925C126.736 73.9532 128.273 71.1581 127.54 68.7399C126.291 64.6065 118.854 61.3456 101.732 64.5896C94.0581 66.0422 88.1799 65.4366 84.254 62.7304C80.866 60.4139 80.2773 57.4028 80.2519 57.2757C80.2157 57.0572 80.2664 56.8333 80.3933 56.6518C80.5202 56.4702 80.7131 56.3457 80.9308 56.3047C81.1484 56.2637 81.3734 56.3096 81.5576 56.4325C81.7419 56.5554 81.8706 56.7456 81.9163 56.9623C81.9967 57.3604 83.9745 66.2286 101.397 62.9252C124.334 58.5801 128.438 65.8898 129.145 68.2487C130.141 71.5435 128.222 75.1602 124.682 76.6552C122.258 77.6254 119.781 78.4554 117.262 79.1411C110.206 81.2205 102.918 83.3762 98.8352 90.7155C98.7638 90.8426 98.6608 90.9492 98.5362 91.0249C98.4115 91.1006 98.2695 91.1428 98.1237 91.1474Z" fill="#263238"/>
<path d="M97.3615 136.611L55.1679 143.196C52.3559 143.62 49.4887 141.282 48.7688 137.936L26.8568 36.2705C25.5863 31.4764 29.9018 28.9227 32.7138 28.4823L72.8364 22.8327C75.6485 22.4092 78.5114 24.747 79.2356 28.0926L103.964 129.593C104.684 132.943 102.952 135.777 97.3615 136.611Z" fill="white"/>
<path d="M54.4903 143.463C51.818 143.463 49.2474 141.151 48.5613 137.983L26.6493 36.3125C26.4102 35.5188 26.347 34.6825 26.464 33.8619C26.581 33.0413 26.8755 32.256 27.3269 31.5608C28.6482 29.5449 31.0367 28.5285 32.6842 28.2744L72.8068 22.6207C75.7205 22.1675 78.6977 24.6027 79.4388 28.05L104.167 129.547C104.358 130.261 104.395 131.008 104.277 131.737C104.158 132.467 103.887 133.164 103.481 133.782C102.397 135.349 100.351 136.365 97.3911 136.81L55.2018 143.395C54.9668 143.437 54.7289 143.459 54.4903 143.463ZM73.514 22.9891C73.2971 22.9892 73.0804 23.0062 72.8661 23.0399L32.7435 28.6937C31.1892 28.9351 28.9319 29.8922 27.6826 31.7937C27.2628 32.4407 26.9895 33.1717 26.882 33.9355C26.7744 34.6993 26.8352 35.4773 27.0601 36.2151L48.9763 137.89C49.6751 141.125 52.4363 143.395 55.134 142.972L97.3276 136.369C100.169 135.946 102.122 134.984 103.13 133.519C103.504 132.948 103.754 132.304 103.862 131.63C103.97 130.955 103.934 130.265 103.756 129.606L79.028 28.1431C78.3885 25.1659 75.9958 22.9891 73.514 22.9891Z" fill="#263238"/>
<path d="M100.245 135.459L58.0604 142.044C55.2484 142.468 52.3855 140.126 51.6655 136.78L29.7408 35.1141C29.0209 31.7685 30.7149 28.7023 33.5269 28.2619L75.7205 21.6764C78.5325 21.2529 81.3996 23.5949 82.1196 26.9405L104.032 128.607C104.756 131.952 103.058 135.018 100.245 135.459Z" fill="#263238"/>
<path d="M57.3785 142.298C54.702 142.298 52.1313 139.986 51.4495 136.818L29.5332 35.152C29.3279 34.2901 29.299 33.3956 29.4482 32.5223C29.5974 31.6489 29.9216 30.8148 30.4014 30.0699C30.7519 29.5428 31.2073 29.0935 31.7393 28.7503C32.2712 28.4071 32.8682 28.1773 33.493 28.0752L75.6865 21.4898C78.6045 21.0324 81.5817 23.4675 82.327 26.9148L104.222 128.555C104.434 129.42 104.468 130.319 104.323 131.198C104.177 132.077 103.855 132.917 103.375 133.667C103.023 134.194 102.567 134.643 102.035 134.986C101.502 135.329 100.905 135.559 100.279 135.662L58.0858 142.247C57.8518 142.283 57.6152 142.3 57.3785 142.298ZM76.4022 21.8286C76.1853 21.8287 75.9686 21.8457 75.7543 21.8794L33.5607 28.4649C32.9922 28.5578 32.449 28.7671 31.9651 29.0798C31.4812 29.3924 31.0671 29.8016 30.7487 30.2817C30.2996 30.9834 29.9972 31.7688 29.8596 32.5905C29.722 33.4122 29.7522 34.2533 29.9483 35.063L51.8603 136.729C52.5591 139.96 55.3203 142.235 58.0222 141.811L100.216 135.221C100.784 135.128 101.326 134.919 101.81 134.606C102.293 134.294 102.706 133.884 103.024 133.405C103.475 132.704 103.778 131.918 103.917 131.096C104.055 130.275 104.025 129.433 103.828 128.623L81.912 26.9826C81.2725 24.0181 78.8797 21.8371 76.4065 21.8371L76.4022 21.8286Z" fill="#263238"/>
<path d="M100.453 123.38L52.8216 130.812L32.8789 38.2814L80.506 30.8447L100.453 123.38Z" fill="#33B368"/>
<path d="M52.8216 131.025C52.7739 131.025 52.7276 131.009 52.6906 130.979C52.6536 130.948 52.628 130.907 52.6183 130.86L32.6713 38.3245C32.6599 38.2677 32.6705 38.2087 32.701 38.1594C32.7178 38.1356 32.7392 38.1155 32.7639 38.1002C32.7886 38.0849 32.8162 38.0748 32.845 38.0704L80.4721 30.638C80.5257 30.6302 80.5803 30.6429 80.625 30.6735C80.6697 30.7041 80.7013 30.7503 80.7135 30.8031L100.66 123.334C100.667 123.363 100.667 123.392 100.661 123.42C100.655 123.449 100.643 123.476 100.627 123.499C100.593 123.546 100.543 123.578 100.487 123.588L52.8555 131.025H52.8216ZM33.133 38.4558L52.9783 130.576L100.19 123.207L80.3408 31.0869L33.133 38.4558Z" fill="#263238"/>
<path d="M44.5694 72.5308L42.4 76.9668L42.7805 77.1528L44.9498 72.7168L44.5694 72.5308Z" fill="white"/>
<path d="M62.7617 35.3571L46.5233 68.5625L46.9038 68.7485L63.1422 35.5432L62.7617 35.3571Z" fill="white"/>
<path d="M57.6894 35.6583L50.8937 48.6738L51.2691 48.8698L58.0648 35.8543L57.6894 35.6583Z" fill="white"/>
<path d="M89.5737 109.348L82.0356 124.258L82.4136 124.449L89.9517 109.539L89.5737 109.348Z" fill="white"/>
<path d="M93.0682 102.458L90.7256 107.092L91.1035 107.283L93.4462 102.649L93.0682 102.458Z" fill="white"/>
<path d="M62.359 29.3042L49.2008 31.3412C48.9209 31.3567 48.6455 31.2664 48.429 31.0884C48.2125 30.9103 48.0708 30.6575 48.0319 30.3799C47.9898 30.2584 47.9721 30.1297 47.9798 30.0014C47.9874 29.873 48.0203 29.7474 48.0766 29.6318C48.1328 29.5161 48.2113 29.4127 48.3076 29.3274C48.4038 29.2421 48.5159 29.1767 48.6375 29.1348L48.7222 29.1094L61.872 27.1062C62.1518 27.0907 62.4273 27.181 62.6438 27.359C62.8603 27.5371 63.002 27.79 63.0408 28.0675C63.1177 28.3152 63.093 28.5832 62.9723 28.8127C62.8516 29.0422 62.6447 29.2144 62.3971 29.2915L62.359 29.3042Z" fill="white"/>
<path d="M49.0779 31.5782C48.8353 31.5506 48.6036 31.4621 48.4044 31.3209C48.2051 31.1797 48.0448 30.9905 47.9383 30.7708C47.8318 30.551 47.7826 30.3079 47.7953 30.0641C47.8079 29.8202 47.882 29.5835 48.0107 29.376C48.088 29.2622 48.1882 29.1658 48.3049 29.0929C48.4216 29.02 48.5521 28.9722 48.6883 28.9525L61.8719 26.8816C62.2045 26.8606 62.5329 26.9644 62.7929 27.1728C63.0529 27.3811 63.2259 27.679 63.2779 28.0081C63.3213 28.189 63.3275 28.3769 63.2962 28.5603C63.2649 28.7438 63.1968 28.919 63.0958 29.0753C63.0176 29.1892 62.9167 29.2856 62.7993 29.3585C62.6819 29.4314 62.5507 29.4792 62.414 29.4988L49.2515 31.5528C49.1944 31.5657 49.1363 31.5742 49.0779 31.5782ZM62.0117 27.2966H61.9185L48.7433 29.3548C48.5817 29.385 48.4386 29.4779 48.3452 29.6131C48.2761 29.7221 48.2299 29.8441 48.2095 29.9715C48.1892 30.0989 48.195 30.2292 48.2267 30.3543C48.2567 30.5776 48.3678 30.7821 48.5388 30.9289C48.7098 31.0757 48.9288 31.1546 49.1541 31.1505L62.3166 29.0965C62.3968 29.0821 62.4731 29.0514 62.5409 29.0062C62.6086 28.961 62.6664 28.9024 62.7105 28.8339C62.8503 28.6008 62.8918 28.3218 62.8259 28.0581C62.7599 27.7944 62.592 27.5677 62.3589 27.4279C62.2477 27.363 62.1258 27.3185 61.999 27.2966H62.0117Z" fill="#263238"/>
<path d="M79.2355 130.986C78.9941 129.872 78.0413 129.085 77.118 129.233C76.1948 129.381 75.6188 130.402 75.8475 131.515C76.0762 132.629 77.0418 133.417 77.965 133.269C78.8883 133.121 79.4727 132.1 79.2355 130.986Z" fill="white"/>
<path d="M77.7449 133.498C76.7877 133.498 75.8687 132.681 75.6273 131.563C75.5543 131.255 75.5444 130.936 75.5983 130.625C75.6521 130.313 75.7686 130.016 75.9407 129.75C76.0677 129.558 76.2335 129.394 76.4275 129.269C76.6215 129.145 76.8394 129.062 77.0672 129.026C78.1133 128.861 79.1848 129.721 79.4389 130.945C79.5127 131.251 79.5233 131.57 79.4702 131.881C79.417 132.191 79.3012 132.488 79.1297 132.753C79.0009 132.945 78.8342 133.109 78.6397 133.234C78.4452 133.36 78.2272 133.444 77.9989 133.481C77.9148 133.493 77.8299 133.499 77.7449 133.498ZM77.3214 129.429H77.1181C76.9471 129.457 76.7837 129.52 76.6381 129.614C76.4924 129.708 76.3675 129.831 76.2711 129.975C76.1326 130.193 76.0395 130.438 75.9973 130.693C75.9551 130.948 75.9647 131.21 76.0254 131.461C76.2414 132.465 77.0927 133.181 77.9185 133.049C78.09 133.022 78.2539 132.96 78.3997 132.866C78.5456 132.772 78.6702 132.648 78.7655 132.503C78.9059 132.286 79.0002 132.043 79.0424 131.788C79.0847 131.533 79.074 131.272 79.0111 131.021C78.944 130.606 78.7415 130.224 78.4351 129.936C78.1287 129.648 77.7356 129.47 77.3171 129.429H77.3214Z" fill="#263238"/>
<path d="M73.5691 97.2929L54.1218 100.643C52.8513 100.863 52.0043 101.913 52.2076 102.981L54.7147 115.055L54.7825 115.368L56.0911 121.678L59.7544 116.52L76.9571 113.555C78.2276 113.335 79.0746 112.285 78.8671 111.222L76.271 98.8302C76.0635 97.763 74.848 97.0727 73.5691 97.2929Z" fill="white"/>
<path d="M55.9811 122.199L52.0001 103.023C51.9476 102.764 51.9487 102.497 52.0033 102.238C52.058 101.98 52.165 101.735 52.3178 101.519C52.5251 101.23 52.7881 100.985 53.0914 100.799C53.3947 100.613 53.732 100.489 54.0838 100.435L73.5352 97.0852C74.9201 96.8481 76.2499 97.6104 76.4998 98.7793L79.0704 111.171C79.1224 111.429 79.1215 111.695 79.0676 111.953C79.0137 112.21 78.9081 112.454 78.757 112.67C78.5489 112.96 78.2852 113.205 77.9813 113.392C77.6774 113.579 77.3393 113.704 76.9868 113.759L59.873 116.702L55.9811 122.199ZM74.0477 97.4664C73.9056 97.4663 73.7639 97.479 73.6242 97.5045L54.1727 100.854C53.8764 100.899 53.5919 101.001 53.3359 101.157C53.0799 101.313 52.8576 101.518 52.682 101.761C52.5627 101.929 52.4791 102.12 52.4361 102.322C52.3931 102.523 52.3918 102.732 52.4321 102.934L56.2182 121.144L59.6401 116.312L76.9275 113.348C77.5152 113.251 78.0405 112.925 78.3886 112.441C78.5082 112.273 78.5924 112.081 78.6361 111.879C78.6798 111.676 78.682 111.467 78.6427 111.264L76.0678 98.8767C75.9068 98.0424 75.0387 97.4664 74.0477 97.4664Z" fill="#263238"/>
<path d="M72.1758 104.548C72.1885 104.38 72.1757 104.212 72.1376 104.048V103.955C71.8073 102.354 69.9863 101.329 68.0763 101.655C66.5728 101.914 65.4632 102.926 65.2176 104.141C64.7974 103.593 64.2313 103.174 63.5841 102.933C62.937 102.692 62.235 102.638 61.5586 102.777C59.6486 103.108 58.3696 104.671 58.6999 106.267C58.6999 106.267 58.6491 107.635 61.8931 109.621C64.5569 111.256 66.8058 112.586 66.8481 112.531C66.9032 112.56 68.5209 110.583 70.4225 108.156C71.1644 107.287 71.7271 106.279 72.0784 105.191C72.124 105.045 72.1552 104.895 72.1715 104.743C72.1685 104.678 72.1699 104.612 72.1758 104.548Z" fill="#92E3A9"/>
<path d="M66.8143 112.738C66.7858 112.737 66.7582 112.728 66.7338 112.713C66.3399 112.582 65.2473 111.951 61.7619 109.812C58.6788 107.919 58.4797 106.53 58.467 106.301C58.3962 105.931 58.4006 105.55 58.4799 105.181C58.5592 104.812 58.7118 104.463 58.9286 104.154C59.2328 103.735 59.6169 103.38 60.0588 103.109C60.5007 102.839 60.9917 102.659 61.5035 102.579C62.1499 102.455 62.8166 102.493 63.4451 102.688C64.0735 102.883 64.6444 103.229 65.1075 103.697C65.3571 103.103 65.7564 102.585 66.2664 102.192C66.7764 101.8 67.3796 101.546 68.017 101.456C70.0371 101.109 71.9683 102.214 72.324 103.921V103.989C72.367 104.179 72.3827 104.374 72.3706 104.569C72.3734 104.636 72.3663 104.703 72.3494 104.768C72.3317 104.933 72.2991 105.096 72.252 105.255C71.8897 106.366 71.3143 107.396 70.558 108.287C68.089 111.447 67.2843 112.408 66.9667 112.662C66.9526 112.682 66.9335 112.699 66.9112 112.709C66.8889 112.719 66.8642 112.724 66.8397 112.722L66.8143 112.738ZM62.2574 102.913C62.0315 102.912 61.8061 102.932 61.584 102.973C61.1272 103.04 60.6887 103.198 60.2943 103.438C59.9 103.678 59.558 103.995 59.2886 104.37C59.1027 104.634 58.972 104.933 58.9044 105.249C58.8367 105.565 58.8334 105.891 58.8948 106.208V106.259C58.8948 106.259 58.9329 107.551 61.9863 109.427C64.4342 110.926 66.3315 112.04 66.7888 112.273C67.1361 111.9 68.504 110.223 70.2362 108.008C70.9593 107.158 71.5102 106.176 71.8582 105.115C71.899 104.977 71.9273 104.835 71.9429 104.692V104.518C71.9541 104.376 71.9441 104.234 71.9132 104.095C71.909 104.072 71.909 104.049 71.9132 104.027C71.5998 102.507 69.8889 101.55 68.1017 101.863C66.7296 102.096 65.6496 103.028 65.4167 104.179C65.4112 104.207 65.4003 104.232 65.3847 104.255C65.369 104.278 65.349 104.298 65.3257 104.313C65.3024 104.328 65.2764 104.338 65.2491 104.343C65.2218 104.347 65.1938 104.347 65.1668 104.34C65.1404 104.336 65.1151 104.326 65.0925 104.312C65.07 104.297 65.0506 104.278 65.0355 104.256C64.7137 103.826 64.2934 103.48 63.81 103.246C63.3265 103.012 62.7941 102.898 62.2574 102.913Z" fill="#263238"/>
<path d="M34.1834 108.948C34.0606 109.405 33.7599 109.719 33.4889 109.647C33.2178 109.575 33.1119 109.151 33.239 108.694C33.366 108.236 33.6625 107.919 33.9335 107.991C34.2046 108.063 34.3062 108.49 34.1834 108.948Z" fill="#263238"/>
<path d="M32.485 109.689C32.3622 110.146 32.0615 110.46 31.7905 110.392C31.5194 110.324 31.4136 109.892 31.5364 109.435C31.6592 108.977 31.9599 108.664 32.2351 108.736C32.5104 108.808 32.6078 109.219 32.485 109.689Z" fill="#263238"/>
<path d="M33.5481 111.548C33.4253 112.006 33.1246 112.323 32.8536 112.251C32.5825 112.179 32.4809 111.751 32.6037 111.294C32.7265 110.837 33.0272 110.523 33.2983 110.595C33.5693 110.667 33.6709 111.091 33.5481 111.548Z" fill="#263238"/>
</svg>
