<svg width="159" height="133" viewBox="0 0 159 133" fill="none" xmlns="http://www.w3.org/2000/svg">
<path fill-rule="evenodd" clip-rule="evenodd" d="M50.9126 116.752C67.7645 110.598 85.995 120.598 116.136 120.762C146.277 120.925 164.635 90.9706 151.232 78.0066C137.829 65.0427 131.586 51.1747 137.453 32.6203C143.32 14.0658 148.54 5.61368 137.453 2.4721C126.366 -0.669473 103.09 9.54167 86.5682 12.1842C70.346 17.9941 45.4125 10.8805 29.8623 18.5103C14.3121 26.1402 18.7645 33.1811 17.8013 41.693C16.8382 50.2049 22.595 52.0801 25.3787 65.0686C28.1625 78.0571 2.76256 96.6768 11.5791 107.763C20.3957 118.849 34.0607 122.906 50.9126 116.752Z" fill="#CFF69A"/>
<path d="M54.3432 86.1853L52.7142 86.1897L52.7051 79.064L54.3341 79.0607L54.3432 86.1853Z" fill="#616161"/>
<path d="M53.3709 81.1759L52.9628 79.6111L60.6486 76.0965L61.0558 77.6612L53.3709 81.1759" fill="url(#paint0_linear)"/>
<path d="M54.8645 85.5572C54.0673 84.1292 53.2702 83.1521 53.2693 82.3992C53.2685 81.6475 46.7954 85.3493 45.5496 89.0413C45.5496 89.0413 51.0579 86.0179 52.9918 87.4437C54.9256 88.8695 55.3808 89.3214 55.3808 89.3214L56.629 88.2633L54.8645 85.5572Z" fill="#454545"/>
<path d="M121.472 89.5982C115.736 87.7446 98.7747 88.0291 94.2701 88.4909C89.7663 88.9526 69.0648 89.944 65.2632 89.1551C61.4616 88.3661 53.2875 88.2644 41.525 87.8858C29.7633 87.5072 31.8186 95.6308 41.5349 95.6089C51.2512 95.5881 60.8486 98.4791 70.2378 98.9102C79.6262 99.3402 91.2466 95.6362 100.672 95.7019C110.588 95.7708 134.773 93.8986 121.472 89.5982Z" fill="#FFBF55"/>
<path d="M83.6037 58.0164L83.574 58.0065C83.4699 57.9737 83.4054 57.8347 83.431 57.6968L84.5966 51.3262C84.6223 51.1894 84.7263 51.1041 84.8304 51.138L84.861 51.1478C84.9651 51.1807 85.0287 51.3196 85.0039 51.4575L83.8383 57.8281C83.8127 57.9649 83.7078 58.0503 83.6037 58.0164Z" fill="#545454"/>
<path d="M84.2176 54.8092L84.3167 54.2708L89.5028 55.9351L89.4037 56.4746L84.2176 54.8092" fill="#545454"/>
<path d="M84.6512 56.0862C84.6512 56.0862 84.4612 56.1474 84.3687 56.1201C84.3687 56.1201 84.2035 56.0544 84.0837 56.0172C84.0449 56.0063 84.0119 55.9975 83.9896 55.9942C83.8979 55.9822 83.693 55.9931 83.4782 55.8815C83.2635 55.771 82.4299 54.9788 82.4299 54.9788L82.6257 54.2599L82.7364 53.553C82.7364 53.553 84.1275 53.2346 84.3365 53.3068C84.3563 53.3145 84.377 53.3221 84.3952 53.332C84.5678 53.4162 84.6694 53.5749 84.7562 53.6329C84.7875 53.6537 85.0924 53.8955 85.1089 54.0345C85.1312 54.227 85.0874 54.3726 85.013 54.4634C85.013 54.4634 85.0444 54.8431 84.9379 55.0587C84.9379 55.0587 84.9759 55.4088 84.7859 55.6277C84.7859 55.6277 84.7942 55.9877 84.6512 56.0862" fill="#EEA886"/>
<path d="M74.1451 74.872L73.8452 75.7343C73.8452 75.7343 72.5789 75.1116 72.5723 75.0908C72.5665 75.0701 72.9192 73.8938 72.9192 73.8938L74.1451 74.872Z" fill="#515269"/>
<path d="M84.9866 74.8282L85.3385 76.184C85.3385 76.184 83.9499 76.5921 83.7483 76.5713C83.7301 76.5692 83.4831 75.0361 83.4831 75.0361L84.9866 74.8282" fill="#6A6B8A"/>
<path d="M83.5921 76.1763C83.5921 76.1763 84.5628 75.8251 84.5908 75.7693C84.6198 75.7135 84.9758 75.3939 85.1592 75.4344C85.3426 75.4749 85.3599 75.7649 85.5433 75.824C85.7267 75.8831 87.1459 76.4816 87.3433 76.6337C87.54 76.7869 88.4776 76.3328 88.6593 76.6545C88.8402 76.9762 89.0162 77.8221 87.5424 78.1175C86.0679 78.414 84.49 79.2894 84.1373 79.1713C83.7837 79.0531 83.5392 76.6972 83.5921 76.1763" fill="#202338"/>
<path d="M72.4724 74.861C72.4724 74.861 73.3728 75.3677 73.4207 75.348C73.4678 75.3283 73.8841 75.3688 74.0064 75.546C74.1278 75.7233 74.0089 75.9597 74.1221 76.1511C74.2344 76.3426 74.8779 77.4653 75.0654 77.7247C75.2191 77.9369 76.0617 78.1328 76.3327 78.5059C76.5367 78.7872 76.2988 79.9153 74.8655 79.3791C73.4694 78.8583 71.7413 77.9534 71.5257 77.5813C71.3092 77.2093 72.1948 75.2156 72.4724 74.861Z" fill="#202338"/>
<path d="M73.3736 57.9595C73.3736 57.9595 77.3338 60.2814 78.1731 61.0759C79.0132 61.8714 80.8513 63.3355 80.9124 63.6944C80.9744 64.0533 81.337 63.702 80.6885 65.4988C80.0392 67.2944 76.9662 71.6199 76.6779 72.0893C76.378 72.5807 74.246 75.5176 74.246 75.5176L72.6376 73.9189C72.6376 73.9189 75.7188 67.8962 76.1641 67.011C76.6102 66.1258 76.8109 65.9944 76.5466 65.6049C76.2814 65.2143 75.2257 65.223 69.7868 62.2522C69.2432 61.9556 67.7274 61.2695 67.5267 60.3033C67.1632 58.5591 67.4696 56.3455 68.9293 55.3694C70.389 54.3934 73.3736 57.9595 73.3736 57.9595" fill="#292C47"/>
<path d="M75.2339 41.0809C75.1992 41.1214 75.1612 41.21 75.1224 41.3326C75.0654 41.5087 75.0059 41.7528 74.9481 42.0219C74.7697 42.8546 74.6078 43.9215 74.6078 43.9215C74.6078 43.9215 72.3402 41.4267 72.6599 41.2691C72.9796 41.1115 73.2158 40.3806 73.2158 40.3806C73.2158 40.3806 75.4727 40.7997 75.2339 41.0809" fill="#EEA886"/>
<path d="M73.31 57.0162C73.31 57.0162 77.4007 58.2812 78.4118 58.7068C79.423 59.1325 81.1635 59.882 81.6311 60.2344C81.8797 60.4215 82.2597 60.7005 82.7157 62.657C83.2336 64.875 84.4166 71.1111 84.6842 72.0817C84.8528 72.6923 85.3368 75.0919 85.3368 75.0919L83.2485 75.5767C83.2485 75.5767 80.7521 68.9467 80.5481 67.1784C80.2044 64.2021 79.3329 64.189 78.981 63.9176C78.6283 63.6473 76.9348 64.1605 70.9036 63.5368C70.3006 63.4744 68.6534 63.4383 68.2255 62.5782C67.4531 61.0233 66.6733 59.2583 67.8678 57.6903C69.0623 56.1233 73.31 57.0162 73.31 57.0162Z" fill="#292C47"/>
<path d="M76.0245 34.812C76.0245 34.812 76.7341 36.4293 76.5739 36.8703C76.4128 37.3113 77.3149 38.3759 77.167 38.6025C77.0191 38.829 76.7151 39.1036 76.7201 39.1693C76.7259 39.2349 76.4615 41.3457 76.1145 41.3939C75.7676 41.442 73.3935 41.2833 73.1952 40.3007C72.9969 39.317 72.4154 37.1646 72.2783 36.7641C72.1411 36.3647 73.5058 33.2713 76.0245 34.812" fill="#EEA886"/>
<path d="M73.0977 34.5056C72.9003 34.7004 72.7409 34.9061 72.6136 35.1173C72.4575 35.2136 71.5406 35.8198 71.7322 36.4731C71.9899 37.3506 73.0308 39.7011 73.1192 39.9473C73.1308 39.9801 73.1308 39.9177 73.1217 39.7864C73.1845 38.9548 73.9552 38.0225 73.9552 38.0225L74.3674 37.7752C74.1518 37.2467 74.2361 36.751 74.2361 36.751C74.7012 36.0879 76.2501 35.3712 76.2501 35.3712C76.0254 32.443 74.1345 33.4825 73.0977 34.5056" fill="#784A36"/>
<path d="M73.8948 37.5071C73.7775 37.2719 73.1637 37.3123 73.2546 38.005C73.3446 38.6987 74.0988 39.2535 74.2624 38.9438C74.426 38.6342 74.0187 37.7577 73.8948 37.5071Z" fill="#EEA886"/>
<path d="M72.6598 41.2691C72.6598 41.2691 69.7934 43.4893 69.1515 47.3585C68.5088 51.2267 67.3465 58.0197 67.3275 58.8228C67.3275 58.8228 71.2068 56.34 73.31 57.0163C73.31 57.0163 74.6259 50.7124 75.3207 49.222C76.0154 47.7328 74.9753 44.2367 74.9753 44.2367C74.9753 44.2367 73.9832 42.139 72.6598 41.2691" fill="#FFBF55"/>
<path d="M75.1223 41.3326C75.0653 41.5087 75.0058 41.7527 74.948 42.0219C74.6085 41.8359 73.9609 41.047 73.941 41.0229C74.2112 41.1608 75.1223 41.3326 75.1223 41.3326Z" fill="#A77860"/>
<path d="M73.9229 44.2607C73.9229 44.2607 74.6077 45.541 75.0307 46.5116C75.5114 47.6113 75.9831 48.6968 76.0872 48.9419C76.2995 49.4387 77.0512 49.7024 77.3842 49.8906C77.6898 50.0635 82.7578 53.3068 82.8223 53.2991C82.8867 53.2915 82.5224 55.2928 82.5224 55.2928C82.5224 55.2928 75.2297 52.3329 74.9109 51.9477C74.592 51.5637 73.6461 49.814 73.2587 49.0929C72.8903 48.4057 72.3244 47.2797 72.0246 46.7939C71.69 46.2512 70.9853 44.3942 71.8767 43.4641C73.015 42.2769 73.6478 43.7169 73.9229 44.2607" fill="#FFBF55"/>
<path d="M71.9866 46.7293C71.9866 46.7293 72.8085 49.6673 73.3025 50.6686C73.7957 51.6698 74.34 52.5014 74.34 52.5014L74.6002 51.486C74.6002 51.486 72.4773 47.6331 71.9866 46.7293Z" fill="#A17836"/>
<path d="M109.347 80.5937L79.1743 80.6616L79.1735 79.9843L109.346 79.9164L109.347 80.5937Z" fill="#3B3B3B"/>
<path d="M119.345 78.6898L112.128 78.7062L112.122 74.0393L119.339 74.0229L119.345 78.6898Z" fill="#757575"/>
<path d="M115.135 74.9354L105.987 74.9562L105.982 71.4186L115.131 71.3978L115.135 74.9354Z" fill="#3B3B3B"/>
<path d="M86.7676 64.688L87.5351 64.6858L92.6625 75.3622L105.987 75.3327L105.982 71.4186C105.982 71.4186 103.527 62.3923 86.7676 64.688Z" fill="url(#paint1_linear)"/>
<path d="M60.9898 35.2202L62.9782 35.2158L70.056 63.6725L67.9586 63.6769L60.9898 35.2202Z" fill="#545454"/>
<path d="M77.6775 72.2349L62.4578 72.2688L62.4438 61.3604L77.6634 61.3264L77.6775 72.2349Z" fill="#545454"/>
<path d="M95.9644 79.946L81.2759 79.9799L81.2709 76.4422L95.9594 76.4083L95.9644 79.946Z" fill="#474747"/>
<path d="M91.5532 74.0852L93.9471 79.9503L106.846 79.9219L109.736 74.0447L91.5532 74.0852" fill="#616161"/>
<path d="M105.109 71.4208L116.381 71.3956L116.378 69.589L115.96 68.9872C115.96 68.9872 116.842 58.674 111.295 58.6861C105.748 58.6992 95.9676 58.7211 95.6694 58.7211C95.3712 58.7222 91.8496 56.6978 91.2524 56.0216C90.6551 55.3453 90.2157 54.238 88.2124 57.3084C87.6755 58.1313 86.6644 59.1938 85.9482 59.045C85.2328 58.8951 82.8471 58.8261 82.7281 59.4279C82.61 60.0309 84.405 64.5424 85.2997 64.6912C86.1943 64.84 102.295 63.4482 105.109 71.4208Z" fill="url(#paint2_linear)"/>
<path d="M118.072 82.7571C118.078 88.2436 114.726 92.6993 110.584 92.7091C106.441 92.7179 103.078 88.2775 103.07 82.791C103.064 77.3034 106.416 72.8477 110.559 72.8378C114.701 72.8291 118.064 77.2695 118.072 82.7571Z" fill="#3D3D3D"/>
<path d="M115.742 82.7625C115.746 86.5453 113.436 89.6168 110.58 89.6234C107.724 89.6299 105.405 86.5683 105.401 82.7855C105.396 79.0027 107.706 75.9312 110.562 75.9246C113.418 75.9181 115.737 78.9797 115.742 82.7625Z" fill="#EDEDED"/>
<path d="M81.4426 77.194C81.4534 85.799 76.1962 92.7868 69.6999 92.801C63.2045 92.8153 57.9292 85.8515 57.9176 77.2476C57.9069 68.6425 63.164 61.6547 69.6603 61.6405C76.1566 61.6252 81.4311 68.5889 81.4426 77.194Z" fill="#3D3D3D"/>
<path d="M77.6841 77.2027C77.6915 83.058 74.1138 87.8124 69.6943 87.8223C65.2739 87.8321 61.6846 83.0941 61.6763 77.2388C61.6689 71.3836 65.2467 66.6291 69.667 66.6193C74.0873 66.6094 77.6766 71.3475 77.6841 77.2027" fill="#EDEDED"/>
<path d="M81.7574 66.5919L77.7691 61.3265L62.0332 61.3615L58.0036 66.7178L57.3237 66.7189L61.8936 60.6458L78.1698 60.6086L82.7966 66.7178L81.7574 66.5919" fill="#538742"/>
<path d="M65.2268 60.6382L62.4429 60.6447L62.4305 50.9684L65.2144 50.9618L65.2268 60.6382Z" fill="#545454"/>
<path d="M75.9667 60.6239C75.9262 57.7866 75.7313 54.4393 75.4801 53.7445C74.5194 53.3921 67.9893 53.6197 63.5342 53.901L63.4913 52.6973C63.5202 52.6962 66.4643 52.5113 69.4357 52.4161C75.6313 52.2169 75.9064 52.5802 76.1071 52.845C76.2674 53.0573 76.5664 53.4512 76.7597 57.1683C76.8506 58.9093 76.8754 60.5845 76.8754 60.602L75.9667 60.6239" fill="#545454"/>
<path d="M97.8593 73.6442L96.6664 73.6475L96.6293 44.9709L97.823 44.9676L97.8593 73.6442Z" fill="#545454"/>
<path d="M48.7019 89.0916C48.7019 89.0916 49.2281 85.5638 46.2352 85.6404C43.2432 85.7181 45.0977 84.7967 43.3167 84.3065C41.5357 83.8174 40.4031 86.925 38.5089 86.6471C36.6147 86.368 33.9547 88.423 33.5607 90.6771C33.1667 92.9312 48.7019 89.0916 48.7019 89.0916" fill="#FFBF55"/>
<defs>
<linearGradient id="paint0_linear" x1="52.9619" y1="78.646" x2="61.0578" y2="78.6356" gradientUnits="userSpaceOnUse">
<stop stop-color="#698C33"/>
<stop offset="0.0958549" stop-color="#698C33"/>
<stop offset="1" stop-color="#677D2E"/>
</linearGradient>
<linearGradient id="paint1_linear" x1="95.9586" y1="73.9726" x2="99.5511" y2="54.604" gradientUnits="userSpaceOnUse">
<stop stop-color="#545454"/>
<stop offset="1" stop-color="#677D2E"/>
</linearGradient>
<linearGradient id="paint2_linear" x1="110.665" y1="44.7838" x2="94.8081" y2="61.5536" gradientUnits="userSpaceOnUse">
<stop stop-color="#698C33"/>
<stop offset="0.0958549" stop-color="#698C33"/>
<stop offset="1" stop-color="#677D2E"/>
</linearGradient>
</defs>
</svg>
