<svg width="120" height="121" viewBox="0 0 120 121" fill="none" xmlns="http://www.w3.org/2000/svg">
<g clip-path="url(#clip0)">
<path d="M9.04634 78.2039C9.83778 78.708 10.7012 79.068 11.5646 79.2841C13.9389 79.7882 16.3132 79.3561 18.1839 78.1319C20.0546 76.9797 21.4936 75.0354 21.9972 72.7311C23.0765 68.0504 20.1985 63.3697 15.5218 62.2895C10.8451 61.2094 6.16836 64.1618 5.08912 68.8425C4.22573 72.5871 5.95252 76.3316 9.04634 78.2039Z" fill="#EBEBEB"/>
<path d="M10.917 69.8507C10.917 71.2909 12.1401 72.4431 13.5791 72.4431C15.0181 72.4431 16.1693 71.2189 16.1693 69.7787C16.1693 68.2664 14.9461 67.1143 13.5071 67.1143C12.0682 67.1863 10.845 68.3384 10.917 69.8507Z" fill="white"/>
<path d="M9.04633 77.1238V78.204C9.83777 78.7081 10.7012 79.0681 11.5646 79.2841C13.9389 79.7882 16.3132 79.3561 18.1839 78.132V77.0518C18.1839 74.5314 16.0974 72.5151 13.5791 72.5151C11.0609 72.5151 9.04633 74.6034 9.04633 77.1238Z" fill="white"/>
<path d="M105.674 42.9906C106.178 43.2787 106.754 43.4947 107.329 43.6387C108.912 43.9988 110.423 43.7107 111.718 42.9186C112.869 42.1265 113.805 40.9023 114.164 39.3901C114.884 36.2936 113.013 33.2692 109.919 32.5491C106.825 31.829 103.804 33.7732 103.084 36.7977C102.508 39.3181 103.66 41.7665 105.674 42.9906Z" fill="#EBEBEB"/>
<path d="M106.897 37.446C106.897 38.4542 107.689 39.1743 108.624 39.1743C109.631 39.1743 110.351 38.3822 110.351 37.446C110.351 36.4379 109.56 35.7178 108.624 35.7178C107.689 35.7178 106.897 36.5099 106.897 37.446Z" fill="white"/>
<path d="M105.674 42.2706V42.9907C106.178 43.2787 106.753 43.4947 107.329 43.6388C108.912 43.9988 110.423 43.7108 111.718 42.9187L111.646 42.1985C111.646 40.5423 110.279 39.2461 108.624 39.2461C106.969 39.2461 105.674 40.6143 105.674 42.2706Z" fill="white"/>
<path d="M49.0501 28.5882H11.1328V2.59229H49.0501V28.5882ZM11.4206 28.3002H48.7623V2.88033H11.4206V28.3002Z" fill="#EBEBEB"/>
<path d="M14.0828 4.24892C14.0828 4.68098 13.723 5.04104 13.2913 5.04104C12.9316 5.04104 12.5718 4.68098 12.5718 4.24892C12.5718 3.81685 12.9316 3.52881 13.2913 3.52881C13.723 3.52881 14.0828 3.81685 14.0828 4.24892Z" fill="#A5A5A5"/>
<path d="M17.1766 4.24843C17.1766 4.68049 16.8168 5.04055 16.3851 5.04055C16.0254 5.04055 15.6656 4.68049 15.6656 4.24843C15.6656 3.81636 16.0254 3.52832 16.3851 3.52832C16.8168 3.52832 17.1766 3.81636 17.1766 4.24843Z" fill="#EBEBEB"/>
<path d="M20.2704 4.24843C20.2704 4.68049 19.9106 5.04055 19.479 5.04055C19.0473 5.04055 18.7595 4.68049 18.7595 4.24843C18.7595 3.81636 19.0473 3.52832 19.479 3.52832C19.9106 3.52832 20.2704 3.81636 20.2704 4.24843Z" fill="#FFC626"/>
<path d="M48.9063 5.90474H11.2767V5.6167H48.9063V5.90474Z" fill="#EBEBEB"/>
<path d="M24.4433 46.2311L4.65727 48.9675L2.93048 36.3656L22.7166 33.7012L24.4433 46.2311Z" fill="#EBEBEB"/>
<path d="M22.7166 33.7012C21.9971 34.5653 21.2776 35.4294 20.63 36.2936C19.9105 37.0857 19.191 37.9498 18.4715 38.8139C17.6801 39.6781 16.9606 40.5422 16.1692 41.4063C16.1692 41.4783 16.1692 41.4783 16.1692 41.4783C15.4497 42.2705 14.8021 43.0626 14.1546 43.7827L14.0107 43.9267L13.9387 43.8547C13.0753 43.2786 12.212 42.7025 11.3486 42.1264H11.2766C10.3413 41.4783 9.33398 40.8302 8.39863 40.1821C7.46329 39.534 6.5999 38.958 5.66456 38.3099C4.72922 37.6618 3.86582 37.0137 2.93048 36.3656C3.86582 36.9417 4.80116 37.5177 5.73651 38.0938C6.67185 38.5979 7.60719 39.174 8.54253 39.7501C9.54982 40.3982 10.5571 41.0463 11.6364 41.7664C12.4278 42.2705 13.1473 42.7025 13.9387 43.2066C14.5143 42.5585 15.1619 41.8384 15.7375 41.1903C15.7375 41.1903 15.7375 41.1903 15.8094 41.1903C16.6009 40.2542 17.3923 39.318 18.2557 38.4539C18.9752 37.6618 19.6947 36.8696 20.4861 36.0775C21.2056 35.2854 21.9251 34.4933 22.7166 33.7012Z" fill="white"/>
<path d="M11.7083 42.0542H11.6364C11.5644 42.1262 11.4925 42.2702 11.4205 42.3422C10.9169 42.8463 10.4852 43.2784 10.0535 43.7825C9.4779 44.3585 8.9023 44.8626 8.32671 45.4387C7.67916 45.9428 7.10357 46.5189 6.52797 47.0229C5.88043 47.527 5.30483 48.0311 4.65729 48.5352C5.16093 47.9591 5.73653 47.383 6.31212 46.8069C6.88772 46.2308 7.46331 45.6547 8.03891 45.1507C8.6145 44.5746 9.1901 44.0705 9.83764 43.5664C10.2693 43.1344 10.773 42.7023 11.2766 42.3422C11.4205 42.1982 11.5644 42.1262 11.6364 42.0542H11.7083Z" fill="white"/>
<path d="M24.2995 45.8712C23.58 45.5831 22.8605 45.2231 22.141 44.863C21.3495 44.575 20.702 44.2149 19.9825 43.8549C19.263 43.4948 18.5435 43.1348 17.824 42.7027C17.2484 42.4147 16.7448 42.0546 16.1692 41.6945C16.0253 41.6225 15.9533 41.5505 15.8094 41.4785C15.9533 41.5505 16.0972 41.5505 16.2411 41.6225C16.8167 41.9106 17.3923 42.1266 17.9679 42.4147C18.6874 42.7747 19.4069 43.1348 20.1264 43.4948C20.8459 43.8549 21.5654 44.2149 22.2849 44.575C22.9324 45.0071 23.6519 45.4391 24.2995 45.8712Z" fill="white"/>
<path d="M111.646 89.7976L80.8517 82.5245L85.4564 63.0095L116.251 70.2826L111.646 89.7976Z" fill="#EBEBEB"/>
<path d="M116.251 70.2826C114.74 71.1468 113.157 72.0109 111.646 72.875C110.135 73.7391 108.624 74.6033 107.041 75.3954C105.458 76.2595 103.804 77.1237 102.221 77.9878C102.149 77.9878 102.149 78.0598 102.077 78.0598C100.638 78.8519 99.2707 79.572 97.8317 80.2921L97.6159 80.4362L97.472 80.2201C96.5366 78.9239 95.6013 77.6277 94.6659 76.3315C94.594 76.2595 94.594 76.1875 94.522 76.1875C93.5148 74.6753 92.4355 73.2351 91.4282 71.7228C90.4209 70.2826 89.4136 68.8424 88.4063 67.4022C87.471 65.89 86.4637 64.4497 85.4564 63.0095C86.5357 64.3057 87.6149 65.6739 88.6941 67.0421C89.7014 68.4103 90.7807 69.7785 91.788 71.2188C92.9392 72.731 94.0903 74.3152 95.2415 75.8275C96.1049 77.0516 96.9683 78.2038 97.8317 79.356C99.1268 78.7079 100.422 78.0598 101.717 77.4117C103.444 76.4756 105.171 75.6114 106.897 74.7473C108.48 74.0272 109.991 73.2351 111.574 72.515C113.157 71.7228 114.668 71.0027 116.251 70.2826Z" fill="white"/>
<path d="M95.2415 76.3315C95.1696 76.3315 95.1696 76.3315 95.1696 76.3315C94.9537 76.4036 94.7379 76.5476 94.594 76.6196C93.6586 77.1237 92.7233 77.5557 91.788 77.9878C90.6368 78.4919 89.4136 78.9239 88.2624 79.428C87.1112 79.8601 85.8881 80.3641 84.7369 80.7242C83.5138 81.1563 82.2906 81.5883 81.0675 81.9484C82.2187 81.3003 83.3699 80.7962 84.5211 80.2921C85.6723 79.7881 86.8235 79.284 88.0466 78.7799C89.1978 78.3478 90.349 77.9158 91.5721 77.4837C92.5074 77.1237 93.5147 76.8356 94.4501 76.5476C94.6659 76.4756 94.9537 76.4036 95.1696 76.3315C95.1696 76.3315 95.1696 76.3315 95.2415 76.3315Z" fill="white"/>
<path d="M111.718 89.1494C110.783 88.2853 109.847 87.4212 108.984 86.485C108.12 85.6209 107.257 84.6848 106.394 83.7486C105.53 82.7405 104.739 81.8043 103.947 80.7962C103.3 80.0041 102.652 79.212 102.005 78.4198C101.861 78.2038 101.717 78.0598 101.645 77.8438C101.573 77.8438 101.573 77.8438 101.573 77.8438H101.645C101.789 77.9878 102.005 78.2038 102.149 78.3478C102.868 79.0679 103.588 79.788 104.307 80.5081C105.171 81.3723 106.034 82.3084 106.897 83.2446C107.761 84.2527 108.552 85.1888 109.344 86.125C110.207 87.1331 110.998 88.1413 111.718 89.1494Z" fill="white"/>
<path d="M109.488 11.5217H91.3563V0H109.488V11.5217Z" fill="#EBEBEB"/>
<path d="M109.488 0C108.768 0.720108 108.049 1.36821 107.329 2.08831C106.538 2.73641 105.818 3.45652 105.027 4.10462C104.307 4.82473 103.516 5.47282 102.724 6.19293C102.652 6.19293 102.652 6.26494 102.652 6.26494C101.933 6.84103 101.213 7.48913 100.566 8.06521L100.422 8.13723L100.35 8.06521C99.6305 7.48913 98.911 6.84103 98.2635 6.26494C98.1915 6.26494 98.1915 6.19293 98.1915 6.19293C97.4001 5.47282 96.6086 4.82473 95.8172 4.10462C95.0977 3.45652 94.3062 2.73641 93.5868 2.08831C92.8673 1.36821 92.0758 0.720108 91.3563 0C92.1478 0.648098 92.8673 1.22418 93.6587 1.87228C94.4501 2.52038 95.2416 3.09647 95.9611 3.74456C96.8245 4.46467 97.6879 5.18478 98.5513 5.90489C99.1988 6.48098 99.7744 6.98505 100.422 7.56114C101.069 6.98505 101.717 6.48098 102.365 5.90489C103.228 5.18478 104.019 4.46467 104.883 3.74456C105.674 3.09647 106.466 2.52038 107.185 1.87228C107.977 1.22418 108.768 0.648098 109.488 0Z" fill="white"/>
<path d="M98.5513 6.19336C98.4074 6.26537 98.3354 6.33738 98.2635 6.40939C97.7598 6.84146 97.3281 7.20151 96.8245 7.56157C96.2489 7.99363 95.6733 8.4257 95.0977 8.85776C94.5221 9.21782 93.8746 9.64988 93.299 10.0819C92.6514 10.442 92.0039 10.8021 91.4283 11.1621C91.9319 10.73 92.5075 10.226 93.0831 9.7939C93.6587 9.36184 94.3063 8.92977 94.8819 8.49771C95.4575 8.13765 96.033 7.70559 96.6806 7.27352C97.1842 6.98548 97.6879 6.69744 98.1915 6.40939C98.2635 6.33738 98.4074 6.26537 98.5513 6.19336Z" fill="white"/>
<path d="M109.487 11.1621C108.84 10.8021 108.192 10.442 107.617 10.0819C106.969 9.64988 106.394 9.21782 105.818 8.85776C105.171 8.4257 104.595 7.99363 104.019 7.56157C103.588 7.20151 103.084 6.84146 102.652 6.40939C102.508 6.33738 102.436 6.26537 102.364 6.19336C102.364 6.19336 102.364 6.19336 102.293 6.19336C102.364 6.19336 102.364 6.19336 102.364 6.19336C102.436 6.26537 102.58 6.33738 102.724 6.40939C103.228 6.69744 103.732 6.98548 104.163 7.27352C104.811 7.70559 105.386 8.13765 106.034 8.49771C106.61 8.92977 107.185 9.36184 107.761 9.7939C108.336 10.226 108.912 10.73 109.487 11.1621Z" fill="white"/>
<path d="M119 114.519C119 118.095 92.3636 121 59.536 121C26.6364 121 0 118.095 0 114.519C0 110.943 26.6364 108 59.536 108C92.3636 108 119 110.943 119 114.519Z" fill="#EBEBEB"/>
<path d="M-3.32898 99.591L12.356 99.519H28.1129L59.6267 99.447L91.0686 99.519H106.826L122.51 99.591L106.826 99.6631L91.0686 99.7351H59.6267H28.1129L12.356 99.6631L-3.32898 99.591Z" fill="#263138"/>
<path d="M101.142 81.3002C101.142 81.3002 96.1771 80.22 93.443 77.6996C90.7089 75.1793 89.198 70.6426 89.198 70.6426C89.198 70.6426 92.1479 71.2187 94.81 72.1548C95.2417 72.5869 96.1051 73.595 96.4649 74.5312C96.4649 74.5312 96.5368 73.523 96.4649 72.8029C97.1844 73.163 97.8319 73.523 98.2636 73.8831C100.494 75.8274 101.142 81.3002 101.142 81.3002Z" fill="#33B368"/>
<path d="M92.2918 72.875C91.6442 72.3709 90.9247 71.9389 90.2772 71.4348C90.2052 71.4348 90.2772 71.3628 90.3491 71.3628C91.5723 72.1549 92.8674 72.947 94.0905 73.8112C94.5222 74.0992 94.9539 74.4593 95.3136 74.7473C95.3136 74.6753 95.3136 74.6753 95.2417 74.6033C95.0978 74.3872 94.9539 74.0992 94.81 73.8832C94.4502 73.3791 94.1624 72.875 93.7307 72.443C94.1624 72.875 94.5222 73.3071 94.8819 73.8112C95.0258 74.0272 95.2417 74.2432 95.3856 74.4593C95.4575 74.6033 95.5295 74.7473 95.6014 74.8913L95.6734 74.9633C96.3209 75.4674 96.9685 76.0435 97.5441 76.6196C97.9038 76.9076 98.2636 77.2677 98.6233 77.6277C98.4075 77.0517 98.2636 76.4756 98.0477 75.8275C97.9758 75.8275 98.0477 75.8275 98.0477 75.8275C98.2636 76.4756 98.4794 77.1237 98.6953 77.6997C99.055 78.1318 99.4148 78.5639 99.7745 78.9959V78.9239C99.7025 78.7079 99.6306 78.4919 99.5587 78.2038C99.4148 77.7718 99.3428 77.3397 99.127 76.9076C98.8392 75.9715 98.4075 75.1074 97.8319 74.3872C97.8319 74.3152 97.8319 74.3152 97.8319 74.3152C98.8392 75.4674 99.4148 76.9076 99.7745 78.3478C99.7745 78.5639 99.8464 78.7799 99.9184 78.9239C99.9184 79.068 99.9903 79.212 99.9903 79.284C100.134 79.5 100.278 79.7161 100.422 79.9321C101.285 81.2283 101.933 82.5965 102.509 84.0367C103.156 85.693 103.66 87.3492 104.091 89.0055C104.091 89.0775 104.091 89.0775 104.091 89.0055C103.084 86.125 102.077 83.1726 100.422 80.5802C100.062 80.0041 99.7025 79.5 99.2709 78.9959C98.4794 78.9239 97.688 78.7799 96.8965 78.4919C96.0331 78.2038 95.2417 77.8438 94.4502 77.3397C94.0185 77.0517 93.5869 76.6916 93.2271 76.4036V76.3315C93.8746 76.9076 94.738 77.3397 95.5295 77.7718C96.3209 78.1318 97.1843 78.4199 98.0477 78.5639C98.4075 78.6359 98.7672 78.7079 99.127 78.7799C98.6953 78.2038 98.1916 77.6277 97.688 77.1237C97.4721 76.9796 97.3282 76.8356 97.1843 76.6196C96.6087 76.2595 95.9612 75.8995 95.3136 75.6114C94.5222 75.1794 93.7307 74.8193 92.8674 74.3872C92.4357 74.1712 92.004 73.8832 91.5003 73.6671C91.5003 73.6671 91.5003 73.6671 91.5723 73.6671C92.3637 74.0272 93.1552 74.3872 94.0185 74.8193C94.81 75.1794 95.6014 75.5394 96.3209 75.8995C96.3209 75.9715 96.3929 75.9715 96.3929 75.9715C95.7453 75.3954 95.0258 74.8193 94.3063 74.3152C93.6588 73.8112 93.0113 73.3071 92.2918 72.875Z" fill="#263138"/>
<path d="M92.5796 75.3955C93.0113 75.6115 93.443 75.7556 93.8027 75.8996C94.2344 76.1156 94.5942 76.3316 95.0259 76.6197C94.5942 76.4037 94.2344 76.2596 93.8027 76.0436C93.443 75.8276 93.0113 75.6115 92.5796 75.4675V75.3955Z" fill="#263138"/>
<path d="M117.33 56.2405C117.33 56.2405 115.891 57.8247 115.819 60.3451C115.819 60.7772 115.891 61.4253 115.963 62.1454C114.092 63.1535 112.725 64.9538 112.725 64.9538C113.733 64.3057 115.172 64.0176 115.963 64.1617C115.963 64.6657 115.891 65.1698 115.819 65.6739C115.459 65.6019 114.812 65.6739 113.661 66.0339C113.661 66.0339 114.74 66.0339 115.603 66.466C114.668 69.2744 112.078 72.1549 104.811 73.379C104.811 73.379 103.372 68.4823 106.034 63.1535C108.265 58.8329 117.33 56.2405 117.33 56.2405Z" fill="#33B368"/>
<path d="M102.293 85.4769C102.365 84.2527 102.58 83.0286 102.724 81.8764C103.084 79.5 103.588 77.0517 104.235 74.7473C104.523 73.5951 104.811 72.515 105.243 71.5068C105.243 71.2908 105.243 71.0748 105.243 70.9307C105.243 70.6427 105.243 70.4267 105.243 70.2106C105.243 69.7065 105.243 69.2745 105.315 68.8424C105.387 67.9063 105.53 66.9701 105.746 66.106C105.89 65.5299 106.034 65.0258 106.178 64.5218C105.962 65.4579 105.818 66.322 105.674 67.2582C105.53 68.1943 105.458 69.0584 105.458 69.9946C105.387 70.2826 105.387 70.4987 105.387 70.7867C105.387 70.8587 105.387 71.0027 105.387 71.0748C105.746 70.2106 106.178 69.3465 106.61 68.5544C107.401 67.2582 108.193 65.962 109.128 64.8098C109.128 64.6658 109.2 64.5218 109.2 64.3777C109.2 64.2337 109.272 64.0897 109.272 63.9457C109.344 63.5856 109.488 63.2256 109.56 62.9375C109.703 62.2894 109.991 61.6413 110.207 60.9932C110.207 60.9212 110.207 60.9932 110.207 60.9932C109.991 61.6413 109.919 62.2894 109.775 62.9375C109.703 63.2976 109.632 63.5856 109.56 63.9457C109.488 64.0897 109.488 64.2337 109.416 64.3777C109.416 64.4498 109.416 64.4498 109.416 64.4498C109.703 64.0897 109.991 63.7296 110.351 63.3696C111.718 61.7133 113.229 60.2011 114.74 58.6889C114.956 58.5449 115.172 58.3288 115.316 58.1848H115.387C113.877 59.7691 112.438 61.2813 111.071 62.8655C110.783 63.2976 110.423 63.6576 110.135 64.0897C110.279 63.9457 110.423 63.8737 110.639 63.7296C111.071 63.4416 111.502 63.2256 111.934 62.9375C112.366 62.7215 112.797 62.4335 113.229 62.2174C113.733 62.0014 114.236 61.7854 114.668 61.5693C114.668 61.5693 114.74 61.5693 114.668 61.5693C114.236 61.7854 113.805 62.0734 113.373 62.2894C112.941 62.5775 112.509 62.8655 112.006 63.1536C111.646 63.3696 111.214 63.6576 110.783 63.9457C110.423 64.1617 110.063 64.4498 109.703 64.5938C108.84 65.746 108.049 66.8261 107.329 68.0503C106.897 68.7704 106.538 69.5625 106.178 70.2826C106.25 70.2826 106.322 70.2106 106.394 70.2106C106.61 70.0666 106.825 69.9946 107.113 69.9226C107.473 69.7065 107.905 69.5625 108.336 69.3465C109.2 68.9864 109.991 68.6264 110.783 68.2663C111.286 68.0503 111.718 67.8343 112.15 67.5462C110.639 68.6264 108.984 69.3465 107.329 70.0666L106.61 70.3546C106.394 70.4267 106.178 70.5707 106.034 70.6427C105.53 71.7229 105.099 72.875 104.811 74.0272C104.091 76.3315 103.588 78.7079 103.228 81.0843C102.796 83.4606 102.509 85.837 102.293 88.2133C102.221 88.5014 102.221 88.8614 102.221 89.1495C102.149 89.2215 102.005 89.2215 102.005 89.1495C102.005 87.9253 102.149 86.7011 102.293 85.4769Z" fill="#263138"/>
<path d="M106.682 65.3859C106.825 64.5938 107.041 63.8737 107.185 63.1536C107.257 63.1536 107.257 63.1536 107.257 63.1536C107.041 63.8737 106.969 64.5938 106.825 65.3139C106.682 66.106 106.538 66.8261 106.466 67.5462H106.394C106.466 66.8261 106.538 66.106 106.682 65.3859Z" fill="#263138"/>
<path d="M109.847 67.4023C110.351 67.0423 110.855 66.7542 111.43 66.4662C111.646 66.3222 111.934 66.1781 112.222 66.1061C112.509 65.9621 112.797 65.8181 113.085 65.6741V65.7461C112.797 65.8901 112.581 66.0341 112.294 66.1781C112.006 66.3222 111.718 66.4662 111.502 66.6102C110.927 66.8983 110.423 67.1863 109.847 67.4743C109.847 67.4743 109.775 67.4023 109.847 67.4023Z" fill="#263138"/>
<path d="M101.07 72.659C101.07 72.659 96.4648 71.5789 94.3783 68.4824C92.3637 65.53 91.7162 60.4892 91.6442 60.0571C91.7162 60.4892 92.6515 64.8819 95.8173 66.8982C98.1916 68.4824 100.494 69.7786 101.07 72.659Z" fill="#263138" fill-opacity="0.101961"/>
<path d="M96.8246 64.7378C97.616 65.5299 98.2636 66.4661 98.5514 67.5462H98.4794C98.1916 66.5381 97.616 65.5299 96.8246 64.7378Z" fill="#263138"/>
<path d="M101.07 72.659C101.07 72.659 96.4648 71.5789 94.3783 68.4824C92.3637 65.53 91.7162 60.4892 91.6442 60.0571C91.6442 60.0571 93.8747 63.2256 96.177 64.0177C98.4794 64.8099 101.717 67.5463 101.07 72.659Z" fill="#33B368"/>
<path d="M92.4357 61.7854C92.8674 62.6495 93.2991 63.4417 93.8747 64.2338C94.3783 64.9539 95.0258 65.602 95.7453 66.1781C96.3929 66.6821 97.0404 67.1142 97.688 67.6183C97.688 67.6183 97.688 67.6183 97.688 67.5463C97.5441 67.4022 97.4002 67.2582 97.3282 67.0422C97.0404 66.7542 96.7526 66.3941 96.4648 66.1061C95.8892 65.458 95.3136 64.8819 94.81 64.1618C94.5222 63.8017 94.2344 63.4417 94.0186 63.0096C94.0186 63.0096 94.0905 62.9376 94.0905 63.0096C94.81 64.5218 96.3209 65.53 97.4002 66.8262C97.5441 67.0422 97.688 67.2582 97.8319 67.4743C97.9038 67.5463 97.9758 67.7623 98.0477 67.9063C98.6233 68.4104 99.1989 68.9145 99.6306 69.4906C99.6306 69.2025 99.5587 68.9145 99.4867 68.6264C99.3428 68.1944 99.1989 67.8343 98.9831 67.4022C99.1989 67.7623 99.4148 68.1944 99.5587 68.5544C99.6306 68.9145 99.7026 69.2025 99.7026 69.5626C99.9184 69.8506 100.134 70.2107 100.35 70.5707C100.278 70.4267 100.278 70.3547 100.278 70.2107C100.206 69.7786 100.062 69.3465 99.9903 68.8425C99.7026 67.9783 99.4148 67.0422 98.8392 66.2501C98.8392 66.2501 98.8392 66.2501 98.9111 66.2501C99.4148 67.0422 99.8465 67.9063 100.134 68.7705C100.278 69.2745 100.35 69.7066 100.494 70.2107C100.494 70.4267 100.566 70.6427 100.638 70.8588C100.638 71.0028 100.638 71.0748 100.71 71.2188C101.142 72.227 101.501 73.3071 101.717 74.3153C102.221 76.2596 102.509 78.2039 102.724 80.1482C102.94 82.2365 103.084 84.2528 103.012 86.3411C103.012 86.6292 103.012 86.8452 103.012 87.1332C103.012 87.2052 102.868 87.2052 102.868 87.1332C102.868 86.1251 102.796 85.1169 102.796 84.0368C102.724 83.0286 102.581 82.0205 102.509 81.0123C102.293 78.996 102.005 76.9797 101.573 75.0354C101.142 73.3792 100.71 71.6509 99.7745 70.2107C99.3428 69.4906 98.7672 68.7705 98.1197 68.1944C97.4721 67.6183 96.7526 67.1142 96.1051 66.6101C95.3856 66.034 94.738 65.458 94.2344 64.8099C93.6588 64.0897 93.1552 63.2256 92.7235 62.4335C92.6515 62.2175 92.5076 62.0014 92.4357 61.7854Z" fill="#263138"/>
<path d="M93.2271 62.4333C93.5149 63.0814 93.8746 63.6575 94.2344 64.2336C94.3063 64.2336 94.2344 64.3056 94.2344 64.2336C93.8746 63.7295 93.5149 63.0814 93.2271 62.4333Z" fill="#263138"/>
<path d="M117.978 70.6426C117.978 70.6426 118.05 77.1956 114.092 79.0678C110.207 81.0121 108.121 79.4279 105.458 80.076C105.458 80.076 105.458 80.076 105.458 80.004C105.602 79.86 107.473 77.1236 110.495 76.4034C113.589 75.6113 117.042 73.379 117.978 70.6426Z" fill="#33B368"/>
<path d="M117.978 70.6426C117.978 70.6426 118.05 77.1956 114.092 79.0678C110.207 81.0121 108.121 79.4279 105.458 80.076C105.458 80.076 105.458 80.076 105.458 80.004C105.602 80.004 107.545 78.9958 109.919 78.7078C112.366 78.4198 117.114 76.8355 117.978 70.6426Z" fill="black" fill-opacity="0.101961"/>
<path d="M105.171 80.1479C105.674 79.7158 106.178 79.3557 106.754 79.0677C106.826 79.0677 106.898 78.9957 107.041 78.9957C107.041 78.9237 107.113 78.9237 107.113 78.8517C107.257 78.7077 107.401 78.6356 107.545 78.4916C107.761 78.2756 108.049 78.0596 108.337 77.9155C108.984 77.5555 109.632 77.2674 110.351 76.9074C110.351 76.9074 110.351 76.9074 110.351 76.9794C109.991 77.1234 109.704 77.3394 109.344 77.4835C109.056 77.6995 108.768 77.8435 108.48 78.0596C108.193 78.2036 107.905 78.4196 107.689 78.6356C107.617 78.7077 107.545 78.7797 107.473 78.8517C107.905 78.6356 108.337 78.5636 108.768 78.4916C109.488 78.3476 110.207 78.2036 110.927 78.0596C111.286 77.9875 111.646 77.9155 112.006 77.7715C112.294 77.5555 112.653 77.2674 112.941 76.9794C113.301 76.6193 113.661 76.2593 113.949 75.8272C113.949 75.8272 114.021 75.8272 113.949 75.8992C113.517 76.4753 113.013 77.1234 112.366 77.6275C112.582 77.5555 112.725 77.4835 112.869 77.4115C114.236 76.8354 115.388 75.8992 116.179 74.675C116.251 74.675 116.251 74.675 116.251 74.675C115.531 75.7552 114.596 76.6193 113.517 77.2674C113.013 77.6275 112.438 77.9155 111.862 78.0596C111.143 78.3476 110.423 78.4196 109.704 78.5636C109.056 78.7077 108.337 78.8517 107.617 79.0677C107.041 79.2837 106.466 79.5718 105.89 80.0038C104.883 80.724 104.163 81.8041 103.588 82.8843C102.796 84.3965 102.509 86.0528 102.293 87.709C102.293 87.781 102.149 87.781 102.149 87.709C102.365 84.9006 103.084 82.0922 105.171 80.1479Z" fill="#263138"/>
<path d="M109.776 77.9876C109.919 77.6995 110.207 77.4835 110.567 77.2675C110.927 77.0514 111.214 76.8354 111.502 76.4753C111.502 76.4753 111.574 76.4753 111.502 76.5474C111.286 76.8354 110.999 77.0514 110.711 77.2675C110.351 77.4835 109.991 77.6995 109.776 78.0596C109.776 78.0596 109.704 78.0596 109.776 77.9876Z" fill="#263138"/>
<path d="M107.689 84.9727L107.473 88.5732L106.969 99.5909H98.7672L98.1916 88.5732L98.0477 84.9727H107.689Z" fill="#36464F"/>
<path d="M107.689 84.9727L107.473 88.5732H98.1916L98.0477 84.9727H107.689Z" fill="#263138"/>
<path d="M108.265 86.917H97.4721V83.4604H108.265V86.917Z" fill="#36464F"/>
<path d="M83.9456 4.68066H35.0919C32.3579 4.68066 30.1274 6.98501 30.1274 9.72142V110.537C30.1274 113.273 32.3579 115.577 35.0919 115.577H83.9456C86.6796 115.577 88.9101 113.273 88.9101 110.537V9.72142C88.9101 6.98501 86.6796 4.68066 83.9456 4.68066ZM85.8162 107.368C85.8162 110.033 83.8736 112.193 81.4273 112.193H37.6821C35.1639 112.193 33.2213 110.033 33.2213 107.368V13.538C33.2213 8.13718 35.1639 7.92115 37.6821 7.92115H46.388C46.8916 7.92115 47.3233 8.49724 47.3233 9.21735V9.50539C47.3233 11.1616 48.2587 11.1616 49.4099 11.1616H69.6276C70.7788 11.1616 71.7142 11.1616 71.7142 9.50539V9.21735C71.7142 8.49724 72.1459 7.92115 72.6495 7.92115H81.4273C83.8736 7.92115 85.8162 8.64126 85.8162 13.538V107.368Z" fill="#263138"/>
<path d="M85.595 13.6168V107.447C85.595 110.111 83.6524 112.272 81.2061 112.272H37.4609C35.0146 112.272 33 110.111 33 107.447V13.6168C33 8.21603 35.0146 8 37.4609 8H46.1667C46.7423 8 47.1021 8.57609 47.1021 9.2962V9.58424C47.1021 11.2405 48.0374 11.3125 49.1886 11.3125H69.4064C70.5576 11.3125 71.4929 11.2405 71.4929 9.58424V9.2962C71.4929 8.57609 71.9246 8 72.4283 8H81.2061C83.6524 8 85.595 8.72011 85.595 13.6168Z" fill="white"/>
<path d="M85.8163 13.61V22.1793H33.2213V13.61C33.2213 8.2092 35.2359 7.99316 37.6822 7.99316H46.3881C46.9636 7.99316 47.3234 8.56925 47.3234 9.28936V9.5774C47.3234 11.2337 48.2587 11.3057 49.4099 11.3057H69.6277C70.7789 11.3057 71.7142 11.2337 71.7142 9.5774V9.28936C71.7142 8.56925 72.1459 7.99316 72.6496 7.99316H81.4274C83.8737 7.99316 85.8163 8.71327 85.8163 13.61Z" fill="#33B368"/>
<path d="M62.2888 9.07339H56.7487C56.6048 9.07339 56.389 8.92937 56.389 8.71334C56.389 8.56931 56.6048 8.42529 56.7487 8.42529H62.2888C62.5047 8.42529 62.6486 8.56931 62.6486 8.71334C62.6486 8.92937 62.5047 9.07339 62.2888 9.07339Z" fill="white"/>
<path d="M44.8771 10.0092C44.8771 10.0092 44.8771 10.0812 44.8051 10.0812V10.1532C44.5173 9.9372 44.3015 9.79318 43.9418 9.79318C43.654 9.79318 43.3662 9.9372 43.1503 10.1532L43.0784 10.0812L43.0064 10.0092C43.0784 9.9372 43.0784 9.9372 43.1503 9.86519C43.2223 9.86519 43.2942 9.79318 43.3662 9.72117C43.4381 9.72117 43.582 9.64916 43.7259 9.64916C43.7259 9.64916 43.7979 9.64916 43.8698 9.57715H44.0137C44.0137 9.57715 44.0857 9.57715 44.0857 9.64916C44.2295 9.64916 44.3015 9.64916 44.4454 9.72117C44.5173 9.72117 44.5893 9.72117 44.5893 9.79318C44.6612 9.79318 44.7332 9.86519 44.8051 9.9372C44.8771 9.9372 44.8771 9.9372 44.8771 10.0092Z" fill="white"/>
<path d="M43.4381 10.369C43.3661 10.369 43.2942 10.297 43.2942 10.297C43.4381 10.153 43.582 10.009 43.7978 10.009C44.1576 9.93696 44.3734 10.081 44.6612 10.297C44.5893 10.297 44.5173 10.369 44.5173 10.369C44.3734 10.225 44.1576 10.153 43.9417 10.153C43.7259 10.153 43.582 10.225 43.4381 10.369Z" fill="white"/>
<path d="M44.3735 10.5131C44.3015 10.5851 44.3015 10.6571 44.2296 10.6571C44.1576 10.5851 44.0857 10.5851 43.9418 10.5851C43.8698 10.5851 43.7259 10.5851 43.654 10.6571C43.654 10.6571 43.582 10.5851 43.5101 10.5131C43.7259 10.2971 44.1576 10.2971 44.3735 10.5131Z" fill="white"/>
<path d="M44.0857 10.8012C44.0857 10.8733 44.0137 10.8733 43.9418 10.8733C43.8698 10.8733 43.8698 10.8733 43.8698 10.8012C43.8698 10.7292 43.8698 10.6572 43.9418 10.6572C44.0137 10.6572 44.0857 10.7292 44.0857 10.8012Z" fill="white"/>
<path d="M36.6748 10.226C36.6748 10.082 36.8187 9.93799 36.9626 9.93799C37.1785 9.93799 37.3223 10.082 37.3223 10.226C37.3223 10.4421 37.1785 10.5861 36.9626 10.5861C36.8187 10.5861 36.6748 10.4421 36.6748 10.226Z" fill="white"/>
<path d="M37.754 10.2255C37.754 10.0815 37.8979 9.9375 38.1138 9.9375C38.2577 9.9375 38.4735 10.0815 38.4735 10.2255C38.4735 10.4416 38.2577 10.5856 38.1138 10.5856C37.8979 10.5856 37.754 10.4416 37.754 10.2255Z" fill="white"/>
<path d="M38.8333 10.2255C38.8333 10.0815 38.9771 9.9375 39.193 9.9375C39.4088 9.9375 39.5527 10.0815 39.5527 10.2255C39.5527 10.4416 39.4088 10.5856 39.193 10.5856C38.9771 10.5856 38.8333 10.4416 38.8333 10.2255Z" fill="white"/>
<path d="M39.9125 10.2255C39.9125 10.0815 40.1283 9.9375 40.2722 9.9375C40.4881 9.9375 40.632 10.0815 40.632 10.2255C40.632 10.4416 40.4881 10.5856 40.2722 10.5856C40.1283 10.5856 39.9125 10.4416 39.9125 10.2255Z" fill="white"/>
<path d="M41.0637 10.2255C41.0637 10.0815 41.2076 9.9375 41.4235 9.9375C41.5674 9.9375 41.7113 10.0815 41.7113 10.2255C41.7113 10.4416 41.5674 10.5856 41.4235 10.5856C41.2076 10.5856 41.0637 10.4416 41.0637 10.2255Z" fill="white"/>
<path d="M81.8591 11.0174H79.053V9.72119H81.8591V11.0174ZM79.1969 10.8734H81.7152V9.86521H79.1969V10.8734Z" fill="white"/>
<path d="M81.1395 9.93701H79.2689V10.8011H81.1395V9.93701Z" fill="white"/>
<path d="M82.1469 10.7294H81.8591V10.0093H82.1469V10.7294Z" fill="white"/>
<path d="M38.1858 18.8668L36.6749 17.4265L38.1858 15.9863L38.4736 16.2744L37.1785 17.4265L38.4736 18.6507L38.1858 18.8668Z" fill="white"/>
<path d="M81.0677 19.0105H79.9884V18.6505C79.9884 18.5785 79.9884 18.5785 79.9884 18.5785C79.9165 18.5785 79.9165 18.5065 79.8445 18.5065H79.7726L79.4848 18.6505L78.9092 17.7863L79.2689 17.5703C79.2689 17.5703 79.2689 17.5703 79.2689 17.4983C79.2689 17.4983 79.2689 17.4983 79.2689 17.4263C79.2689 17.4263 79.2689 17.4263 79.2689 17.3543V17.2823L78.9092 17.1382L79.4848 16.2021L79.7726 16.4181H79.8445C79.9165 16.3461 79.9165 16.3461 79.9884 16.3461C79.9884 16.2741 79.9884 16.2741 79.9884 16.2741V15.9141H81.0677V16.2741C81.0677 16.2741 81.0677 16.2741 81.1396 16.3461C81.1396 16.3461 81.2116 16.3461 81.2116 16.4181C81.2835 16.4181 81.2835 16.4181 81.2835 16.4181L81.6433 16.2021L82.1469 17.1382L81.8591 17.2823C81.7872 17.2823 81.7872 17.3543 81.7872 17.3543C81.7872 17.4263 81.7872 17.4263 81.7872 17.4263C81.7872 17.4983 81.7872 17.4983 81.7872 17.4983C81.7872 17.5703 81.7872 17.5703 81.8591 17.5703L82.1469 17.7863L81.6433 18.6505L81.2835 18.5065C81.2835 18.5065 81.2835 18.5065 81.2116 18.5065L81.1396 18.5785C81.0677 18.5785 81.0677 18.5785 81.0677 18.6505V19.0105ZM80.2762 18.7945H80.8518V18.6505C80.8518 18.5065 80.9238 18.4344 80.9957 18.3624C81.0677 18.3624 81.0677 18.3624 81.1396 18.2904C81.2116 18.2184 81.3555 18.2184 81.4274 18.2904L81.5713 18.3624L81.8591 17.8584L81.7152 17.7863C81.6433 17.7143 81.5713 17.6423 81.5713 17.4983V17.4263V17.3543C81.5713 17.2823 81.6433 17.1382 81.7152 17.1382L81.8591 17.0662L81.5713 16.4901L81.4274 16.5622C81.3555 16.6342 81.2116 16.6342 81.1396 16.5622C81.0677 16.5622 81.0677 16.5622 80.9957 16.4901C80.9238 16.4901 80.8518 16.3461 80.8518 16.2741V16.1301H80.2762V16.2741C80.2762 16.3461 80.2043 16.4901 80.0604 16.4901C80.0604 16.5622 79.9884 16.5622 79.9884 16.5622C79.8445 16.6342 79.7726 16.6342 79.6287 16.5622L79.5567 16.4901L79.2689 17.0662H79.3409C79.4848 17.1382 79.4848 17.2823 79.4848 17.3543V17.4263V17.4983C79.4848 17.6423 79.4848 17.7143 79.3409 17.7863L79.2689 17.8584L79.5567 18.3624L79.6287 18.2904C79.7726 18.2184 79.8445 18.2184 79.9884 18.2904C79.9884 18.3624 80.0604 18.3624 80.0604 18.3624C80.2043 18.4344 80.2762 18.5065 80.2762 18.6505V18.7945ZM80.564 18.2184C80.1323 18.2184 79.7726 17.8584 79.7726 17.4263C79.7726 16.9942 80.1323 16.6342 80.564 16.6342C80.9957 16.6342 81.3555 16.9942 81.3555 17.4263C81.3555 17.8584 80.9957 18.2184 80.564 18.2184ZM80.564 16.8502C80.2043 16.8502 79.9884 17.1382 79.9884 17.4263C79.9884 17.7863 80.2043 18.0024 80.564 18.0024C80.8518 18.0024 81.1396 17.7863 81.1396 17.4263C81.1396 17.1382 80.8518 16.8502 80.564 16.8502Z" fill="white"/>
<path d="M78 79H41V51.3295L59.5 41L78 51.3295V79Z" fill="#FFC626"/>
<path d="M78 79H41V51.3295L59.5 41L78 51.3295V79Z" fill="black" fill-opacity="0.2"/>
<path d="M76.1751 76.4034H42.8625V33.6289H67.6131L76.1751 41.7661V76.4034Z" fill="#EBEBEB"/>
<path d="M67.6132 33.6289L76.1751 41.7661H67.6132V33.6289Z" fill="#DBDBDB"/>
<path d="M46.1003 40.7578H64.6632V41.91H46.1003V40.7578Z" fill="#DBDBDB"/>
<path d="M46.1003 43.5664H64.6632V44.6466H46.1003V43.5664Z" fill="#DBDBDB"/>
<path d="M46.1003 46.3027H64.6632V47.4549H46.1003V46.3027Z" fill="#DBDBDB"/>
<path d="M46.1003 49.1113H73.2252V50.1915H46.1003V49.1113Z" fill="#DBDBDB"/>
<path d="M46.1003 51.8477H73.2252V52.9998H46.1003V51.8477Z" fill="#DBDBDB"/>
<path d="M46.1003 54.656H73.2252V55.7362H46.1003V54.656Z" fill="#DBDBDB"/>
<path d="M46.1003 57.3926H73.2252V58.5448H46.1003V57.3926Z" fill="#DBDBDB"/>
<path d="M46.1003 60.2009H73.2252V61.2811H46.1003V60.2009Z" fill="#DBDBDB"/>
<path d="M46.1003 63.0093H73.2252V64.0894H46.1003V63.0093Z" fill="#DBDBDB"/>
<path d="M46.1003 65.7456H73.2252V66.8258H46.1003V65.7456Z" fill="#DBDBDB"/>
<path d="M46.1003 68.5542H73.2252V69.6344H46.1003V68.5542Z" fill="#DBDBDB"/>
<path d="M46.1003 71.2905H73.2252V72.3707H46.1003V71.2905Z" fill="#DBDBDB"/>
<path d="M78.3336 55.0161V78.8517H40.7761V55.0161C42.3589 55.8802 43.9418 56.8884 45.5247 57.8245C47.1076 58.7607 48.6905 59.6968 50.2734 60.705C52.0721 61.7851 53.7989 62.8653 55.5976 63.9455C55.5976 63.9455 55.5976 63.9455 55.6696 63.9455C55.5976 63.9455 55.5976 63.9455 55.5976 63.9455C56.8927 64.8096 58.1878 65.6017 59.5548 66.3938C60.8499 65.6017 62.145 64.7376 63.4401 63.9455C63.4401 63.9455 63.4401 63.9455 63.5121 63.9455C65.2388 62.8653 66.9656 61.7851 68.7644 60.705C70.3473 59.6968 71.9301 58.7607 73.513 57.8245C75.0959 56.8884 76.6788 55.8802 78.3336 55.0161Z" fill="#FFC626"/>
<path d="M78.3336 55.0161C76.8227 56.0963 75.2398 57.1044 73.7289 58.1126C72.146 59.1927 70.6351 60.2009 69.0522 61.209C67.4693 62.2892 65.8144 63.2973 64.2316 64.3775C64.1596 64.3775 64.0877 64.4495 64.0877 64.4495C62.6487 65.3856 61.2097 66.3218 59.7707 67.2579L59.5548 67.3299L59.339 67.2579C57.9 66.3218 56.461 65.3856 55.022 64.4495C54.9501 64.4495 54.8781 64.3775 54.8781 64.3775C53.2233 63.2973 51.5685 62.2892 49.9856 61.209C48.4027 60.2009 46.8918 59.1927 45.3089 58.1126C43.7979 57.1044 42.287 56.0963 40.7761 55.0161C42.3589 55.8802 43.9418 56.8884 45.5247 57.8245C47.1076 58.7607 48.6905 59.6968 50.2734 60.705C52.0721 61.7851 53.7989 62.8653 55.5976 63.9454C56.8927 64.8096 58.1878 65.6017 59.5548 66.3938C60.8499 65.6017 62.145 64.7376 63.4401 63.9454C63.4401 63.9454 63.4401 63.9454 63.5121 63.9454C65.2388 62.8653 66.9656 61.7851 68.7644 60.705C70.3473 59.6968 71.9301 58.7607 73.513 57.8245C75.0959 56.8884 76.6788 55.8802 78.3336 55.0161Z" fill="black" fill-opacity="0.2"/>
<path d="M55.6696 63.9453C55.5976 63.9453 55.5976 63.9453 55.5976 63.9453C55.3818 64.1613 55.1659 64.3054 55.022 64.4494C54.0867 65.2415 53.0794 66.0336 52.1441 66.7537C50.9209 67.6899 49.6978 68.554 48.4747 69.4181C47.2515 70.2823 45.9564 71.1464 44.7333 71.9385C43.4382 72.7306 42.1431 73.5228 40.848 74.2429C41.9992 73.2347 43.1504 72.2986 44.3735 71.4344C45.5967 70.4983 46.8198 69.6342 48.043 68.77C49.2661 67.9059 50.4892 67.0418 51.7843 66.2497C52.7916 65.6016 53.7989 64.9535 54.8782 64.3774C55.094 64.2334 55.3098 64.0893 55.5976 63.9453C55.5976 63.9453 55.5976 63.9453 55.6696 63.9453Z" fill="#00722F"/>
<path d="M78.1897 74.2429C76.8947 73.5228 75.5996 72.7306 74.3045 71.9385C73.0813 71.1464 71.8582 70.2823 70.5631 69.4181C69.34 68.554 68.1168 67.6899 66.9656 66.7537C65.9584 66.0336 65.023 65.2415 64.0877 64.4494C63.8718 64.3054 63.656 64.1613 63.4401 63.9453C63.4401 63.9453 63.4401 63.9453 63.5121 63.9453C63.7279 64.0893 63.9438 64.2334 64.2316 64.3774C65.2389 64.9535 66.2461 65.6016 67.3254 66.2497C68.5485 67.0418 69.7717 67.9059 71.0668 68.77C72.2899 69.6342 73.513 70.4983 74.6642 71.4344C75.8874 72.2986 77.1105 73.2347 78.1897 74.2429Z" fill="#00722F"/>
<path d="M46.2442 93.038H40.776V87.4932H46.2442V93.038Z" fill="#EBEBEB"/>
<path d="M54.2305 93.038H48.7623V87.4932H54.2305V93.038Z" fill="#EBEBEB"/>
<path d="M62.2169 93.038H56.7488V87.4932H62.2169V93.038Z" fill="#EBEBEB"/>
<path d="M70.2033 93.038H64.7352V87.4932H70.2033V93.038Z" fill="#EBEBEB"/>
<path d="M78.1897 93.038H72.7216V87.4932H78.1897V93.038Z" fill="#EBEBEB"/>
<path d="M78.0458 96.4945H40.5602V95.9185H78.0458V96.4945Z" fill="#EBEBEB"/>
<path d="M78.0458 98.0068H40.5601V97.4307H78.0458V98.0068Z" fill="#EBEBEB"/>
<path d="M78.0458 99.591H40.5601V99.0149H78.0458V99.591Z" fill="#EBEBEB"/>
<path d="M57.9719 101.175H40.5601V100.599H57.9719V101.175Z" fill="#EBEBEB"/>
<path d="M40.9198 41.4062H40.4881V41.1902H40.9198C41.1356 41.1902 41.4234 41.1902 41.6393 41.1902V41.4062C41.4234 41.4062 41.1356 41.4062 40.9198 41.4062ZM38.9771 41.4062C38.5454 41.4062 38.1857 41.4062 37.754 41.4062V41.1182C38.1857 41.1902 38.5454 41.1902 38.9771 41.1902V41.4062ZM43.1502 41.4062V41.1902C43.5819 41.1902 43.9416 41.1902 44.3733 41.1182V41.4062C43.9416 41.4062 43.5819 41.4062 43.1502 41.4062ZM45.8843 41.3342V41.1182C46.244 41.0462 46.6757 41.0462 47.0355 41.0462V41.2622C46.6757 41.2622 46.244 41.2622 45.8843 41.3342ZM36.2431 41.3342C35.8833 41.2622 35.4516 41.2622 35.0919 41.1902V40.9741C35.4516 41.0462 35.8833 41.0462 36.315 41.0462L36.2431 41.3342ZM48.5464 41.1902V40.9021C48.9062 40.9021 49.3378 40.9021 49.7695 40.8301V41.0462C49.3378 41.1182 48.9781 41.1182 48.5464 41.1902ZM33.5809 41.1182C33.1492 41.0462 32.7895 40.9741 32.3578 40.9741L32.4297 40.7581C32.7895 40.7581 33.2212 40.8301 33.5809 40.9021V41.1182ZM51.2805 40.9741L51.2085 40.7581C51.6402 40.6861 52 40.6861 52.4317 40.6141V40.8301C52.0719 40.9021 51.6402 40.9021 51.2805 40.9741ZM30.9188 40.7581C30.4871 40.6861 30.1274 40.6141 29.6957 40.5421L29.7676 40.3261C30.1274 40.3981 30.5591 40.4701 30.9188 40.5421V40.7581ZM53.9426 40.6861V40.4701C54.3024 40.4701 54.7341 40.3981 55.0938 40.3261L55.1657 40.6141C54.7341 40.6141 54.3024 40.6861 53.9426 40.6861ZM56.6047 40.3981V40.182H56.8925C57.1803 40.11 57.4681 40.11 57.7559 40.038L57.8279 40.254C57.5401 40.3261 57.2523 40.3261 56.9645 40.3981H56.6047ZM28.2567 40.254C27.825 40.182 27.4652 40.038 27.1055 39.966V39.75C27.5372 39.822 27.8969 39.966 28.2567 40.038V40.254ZM59.3388 40.038L59.2669 39.822C59.6266 39.75 60.0583 39.678 60.4181 39.6059L60.49 39.822C60.1303 39.894 59.6986 39.966 59.3388 40.038ZM61.929 39.5339V39.3179C62.2887 39.2459 62.7204 39.1739 63.0802 39.1019L63.1521 39.3179C62.7204 39.3899 62.3607 39.4619 61.929 39.5339ZM25.5946 39.5339C25.2348 39.3899 24.8751 39.2459 24.5153 39.1739L24.5873 38.9578C24.947 39.1019 25.3068 39.1739 25.6665 39.3179L25.5946 39.5339ZM64.5911 38.9578L64.5192 38.7418C64.9509 38.5978 65.3106 38.5258 65.6704 38.3818L65.7423 38.5978C65.3826 38.7418 64.9509 38.8138 64.5911 38.9578ZM23.0763 38.5978C22.7166 38.3818 22.3568 38.2377 21.9971 38.0937L22.141 37.8777C22.4288 38.0217 22.7885 38.2377 23.2202 38.3818L23.0763 38.5978ZM67.1813 38.2377L67.1093 38.0217C67.541 37.8777 67.9008 37.8057 68.2605 37.6617L68.3325 37.8777C67.9727 38.0217 67.613 38.0937 67.1813 38.2377ZM69.7715 37.3736L69.6995 37.2296C70.0593 37.0856 70.491 36.9415 70.8507 36.7975L70.9227 37.0136C70.5629 37.1576 70.1312 37.3016 69.7715 37.3736ZM20.702 37.3016C20.3423 37.0856 19.9825 36.8695 19.6947 36.6535L19.8386 36.4375C20.1264 36.7255 20.4862 36.9415 20.8459 37.1576L20.702 37.3016ZM72.2897 36.5095L72.2178 36.2934C72.6494 36.1494 73.0092 36.0054 73.3689 35.8614L73.4409 36.0774C73.0811 36.2214 72.7214 36.3655 72.2897 36.5095ZM18.4716 35.7174C18.1838 35.4293 17.896 35.2133 17.6082 34.9252L17.7521 34.7092C18.0399 34.9973 18.3277 35.2853 18.6874 35.5733L18.4716 35.7174ZM74.8079 35.5013L74.736 35.2853C75.0957 35.1413 75.5274 34.9973 75.8872 34.8532L75.9591 35.0693C75.5994 35.2133 75.2396 35.3573 74.8079 35.5013ZM77.3262 34.4932L77.2542 34.2771C77.614 34.1331 77.9737 33.9171 78.3334 33.7731L78.4054 33.9891C78.0456 34.1331 77.6859 34.3492 77.3262 34.4932ZM16.6009 33.7731C16.385 33.413 16.0972 33.125 15.9533 32.7649L16.1692 32.6209C16.3131 32.9809 16.5289 33.269 16.8167 33.629L16.6009 33.7731ZM79.7724 33.341L79.7005 33.125C80.0602 32.9809 80.42 32.8369 80.7797 32.6209L80.8517 32.8369C80.4919 32.9809 80.1322 33.197 79.7724 33.341ZM82.2187 32.1888L82.1468 31.9728C82.5065 31.8288 82.8663 31.6127 83.226 31.4687L83.298 31.6127C82.9382 31.8288 82.5785 31.9728 82.2187 32.1888ZM15.4497 31.3247C15.3777 31.0367 15.3777 30.7486 15.3777 30.4606C15.3777 30.3886 15.3777 30.2445 15.3777 30.1005H15.5936C15.5936 30.2445 15.5936 30.3886 15.5936 30.4606C15.5936 30.7486 15.5936 31.0367 15.6655 31.2527L15.4497 31.3247ZM84.593 30.9646L84.5211 30.7486C84.8808 30.5326 85.2406 30.3886 85.6003 30.1725L85.6723 30.3886C85.3125 30.5326 84.9528 30.7486 84.593 30.9646ZM86.9674 29.6685L86.8954 29.4524C87.2552 29.2364 87.6149 29.0204 87.9027 28.8763L88.0466 29.0204C87.6869 29.2364 87.3271 29.4524 86.9674 29.6685ZM15.9533 28.6603L15.7375 28.5883C15.8814 28.2282 16.0972 27.8682 16.3131 27.5081L16.457 27.6521C16.2411 28.0122 16.0972 28.3723 15.9533 28.6603ZM89.3417 28.3002L89.1978 28.0842C89.5575 27.8682 89.9173 27.6521 90.277 27.5081L90.349 27.6521C90.0612 27.8682 89.7014 28.0842 89.3417 28.3002ZM91.6441 26.86L91.5002 26.716C91.9319 26.5 92.2197 26.2839 92.5794 26.0679L92.6514 26.2119C92.3636 26.428 92.0038 26.644 91.6441 26.86ZM17.3204 26.428L17.1765 26.2839C17.3923 25.9959 17.6801 25.7079 17.9679 25.4198L18.1838 25.5638C17.896 25.8519 17.6082 26.1399 17.3204 26.428ZM93.9465 25.4198L93.8026 25.2038C94.4501 24.7717 94.8099 24.5557 94.8099 24.5557L94.9538 24.6997C94.9538 24.6997 94.594 24.9877 93.9465 25.4198ZM19.263 24.5557L19.1191 24.4117C19.4069 24.1236 19.7667 23.9076 20.0545 23.6195L20.1984 23.8356C19.8386 24.0516 19.5508 24.3396 19.263 24.5557ZM21.4215 22.9714L21.2776 22.7554C21.6373 22.5394 21.9971 22.3233 22.3568 22.1793L22.4288 22.3233C22.069 22.5394 21.7812 22.7554 21.4215 22.9714ZM23.7239 21.6032L23.6519 21.3872C24.0117 21.2432 24.3714 21.0272 24.7312 20.8831L24.8031 21.0272C24.4434 21.2432 24.0836 21.3872 23.7239 21.6032ZM26.1702 20.3791L26.0982 20.235C26.4579 20.019 26.8177 19.875 27.1774 19.731L27.2494 19.947C26.8896 20.091 26.5299 20.235 26.1702 20.3791Z" fill="#263138"/>
<path d="M96.6086 19.4428L94.8818 24.6276L98.6952 21.4591L113.661 15.5542L96.6086 19.4428Z" fill="#33B368"/>
<path d="M96.6086 19.4428L94.8818 24.6276L98.6952 21.4591L113.661 15.5542L96.6086 19.4428Z" fill="black" fill-opacity="0.101961"/>
<path d="M99.2708 22.6112L94.8818 24.6275L98.6952 21.459L99.2708 22.6112Z" fill="#263138"/>
<path d="M98.6951 21.4591L113.661 15.5542L101.645 28.0121L98.6951 21.4591Z" fill="#33B368"/>
<path d="M96.6086 19.4433L90.2051 15.5547H113.661L96.6086 19.4433Z" fill="#33B368"/>
<path d="M90.6368 82.092C90.4929 81.9479 90.349 81.8039 90.2051 81.6599L90.349 81.5159C90.4929 81.6599 90.6368 81.8039 90.7807 81.9479L90.6368 82.092Z" fill="#263138"/>
<path d="M88.6941 105.856V105.64C89.0539 105.64 89.4856 105.64 89.8453 105.568L89.9173 105.784C89.4856 105.856 89.0539 105.856 88.6941 105.856ZM87.1832 105.856C86.7515 105.856 86.3918 105.784 85.9601 105.712V105.496C86.3918 105.568 86.7515 105.568 87.1832 105.64V105.856ZM91.3563 105.568V105.352C91.716 105.28 92.1477 105.136 92.5075 105.064L92.5794 105.28C92.1477 105.352 91.788 105.496 91.3563 105.568ZM84.4491 105.496C84.0894 105.424 83.6577 105.352 83.2979 105.28V105.064C83.7296 105.136 84.0894 105.208 84.5211 105.28L84.4491 105.496ZM81.8589 104.848C81.4272 104.776 81.0675 104.632 80.7078 104.488L80.7797 104.272C81.1395 104.416 81.4992 104.56 81.8589 104.632V104.848ZM93.9464 104.704L93.8745 104.488C94.2342 104.344 94.594 104.128 94.8818 103.911L95.0257 104.128C94.6659 104.344 94.3062 104.56 93.9464 104.704ZM79.2688 103.983C78.909 103.839 78.4773 103.695 78.1176 103.551L78.2615 103.335C78.6212 103.479 78.981 103.623 79.3407 103.767L79.2688 103.983ZM96.2488 103.191L96.1049 103.047C96.3927 102.759 96.6805 102.471 96.8964 102.183L97.1122 102.327C96.8244 102.615 96.5366 102.903 96.2488 103.191ZM76.7505 102.903C76.3908 102.759 76.031 102.543 75.6713 102.399L75.8152 102.183C76.1749 102.327 76.5347 102.543 76.8944 102.687L76.7505 102.903ZM74.3762 101.679C74.0165 101.463 73.6567 101.247 73.297 101.031L73.4409 100.887C73.8006 101.031 74.0884 101.247 74.4482 101.463L74.3762 101.679ZM97.9037 101.031L97.7598 100.959C97.9037 100.599 98.0476 100.239 98.1915 99.8789L98.4073 99.9509C98.2634 100.311 98.1195 100.671 97.9037 101.031ZM72.0738 100.239C71.7141 100.023 71.3543 99.8069 71.0665 99.5908L71.1385 99.3748C71.4982 99.5908 71.858 99.8789 72.1458 100.095L72.0738 100.239ZM69.8434 98.7267C69.4837 98.4387 69.1959 98.2226 68.8361 98.0066L68.98 97.7906C69.3398 98.0786 69.6276 98.2946 69.9154 98.5107L69.8434 98.7267ZM98.839 98.4387H98.5512C98.6231 98.0786 98.6951 97.6465 98.6951 97.2865H98.9109C98.9109 97.6465 98.839 98.0786 98.839 98.4387ZM67.6849 97.0705C67.3971 96.7824 67.0374 96.4944 66.7496 96.2783L66.8935 96.0623C67.1813 96.3503 67.541 96.6384 67.8288 96.8544L67.6849 97.0705ZM98.6951 95.7743C98.6231 95.4142 98.5512 94.9821 98.4792 94.5501H98.6951C98.767 94.9101 98.839 95.3422 98.9109 95.7743H98.6951ZM65.5984 95.2702C65.3106 94.9821 65.0228 94.7661 64.735 94.4781L64.8789 94.262C65.1667 94.5501 65.4545 94.8381 65.7423 95.1262L65.5984 95.2702ZM63.6558 93.3979C63.368 93.1099 63.0802 92.8938 62.7924 92.6058L62.9363 92.3897C63.2241 92.6778 63.5119 92.9658 63.7997 93.2539L63.6558 93.3979ZM98.1195 93.1099C98.0476 92.7498 97.9037 92.3897 97.7598 92.0297L97.9756 91.9577C98.1195 92.3177 98.2634 92.6778 98.3354 93.0378L98.1195 93.1099ZM61.7131 91.5256C61.4253 91.2376 61.1375 90.9495 60.9217 90.6615L61.0656 90.5175C61.3534 90.8055 61.6412 91.0936 61.929 91.3816L61.7131 91.5256ZM97.1842 90.6615C96.9683 90.3014 96.8244 89.9414 96.6086 89.5813L96.8244 89.4373C96.9683 89.7974 97.1842 90.1574 97.3281 90.5175L97.1842 90.6615ZM59.8424 89.5813C59.5546 89.2933 59.2668 89.0052 59.051 88.7172L59.1949 88.5732C59.4827 88.8612 59.7705 89.1493 59.9863 89.4373L59.8424 89.5813ZM95.8171 88.2851C95.6013 87.9251 95.3854 87.637 95.1696 87.277L95.3854 87.133C95.6013 87.493 95.8171 87.8531 96.033 88.1411L95.8171 88.2851ZM57.9718 87.637L57.1803 86.7009L57.3242 86.5569L58.1157 87.421L57.9718 87.637ZM94.3062 86.0528C94.0184 85.7647 93.8025 85.4767 93.5147 85.1887L93.6586 85.0446C93.9464 85.3327 94.2342 85.6207 94.4501 85.9808L94.3062 86.0528ZM56.1011 85.6207C55.8133 85.3327 55.5255 85.0446 55.3096 84.7566L55.4535 84.6126C55.7413 84.9006 56.0291 85.1887 56.245 85.4767L56.1011 85.6207ZM92.5075 84.0365C92.2916 83.7484 92.0038 83.4604 91.716 83.1724L91.8599 83.0283C92.1477 83.3164 92.4355 83.6044 92.7233 83.8925L92.5075 84.0365ZM54.2304 83.6764C53.9426 83.4604 53.6548 83.1724 53.367 82.8843L53.5109 82.6683C53.7987 82.9563 54.0865 83.2444 54.3743 83.5324L54.2304 83.6764ZM52.2878 81.8042C52 81.5161 51.7122 81.2281 51.4244 80.94L51.5683 80.796C51.8561 81.084 52.2158 81.3721 52.4317 81.6601L52.2878 81.8042ZM50.3451 79.9319C50.0573 79.6438 49.7695 79.4278 49.4817 79.1398L49.6256 78.9957C49.9134 79.2118 50.2012 79.4998 50.489 79.7878L50.3451 79.9319ZM48.3305 78.1316C48.0427 77.9156 47.7549 77.6275 47.3952 77.3395L47.5391 77.1955C47.8988 77.4835 48.1866 77.6995 48.4744 77.9876L48.3305 78.1316ZM46.244 76.4033C45.9562 76.1873 45.6684 75.8993 45.3087 75.6832L45.4526 75.4672C45.8123 75.7552 46.1001 75.9713 46.3879 76.2593L46.244 76.4033ZM44.1575 74.7471C43.7977 74.459 43.5099 74.243 43.2221 74.027L43.2941 73.8109C43.6538 74.099 43.9416 74.315 44.3014 74.5311L44.1575 74.7471ZM41.999 73.1629C41.6392 72.8748 41.3514 72.6588 40.9917 72.4427L41.1356 72.2267C41.4234 72.5148 41.7831 72.7308 42.0709 72.9468L41.999 73.1629ZM39.7686 71.5786C39.4088 71.3626 39.0491 71.1465 38.7613 70.9305L38.8332 70.7865C39.193 71.0025 39.5527 71.2186 39.8405 71.4346L39.7686 71.5786ZM37.4662 70.1384C37.1064 69.9224 36.7467 69.7783 36.4589 69.5623L36.5308 69.3463C36.8906 69.5623 37.2503 69.7783 37.6101 69.9944L37.4662 70.1384ZM35.1638 68.7702C34.8041 68.5542 34.4443 68.4101 34.0846 68.1941L34.2285 67.9781C34.5163 68.1941 34.876 68.4101 35.2358 68.5542L35.1638 68.7702ZM32.7895 67.474C32.4297 67.33 32.07 67.1139 31.7102 66.8979L31.7822 66.7539C32.1419 66.8979 32.5017 67.1139 32.8614 67.258L32.7895 67.474ZM30.3432 66.2498C29.9834 66.1058 29.6237 65.8898 29.264 65.7457L29.4079 65.5297C29.7676 65.6737 30.1273 65.8898 30.4871 66.0338L30.3432 66.2498ZM27.8969 65.0976C27.5372 64.9536 27.1774 64.7376 26.8177 64.5936L26.8896 64.3775C27.3213 64.5936 27.6811 64.7376 28.0408 64.8816L27.8969 65.0976ZM25.4506 64.0175C25.0909 63.8735 24.7311 63.6574 24.3714 63.5134L24.4433 63.2974C24.8031 63.5134 25.1628 63.6574 25.5226 63.8014L25.4506 64.0175Z" fill="#263138"/>
<path d="M22.8605 62.9372C22.7166 62.8652 22.5008 62.7932 22.2849 62.7212L22.4288 62.5051C22.5727 62.5771 22.7886 62.6492 22.9325 62.7212L22.8605 62.9372Z" fill="#263138"/>
<path d="M23.58 59.1928L25.5946 64.5936L21.4216 61.3532L5.52075 55.5923L23.58 59.1928Z" fill="#33B368"/>
<path d="M23.652 59.1928L25.5946 64.5936L21.4935 61.3532L5.59271 55.5923L23.652 59.1928Z" fill="black" fill-opacity="0.101961"/>
<path d="M20.8459 62.6492L25.5946 64.5935L21.4215 61.353L20.8459 62.6492Z" fill="#263138"/>
<path d="M21.4935 61.3532L5.59271 55.5923L18.6156 68.3382L21.4935 61.3532Z" fill="#33B368"/>
<path d="M23.58 59.1927L30.1274 54.9441L5.44879 55.5922L23.58 59.1927Z" fill="#33B368"/>
</g>
<defs>
<clipPath id="clip0">
<rect width="119.056" height="121" fill="white"/>
</clipPath>
</defs>
</svg>
