<svg width="18" height="18" viewBox="0 0 18 18" fill="none" xmlns="http://www.w3.org/2000/svg">
<path d="M3.35527 0.75V2.475H15.5132V0.75H3.35527ZM2.92106 4.2L1.61843 6.7875V8.5125H2.48685V14.55H0.750006V16.275H2.48685H5.96053H8.72862C9.09107 17.2732 10.0481 18 11.1711 18C12.2941 18 13.251 17.2732 13.6135 16.275H16.3816V8.5125H17.25V6.7875L15.9474 4.2H2.92106ZM4.22369 8.5125H14.6447V14.55H13.6135C13.251 13.5518 12.2941 12.825 11.1711 12.825C10.0481 12.825 9.09107 13.5518 8.72862 14.55H5.96053H4.22369V8.5125ZM11.1711 14.55C11.661 14.55 12.0395 14.9259 12.0395 15.4125C12.0395 15.8991 11.661 16.275 11.1711 16.275C10.6812 16.275 10.3026 15.8991 10.3026 15.4125C10.3026 14.9259 10.6812 14.55 11.1711 14.55Z" fill="#33B368"/>
</svg>
