<svg width="16" height="16" viewBox="0 0 16 16" fill="none" xmlns="http://www.w3.org/2000/svg">
<path d="M8 0.80127C5.4548 0.80127 4.4 2.43387 4.4 4.40127C4.4 5.06367 4.71641 5.729 4.71641 5.729C4.58921 5.8022 4.38001 6.03456 4.43281 6.44736C4.53121 7.21716 4.86494 7.41319 5.07734 7.42939C5.15834 8.14759 5.93 9.0663 6.2 9.2001V10.4001C6.19868 10.404 6.1955 10.4067 6.19414 10.4106C5.99572 10.4353 5.8187 10.5524 5.72891 10.7341L5.54141 11.1114C4.06057 11.9417 0.799999 11.7359 0.799999 15.2001H6.98281L7.7 12.8505L7.0168 11.6001H7.98476H8.9832L8.3 12.8505L9.01719 15.2001H15.2C15.2 11.7359 11.9394 11.9417 10.4586 11.1114L10.2711 10.7341C10.1813 10.5524 10.0043 10.4353 9.80586 10.4106C9.8045 10.4067 9.80131 10.404 9.8 10.4001V9.2001C10.07 9.0663 10.8417 8.14759 10.9227 7.42939C11.1351 7.41319 11.4688 7.21716 11.5672 6.44736C11.62 6.03396 11.4108 5.8022 11.2836 5.729C11.2836 5.729 11.6 5.12787 11.6 4.40127C11.6 2.94447 11.0282 1.70127 9.8 1.70127C9.8 1.70127 9.3734 0.80127 8 0.80127Z" fill="#FF9723"/>
</svg>
