<?xml version="1.0" encoding="UTF-8" standalone="no"?>
<svg
   xmlns:dc="http://purl.org/dc/elements/1.1/"
   xmlns:cc="http://creativecommons.org/ns#"
   xmlns:rdf="http://www.w3.org/1999/02/22-rdf-syntax-ns#"
   xmlns:svg="http://www.w3.org/2000/svg"
   xmlns="http://www.w3.org/2000/svg"
   xmlns:sodipodi="http://sodipodi.sourceforge.net/DTD/sodipodi-0.dtd"
   xmlns:inkscape="http://www.inkscape.org/namespaces/inkscape"
   inkscape:version="1.0 (4035a4fb49, 2020-05-01)"
   sodipodi:docname="ikon-trader-white.svg"
   id="svg11"
   version="1.1"
   fill="none"
   viewBox="0 0 512 512"
   height="512"
   width="512">
  <metadata
     id="metadata15">
    <rdf:RDF>
      <cc:Work
         rdf:about="">
        <dc:format>image/svg+xml</dc:format>
        <dc:type
           rdf:resource="http://purl.org/dc/dcmitype/StillImage" />
        <dc:title></dc:title>
      </cc:Work>
    </rdf:RDF>
  </metadata>
  <sodipodi:namedview
     inkscape:current-layer="svg11"
     inkscape:window-maximized="1"
     inkscape:window-y="-8"
     inkscape:window-x="-8"
     inkscape:cy="239.43265"
     inkscape:cx="221.1872"
     inkscape:zoom="0.63323422"
     showgrid="false"
     id="namedview13"
     inkscape:window-height="705"
     inkscape:window-width="1366"
     inkscape:pageshadow="2"
     inkscape:pageopacity="0"
     guidetolerance="10"
     gridtolerance="10"
     objecttolerance="10"
     borderopacity="1"
     bordercolor="#666666"
     pagecolor="#ffffff" />
  <g
     inkscape:export-ydpi="200"
     inkscape:export-xdpi="200"
     style="fill:#ffffff"
     transform="scale(28.460438)"
     id="g4"
     clip-path="url(#clip0)">
    <path
       style="fill:#ffffff"
       id="path2"
       fill="#00c9dd"
       d="M 14.4362,11.88 H 3.56305 L 4.6079,2.52 h 1.87172 v 1.18828 c -0.21657,0.10828 -0.36,0.36 -0.36,0.61172 0,0.39656 0.32343,0.72 0.72,0.72 0.39656,0 0.72,-0.32344 0.72,-0.72 0,-0.25172 -0.14344,-0.50344 -0.36,-0.61172 V 2.52 h -0.72 c 0,-1.40344 1.11656,-2.52 2.52,-2.52 1.40348,0 2.51998,1.11656 2.51998,2.52 h -0.72 c 0,-1.00828 -0.7917,-1.8 -1.79998,-1.8 -1.00829,0 -1.8,0.79172 -1.8,1.8 h 3.59998 v 1.18828 c -0.2165,0.10828 -0.36,0.36 -0.36,0.61172 0,0.39656 0.3235,0.72 0.72,0.72 0.3966,0 0.72,-0.32344 0.72,-0.72 0,-0.25172 -0.1434,-0.50344 -0.36,-0.61172 V 2.52 h 1.8717 z M 17.987,11.0658 C 17.9827,11.0489 17.9771,11.032 17.9701,11.0166 17.9363,10.9392 17.8759,10.8731 17.7957,10.8352 17.7929,10.8338 17.7901,10.8323 17.7873,10.8323 L 15.2687,9.68062 C 15.0873,9.59766 14.8749,9.67781 14.792,9.85781 14.7104,10.0392 14.7891,10.253 14.9706,10.3345 L 16.8591,11.198 8.99962,15.7838 1.14009,11.198 3.02868,10.3359 C 3.21009,10.253 3.29024,10.0392 3.20727,9.85781 3.1243,9.67781 2.91055,9.59766 2.73055,9.68062 L 0.210555,10.8323 c -0.001407,0.0015 -0.004219,0.0015 -0.005625,0.0029 -0.081563,0.0379 -0.1420317,0.104 -0.1757816,0.1814 -0.0070312,0.0154 -0.0126562,0.0323 -0.016875,0.0492 v 0.0014 c -0.00843747,0.0323 -0.01406248,0.0661 -0.012656234,0.1012 V 12.6 c 0,0.128 0.067500034,0.2461 0.178593834,0.3108 l 8.639999,5.04 C 8.87446,17.9831 8.93633,18 8.99962,18 9.0629,18 9.12477,17.9831 9.18102,17.9508 l 8.63998,-5.04 C 17.9321,12.8461 17.9996,12.728 17.9996,12.6 V 11.1684 C 18.001,11.1333 17.9954,11.0995 17.987,11.0658 Z" />
  </g>
  <defs
     id="defs9">
    <clipPath
       id="clip0">
      <rect
         y="0"
         x="0"
         id="rect6"
         fill="#ffffff"
         height="18"
         width="18" />
    </clipPath>
  </defs>
</svg>
